<?xml version="1.0" encoding="utf-8" standalone="no"?>
<!DOCTYPE svg PUBLIC "-//W3C//DTD SVG 1.1//EN"
  "http://www.w3.org/Graphics/SVG/1.1/DTD/svg11.dtd">
<!-- Created with matplotlib (https://matplotlib.org/) -->
<svg height="280.6571pt" version="1.1" viewBox="0 0 423.750625 280.6571" width="423.750625pt" xmlns="http://www.w3.org/2000/svg" xmlns:xlink="http://www.w3.org/1999/xlink">
 <metadata>
  <rdf:RDF xmlns:cc="http://creativecommons.org/ns#" xmlns:dc="http://purl.org/dc/elements/1.1/" xmlns:rdf="http://www.w3.org/1999/02/22-rdf-syntax-ns#">
   <cc:Work>
    <dc:type rdf:resource="http://purl.org/dc/dcmitype/StillImage"/>
    <dc:date>2021-01-29T15:01:31.020809</dc:date>
    <dc:format>image/svg+xml</dc:format>
    <dc:creator>
     <cc:Agent>
      <dc:title>Matplotlib v3.3.4, https://matplotlib.org/</dc:title>
     </cc:Agent>
    </dc:creator>
   </cc:Work>
  </rdf:RDF>
 </metadata>
 <defs>
  <style type="text/css">*{stroke-linecap:butt;stroke-linejoin:round;}</style>
 </defs>
 <g id="figure_1">
  <g id="patch_1">
   <path d="M 0 280.6571 
L 423.750625 280.6571 
L 423.750625 0 
L 0 0 
z
" style="fill:#ffffff;"/>
  </g>
  <g id="axes_1">
   <g id="patch_2">
    <path d="M 78.771875 236.294692 
L 360.881875 236.294692 
L 360.881875 10.999219 
L 78.771875 10.999219 
z
" style="fill:#ffffff;"/>
   </g>
   <g id="matplotlib.axis_1">
    <g id="xtick_1">
     <g id="line2d_1">
      <path clip-path="url(#p165eade139)" d="M 98.489241 236.294692 
L 98.489241 10.999219 
" style="fill:none;stroke:#b0b0b0;stroke-linecap:square;stroke-width:0.8;"/>
     </g>
     <g id="line2d_2">
      <defs>
       <path d="M 0 0 
L 0 3.5 
" id="m69461c8409" style="stroke:#000000;stroke-width:0.8;"/>
      </defs>
      <g>
       <use style="stroke:#000000;stroke-width:0.8;" x="98.489241" xlink:href="#m69461c8409" y="236.294692"/>
      </g>
     </g>
     <g id="text_1">
      <!-- Feb 20 -->
      <g transform="translate(98.328938 270.826813)rotate(-80)scale(0.08 -0.08)">
       <defs>
        <path d="M 9.8125 72.90625 
L 51.703125 72.90625 
L 51.703125 64.59375 
L 19.671875 64.59375 
L 19.671875 43.109375 
L 48.578125 43.109375 
L 48.578125 34.8125 
L 19.671875 34.8125 
L 19.671875 0 
L 9.8125 0 
z
" id="DejaVuSans-70"/>
        <path d="M 56.203125 29.59375 
L 56.203125 25.203125 
L 14.890625 25.203125 
Q 15.484375 15.921875 20.484375 11.0625 
Q 25.484375 6.203125 34.421875 6.203125 
Q 39.59375 6.203125 44.453125 7.46875 
Q 49.3125 8.734375 54.109375 11.28125 
L 54.109375 2.78125 
Q 49.265625 0.734375 44.1875 -0.34375 
Q 39.109375 -1.421875 33.890625 -1.421875 
Q 20.796875 -1.421875 13.15625 6.1875 
Q 5.515625 13.8125 5.515625 26.8125 
Q 5.515625 40.234375 12.765625 48.109375 
Q 20.015625 56 32.328125 56 
Q 43.359375 56 49.78125 48.890625 
Q 56.203125 41.796875 56.203125 29.59375 
z
M 47.21875 32.234375 
Q 47.125 39.59375 43.09375 43.984375 
Q 39.0625 48.390625 32.421875 48.390625 
Q 24.90625 48.390625 20.390625 44.140625 
Q 15.875 39.890625 15.1875 32.171875 
z
" id="DejaVuSans-101"/>
        <path d="M 48.6875 27.296875 
Q 48.6875 37.203125 44.609375 42.84375 
Q 40.53125 48.484375 33.40625 48.484375 
Q 26.265625 48.484375 22.1875 42.84375 
Q 18.109375 37.203125 18.109375 27.296875 
Q 18.109375 17.390625 22.1875 11.75 
Q 26.265625 6.109375 33.40625 6.109375 
Q 40.53125 6.109375 44.609375 11.75 
Q 48.6875 17.390625 48.6875 27.296875 
z
M 18.109375 46.390625 
Q 20.953125 51.265625 25.265625 53.625 
Q 29.59375 56 35.59375 56 
Q 45.5625 56 51.78125 48.09375 
Q 58.015625 40.1875 58.015625 27.296875 
Q 58.015625 14.40625 51.78125 6.484375 
Q 45.5625 -1.421875 35.59375 -1.421875 
Q 29.59375 -1.421875 25.265625 0.953125 
Q 20.953125 3.328125 18.109375 8.203125 
L 18.109375 0 
L 9.078125 0 
L 9.078125 75.984375 
L 18.109375 75.984375 
z
" id="DejaVuSans-98"/>
        <path id="DejaVuSans-32"/>
        <path d="M 19.1875 8.296875 
L 53.609375 8.296875 
L 53.609375 0 
L 7.328125 0 
L 7.328125 8.296875 
Q 12.9375 14.109375 22.625 23.890625 
Q 32.328125 33.6875 34.8125 36.53125 
Q 39.546875 41.84375 41.421875 45.53125 
Q 43.3125 49.21875 43.3125 52.78125 
Q 43.3125 58.59375 39.234375 62.25 
Q 35.15625 65.921875 28.609375 65.921875 
Q 23.96875 65.921875 18.8125 64.3125 
Q 13.671875 62.703125 7.8125 59.421875 
L 7.8125 69.390625 
Q 13.765625 71.78125 18.9375 73 
Q 24.125 74.21875 28.421875 74.21875 
Q 39.75 74.21875 46.484375 68.546875 
Q 53.21875 62.890625 53.21875 53.421875 
Q 53.21875 48.921875 51.53125 44.890625 
Q 49.859375 40.875 45.40625 35.40625 
Q 44.1875 33.984375 37.640625 27.21875 
Q 31.109375 20.453125 19.1875 8.296875 
z
" id="DejaVuSans-50"/>
        <path d="M 31.78125 66.40625 
Q 24.171875 66.40625 20.328125 58.90625 
Q 16.5 51.421875 16.5 36.375 
Q 16.5 21.390625 20.328125 13.890625 
Q 24.171875 6.390625 31.78125 6.390625 
Q 39.453125 6.390625 43.28125 13.890625 
Q 47.125 21.390625 47.125 36.375 
Q 47.125 51.421875 43.28125 58.90625 
Q 39.453125 66.40625 31.78125 66.40625 
z
M 31.78125 74.21875 
Q 44.046875 74.21875 50.515625 64.515625 
Q 56.984375 54.828125 56.984375 36.375 
Q 56.984375 17.96875 50.515625 8.265625 
Q 44.046875 -1.421875 31.78125 -1.421875 
Q 19.53125 -1.421875 13.0625 8.265625 
Q 6.59375 17.96875 6.59375 36.375 
Q 6.59375 54.828125 13.0625 64.515625 
Q 19.53125 74.21875 31.78125 74.21875 
z
" id="DejaVuSans-48"/>
       </defs>
       <use xlink:href="#DejaVuSans-70"/>
       <use x="52.019531" xlink:href="#DejaVuSans-101"/>
       <use x="113.542969" xlink:href="#DejaVuSans-98"/>
       <use x="177.019531" xlink:href="#DejaVuSans-32"/>
       <use x="208.806641" xlink:href="#DejaVuSans-50"/>
       <use x="272.429688" xlink:href="#DejaVuSans-48"/>
      </g>
     </g>
    </g>
    <g id="xtick_2">
     <g id="line2d_3">
      <path clip-path="url(#p165eade139)" d="M 118.482374 236.294692 
L 118.482374 10.999219 
" style="fill:none;stroke:#b0b0b0;stroke-linecap:square;stroke-width:0.8;"/>
     </g>
     <g id="line2d_4">
      <g>
       <use style="stroke:#000000;stroke-width:0.8;" x="118.482374" xlink:href="#m69461c8409" y="236.294692"/>
      </g>
     </g>
     <g id="text_2">
      <!-- Mar 20 -->
      <g transform="translate(118.241216 271.743915)rotate(-80)scale(0.08 -0.08)">
       <defs>
        <path d="M 9.8125 72.90625 
L 24.515625 72.90625 
L 43.109375 23.296875 
L 61.8125 72.90625 
L 76.515625 72.90625 
L 76.515625 0 
L 66.890625 0 
L 66.890625 64.015625 
L 48.09375 14.015625 
L 38.1875 14.015625 
L 19.390625 64.015625 
L 19.390625 0 
L 9.8125 0 
z
" id="DejaVuSans-77"/>
        <path d="M 34.28125 27.484375 
Q 23.390625 27.484375 19.1875 25 
Q 14.984375 22.515625 14.984375 16.5 
Q 14.984375 11.71875 18.140625 8.90625 
Q 21.296875 6.109375 26.703125 6.109375 
Q 34.1875 6.109375 38.703125 11.40625 
Q 43.21875 16.703125 43.21875 25.484375 
L 43.21875 27.484375 
z
M 52.203125 31.203125 
L 52.203125 0 
L 43.21875 0 
L 43.21875 8.296875 
Q 40.140625 3.328125 35.546875 0.953125 
Q 30.953125 -1.421875 24.3125 -1.421875 
Q 15.921875 -1.421875 10.953125 3.296875 
Q 6 8.015625 6 15.921875 
Q 6 25.140625 12.171875 29.828125 
Q 18.359375 34.515625 30.609375 34.515625 
L 43.21875 34.515625 
L 43.21875 35.40625 
Q 43.21875 41.609375 39.140625 45 
Q 35.0625 48.390625 27.6875 48.390625 
Q 23 48.390625 18.546875 47.265625 
Q 14.109375 46.140625 10.015625 43.890625 
L 10.015625 52.203125 
Q 14.9375 54.109375 19.578125 55.046875 
Q 24.21875 56 28.609375 56 
Q 40.484375 56 46.34375 49.84375 
Q 52.203125 43.703125 52.203125 31.203125 
z
" id="DejaVuSans-97"/>
        <path d="M 41.109375 46.296875 
Q 39.59375 47.171875 37.8125 47.578125 
Q 36.03125 48 33.890625 48 
Q 26.265625 48 22.1875 43.046875 
Q 18.109375 38.09375 18.109375 28.8125 
L 18.109375 0 
L 9.078125 0 
L 9.078125 54.6875 
L 18.109375 54.6875 
L 18.109375 46.1875 
Q 20.953125 51.171875 25.484375 53.578125 
Q 30.03125 56 36.53125 56 
Q 37.453125 56 38.578125 55.875 
Q 39.703125 55.765625 41.0625 55.515625 
z
" id="DejaVuSans-114"/>
       </defs>
       <use xlink:href="#DejaVuSans-77"/>
       <use x="86.279297" xlink:href="#DejaVuSans-97"/>
       <use x="147.558594" xlink:href="#DejaVuSans-114"/>
       <use x="188.671875" xlink:href="#DejaVuSans-32"/>
       <use x="220.458984" xlink:href="#DejaVuSans-50"/>
       <use x="284.082031" xlink:href="#DejaVuSans-48"/>
      </g>
     </g>
    </g>
    <g id="xtick_3">
     <g id="line2d_5">
      <path clip-path="url(#p165eade139)" d="M 139.854343 236.294692 
L 139.854343 10.999219 
" style="fill:none;stroke:#b0b0b0;stroke-linecap:square;stroke-width:0.8;"/>
     </g>
     <g id="line2d_6">
      <g>
       <use style="stroke:#000000;stroke-width:0.8;" x="139.854343" xlink:href="#m69461c8409" y="236.294692"/>
      </g>
     </g>
     <g id="text_3">
      <!-- Apr 20 -->
      <g transform="translate(139.722041 270.509212)rotate(-80)scale(0.08 -0.08)">
       <defs>
        <path d="M 34.1875 63.1875 
L 20.796875 26.90625 
L 47.609375 26.90625 
z
M 28.609375 72.90625 
L 39.796875 72.90625 
L 67.578125 0 
L 57.328125 0 
L 50.6875 18.703125 
L 17.828125 18.703125 
L 11.1875 0 
L 0.78125 0 
z
" id="DejaVuSans-65"/>
        <path d="M 18.109375 8.203125 
L 18.109375 -20.796875 
L 9.078125 -20.796875 
L 9.078125 54.6875 
L 18.109375 54.6875 
L 18.109375 46.390625 
Q 20.953125 51.265625 25.265625 53.625 
Q 29.59375 56 35.59375 56 
Q 45.5625 56 51.78125 48.09375 
Q 58.015625 40.1875 58.015625 27.296875 
Q 58.015625 14.40625 51.78125 6.484375 
Q 45.5625 -1.421875 35.59375 -1.421875 
Q 29.59375 -1.421875 25.265625 0.953125 
Q 20.953125 3.328125 18.109375 8.203125 
z
M 48.6875 27.296875 
Q 48.6875 37.203125 44.609375 42.84375 
Q 40.53125 48.484375 33.40625 48.484375 
Q 26.265625 48.484375 22.1875 42.84375 
Q 18.109375 37.203125 18.109375 27.296875 
Q 18.109375 17.390625 22.1875 11.75 
Q 26.265625 6.109375 33.40625 6.109375 
Q 40.53125 6.109375 44.609375 11.75 
Q 48.6875 17.390625 48.6875 27.296875 
z
" id="DejaVuSans-112"/>
       </defs>
       <use xlink:href="#DejaVuSans-65"/>
       <use x="68.408203" xlink:href="#DejaVuSans-112"/>
       <use x="131.884766" xlink:href="#DejaVuSans-114"/>
       <use x="172.998047" xlink:href="#DejaVuSans-32"/>
       <use x="204.785156" xlink:href="#DejaVuSans-50"/>
       <use x="268.408203" xlink:href="#DejaVuSans-48"/>
      </g>
     </g>
    </g>
    <g id="xtick_4">
     <g id="line2d_7">
      <path clip-path="url(#p165eade139)" d="M 160.536895 236.294692 
L 160.536895 10.999219 
" style="fill:none;stroke:#b0b0b0;stroke-linecap:square;stroke-width:0.8;"/>
     </g>
     <g id="line2d_8">
      <g>
       <use style="stroke:#000000;stroke-width:0.8;" x="160.536895" xlink:href="#m69461c8409" y="236.294692"/>
      </g>
     </g>
     <g id="text_4">
      <!-- May 20 -->
      <g transform="translate(160.170168 273.168193)rotate(-80)scale(0.08 -0.08)">
       <defs>
        <path d="M 32.171875 -5.078125 
Q 28.375 -14.84375 24.75 -17.8125 
Q 21.140625 -20.796875 15.09375 -20.796875 
L 7.90625 -20.796875 
L 7.90625 -13.28125 
L 13.1875 -13.28125 
Q 16.890625 -13.28125 18.9375 -11.515625 
Q 21 -9.765625 23.484375 -3.21875 
L 25.09375 0.875 
L 2.984375 54.6875 
L 12.5 54.6875 
L 29.59375 11.921875 
L 46.6875 54.6875 
L 56.203125 54.6875 
z
" id="DejaVuSans-121"/>
       </defs>
       <use xlink:href="#DejaVuSans-77"/>
       <use x="86.279297" xlink:href="#DejaVuSans-97"/>
       <use x="147.558594" xlink:href="#DejaVuSans-121"/>
       <use x="206.738281" xlink:href="#DejaVuSans-32"/>
       <use x="238.525391" xlink:href="#DejaVuSans-50"/>
       <use x="302.148438" xlink:href="#DejaVuSans-48"/>
      </g>
     </g>
    </g>
    <g id="xtick_5">
     <g id="line2d_9">
      <path clip-path="url(#p165eade139)" d="M 181.908864 236.294692 
L 181.908864 10.999219 
" style="fill:none;stroke:#b0b0b0;stroke-linecap:square;stroke-width:0.8;"/>
     </g>
     <g id="line2d_10">
      <g>
       <use style="stroke:#000000;stroke-width:0.8;" x="181.908864" xlink:href="#m69461c8409" y="236.294692"/>
      </g>
     </g>
     <g id="text_5">
      <!-- Jun 20 -->
      <g transform="translate(181.892907 269.18957)rotate(-80)scale(0.08 -0.08)">
       <defs>
        <path d="M 9.8125 72.90625 
L 19.671875 72.90625 
L 19.671875 5.078125 
Q 19.671875 -8.109375 14.671875 -14.0625 
Q 9.671875 -20.015625 -1.421875 -20.015625 
L -5.171875 -20.015625 
L -5.171875 -11.71875 
L -2.09375 -11.71875 
Q 4.4375 -11.71875 7.125 -8.046875 
Q 9.8125 -4.390625 9.8125 5.078125 
z
" id="DejaVuSans-74"/>
        <path d="M 8.5 21.578125 
L 8.5 54.6875 
L 17.484375 54.6875 
L 17.484375 21.921875 
Q 17.484375 14.15625 20.5 10.265625 
Q 23.53125 6.390625 29.59375 6.390625 
Q 36.859375 6.390625 41.078125 11.03125 
Q 45.3125 15.671875 45.3125 23.6875 
L 45.3125 54.6875 
L 54.296875 54.6875 
L 54.296875 0 
L 45.3125 0 
L 45.3125 8.40625 
Q 42.046875 3.421875 37.71875 1 
Q 33.40625 -1.421875 27.6875 -1.421875 
Q 18.265625 -1.421875 13.375 4.4375 
Q 8.5 10.296875 8.5 21.578125 
z
M 31.109375 56 
z
" id="DejaVuSans-117"/>
        <path d="M 54.890625 33.015625 
L 54.890625 0 
L 45.90625 0 
L 45.90625 32.71875 
Q 45.90625 40.484375 42.875 44.328125 
Q 39.84375 48.1875 33.796875 48.1875 
Q 26.515625 48.1875 22.3125 43.546875 
Q 18.109375 38.921875 18.109375 30.90625 
L 18.109375 0 
L 9.078125 0 
L 9.078125 54.6875 
L 18.109375 54.6875 
L 18.109375 46.1875 
Q 21.34375 51.125 25.703125 53.5625 
Q 30.078125 56 35.796875 56 
Q 45.21875 56 50.046875 50.171875 
Q 54.890625 44.34375 54.890625 33.015625 
z
" id="DejaVuSans-110"/>
       </defs>
       <use xlink:href="#DejaVuSans-74"/>
       <use x="29.492188" xlink:href="#DejaVuSans-117"/>
       <use x="92.871094" xlink:href="#DejaVuSans-110"/>
       <use x="156.25" xlink:href="#DejaVuSans-32"/>
       <use x="188.037109" xlink:href="#DejaVuSans-50"/>
       <use x="251.660156" xlink:href="#DejaVuSans-48"/>
      </g>
     </g>
    </g>
    <g id="xtick_6">
     <g id="line2d_11">
      <path clip-path="url(#p165eade139)" d="M 202.591416 236.294692 
L 202.591416 10.999219 
" style="fill:none;stroke:#b0b0b0;stroke-linecap:square;stroke-width:0.8;"/>
     </g>
     <g id="line2d_12">
      <g>
       <use style="stroke:#000000;stroke-width:0.8;" x="202.591416" xlink:href="#m69461c8409" y="236.294692"/>
      </g>
     </g>
     <g id="text_6">
      <!-- Jul 20 -->
      <g transform="translate(202.82269 266.38533)rotate(-80)scale(0.08 -0.08)">
       <defs>
        <path d="M 9.421875 75.984375 
L 18.40625 75.984375 
L 18.40625 0 
L 9.421875 0 
z
" id="DejaVuSans-108"/>
       </defs>
       <use xlink:href="#DejaVuSans-74"/>
       <use x="29.492188" xlink:href="#DejaVuSans-117"/>
       <use x="92.871094" xlink:href="#DejaVuSans-108"/>
       <use x="120.654297" xlink:href="#DejaVuSans-32"/>
       <use x="152.441406" xlink:href="#DejaVuSans-50"/>
       <use x="216.064453" xlink:href="#DejaVuSans-48"/>
      </g>
     </g>
    </g>
    <g id="xtick_7">
     <g id="line2d_13">
      <path clip-path="url(#p165eade139)" d="M 223.963385 236.294692 
L 223.963385 10.999219 
" style="fill:none;stroke:#b0b0b0;stroke-linecap:square;stroke-width:0.8;"/>
     </g>
     <g id="line2d_14">
      <g>
       <use style="stroke:#000000;stroke-width:0.8;" x="223.963385" xlink:href="#m69461c8409" y="236.294692"/>
      </g>
     </g>
     <g id="text_7">
      <!-- Aug 20 -->
      <g transform="translate(223.676428 272.263401)rotate(-80)scale(0.08 -0.08)">
       <defs>
        <path d="M 45.40625 27.984375 
Q 45.40625 37.75 41.375 43.109375 
Q 37.359375 48.484375 30.078125 48.484375 
Q 22.859375 48.484375 18.828125 43.109375 
Q 14.796875 37.75 14.796875 27.984375 
Q 14.796875 18.265625 18.828125 12.890625 
Q 22.859375 7.515625 30.078125 7.515625 
Q 37.359375 7.515625 41.375 12.890625 
Q 45.40625 18.265625 45.40625 27.984375 
z
M 54.390625 6.78125 
Q 54.390625 -7.171875 48.1875 -13.984375 
Q 42 -20.796875 29.203125 -20.796875 
Q 24.46875 -20.796875 20.265625 -20.09375 
Q 16.0625 -19.390625 12.109375 -17.921875 
L 12.109375 -9.1875 
Q 16.0625 -11.328125 19.921875 -12.34375 
Q 23.78125 -13.375 27.78125 -13.375 
Q 36.625 -13.375 41.015625 -8.765625 
Q 45.40625 -4.15625 45.40625 5.171875 
L 45.40625 9.625 
Q 42.625 4.78125 38.28125 2.390625 
Q 33.9375 0 27.875 0 
Q 17.828125 0 11.671875 7.65625 
Q 5.515625 15.328125 5.515625 27.984375 
Q 5.515625 40.671875 11.671875 48.328125 
Q 17.828125 56 27.875 56 
Q 33.9375 56 38.28125 53.609375 
Q 42.625 51.21875 45.40625 46.390625 
L 45.40625 54.6875 
L 54.390625 54.6875 
z
" id="DejaVuSans-103"/>
       </defs>
       <use xlink:href="#DejaVuSans-65"/>
       <use x="68.408203" xlink:href="#DejaVuSans-117"/>
       <use x="131.787109" xlink:href="#DejaVuSans-103"/>
       <use x="195.263672" xlink:href="#DejaVuSans-32"/>
       <use x="227.050781" xlink:href="#DejaVuSans-50"/>
       <use x="290.673828" xlink:href="#DejaVuSans-48"/>
      </g>
     </g>
    </g>
    <g id="xtick_8">
     <g id="line2d_15">
      <path clip-path="url(#p165eade139)" d="M 245.335355 236.294692 
L 245.335355 10.999219 
" style="fill:none;stroke:#b0b0b0;stroke-linecap:square;stroke-width:0.8;"/>
     </g>
     <g id="line2d_16">
      <g>
       <use style="stroke:#000000;stroke-width:0.8;" x="245.335355" xlink:href="#m69461c8409" y="236.294692"/>
      </g>
     </g>
     <g id="text_8">
      <!-- Sep 20 -->
      <g transform="translate(245.095391 271.730374)rotate(-80)scale(0.08 -0.08)">
       <defs>
        <path d="M 53.515625 70.515625 
L 53.515625 60.890625 
Q 47.90625 63.578125 42.921875 64.890625 
Q 37.9375 66.21875 33.296875 66.21875 
Q 25.25 66.21875 20.875 63.09375 
Q 16.5 59.96875 16.5 54.203125 
Q 16.5 49.359375 19.40625 46.890625 
Q 22.3125 44.4375 30.421875 42.921875 
L 36.375 41.703125 
Q 47.40625 39.59375 52.65625 34.296875 
Q 57.90625 29 57.90625 20.125 
Q 57.90625 9.515625 50.796875 4.046875 
Q 43.703125 -1.421875 29.984375 -1.421875 
Q 24.8125 -1.421875 18.96875 -0.25 
Q 13.140625 0.921875 6.890625 3.21875 
L 6.890625 13.375 
Q 12.890625 10.015625 18.65625 8.296875 
Q 24.421875 6.59375 29.984375 6.59375 
Q 38.421875 6.59375 43.015625 9.90625 
Q 47.609375 13.234375 47.609375 19.390625 
Q 47.609375 24.75 44.3125 27.78125 
Q 41.015625 30.8125 33.5 32.328125 
L 27.484375 33.5 
Q 16.453125 35.6875 11.515625 40.375 
Q 6.59375 45.0625 6.59375 53.421875 
Q 6.59375 63.09375 13.40625 68.65625 
Q 20.21875 74.21875 32.171875 74.21875 
Q 37.3125 74.21875 42.625 73.28125 
Q 47.953125 72.359375 53.515625 70.515625 
z
" id="DejaVuSans-83"/>
       </defs>
       <use xlink:href="#DejaVuSans-83"/>
       <use x="63.476562" xlink:href="#DejaVuSans-101"/>
       <use x="125" xlink:href="#DejaVuSans-112"/>
       <use x="188.476562" xlink:href="#DejaVuSans-32"/>
       <use x="220.263672" xlink:href="#DejaVuSans-50"/>
       <use x="283.886719" xlink:href="#DejaVuSans-48"/>
      </g>
     </g>
    </g>
    <g id="xtick_9">
     <g id="line2d_17">
      <path clip-path="url(#p165eade139)" d="M 266.017906 236.294692 
L 266.017906 10.999219 
" style="fill:none;stroke:#b0b0b0;stroke-linecap:square;stroke-width:0.8;"/>
     </g>
     <g id="line2d_18">
      <g>
       <use style="stroke:#000000;stroke-width:0.8;" x="266.017906" xlink:href="#m69461c8409" y="236.294692"/>
      </g>
     </g>
     <g id="text_9">
      <!-- Oct 20 -->
      <g transform="translate(265.886256 270.501826)rotate(-80)scale(0.08 -0.08)">
       <defs>
        <path d="M 39.40625 66.21875 
Q 28.65625 66.21875 22.328125 58.203125 
Q 16.015625 50.203125 16.015625 36.375 
Q 16.015625 22.609375 22.328125 14.59375 
Q 28.65625 6.59375 39.40625 6.59375 
Q 50.140625 6.59375 56.421875 14.59375 
Q 62.703125 22.609375 62.703125 36.375 
Q 62.703125 50.203125 56.421875 58.203125 
Q 50.140625 66.21875 39.40625 66.21875 
z
M 39.40625 74.21875 
Q 54.734375 74.21875 63.90625 63.9375 
Q 73.09375 53.65625 73.09375 36.375 
Q 73.09375 19.140625 63.90625 8.859375 
Q 54.734375 -1.421875 39.40625 -1.421875 
Q 24.03125 -1.421875 14.8125 8.828125 
Q 5.609375 19.09375 5.609375 36.375 
Q 5.609375 53.65625 14.8125 63.9375 
Q 24.03125 74.21875 39.40625 74.21875 
z
" id="DejaVuSans-79"/>
        <path d="M 48.78125 52.59375 
L 48.78125 44.1875 
Q 44.96875 46.296875 41.140625 47.34375 
Q 37.3125 48.390625 33.40625 48.390625 
Q 24.65625 48.390625 19.8125 42.84375 
Q 14.984375 37.3125 14.984375 27.296875 
Q 14.984375 17.28125 19.8125 11.734375 
Q 24.65625 6.203125 33.40625 6.203125 
Q 37.3125 6.203125 41.140625 7.25 
Q 44.96875 8.296875 48.78125 10.40625 
L 48.78125 2.09375 
Q 45.015625 0.34375 40.984375 -0.53125 
Q 36.96875 -1.421875 32.421875 -1.421875 
Q 20.0625 -1.421875 12.78125 6.34375 
Q 5.515625 14.109375 5.515625 27.296875 
Q 5.515625 40.671875 12.859375 48.328125 
Q 20.21875 56 33.015625 56 
Q 37.15625 56 41.109375 55.140625 
Q 45.0625 54.296875 48.78125 52.59375 
z
" id="DejaVuSans-99"/>
        <path d="M 18.3125 70.21875 
L 18.3125 54.6875 
L 36.8125 54.6875 
L 36.8125 47.703125 
L 18.3125 47.703125 
L 18.3125 18.015625 
Q 18.3125 11.328125 20.140625 9.421875 
Q 21.96875 7.515625 27.59375 7.515625 
L 36.8125 7.515625 
L 36.8125 0 
L 27.59375 0 
Q 17.1875 0 13.234375 3.875 
Q 9.28125 7.765625 9.28125 18.015625 
L 9.28125 47.703125 
L 2.6875 47.703125 
L 2.6875 54.6875 
L 9.28125 54.6875 
L 9.28125 70.21875 
z
" id="DejaVuSans-116"/>
       </defs>
       <use xlink:href="#DejaVuSans-79"/>
       <use x="78.710938" xlink:href="#DejaVuSans-99"/>
       <use x="133.691406" xlink:href="#DejaVuSans-116"/>
       <use x="172.900391" xlink:href="#DejaVuSans-32"/>
       <use x="204.6875" xlink:href="#DejaVuSans-50"/>
       <use x="268.310547" xlink:href="#DejaVuSans-48"/>
      </g>
     </g>
    </g>
    <g id="xtick_10">
     <g id="line2d_19">
      <path clip-path="url(#p165eade139)" d="M 287.389876 236.294692 
L 287.389876 10.999219 
" style="fill:none;stroke:#b0b0b0;stroke-linecap:square;stroke-width:0.8;"/>
     </g>
     <g id="line2d_20">
      <g>
       <use style="stroke:#000000;stroke-width:0.8;" x="287.389876" xlink:href="#m69461c8409" y="236.294692"/>
      </g>
     </g>
     <g id="text_10">
      <!-- Nov 20 -->
      <g transform="translate(287.103461 272.257246)rotate(-80)scale(0.08 -0.08)">
       <defs>
        <path d="M 9.8125 72.90625 
L 23.09375 72.90625 
L 55.421875 11.921875 
L 55.421875 72.90625 
L 64.984375 72.90625 
L 64.984375 0 
L 51.703125 0 
L 19.390625 60.984375 
L 19.390625 0 
L 9.8125 0 
z
" id="DejaVuSans-78"/>
        <path d="M 30.609375 48.390625 
Q 23.390625 48.390625 19.1875 42.75 
Q 14.984375 37.109375 14.984375 27.296875 
Q 14.984375 17.484375 19.15625 11.84375 
Q 23.34375 6.203125 30.609375 6.203125 
Q 37.796875 6.203125 41.984375 11.859375 
Q 46.1875 17.53125 46.1875 27.296875 
Q 46.1875 37.015625 41.984375 42.703125 
Q 37.796875 48.390625 30.609375 48.390625 
z
M 30.609375 56 
Q 42.328125 56 49.015625 48.375 
Q 55.71875 40.765625 55.71875 27.296875 
Q 55.71875 13.875 49.015625 6.21875 
Q 42.328125 -1.421875 30.609375 -1.421875 
Q 18.84375 -1.421875 12.171875 6.21875 
Q 5.515625 13.875 5.515625 27.296875 
Q 5.515625 40.765625 12.171875 48.375 
Q 18.84375 56 30.609375 56 
z
" id="DejaVuSans-111"/>
        <path d="M 2.984375 54.6875 
L 12.5 54.6875 
L 29.59375 8.796875 
L 46.6875 54.6875 
L 56.203125 54.6875 
L 35.6875 0 
L 23.484375 0 
z
" id="DejaVuSans-118"/>
       </defs>
       <use xlink:href="#DejaVuSans-78"/>
       <use x="74.804688" xlink:href="#DejaVuSans-111"/>
       <use x="135.986328" xlink:href="#DejaVuSans-118"/>
       <use x="195.166016" xlink:href="#DejaVuSans-32"/>
       <use x="226.953125" xlink:href="#DejaVuSans-50"/>
       <use x="290.576172" xlink:href="#DejaVuSans-48"/>
      </g>
     </g>
    </g>
    <g id="xtick_11">
     <g id="line2d_21">
      <path clip-path="url(#p165eade139)" d="M 308.072427 236.294692 
L 308.072427 10.999219 
" style="fill:none;stroke:#b0b0b0;stroke-linecap:square;stroke-width:0.8;"/>
     </g>
     <g id="line2d_22">
      <g>
       <use style="stroke:#000000;stroke-width:0.8;" x="308.072427" xlink:href="#m69461c8409" y="236.294692"/>
      </g>
     </g>
     <g id="text_11">
      <!-- Dec 20 -->
      <g transform="translate(307.797626 272.125528)rotate(-80)scale(0.08 -0.08)">
       <defs>
        <path d="M 19.671875 64.796875 
L 19.671875 8.109375 
L 31.59375 8.109375 
Q 46.6875 8.109375 53.6875 14.9375 
Q 60.6875 21.78125 60.6875 36.53125 
Q 60.6875 51.171875 53.6875 57.984375 
Q 46.6875 64.796875 31.59375 64.796875 
z
M 9.8125 72.90625 
L 30.078125 72.90625 
Q 51.265625 72.90625 61.171875 64.09375 
Q 71.09375 55.28125 71.09375 36.53125 
Q 71.09375 17.671875 61.125 8.828125 
Q 51.171875 0 30.078125 0 
L 9.8125 0 
z
" id="DejaVuSans-68"/>
       </defs>
       <use xlink:href="#DejaVuSans-68"/>
       <use x="77.001953" xlink:href="#DejaVuSans-101"/>
       <use x="138.525391" xlink:href="#DejaVuSans-99"/>
       <use x="193.505859" xlink:href="#DejaVuSans-32"/>
       <use x="225.292969" xlink:href="#DejaVuSans-50"/>
       <use x="288.916016" xlink:href="#DejaVuSans-48"/>
      </g>
     </g>
    </g>
    <g id="xtick_12">
     <g id="line2d_23">
      <path clip-path="url(#p165eade139)" d="M 329.444397 236.294692 
L 329.444397 10.999219 
" style="fill:none;stroke:#b0b0b0;stroke-linecap:square;stroke-width:0.8;"/>
     </g>
     <g id="line2d_24">
      <g>
       <use style="stroke:#000000;stroke-width:0.8;" x="329.444397" xlink:href="#m69461c8409" y="236.294692"/>
      </g>
     </g>
     <g id="text_12">
      <!-- Jan 21 -->
      <g transform="translate(329.442983 269.024615)rotate(-80)scale(0.08 -0.08)">
       <defs>
        <path d="M 12.40625 8.296875 
L 28.515625 8.296875 
L 28.515625 63.921875 
L 10.984375 60.40625 
L 10.984375 69.390625 
L 28.421875 72.90625 
L 38.28125 72.90625 
L 38.28125 8.296875 
L 54.390625 8.296875 
L 54.390625 0 
L 12.40625 0 
z
" id="DejaVuSans-49"/>
       </defs>
       <use xlink:href="#DejaVuSans-74"/>
       <use x="29.492188" xlink:href="#DejaVuSans-97"/>
       <use x="90.771484" xlink:href="#DejaVuSans-110"/>
       <use x="154.150391" xlink:href="#DejaVuSans-32"/>
       <use x="185.9375" xlink:href="#DejaVuSans-50"/>
       <use x="249.560547" xlink:href="#DejaVuSans-49"/>
      </g>
     </g>
    </g>
    <g id="xtick_13">
     <g id="line2d_25">
      <path clip-path="url(#p165eade139)" d="M 350.816367 236.294692 
L 350.816367 10.999219 
" style="fill:none;stroke:#b0b0b0;stroke-linecap:square;stroke-width:0.8;"/>
     </g>
     <g id="line2d_26">
      <g>
       <use style="stroke:#000000;stroke-width:0.8;" x="350.816367" xlink:href="#m69461c8409" y="236.294692"/>
      </g>
     </g>
     <g id="text_13">
      <!-- Feb 21 -->
      <g transform="translate(350.656064 270.826813)rotate(-80)scale(0.08 -0.08)">
       <use xlink:href="#DejaVuSans-70"/>
       <use x="52.019531" xlink:href="#DejaVuSans-101"/>
       <use x="113.542969" xlink:href="#DejaVuSans-98"/>
       <use x="177.019531" xlink:href="#DejaVuSans-32"/>
       <use x="208.806641" xlink:href="#DejaVuSans-50"/>
       <use x="272.429688" xlink:href="#DejaVuSans-49"/>
      </g>
     </g>
    </g>
   </g>
   <g id="matplotlib.axis_2">
    <g id="ytick_1">
     <g id="line2d_27">
      <path clip-path="url(#p165eade139)" d="M 78.771875 236.294692 
L 360.881875 236.294692 
" style="fill:none;stroke:#b0b0b0;stroke-linecap:square;stroke-width:0.8;"/>
     </g>
     <g id="line2d_28">
      <defs>
       <path d="M 0 0 
L -3.5 0 
" id="m1cdbeda66b" style="stroke:#1f77b4;stroke-width:0.8;"/>
      </defs>
      <g>
       <use style="fill:#1f77b4;stroke:#1f77b4;stroke-width:0.8;" x="78.771875" xlink:href="#m1cdbeda66b" y="236.294692"/>
      </g>
     </g>
     <g id="text_14">
      <!-- 0 -->
      <g style="fill:#1f77b4;" transform="translate(65.409375 240.093911)scale(0.1 -0.1)">
       <use xlink:href="#DejaVuSans-48"/>
      </g>
     </g>
    </g>
    <g id="ytick_2">
     <g id="line2d_29">
      <path clip-path="url(#p165eade139)" d="M 78.771875 191.235598 
L 360.881875 191.235598 
" style="fill:none;stroke:#b0b0b0;stroke-linecap:square;stroke-width:0.8;"/>
     </g>
     <g id="line2d_30">
      <g>
       <use style="fill:#1f77b4;stroke:#1f77b4;stroke-width:0.8;" x="78.771875" xlink:href="#m1cdbeda66b" y="191.235598"/>
      </g>
     </g>
     <g id="text_15">
      <!-- 500,000 -->
      <g style="fill:#1f77b4;" transform="translate(30.41875 195.034816)scale(0.1 -0.1)">
       <defs>
        <path d="M 10.796875 72.90625 
L 49.515625 72.90625 
L 49.515625 64.59375 
L 19.828125 64.59375 
L 19.828125 46.734375 
Q 21.96875 47.46875 24.109375 47.828125 
Q 26.265625 48.1875 28.421875 48.1875 
Q 40.625 48.1875 47.75 41.5 
Q 54.890625 34.8125 54.890625 23.390625 
Q 54.890625 11.625 47.5625 5.09375 
Q 40.234375 -1.421875 26.90625 -1.421875 
Q 22.3125 -1.421875 17.546875 -0.640625 
Q 12.796875 0.140625 7.71875 1.703125 
L 7.71875 11.625 
Q 12.109375 9.234375 16.796875 8.0625 
Q 21.484375 6.890625 26.703125 6.890625 
Q 35.15625 6.890625 40.078125 11.328125 
Q 45.015625 15.765625 45.015625 23.390625 
Q 45.015625 31 40.078125 35.4375 
Q 35.15625 39.890625 26.703125 39.890625 
Q 22.75 39.890625 18.8125 39.015625 
Q 14.890625 38.140625 10.796875 36.28125 
z
" id="DejaVuSans-53"/>
        <path d="M 11.71875 12.40625 
L 22.015625 12.40625 
L 22.015625 4 
L 14.015625 -11.625 
L 7.71875 -11.625 
L 11.71875 4 
z
" id="DejaVuSans-44"/>
       </defs>
       <use xlink:href="#DejaVuSans-53"/>
       <use x="63.623047" xlink:href="#DejaVuSans-48"/>
       <use x="127.246094" xlink:href="#DejaVuSans-48"/>
       <use x="190.869141" xlink:href="#DejaVuSans-44"/>
       <use x="222.65625" xlink:href="#DejaVuSans-48"/>
       <use x="286.279297" xlink:href="#DejaVuSans-48"/>
       <use x="349.902344" xlink:href="#DejaVuSans-48"/>
      </g>
     </g>
    </g>
    <g id="ytick_3">
     <g id="line2d_31">
      <path clip-path="url(#p165eade139)" d="M 78.771875 146.176503 
L 360.881875 146.176503 
" style="fill:none;stroke:#b0b0b0;stroke-linecap:square;stroke-width:0.8;"/>
     </g>
     <g id="line2d_32">
      <g>
       <use style="fill:#1f77b4;stroke:#1f77b4;stroke-width:0.8;" x="78.771875" xlink:href="#m1cdbeda66b" y="146.176503"/>
      </g>
     </g>
     <g id="text_16">
      <!-- 1,000,000 -->
      <g style="fill:#1f77b4;" transform="translate(20.878125 149.975722)scale(0.1 -0.1)">
       <use xlink:href="#DejaVuSans-49"/>
       <use x="63.623047" xlink:href="#DejaVuSans-44"/>
       <use x="95.410156" xlink:href="#DejaVuSans-48"/>
       <use x="159.033203" xlink:href="#DejaVuSans-48"/>
       <use x="222.65625" xlink:href="#DejaVuSans-48"/>
       <use x="286.279297" xlink:href="#DejaVuSans-44"/>
       <use x="318.066406" xlink:href="#DejaVuSans-48"/>
       <use x="381.689453" xlink:href="#DejaVuSans-48"/>
       <use x="445.3125" xlink:href="#DejaVuSans-48"/>
      </g>
     </g>
    </g>
    <g id="ytick_4">
     <g id="line2d_33">
      <path clip-path="url(#p165eade139)" d="M 78.771875 101.117408 
L 360.881875 101.117408 
" style="fill:none;stroke:#b0b0b0;stroke-linecap:square;stroke-width:0.8;"/>
     </g>
     <g id="line2d_34">
      <g>
       <use style="fill:#1f77b4;stroke:#1f77b4;stroke-width:0.8;" x="78.771875" xlink:href="#m1cdbeda66b" y="101.117408"/>
      </g>
     </g>
     <g id="text_17">
      <!-- 1,500,000 -->
      <g style="fill:#1f77b4;" transform="translate(20.878125 104.916627)scale(0.1 -0.1)">
       <use xlink:href="#DejaVuSans-49"/>
       <use x="63.623047" xlink:href="#DejaVuSans-44"/>
       <use x="95.410156" xlink:href="#DejaVuSans-53"/>
       <use x="159.033203" xlink:href="#DejaVuSans-48"/>
       <use x="222.65625" xlink:href="#DejaVuSans-48"/>
       <use x="286.279297" xlink:href="#DejaVuSans-44"/>
       <use x="318.066406" xlink:href="#DejaVuSans-48"/>
       <use x="381.689453" xlink:href="#DejaVuSans-48"/>
       <use x="445.3125" xlink:href="#DejaVuSans-48"/>
      </g>
     </g>
    </g>
    <g id="ytick_5">
     <g id="line2d_35">
      <path clip-path="url(#p165eade139)" d="M 78.771875 56.058313 
L 360.881875 56.058313 
" style="fill:none;stroke:#b0b0b0;stroke-linecap:square;stroke-width:0.8;"/>
     </g>
     <g id="line2d_36">
      <g>
       <use style="fill:#1f77b4;stroke:#1f77b4;stroke-width:0.8;" x="78.771875" xlink:href="#m1cdbeda66b" y="56.058313"/>
      </g>
     </g>
     <g id="text_18">
      <!-- 2,000,000 -->
      <g style="fill:#1f77b4;" transform="translate(20.878125 59.857532)scale(0.1 -0.1)">
       <use xlink:href="#DejaVuSans-50"/>
       <use x="63.623047" xlink:href="#DejaVuSans-44"/>
       <use x="95.410156" xlink:href="#DejaVuSans-48"/>
       <use x="159.033203" xlink:href="#DejaVuSans-48"/>
       <use x="222.65625" xlink:href="#DejaVuSans-48"/>
       <use x="286.279297" xlink:href="#DejaVuSans-44"/>
       <use x="318.066406" xlink:href="#DejaVuSans-48"/>
       <use x="381.689453" xlink:href="#DejaVuSans-48"/>
       <use x="445.3125" xlink:href="#DejaVuSans-48"/>
      </g>
     </g>
    </g>
    <g id="ytick_6">
     <g id="line2d_37">
      <path clip-path="url(#p165eade139)" d="M 78.771875 10.999219 
L 360.881875 10.999219 
" style="fill:none;stroke:#b0b0b0;stroke-linecap:square;stroke-width:0.8;"/>
     </g>
     <g id="line2d_38">
      <g>
       <use style="fill:#1f77b4;stroke:#1f77b4;stroke-width:0.8;" x="78.771875" xlink:href="#m1cdbeda66b" y="10.999219"/>
      </g>
     </g>
     <g id="text_19">
      <!-- 2,500,000 -->
      <g style="fill:#1f77b4;" transform="translate(20.878125 14.798438)scale(0.1 -0.1)">
       <use xlink:href="#DejaVuSans-50"/>
       <use x="63.623047" xlink:href="#DejaVuSans-44"/>
       <use x="95.410156" xlink:href="#DejaVuSans-53"/>
       <use x="159.033203" xlink:href="#DejaVuSans-48"/>
       <use x="222.65625" xlink:href="#DejaVuSans-48"/>
       <use x="286.279297" xlink:href="#DejaVuSans-44"/>
       <use x="318.066406" xlink:href="#DejaVuSans-48"/>
       <use x="381.689453" xlink:href="#DejaVuSans-48"/>
       <use x="445.3125" xlink:href="#DejaVuSans-48"/>
      </g>
     </g>
    </g>
    <g id="text_20">
     <!-- Fälle kumuliert -->
     <g style="fill:#1f77b4;" transform="translate(14.798438 160.391487)rotate(-90)scale(0.1 -0.1)">
      <defs>
       <path d="M 34.28125 27.484375 
Q 23.390625 27.484375 19.1875 25 
Q 14.984375 22.515625 14.984375 16.5 
Q 14.984375 11.71875 18.140625 8.90625 
Q 21.296875 6.109375 26.703125 6.109375 
Q 34.1875 6.109375 38.703125 11.40625 
Q 43.21875 16.703125 43.21875 25.484375 
L 43.21875 27.484375 
z
M 52.203125 31.203125 
L 52.203125 0 
L 43.21875 0 
L 43.21875 8.296875 
Q 40.140625 3.328125 35.546875 0.953125 
Q 30.953125 -1.421875 24.3125 -1.421875 
Q 15.921875 -1.421875 10.953125 3.296875 
Q 6 8.015625 6 15.921875 
Q 6 25.140625 12.171875 29.828125 
Q 18.359375 34.515625 30.609375 34.515625 
L 43.21875 34.515625 
L 43.21875 35.40625 
Q 43.21875 41.609375 39.140625 45 
Q 35.0625 48.390625 27.6875 48.390625 
Q 23 48.390625 18.546875 47.265625 
Q 14.109375 46.140625 10.015625 43.890625 
L 10.015625 52.203125 
Q 14.9375 54.109375 19.578125 55.046875 
Q 24.21875 56 28.609375 56 
Q 40.484375 56 46.34375 49.84375 
Q 52.203125 43.703125 52.203125 31.203125 
z
M 33.59375 75.78125 
L 43.5 75.78125 
L 43.5 65.921875 
L 33.59375 65.921875 
z
M 14.5 75.78125 
L 24.421875 75.78125 
L 24.421875 65.921875 
L 14.5 65.921875 
z
" id="DejaVuSans-228"/>
       <path d="M 9.078125 75.984375 
L 18.109375 75.984375 
L 18.109375 31.109375 
L 44.921875 54.6875 
L 56.390625 54.6875 
L 27.390625 29.109375 
L 57.625 0 
L 45.90625 0 
L 18.109375 26.703125 
L 18.109375 0 
L 9.078125 0 
z
" id="DejaVuSans-107"/>
       <path d="M 52 44.1875 
Q 55.375 50.25 60.0625 53.125 
Q 64.75 56 71.09375 56 
Q 79.640625 56 84.28125 50.015625 
Q 88.921875 44.046875 88.921875 33.015625 
L 88.921875 0 
L 79.890625 0 
L 79.890625 32.71875 
Q 79.890625 40.578125 77.09375 44.375 
Q 74.3125 48.1875 68.609375 48.1875 
Q 61.625 48.1875 57.5625 43.546875 
Q 53.515625 38.921875 53.515625 30.90625 
L 53.515625 0 
L 44.484375 0 
L 44.484375 32.71875 
Q 44.484375 40.625 41.703125 44.40625 
Q 38.921875 48.1875 33.109375 48.1875 
Q 26.21875 48.1875 22.15625 43.53125 
Q 18.109375 38.875 18.109375 30.90625 
L 18.109375 0 
L 9.078125 0 
L 9.078125 54.6875 
L 18.109375 54.6875 
L 18.109375 46.1875 
Q 21.1875 51.21875 25.484375 53.609375 
Q 29.78125 56 35.6875 56 
Q 41.65625 56 45.828125 52.96875 
Q 50 49.953125 52 44.1875 
z
" id="DejaVuSans-109"/>
       <path d="M 9.421875 54.6875 
L 18.40625 54.6875 
L 18.40625 0 
L 9.421875 0 
z
M 9.421875 75.984375 
L 18.40625 75.984375 
L 18.40625 64.59375 
L 9.421875 64.59375 
z
" id="DejaVuSans-105"/>
      </defs>
      <use xlink:href="#DejaVuSans-70"/>
      <use x="48.394531" xlink:href="#DejaVuSans-228"/>
      <use x="109.673828" xlink:href="#DejaVuSans-108"/>
      <use x="137.457031" xlink:href="#DejaVuSans-108"/>
      <use x="165.240234" xlink:href="#DejaVuSans-101"/>
      <use x="226.763672" xlink:href="#DejaVuSans-32"/>
      <use x="258.550781" xlink:href="#DejaVuSans-107"/>
      <use x="313.335938" xlink:href="#DejaVuSans-117"/>
      <use x="376.714844" xlink:href="#DejaVuSans-109"/>
      <use x="474.126953" xlink:href="#DejaVuSans-117"/>
      <use x="537.505859" xlink:href="#DejaVuSans-108"/>
      <use x="565.289062" xlink:href="#DejaVuSans-105"/>
      <use x="593.072266" xlink:href="#DejaVuSans-101"/>
      <use x="654.595703" xlink:href="#DejaVuSans-114"/>
      <use x="695.708984" xlink:href="#DejaVuSans-116"/>
     </g>
    </g>
   </g>
   <g id="line2d_39">
    <path clip-path="url(#p165eade139)" d="M 91.595057 236.294692 
L 123.997721 236.188713 
L 126.065976 236.107427 
L 130.202486 235.183805 
L 130.891904 234.914082 
L 131.581323 234.506027 
L 132.960159 234.053183 
L 135.028415 232.931211 
L 137.09667 231.095323 
L 139.164925 229.823485 
L 141.922598 227.635055 
L 144.680272 226.084662 
L 146.059109 225.284863 
L 148.127364 224.572839 
L 148.816782 224.456857 
L 150.885037 223.552251 
L 157.089803 222.076746 
L 159.158058 221.73709 
L 161.226313 221.428165 
L 164.673405 221.025968 
L 166.74166 220.805268 
L 175.704099 220.07468 
L 195.007813 219.111857 
L 201.212579 218.71786 
L 218.448038 217.76432 
L 227.410477 216.915767 
L 230.168151 216.603147 
L 234.994079 215.864899 
L 243.2671 214.410842 
L 244.645937 214.233579 
L 251.54012 213.030772 
L 253.608375 212.707428 
L 255.676631 212.244941 
L 257.744886 211.698555 
L 259.123723 211.461724 
L 265.328488 209.897903 
L 267.396743 209.256802 
L 268.086161 209.11748 
L 270.154417 208.255589 
L 271.533253 207.412263 
L 272.91209 206.888316 
L 273.601508 206.298853 
L 274.290927 205.896565 
L 277.0486 203.431833 
L 277.738019 203.070729 
L 279.116855 201.54593 
L 279.806274 200.434682 
L 280.495692 199.898299 
L 281.185111 198.683866 
L 283.253366 195.718257 
L 283.942784 194.532211 
L 285.321621 191.383932 
L 286.011039 189.637261 
L 287.389876 187.239216 
L 288.079294 184.963552 
L 288.768713 184.284692 
L 289.458131 181.447771 
L 290.836968 177.358117 
L 292.215805 174.777853 
L 292.905223 174.190103 
L 294.28406 169.778997 
L 295.662897 165.543533 
L 296.352315 164.224202 
L 297.041733 163.934653 
L 297.731152 162.620729 
L 299.109988 158.118605 
L 300.488825 153.916033 
L 301.178244 152.665914 
L 301.867662 152.271466 
L 303.246499 149.493573 
L 303.935917 146.54788 
L 305.314754 142.693525 
L 306.004172 141.445839 
L 306.693591 141.157731 
L 307.383009 139.87616 
L 309.451264 133.420814 
L 310.140682 131.981626 
L 310.830101 129.627199 
L 311.519519 128.644009 
L 312.208938 128.152324 
L 314.966611 117.851545 
L 315.656029 115.887689 
L 316.345448 114.562141 
L 317.034866 113.980788 
L 319.103121 105.262034 
L 319.79254 102.303454 
L 320.481958 100.349781 
L 321.171376 99.76906 
L 321.860795 98.033744 
L 323.239632 91.733491 
L 323.92905 89.348333 
L 324.618468 89.15548 
L 326.686723 85.559134 
L 327.376142 83.804893 
L 328.06556 79.385136 
L 328.754979 77.639817 
L 329.444397 77.449037 
L 331.512652 74.422959 
L 332.202071 72.76938 
L 332.891489 70.366559 
L 333.580907 66.281231 
L 334.270326 64.562046 
L 334.959744 62.505189 
L 335.649162 62.419756 
L 336.338581 61.364833 
L 337.717418 56.608755 
L 338.406836 54.685363 
L 339.096254 53.910977 
L 339.785673 52.575696 
L 340.475091 51.540779 
L 341.164509 50.706915 
L 341.853928 49.604499 
L 342.543346 46.990801 
L 343.232765 46.244893 
L 343.922183 44.770019 
L 345.30102 42.741639 
L 345.990438 42.120995 
L 346.679856 41.275055 
L 348.058693 38.524738 
L 348.058693 38.524738 
" style="fill:none;stroke:#1f77b4;stroke-linecap:square;stroke-width:1.5;"/>
   </g>
   <g id="patch_3">
    <path d="M 78.771875 236.294692 
L 78.771875 10.999219 
" style="fill:none;stroke:#000000;stroke-linecap:square;stroke-linejoin:miter;stroke-width:0.8;"/>
   </g>
   <g id="patch_4">
    <path d="M 360.881875 236.294692 
L 360.881875 10.999219 
" style="fill:none;stroke:#000000;stroke-linecap:square;stroke-linejoin:miter;stroke-width:0.8;"/>
   </g>
   <g id="patch_5">
    <path d="M 78.771875 236.294692 
L 360.881875 236.294692 
" style="fill:none;stroke:#000000;stroke-linecap:square;stroke-linejoin:miter;stroke-width:0.8;"/>
   </g>
   <g id="patch_6">
    <path d="M 78.771875 10.999219 
L 360.881875 10.999219 
" style="fill:none;stroke:#000000;stroke-linecap:square;stroke-linejoin:miter;stroke-width:0.8;"/>
   </g>
  </g>
  <g id="axes_2">
   <g id="PolyCollection_1">
    <path clip-path="url(#p165eade139)" d="M 91.595057 236.294692 
L 91.595057 236.294692 
L 92.284475 236.294692 
L 92.973894 236.294692 
L 93.663312 236.294692 
L 94.35273 236.294692 
L 95.042149 236.290186 
L 95.731567 236.281175 
L 96.420985 236.294692 
L 97.110404 236.294692 
L 97.799822 236.290186 
L 98.489241 236.281175 
L 99.178659 236.285681 
L 99.868077 236.285681 
L 100.557496 236.294692 
L 101.246914 236.294692 
L 101.936332 236.294692 
L 102.625751 236.290186 
L 103.315169 236.294692 
L 104.004588 236.290186 
L 104.694006 236.294692 
L 105.383424 236.285681 
L 106.072843 236.294692 
L 106.762261 236.294692 
L 107.451679 236.294692 
L 108.141098 236.294692 
L 108.830516 236.294692 
L 109.519935 236.294692 
L 110.209353 236.294692 
L 110.898771 236.294692 
L 111.58819 236.294692 
L 112.277608 236.294692 
L 112.967027 236.294692 
L 113.656445 236.294692 
L 114.345863 236.294692 
L 115.035282 236.290186 
L 115.7247 236.249633 
L 116.414118 236.20908 
L 117.103537 236.285681 
L 117.792955 236.155009 
L 118.482374 236.064891 
L 119.171792 236.164021 
L 119.86121 236.127974 
L 120.550629 235.997302 
L 121.240047 235.303392 
L 121.929465 235.447581 
L 122.618884 235.71343 
L 123.308302 235.208768 
L 123.997721 235.681889 
L 124.687139 235.028532 
L 125.376557 234.262527 
L 126.065976 235.528688 
L 126.755394 229.098755 
L 127.444812 232.194315 
L 128.134231 230.842542 
L 128.823649 229.639464 
L 129.513068 227.350462 
L 130.202486 222.46155 
L 130.891904 222.808505 
L 131.581323 215.891934 
L 132.270741 225.638216 
L 132.960159 224.308973 
L 133.649578 217.446473 
L 134.338996 218.586468 
L 135.028415 216.752563 
L 135.717833 206.488101 
L 136.407251 205.055222 
L 137.09667 205.546366 
L 137.786088 216.468691 
L 138.475506 214.711386 
L 139.164925 214.1121 
L 139.854343 208.970857 
L 140.543762 205.104787 
L 141.23318 207.614579 
L 141.922598 214.067041 
L 142.612017 218.131371 
L 143.301435 221.645981 
L 143.990853 216.968847 
L 144.680272 210.912904 
L 145.36969 214.283325 
L 146.059109 218.316114 
L 146.748527 223.962018 
L 147.437945 223.020283 
L 148.127364 226.300585 
L 148.816782 230.495587 
L 149.506201 221.001636 
L 150.195619 223.024789 
L 150.885037 219.627333 
L 151.574456 227.530698 
L 152.263874 227.994807 
L 152.953292 227.819077 
L 153.642711 230.770447 
L 154.332129 225.674264 
L 155.021548 225.115531 
L 155.710966 227.868642 
L 156.400384 229.472745 
L 157.089803 230.630764 
L 157.779221 231.842854 
L 158.468639 231.094873 
L 159.158058 228.963578 
L 159.847476 229.671005 
L 160.536895 231.482381 
L 161.226313 232.284433 
L 161.915731 233.154073 
L 162.60515 234.095809 
L 163.294568 232.44214 
L 163.983986 231.090367 
L 164.673405 230.581199 
L 165.362823 231.076849 
L 166.052242 232.978343 
L 166.74166 233.793913 
L 167.431078 233.154073 
L 168.120497 233.613676 
L 168.809915 232.117714 
L 169.499333 234.582447 
L 170.188752 232.892731 
L 170.87817 233.956125 
L 171.567589 233.514546 
L 172.257007 235.474617 
L 172.946425 230.765941 
L 173.635844 233.163085 
L 174.325262 233.825454 
L 175.01468 233.190121 
L 175.704099 235.051061 
L 176.393517 234.753671 
L 177.082936 235.069085 
L 177.772354 233.591147 
L 178.461772 234.834778 
L 179.151191 233.266721 
L 179.840609 233.023402 
L 180.530027 235.091615 
L 181.219446 235.298886 
L 181.908864 235.465605 
L 182.598283 235.010508 
L 183.287701 235.204262 
L 183.977119 234.713118 
L 184.666538 234.258021 
L 185.355956 233.924584 
L 186.045375 234.94292 
L 186.734793 234.677071 
L 187.424211 234.505846 
L 188.11363 236.222598 
L 188.803048 235.533194 
L 189.492466 233.884031 
L 190.181885 236.10995 
L 190.871303 235.163709 
L 191.560722 235.555723 
L 192.25014 233.726324 
L 192.939558 234.708612 
L 193.628977 230.829024 
L 194.318395 234.122844 
L 195.007813 234.623 
L 195.697232 233.582135 
L 196.38665 234.059761 
L 197.076069 233.086485 
L 197.765487 234.532882 
L 198.454905 234.041738 
L 199.144324 233.298263 
L 199.833742 234.393199 
L 200.52316 235.235804 
L 201.212579 234.72213 
L 201.901997 234.60047 
L 202.591416 234.154385 
L 203.280834 234.145374 
L 203.970252 234.44727 
L 204.659671 234.411222 
L 205.349089 234.830272 
L 206.038507 233.856995 
L 206.727926 235.037544 
L 207.417344 234.690589 
L 208.106763 234.933908 
L 208.796181 234.803236 
L 209.485599 234.595965 
L 210.175018 235.348451 
L 210.864436 235.11865 
L 211.553854 235.051061 
L 212.243273 234.339128 
L 212.932691 233.771383 
L 213.62211 233.613676 
L 214.311528 234.577941 
L 215.000946 234.902366 
L 215.690365 233.636206 
L 216.379783 234.528376 
L 217.069201 233.775889 
L 217.75862 233.568617 
L 218.448038 232.951308 
L 219.137457 233.343322 
L 219.826875 234.541894 
L 220.516293 234.289563 
L 221.205712 233.613676 
L 221.89513 232.514234 
L 222.584549 231.838348 
L 223.273967 232.401587 
L 223.963385 233.564111 
L 224.652804 235.325922 
L 225.342222 232.279927 
L 226.03164 233.063955 
L 226.721059 230.504599 
L 227.410477 232.12222 
L 228.099896 231.081355 
L 228.789314 233.109014 
L 229.478732 234.559917 
L 230.168151 230.797483 
L 230.857569 231.644594 
L 231.546987 230.351398 
L 232.236406 229.887289 
L 232.925824 229.490769 
L 233.615243 233.154073 
L 234.304661 233.956125 
L 234.994079 228.666188 
L 235.683498 229.896301 
L 236.372916 229.14832 
L 237.062334 229.14832 
L 237.751753 228.467928 
L 238.441171 232.545776 
L 239.13059 233.442452 
L 239.820008 228.959072 
L 240.509426 229.711559 
L 241.198845 229.86476 
L 241.888263 229.260968 
L 242.577681 229.288003 
L 243.2671 233.100003 
L 243.956518 234.176915 
L 244.645937 229.549346 
L 245.335355 230.829024 
L 246.024773 230.004443 
L 246.714192 229.855748 
L 247.40361 229.792665 
L 248.093028 232.802613 
L 248.782447 233.275733 
L 249.471865 227.742476 
L 250.161284 230.297327 
L 250.850702 229.64397 
L 251.54012 228.562552 
L 252.229539 229.14832 
L 252.918957 231.419298 
L 253.608375 232.149256 
L 254.297794 229.603417 
L 254.987212 228.220103 
L 255.676631 227.93623 
L 256.366049 226.476316 
L 257.055467 226.386197 
L 257.744886 228.702235 
L 258.434304 231.640088 
L 259.123723 229.107767 
L 259.813141 227.949748 
L 260.502559 229.02666 
L 261.191978 225.836477 
L 261.881396 225.633711 
L 262.570814 230.373927 
L 263.260233 230.378433 
L 263.949651 225.967148 
L 264.63907 228.003819 
L 265.328488 225.291261 
L 266.017906 224.462174 
L 266.707325 223.520439 
L 267.396743 228.846424 
L 268.086161 229.328556 
L 268.77558 222.326373 
L 269.464998 225.237191 
L 270.154417 218.225995 
L 270.843835 214.648303 
L 271.533253 215.774781 
L 272.222672 222.921153 
L 272.91209 223.470874 
L 273.601508 206.821539 
L 274.290927 216.180313 
L 274.980345 203.973804 
L 275.669764 201.959662 
L 276.359182 201.621719 
L 277.0486 214.386961 
L 277.738019 218.239513 
L 278.427437 198.458571 
L 279.116855 197.890826 
L 279.806274 180.732323 
L 280.495692 209.475519 
L 281.185111 175.573056 
L 281.874529 189.171891 
L 282.563947 191.731248 
L 283.253366 179.700469 
L 283.942784 176.992418 
L 284.632202 163.289947 
L 285.321621 151.88549 
L 286.011039 148.961155 
L 286.700458 172.968641 
L 287.389876 179.718493 
L 288.079294 122.511466 
L 288.768713 202.351676 
L 289.458131 94.448662 
L 290.147549 134.636869 
L 290.836968 133.469838 
L 291.526386 172.662239 
L 292.215805 170.913946 
L 292.905223 206.907151 
L 293.594641 116.676314 
L 294.28406 135.357814 
L 294.973478 124.827504 
L 295.662897 135.988642 
L 296.352315 170.328178 
L 297.041733 221.817205 
L 297.731152 170.598532 
L 298.42057 118.100181 
L 299.109988 129.382978 
L 299.799407 127.968123 
L 300.488825 134.49268 
L 301.178244 173.788716 
L 301.867662 216.572327 
L 302.55708 171.161771 
L 303.246499 162.532954 
L 303.935917 89.010029 
L 304.625335 137.385474 
L 305.314754 142.486163 
L 306.004172 173.910376 
L 306.693591 221.8893 
L 307.383009 172.216154 
L 308.072427 124.701338 
L 308.761846 131.419649 
L 309.451264 129.995782 
L 310.140682 164.335318 
L 310.830101 118.573302 
L 311.519519 187.13522 
L 312.208938 211.71045 
L 312.898356 104.438263 
L 313.587774 123.24593 
L 314.277193 88.798252 
L 314.966611 113.657354 
L 315.656029 138.101913 
L 316.345448 170.01727 
L 317.034866 207.22707 
L 317.724285 83.882304 
L 318.413703 88.753193 
L 319.103121 100.31085 
L 319.79254 88.365684 
L 320.481958 138.611081 
L 321.171376 207.258612 
L 321.860795 149.5289 
L 322.550213 73.392547 
L 323.239632 84.1842 
L 323.92905 117.036786 
L 324.618468 226.652046 
L 325.307887 175.446891 
L 325.997305 180.425921 
L 326.686723 173.193936 
L 327.376142 148.582659 
L 328.06556 15.306868 
L 328.754979 149.028744 
L 329.444397 226.755682 
L 330.133815 187.166761 
L 330.823234 189.631494 
L 331.512652 180.781888 
L 332.202071 153.615759 
L 332.891489 116.153628 
L 333.580907 32.028298 
L 334.270326 150.335457 
L 334.959744 133.451815 
L 335.649162 232.02309 
L 336.338581 183.548516 
L 337.027999 113.688896 
L 337.717418 121.096611 
L 338.406836 140.125067 
L 339.096254 197.575412 
L 339.785673 169.530632 
L 340.475091 184.548828 
L 341.164509 194.601512 
L 341.853928 181.173902 
L 342.543346 105.6098 
L 343.232765 198.99928 
L 343.922183 162.550978 
L 344.611601 180.286238 
L 345.30102 190.884137 
L 345.990438 205.262494 
L 346.679856 193.99772 
L 347.369275 165.840292 
L 348.058693 169.233242 
L 348.058693 236.294692 
L 348.058693 236.294692 
L 347.369275 236.294692 
L 346.679856 236.294692 
L 345.990438 236.294692 
L 345.30102 236.294692 
L 344.611601 236.294692 
L 343.922183 236.294692 
L 343.232765 236.294692 
L 342.543346 236.294692 
L 341.853928 236.294692 
L 341.164509 236.294692 
L 340.475091 236.294692 
L 339.785673 236.294692 
L 339.096254 236.294692 
L 338.406836 236.294692 
L 337.717418 236.294692 
L 337.027999 236.294692 
L 336.338581 236.294692 
L 335.649162 236.294692 
L 334.959744 236.294692 
L 334.270326 236.294692 
L 333.580907 236.294692 
L 332.891489 236.294692 
L 332.202071 236.294692 
L 331.512652 236.294692 
L 330.823234 236.294692 
L 330.133815 236.294692 
L 329.444397 236.294692 
L 328.754979 236.294692 
L 328.06556 236.294692 
L 327.376142 236.294692 
L 326.686723 236.294692 
L 325.997305 236.294692 
L 325.307887 236.294692 
L 324.618468 236.294692 
L 323.92905 236.294692 
L 323.239632 236.294692 
L 322.550213 236.294692 
L 321.860795 236.294692 
L 321.171376 236.294692 
L 320.481958 236.294692 
L 319.79254 236.294692 
L 319.103121 236.294692 
L 318.413703 236.294692 
L 317.724285 236.294692 
L 317.034866 236.294692 
L 316.345448 236.294692 
L 315.656029 236.294692 
L 314.966611 236.294692 
L 314.277193 236.294692 
L 313.587774 236.294692 
L 312.898356 236.294692 
L 312.208938 236.294692 
L 311.519519 236.294692 
L 310.830101 236.294692 
L 310.140682 236.294692 
L 309.451264 236.294692 
L 308.761846 236.294692 
L 308.072427 236.294692 
L 307.383009 236.294692 
L 306.693591 236.294692 
L 306.004172 236.294692 
L 305.314754 236.294692 
L 304.625335 236.294692 
L 303.935917 236.294692 
L 303.246499 236.294692 
L 302.55708 236.294692 
L 301.867662 236.294692 
L 301.178244 236.294692 
L 300.488825 236.294692 
L 299.799407 236.294692 
L 299.109988 236.294692 
L 298.42057 236.294692 
L 297.731152 236.294692 
L 297.041733 236.294692 
L 296.352315 236.294692 
L 295.662897 236.294692 
L 294.973478 236.294692 
L 294.28406 236.294692 
L 293.594641 236.294692 
L 292.905223 236.294692 
L 292.215805 236.294692 
L 291.526386 236.294692 
L 290.836968 236.294692 
L 290.147549 236.294692 
L 289.458131 236.294692 
L 288.768713 236.294692 
L 288.079294 236.294692 
L 287.389876 236.294692 
L 286.700458 236.294692 
L 286.011039 236.294692 
L 285.321621 236.294692 
L 284.632202 236.294692 
L 283.942784 236.294692 
L 283.253366 236.294692 
L 282.563947 236.294692 
L 281.874529 236.294692 
L 281.185111 236.294692 
L 280.495692 236.294692 
L 279.806274 236.294692 
L 279.116855 236.294692 
L 278.427437 236.294692 
L 277.738019 236.294692 
L 277.0486 236.294692 
L 276.359182 236.294692 
L 275.669764 236.294692 
L 274.980345 236.294692 
L 274.290927 236.294692 
L 273.601508 236.294692 
L 272.91209 236.294692 
L 272.222672 236.294692 
L 271.533253 236.294692 
L 270.843835 236.294692 
L 270.154417 236.294692 
L 269.464998 236.294692 
L 268.77558 236.294692 
L 268.086161 236.294692 
L 267.396743 236.294692 
L 266.707325 236.294692 
L 266.017906 236.294692 
L 265.328488 236.294692 
L 264.63907 236.294692 
L 263.949651 236.294692 
L 263.260233 236.294692 
L 262.570814 236.294692 
L 261.881396 236.294692 
L 261.191978 236.294692 
L 260.502559 236.294692 
L 259.813141 236.294692 
L 259.123723 236.294692 
L 258.434304 236.294692 
L 257.744886 236.294692 
L 257.055467 236.294692 
L 256.366049 236.294692 
L 255.676631 236.294692 
L 254.987212 236.294692 
L 254.297794 236.294692 
L 253.608375 236.294692 
L 252.918957 236.294692 
L 252.229539 236.294692 
L 251.54012 236.294692 
L 250.850702 236.294692 
L 250.161284 236.294692 
L 249.471865 236.294692 
L 248.782447 236.294692 
L 248.093028 236.294692 
L 247.40361 236.294692 
L 246.714192 236.294692 
L 246.024773 236.294692 
L 245.335355 236.294692 
L 244.645937 236.294692 
L 243.956518 236.294692 
L 243.2671 236.294692 
L 242.577681 236.294692 
L 241.888263 236.294692 
L 241.198845 236.294692 
L 240.509426 236.294692 
L 239.820008 236.294692 
L 239.13059 236.294692 
L 238.441171 236.294692 
L 237.751753 236.294692 
L 237.062334 236.294692 
L 236.372916 236.294692 
L 235.683498 236.294692 
L 234.994079 236.294692 
L 234.304661 236.294692 
L 233.615243 236.294692 
L 232.925824 236.294692 
L 232.236406 236.294692 
L 231.546987 236.294692 
L 230.857569 236.294692 
L 230.168151 236.294692 
L 229.478732 236.294692 
L 228.789314 236.294692 
L 228.099896 236.294692 
L 227.410477 236.294692 
L 226.721059 236.294692 
L 226.03164 236.294692 
L 225.342222 236.294692 
L 224.652804 236.294692 
L 223.963385 236.294692 
L 223.273967 236.294692 
L 222.584549 236.294692 
L 221.89513 236.294692 
L 221.205712 236.294692 
L 220.516293 236.294692 
L 219.826875 236.294692 
L 219.137457 236.294692 
L 218.448038 236.294692 
L 217.75862 236.294692 
L 217.069201 236.294692 
L 216.379783 236.294692 
L 215.690365 236.294692 
L 215.000946 236.294692 
L 214.311528 236.294692 
L 213.62211 236.294692 
L 212.932691 236.294692 
L 212.243273 236.294692 
L 211.553854 236.294692 
L 210.864436 236.294692 
L 210.175018 236.294692 
L 209.485599 236.294692 
L 208.796181 236.294692 
L 208.106763 236.294692 
L 207.417344 236.294692 
L 206.727926 236.294692 
L 206.038507 236.294692 
L 205.349089 236.294692 
L 204.659671 236.294692 
L 203.970252 236.294692 
L 203.280834 236.294692 
L 202.591416 236.294692 
L 201.901997 236.294692 
L 201.212579 236.294692 
L 200.52316 236.294692 
L 199.833742 236.294692 
L 199.144324 236.294692 
L 198.454905 236.294692 
L 197.765487 236.294692 
L 197.076069 236.294692 
L 196.38665 236.294692 
L 195.697232 236.294692 
L 195.007813 236.294692 
L 194.318395 236.294692 
L 193.628977 236.294692 
L 192.939558 236.294692 
L 192.25014 236.294692 
L 191.560722 236.294692 
L 190.871303 236.294692 
L 190.181885 236.294692 
L 189.492466 236.294692 
L 188.803048 236.294692 
L 188.11363 236.294692 
L 187.424211 236.294692 
L 186.734793 236.294692 
L 186.045375 236.294692 
L 185.355956 236.294692 
L 184.666538 236.294692 
L 183.977119 236.294692 
L 183.287701 236.294692 
L 182.598283 236.294692 
L 181.908864 236.294692 
L 181.219446 236.294692 
L 180.530027 236.294692 
L 179.840609 236.294692 
L 179.151191 236.294692 
L 178.461772 236.294692 
L 177.772354 236.294692 
L 177.082936 236.294692 
L 176.393517 236.294692 
L 175.704099 236.294692 
L 175.01468 236.294692 
L 174.325262 236.294692 
L 173.635844 236.294692 
L 172.946425 236.294692 
L 172.257007 236.294692 
L 171.567589 236.294692 
L 170.87817 236.294692 
L 170.188752 236.294692 
L 169.499333 236.294692 
L 168.809915 236.294692 
L 168.120497 236.294692 
L 167.431078 236.294692 
L 166.74166 236.294692 
L 166.052242 236.294692 
L 165.362823 236.294692 
L 164.673405 236.294692 
L 163.983986 236.294692 
L 163.294568 236.294692 
L 162.60515 236.294692 
L 161.915731 236.294692 
L 161.226313 236.294692 
L 160.536895 236.294692 
L 159.847476 236.294692 
L 159.158058 236.294692 
L 158.468639 236.294692 
L 157.779221 236.294692 
L 157.089803 236.294692 
L 156.400384 236.294692 
L 155.710966 236.294692 
L 155.021548 236.294692 
L 154.332129 236.294692 
L 153.642711 236.294692 
L 152.953292 236.294692 
L 152.263874 236.294692 
L 151.574456 236.294692 
L 150.885037 236.294692 
L 150.195619 236.294692 
L 149.506201 236.294692 
L 148.816782 236.294692 
L 148.127364 236.294692 
L 147.437945 236.294692 
L 146.748527 236.294692 
L 146.059109 236.294692 
L 145.36969 236.294692 
L 144.680272 236.294692 
L 143.990853 236.294692 
L 143.301435 236.294692 
L 142.612017 236.294692 
L 141.922598 236.294692 
L 141.23318 236.294692 
L 140.543762 236.294692 
L 139.854343 236.294692 
L 139.164925 236.294692 
L 138.475506 236.294692 
L 137.786088 236.294692 
L 137.09667 236.294692 
L 136.407251 236.294692 
L 135.717833 236.294692 
L 135.028415 236.294692 
L 134.338996 236.294692 
L 133.649578 236.294692 
L 132.960159 236.294692 
L 132.270741 236.294692 
L 131.581323 236.294692 
L 130.891904 236.294692 
L 130.202486 236.294692 
L 129.513068 236.294692 
L 128.823649 236.294692 
L 128.134231 236.294692 
L 127.444812 236.294692 
L 126.755394 236.294692 
L 126.065976 236.294692 
L 125.376557 236.294692 
L 124.687139 236.294692 
L 123.997721 236.294692 
L 123.308302 236.294692 
L 122.618884 236.294692 
L 121.929465 236.294692 
L 121.240047 236.294692 
L 120.550629 236.294692 
L 119.86121 236.294692 
L 119.171792 236.294692 
L 118.482374 236.294692 
L 117.792955 236.294692 
L 117.103537 236.294692 
L 116.414118 236.294692 
L 115.7247 236.294692 
L 115.035282 236.294692 
L 114.345863 236.294692 
L 113.656445 236.294692 
L 112.967027 236.294692 
L 112.277608 236.294692 
L 111.58819 236.294692 
L 110.898771 236.294692 
L 110.209353 236.294692 
L 109.519935 236.294692 
L 108.830516 236.294692 
L 108.141098 236.294692 
L 107.451679 236.294692 
L 106.762261 236.294692 
L 106.072843 236.294692 
L 105.383424 236.294692 
L 104.694006 236.294692 
L 104.004588 236.294692 
L 103.315169 236.294692 
L 102.625751 236.294692 
L 101.936332 236.294692 
L 101.246914 236.294692 
L 100.557496 236.294692 
L 99.868077 236.294692 
L 99.178659 236.294692 
L 98.489241 236.294692 
L 97.799822 236.294692 
L 97.110404 236.294692 
L 96.420985 236.294692 
L 95.731567 236.294692 
L 95.042149 236.294692 
L 94.35273 236.294692 
L 93.663312 236.294692 
L 92.973894 236.294692 
L 92.284475 236.294692 
L 91.595057 236.294692 
z
" style="fill:#7f7f7f;fill-opacity:0.25;"/>
   </g>
   <g id="matplotlib.axis_3">
    <g id="ytick_7">
     <g id="line2d_40">
      <path clip-path="url(#p165eade139)" d="M 78.771875 236.294692 
L 360.881875 236.294692 
" style="fill:none;stroke:#b0b0b0;stroke-linecap:square;stroke-width:0.8;"/>
     </g>
     <g id="line2d_41">
      <defs>
       <path d="M 0 0 
L 3.5 0 
" id="mcd3b2e8c89" style="stroke:#7f7f7f;stroke-width:0.8;"/>
      </defs>
      <g>
       <use style="fill:#7f7f7f;stroke:#7f7f7f;stroke-width:0.8;" x="360.881875" xlink:href="#mcd3b2e8c89" y="236.294692"/>
      </g>
     </g>
     <g id="text_21">
      <!-- 0 -->
      <g style="fill:#7f7f7f;" transform="translate(367.881875 240.093911)scale(0.1 -0.1)">
       <use xlink:href="#DejaVuSans-48"/>
      </g>
     </g>
    </g>
    <g id="ytick_8">
     <g id="line2d_42">
      <path clip-path="url(#p165eade139)" d="M 78.771875 191.235598 
L 360.881875 191.235598 
" style="fill:none;stroke:#b0b0b0;stroke-linecap:square;stroke-width:0.8;"/>
     </g>
     <g id="line2d_43">
      <g>
       <use style="fill:#7f7f7f;stroke:#7f7f7f;stroke-width:0.8;" x="360.881875" xlink:href="#mcd3b2e8c89" y="191.235598"/>
      </g>
     </g>
     <g id="text_22">
      <!-- 10,000 -->
      <g style="fill:#7f7f7f;" transform="translate(367.881875 195.034816)scale(0.1 -0.1)">
       <use xlink:href="#DejaVuSans-49"/>
       <use x="63.623047" xlink:href="#DejaVuSans-48"/>
       <use x="127.246094" xlink:href="#DejaVuSans-44"/>
       <use x="159.033203" xlink:href="#DejaVuSans-48"/>
       <use x="222.65625" xlink:href="#DejaVuSans-48"/>
       <use x="286.279297" xlink:href="#DejaVuSans-48"/>
      </g>
     </g>
    </g>
    <g id="ytick_9">
     <g id="line2d_44">
      <path clip-path="url(#p165eade139)" d="M 78.771875 146.176503 
L 360.881875 146.176503 
" style="fill:none;stroke:#b0b0b0;stroke-linecap:square;stroke-width:0.8;"/>
     </g>
     <g id="line2d_45">
      <g>
       <use style="fill:#7f7f7f;stroke:#7f7f7f;stroke-width:0.8;" x="360.881875" xlink:href="#mcd3b2e8c89" y="146.176503"/>
      </g>
     </g>
     <g id="text_23">
      <!-- 20,000 -->
      <g style="fill:#7f7f7f;" transform="translate(367.881875 149.975722)scale(0.1 -0.1)">
       <use xlink:href="#DejaVuSans-50"/>
       <use x="63.623047" xlink:href="#DejaVuSans-48"/>
       <use x="127.246094" xlink:href="#DejaVuSans-44"/>
       <use x="159.033203" xlink:href="#DejaVuSans-48"/>
       <use x="222.65625" xlink:href="#DejaVuSans-48"/>
       <use x="286.279297" xlink:href="#DejaVuSans-48"/>
      </g>
     </g>
    </g>
    <g id="ytick_10">
     <g id="line2d_46">
      <path clip-path="url(#p165eade139)" d="M 78.771875 101.117408 
L 360.881875 101.117408 
" style="fill:none;stroke:#b0b0b0;stroke-linecap:square;stroke-width:0.8;"/>
     </g>
     <g id="line2d_47">
      <g>
       <use style="fill:#7f7f7f;stroke:#7f7f7f;stroke-width:0.8;" x="360.881875" xlink:href="#mcd3b2e8c89" y="101.117408"/>
      </g>
     </g>
     <g id="text_24">
      <!-- 30,000 -->
      <g style="fill:#7f7f7f;" transform="translate(367.881875 104.916627)scale(0.1 -0.1)">
       <defs>
        <path d="M 40.578125 39.3125 
Q 47.65625 37.796875 51.625 33 
Q 55.609375 28.21875 55.609375 21.1875 
Q 55.609375 10.40625 48.1875 4.484375 
Q 40.765625 -1.421875 27.09375 -1.421875 
Q 22.515625 -1.421875 17.65625 -0.515625 
Q 12.796875 0.390625 7.625 2.203125 
L 7.625 11.71875 
Q 11.71875 9.328125 16.59375 8.109375 
Q 21.484375 6.890625 26.8125 6.890625 
Q 36.078125 6.890625 40.9375 10.546875 
Q 45.796875 14.203125 45.796875 21.1875 
Q 45.796875 27.640625 41.28125 31.265625 
Q 36.765625 34.90625 28.71875 34.90625 
L 20.21875 34.90625 
L 20.21875 43.015625 
L 29.109375 43.015625 
Q 36.375 43.015625 40.234375 45.921875 
Q 44.09375 48.828125 44.09375 54.296875 
Q 44.09375 59.90625 40.109375 62.90625 
Q 36.140625 65.921875 28.71875 65.921875 
Q 24.65625 65.921875 20.015625 65.03125 
Q 15.375 64.15625 9.8125 62.3125 
L 9.8125 71.09375 
Q 15.4375 72.65625 20.34375 73.4375 
Q 25.25 74.21875 29.59375 74.21875 
Q 40.828125 74.21875 47.359375 69.109375 
Q 53.90625 64.015625 53.90625 55.328125 
Q 53.90625 49.265625 50.4375 45.09375 
Q 46.96875 40.921875 40.578125 39.3125 
z
" id="DejaVuSans-51"/>
       </defs>
       <use xlink:href="#DejaVuSans-51"/>
       <use x="63.623047" xlink:href="#DejaVuSans-48"/>
       <use x="127.246094" xlink:href="#DejaVuSans-44"/>
       <use x="159.033203" xlink:href="#DejaVuSans-48"/>
       <use x="222.65625" xlink:href="#DejaVuSans-48"/>
       <use x="286.279297" xlink:href="#DejaVuSans-48"/>
      </g>
     </g>
    </g>
    <g id="ytick_11">
     <g id="line2d_48">
      <path clip-path="url(#p165eade139)" d="M 78.771875 56.058313 
L 360.881875 56.058313 
" style="fill:none;stroke:#b0b0b0;stroke-linecap:square;stroke-width:0.8;"/>
     </g>
     <g id="line2d_49">
      <g>
       <use style="fill:#7f7f7f;stroke:#7f7f7f;stroke-width:0.8;" x="360.881875" xlink:href="#mcd3b2e8c89" y="56.058313"/>
      </g>
     </g>
     <g id="text_25">
      <!-- 40,000 -->
      <g style="fill:#7f7f7f;" transform="translate(367.881875 59.857532)scale(0.1 -0.1)">
       <defs>
        <path d="M 37.796875 64.3125 
L 12.890625 25.390625 
L 37.796875 25.390625 
z
M 35.203125 72.90625 
L 47.609375 72.90625 
L 47.609375 25.390625 
L 58.015625 25.390625 
L 58.015625 17.1875 
L 47.609375 17.1875 
L 47.609375 0 
L 37.796875 0 
L 37.796875 17.1875 
L 4.890625 17.1875 
L 4.890625 26.703125 
z
" id="DejaVuSans-52"/>
       </defs>
       <use xlink:href="#DejaVuSans-52"/>
       <use x="63.623047" xlink:href="#DejaVuSans-48"/>
       <use x="127.246094" xlink:href="#DejaVuSans-44"/>
       <use x="159.033203" xlink:href="#DejaVuSans-48"/>
       <use x="222.65625" xlink:href="#DejaVuSans-48"/>
       <use x="286.279297" xlink:href="#DejaVuSans-48"/>
      </g>
     </g>
    </g>
    <g id="ytick_12">
     <g id="line2d_50">
      <path clip-path="url(#p165eade139)" d="M 78.771875 10.999219 
L 360.881875 10.999219 
" style="fill:none;stroke:#b0b0b0;stroke-linecap:square;stroke-width:0.8;"/>
     </g>
     <g id="line2d_51">
      <g>
       <use style="fill:#7f7f7f;stroke:#7f7f7f;stroke-width:0.8;" x="360.881875" xlink:href="#mcd3b2e8c89" y="10.999219"/>
      </g>
     </g>
     <g id="text_26">
      <!-- 50,000 -->
      <g style="fill:#7f7f7f;" transform="translate(367.881875 14.798438)scale(0.1 -0.1)">
       <use xlink:href="#DejaVuSans-53"/>
       <use x="63.623047" xlink:href="#DejaVuSans-48"/>
       <use x="127.246094" xlink:href="#DejaVuSans-44"/>
       <use x="159.033203" xlink:href="#DejaVuSans-48"/>
       <use x="222.65625" xlink:href="#DejaVuSans-48"/>
       <use x="286.279297" xlink:href="#DejaVuSans-48"/>
      </g>
     </g>
    </g>
    <g id="text_27">
     <!-- Neue Fälle -->
     <g style="fill:#7f7f7f;" transform="translate(414.470938 149.636799)rotate(-90)scale(0.1 -0.1)">
      <use xlink:href="#DejaVuSans-78"/>
      <use x="74.804688" xlink:href="#DejaVuSans-101"/>
      <use x="136.328125" xlink:href="#DejaVuSans-117"/>
      <use x="199.707031" xlink:href="#DejaVuSans-101"/>
      <use x="261.230469" xlink:href="#DejaVuSans-32"/>
      <use x="293.017578" xlink:href="#DejaVuSans-70"/>
      <use x="341.412109" xlink:href="#DejaVuSans-228"/>
      <use x="402.691406" xlink:href="#DejaVuSans-108"/>
      <use x="430.474609" xlink:href="#DejaVuSans-108"/>
      <use x="458.257812" xlink:href="#DejaVuSans-101"/>
     </g>
    </g>
   </g>
   <g id="line2d_52">
    <path clip-path="url(#p165eade139)" d="M 91.595057 236.294692 
L 117.103537 236.285681 
L 118.482374 236.064891 
L 119.171792 236.164021 
L 120.550629 235.997302 
L 121.240047 235.303392 
L 121.929465 235.447581 
L 122.618884 235.71343 
L 123.308302 235.208768 
L 123.997721 235.681889 
L 125.376557 234.262527 
L 126.065976 235.528688 
L 126.755394 229.098755 
L 127.444812 232.194315 
L 128.823649 229.639464 
L 129.513068 227.350462 
L 130.202486 222.46155 
L 130.891904 222.808505 
L 131.581323 215.891934 
L 132.270741 225.638216 
L 132.960159 224.308973 
L 133.649578 217.446473 
L 134.338996 218.586468 
L 135.028415 216.752563 
L 135.717833 206.488101 
L 136.407251 205.055222 
L 137.09667 205.546366 
L 137.786088 216.468691 
L 138.475506 214.711386 
L 139.164925 214.1121 
L 139.854343 208.970857 
L 140.543762 205.104787 
L 141.23318 207.614579 
L 141.922598 214.067041 
L 143.301435 221.645981 
L 143.990853 216.968847 
L 144.680272 210.912904 
L 145.36969 214.283325 
L 146.059109 218.316114 
L 146.748527 223.962018 
L 147.437945 223.020283 
L 148.127364 226.300585 
L 148.816782 230.495587 
L 149.506201 221.001636 
L 150.195619 223.024789 
L 150.885037 219.627333 
L 151.574456 227.530698 
L 152.263874 227.994807 
L 152.953292 227.819077 
L 153.642711 230.770447 
L 154.332129 225.674264 
L 155.021548 225.115531 
L 155.710966 227.868642 
L 156.400384 229.472745 
L 157.779221 231.842854 
L 158.468639 231.094873 
L 159.158058 228.963578 
L 159.847476 229.671005 
L 160.536895 231.482381 
L 161.915731 233.154073 
L 162.60515 234.095809 
L 163.294568 232.44214 
L 163.983986 231.090367 
L 164.673405 230.581199 
L 165.362823 231.076849 
L 166.052242 232.978343 
L 166.74166 233.793913 
L 167.431078 233.154073 
L 168.120497 233.613676 
L 168.809915 232.117714 
L 169.499333 234.582447 
L 170.188752 232.892731 
L 170.87817 233.956125 
L 171.567589 233.514546 
L 172.257007 235.474617 
L 172.946425 230.765941 
L 173.635844 233.163085 
L 174.325262 233.825454 
L 175.01468 233.190121 
L 175.704099 235.051061 
L 176.393517 234.753671 
L 177.082936 235.069085 
L 177.772354 233.591147 
L 178.461772 234.834778 
L 179.151191 233.266721 
L 179.840609 233.023402 
L 180.530027 235.091615 
L 181.908864 235.465605 
L 182.598283 235.010508 
L 183.287701 235.204262 
L 184.666538 234.258021 
L 185.355956 233.924584 
L 186.045375 234.94292 
L 187.424211 234.505846 
L 188.11363 236.222598 
L 188.803048 235.533194 
L 189.492466 233.884031 
L 190.181885 236.10995 
L 190.871303 235.163709 
L 191.560722 235.555723 
L 192.25014 233.726324 
L 192.939558 234.708612 
L 193.628977 230.829024 
L 194.318395 234.122844 
L 195.007813 234.623 
L 195.697232 233.582135 
L 196.38665 234.059761 
L 197.076069 233.086485 
L 197.765487 234.532882 
L 198.454905 234.041738 
L 199.144324 233.298263 
L 199.833742 234.393199 
L 200.52316 235.235804 
L 201.212579 234.72213 
L 201.901997 234.60047 
L 202.591416 234.154385 
L 203.280834 234.145374 
L 203.970252 234.44727 
L 204.659671 234.411222 
L 205.349089 234.830272 
L 206.038507 233.856995 
L 206.727926 235.037544 
L 207.417344 234.690589 
L 208.106763 234.933908 
L 209.485599 234.595965 
L 210.175018 235.348451 
L 210.864436 235.11865 
L 211.553854 235.051061 
L 212.932691 233.771383 
L 213.62211 233.613676 
L 214.311528 234.577941 
L 215.000946 234.902366 
L 215.690365 233.636206 
L 216.379783 234.528376 
L 217.069201 233.775889 
L 217.75862 233.568617 
L 218.448038 232.951308 
L 219.137457 233.343322 
L 219.826875 234.541894 
L 220.516293 234.289563 
L 221.205712 233.613676 
L 221.89513 232.514234 
L 222.584549 231.838348 
L 223.273967 232.401587 
L 223.963385 233.564111 
L 224.652804 235.325922 
L 225.342222 232.279927 
L 226.03164 233.063955 
L 226.721059 230.504599 
L 227.410477 232.12222 
L 228.099896 231.081355 
L 228.789314 233.109014 
L 229.478732 234.559917 
L 230.168151 230.797483 
L 230.857569 231.644594 
L 231.546987 230.351398 
L 232.925824 229.490769 
L 233.615243 233.154073 
L 234.304661 233.956125 
L 234.994079 228.666188 
L 235.683498 229.896301 
L 236.372916 229.14832 
L 237.062334 229.14832 
L 237.751753 228.467928 
L 238.441171 232.545776 
L 239.13059 233.442452 
L 239.820008 228.959072 
L 240.509426 229.711559 
L 241.198845 229.86476 
L 241.888263 229.260968 
L 242.577681 229.288003 
L 243.2671 233.100003 
L 243.956518 234.176915 
L 244.645937 229.549346 
L 245.335355 230.829024 
L 246.024773 230.004443 
L 247.40361 229.792665 
L 248.093028 232.802613 
L 248.782447 233.275733 
L 249.471865 227.742476 
L 250.161284 230.297327 
L 250.850702 229.64397 
L 251.54012 228.562552 
L 252.229539 229.14832 
L 252.918957 231.419298 
L 253.608375 232.149256 
L 254.297794 229.603417 
L 254.987212 228.220103 
L 255.676631 227.93623 
L 256.366049 226.476316 
L 257.055467 226.386197 
L 257.744886 228.702235 
L 258.434304 231.640088 
L 259.123723 229.107767 
L 259.813141 227.949748 
L 260.502559 229.02666 
L 261.191978 225.836477 
L 261.881396 225.633711 
L 262.570814 230.373927 
L 263.260233 230.378433 
L 263.949651 225.967148 
L 264.63907 228.003819 
L 265.328488 225.291261 
L 266.707325 223.520439 
L 267.396743 228.846424 
L 268.086161 229.328556 
L 268.77558 222.326373 
L 269.464998 225.237191 
L 270.154417 218.225995 
L 270.843835 214.648303 
L 271.533253 215.774781 
L 272.222672 222.921153 
L 272.91209 223.470874 
L 273.601508 206.821539 
L 274.290927 216.180313 
L 274.980345 203.973804 
L 275.669764 201.959662 
L 276.359182 201.621719 
L 277.0486 214.386961 
L 277.738019 218.239513 
L 278.427437 198.458571 
L 279.116855 197.890826 
L 279.806274 180.732323 
L 280.495692 209.475519 
L 281.185111 175.573056 
L 281.874529 189.171891 
L 282.563947 191.731248 
L 283.253366 179.700469 
L 283.942784 176.992418 
L 284.632202 163.289947 
L 285.321621 151.88549 
L 286.011039 148.961155 
L 286.700458 172.968641 
L 287.389876 179.718493 
L 288.079294 122.511466 
L 288.768713 202.351676 
L 289.458131 94.448662 
L 290.147549 134.636869 
L 290.836968 133.469838 
L 291.526386 172.662239 
L 292.215805 170.913946 
L 292.905223 206.907151 
L 293.594641 116.676314 
L 294.28406 135.357814 
L 294.973478 124.827504 
L 295.662897 135.988642 
L 296.352315 170.328178 
L 297.041733 221.817205 
L 298.42057 118.100181 
L 299.109988 129.382978 
L 299.799407 127.968123 
L 300.488825 134.49268 
L 301.867662 216.572327 
L 302.55708 171.161771 
L 303.246499 162.532954 
L 303.935917 89.010029 
L 304.625335 137.385474 
L 305.314754 142.486163 
L 306.004172 173.910376 
L 306.693591 221.8893 
L 308.072427 124.701338 
L 308.761846 131.419649 
L 309.451264 129.995782 
L 310.140682 164.335318 
L 310.830101 118.573302 
L 311.519519 187.13522 
L 312.208938 211.71045 
L 312.898356 104.438263 
L 313.587774 123.24593 
L 314.277193 88.798252 
L 315.656029 138.101913 
L 316.345448 170.01727 
L 317.034866 207.22707 
L 317.724285 83.882304 
L 318.413703 88.753193 
L 319.103121 100.31085 
L 319.79254 88.365684 
L 320.481958 138.611081 
L 321.171376 207.258612 
L 321.860795 149.5289 
L 322.550213 73.392547 
L 323.239632 84.1842 
L 323.92905 117.036786 
L 324.618468 226.652046 
L 325.307887 175.446891 
L 325.997305 180.425921 
L 326.686723 173.193936 
L 327.376142 148.582659 
L 328.06556 15.306868 
L 328.754979 149.028744 
L 329.444397 226.755682 
L 330.133815 187.166761 
L 330.823234 189.631494 
L 331.512652 180.781888 
L 332.202071 153.615759 
L 332.891489 116.153628 
L 333.580907 32.028298 
L 334.270326 150.335457 
L 334.959744 133.451815 
L 335.649162 232.02309 
L 336.338581 183.548516 
L 337.027999 113.688896 
L 337.717418 121.096611 
L 338.406836 140.125067 
L 339.096254 197.575412 
L 339.785673 169.530632 
L 340.475091 184.548828 
L 341.164509 194.601512 
L 341.853928 181.173902 
L 342.543346 105.6098 
L 343.232765 198.99928 
L 343.922183 162.550978 
L 344.611601 180.286238 
L 345.30102 190.884137 
L 345.990438 205.262494 
L 346.679856 193.99772 
L 347.369275 165.840292 
L 348.058693 169.233242 
L 348.058693 169.233242 
" style="fill:none;stroke:#7f7f7f;stroke-linecap:square;stroke-opacity:0.5;stroke-width:1.5;"/>
   </g>
   <g id="patch_7">
    <path d="M 78.771875 236.294692 
L 78.771875 10.999219 
" style="fill:none;stroke:#000000;stroke-linecap:square;stroke-linejoin:miter;stroke-width:0.8;"/>
   </g>
   <g id="patch_8">
    <path d="M 360.881875 236.294692 
L 360.881875 10.999219 
" style="fill:none;stroke:#000000;stroke-linecap:square;stroke-linejoin:miter;stroke-width:0.8;"/>
   </g>
   <g id="patch_9">
    <path d="M 78.771875 236.294692 
L 360.881875 236.294692 
" style="fill:none;stroke:#000000;stroke-linecap:square;stroke-linejoin:miter;stroke-width:0.8;"/>
   </g>
   <g id="patch_10">
    <path d="M 78.771875 10.999219 
L 360.881875 10.999219 
" style="fill:none;stroke:#000000;stroke-linecap:square;stroke-linejoin:miter;stroke-width:0.8;"/>
   </g>
  </g>
 </g>
 <defs>
  <clipPath id="p165eade139">
   <rect height="225.295474" width="282.11" x="78.771875" y="10.999219"/>
  </clipPath>
 </defs>
</svg>
