<?xml version="1.0" encoding="utf-8" standalone="no"?>
<!DOCTYPE svg PUBLIC "-//W3C//DTD SVG 1.1//EN"
  "http://www.w3.org/Graphics/SVG/1.1/DTD/svg11.dtd">
<!-- Created with matplotlib (https://matplotlib.org/) -->
<svg height="279.674687pt" version="1.1" viewBox="0 0 424.260625 279.674687" width="424.260625pt" xmlns="http://www.w3.org/2000/svg" xmlns:xlink="http://www.w3.org/1999/xlink">
 <metadata>
  <rdf:RDF xmlns:cc="http://creativecommons.org/ns#" xmlns:dc="http://purl.org/dc/elements/1.1/" xmlns:rdf="http://www.w3.org/1999/02/22-rdf-syntax-ns#">
   <cc:Work>
    <dc:type rdf:resource="http://purl.org/dc/dcmitype/StillImage"/>
    <dc:date>2021-01-29T15:01:22.774765</dc:date>
    <dc:format>image/svg+xml</dc:format>
    <dc:creator>
     <cc:Agent>
      <dc:title>Matplotlib v3.3.4, https://matplotlib.org/</dc:title>
     </cc:Agent>
    </dc:creator>
   </cc:Work>
  </rdf:RDF>
 </metadata>
 <defs>
  <style type="text/css">*{stroke-linecap:butt;stroke-linejoin:round;}</style>
 </defs>
 <g id="figure_1">
  <g id="patch_1">
   <path d="M 0 279.674687 
L 424.260625 279.674687 
L 424.260625 0 
L 0 0 
z
" style="fill:#ffffff;"/>
  </g>
  <g id="axes_1">
   <g id="patch_2">
    <path d="M 59.690625 122.808437 
L 417.060625 122.808437 
L 417.060625 17.798437 
L 59.690625 17.798437 
z
" style="fill:#ffffff;"/>
   </g>
   <g id="matplotlib.axis_1">
    <g id="xtick_1">
     <g id="line2d_1">
      <path clip-path="url(#p578ee81e8c)" d="M 109.994907 122.808437 
L 109.994907 17.798437 
" style="fill:none;stroke:#b0b0b0;stroke-linecap:square;stroke-width:0.8;"/>
     </g>
     <g id="line2d_2">
      <defs>
       <path d="M 0 0 
L 0 3.5 
" id="m97c9015fb4" style="stroke:#000000;stroke-width:0.8;"/>
      </defs>
      <g>
       <use style="stroke:#000000;stroke-width:0.8;" x="109.994907" xlink:href="#m97c9015fb4" y="122.808437"/>
      </g>
     </g>
    </g>
    <g id="xtick_2">
     <g id="line2d_3">
      <path clip-path="url(#p578ee81e8c)" d="M 163.268538 122.808437 
L 163.268538 17.798437 
" style="fill:none;stroke:#b0b0b0;stroke-linecap:square;stroke-width:0.8;"/>
     </g>
     <g id="line2d_4">
      <g>
       <use style="stroke:#000000;stroke-width:0.8;" x="163.268538" xlink:href="#m97c9015fb4" y="122.808437"/>
      </g>
     </g>
    </g>
    <g id="xtick_3">
     <g id="line2d_5">
      <path clip-path="url(#p578ee81e8c)" d="M 216.542169 122.808437 
L 216.542169 17.798437 
" style="fill:none;stroke:#b0b0b0;stroke-linecap:square;stroke-width:0.8;"/>
     </g>
     <g id="line2d_6">
      <g>
       <use style="stroke:#000000;stroke-width:0.8;" x="216.542169" xlink:href="#m97c9015fb4" y="122.808437"/>
      </g>
     </g>
    </g>
    <g id="xtick_4">
     <g id="line2d_7">
      <path clip-path="url(#p578ee81e8c)" d="M 270.689139 122.808437 
L 270.689139 17.798437 
" style="fill:none;stroke:#b0b0b0;stroke-linecap:square;stroke-width:0.8;"/>
     </g>
     <g id="line2d_8">
      <g>
       <use style="stroke:#000000;stroke-width:0.8;" x="270.689139" xlink:href="#m97c9015fb4" y="122.808437"/>
      </g>
     </g>
    </g>
    <g id="xtick_5">
     <g id="line2d_9">
      <path clip-path="url(#p578ee81e8c)" d="M 323.962771 122.808437 
L 323.962771 17.798437 
" style="fill:none;stroke:#b0b0b0;stroke-linecap:square;stroke-width:0.8;"/>
     </g>
     <g id="line2d_10">
      <g>
       <use style="stroke:#000000;stroke-width:0.8;" x="323.962771" xlink:href="#m97c9015fb4" y="122.808437"/>
      </g>
     </g>
    </g>
    <g id="xtick_6">
     <g id="line2d_11">
      <path clip-path="url(#p578ee81e8c)" d="M 377.236402 122.808437 
L 377.236402 17.798437 
" style="fill:none;stroke:#b0b0b0;stroke-linecap:square;stroke-width:0.8;"/>
     </g>
     <g id="line2d_12">
      <g>
       <use style="stroke:#000000;stroke-width:0.8;" x="377.236402" xlink:href="#m97c9015fb4" y="122.808437"/>
      </g>
     </g>
    </g>
   </g>
   <g id="matplotlib.axis_2">
    <g id="ytick_1">
     <g id="line2d_13">
      <path clip-path="url(#p578ee81e8c)" d="M 59.690625 118.035256 
L 417.060625 118.035256 
" style="fill:none;stroke:#b0b0b0;stroke-linecap:square;stroke-width:0.8;"/>
     </g>
     <g id="line2d_14">
      <defs>
       <path d="M 0 0 
L -3.5 0 
" id="me8d2b84111" style="stroke:#000000;stroke-width:0.8;"/>
      </defs>
      <g>
       <use style="stroke:#000000;stroke-width:0.8;" x="59.690625" xlink:href="#me8d2b84111" y="118.035256"/>
      </g>
     </g>
     <g id="text_1">
      <!-- 0.0 -->
      <g transform="translate(36.7875 121.834474)scale(0.1 -0.1)">
       <defs>
        <path d="M 31.78125 66.40625 
Q 24.171875 66.40625 20.328125 58.90625 
Q 16.5 51.421875 16.5 36.375 
Q 16.5 21.390625 20.328125 13.890625 
Q 24.171875 6.390625 31.78125 6.390625 
Q 39.453125 6.390625 43.28125 13.890625 
Q 47.125 21.390625 47.125 36.375 
Q 47.125 51.421875 43.28125 58.90625 
Q 39.453125 66.40625 31.78125 66.40625 
z
M 31.78125 74.21875 
Q 44.046875 74.21875 50.515625 64.515625 
Q 56.984375 54.828125 56.984375 36.375 
Q 56.984375 17.96875 50.515625 8.265625 
Q 44.046875 -1.421875 31.78125 -1.421875 
Q 19.53125 -1.421875 13.0625 8.265625 
Q 6.59375 17.96875 6.59375 36.375 
Q 6.59375 54.828125 13.0625 64.515625 
Q 19.53125 74.21875 31.78125 74.21875 
z
" id="DejaVuSans-48"/>
        <path d="M 10.6875 12.40625 
L 21 12.40625 
L 21 0 
L 10.6875 0 
z
" id="DejaVuSans-46"/>
       </defs>
       <use xlink:href="#DejaVuSans-48"/>
       <use x="63.623047" xlink:href="#DejaVuSans-46"/>
       <use x="95.410156" xlink:href="#DejaVuSans-48"/>
      </g>
     </g>
    </g>
    <g id="ytick_2">
     <g id="line2d_15">
      <path clip-path="url(#p578ee81e8c)" d="M 59.690625 96.285213 
L 417.060625 96.285213 
" style="fill:none;stroke:#b0b0b0;stroke-linecap:square;stroke-width:0.8;"/>
     </g>
     <g id="line2d_16">
      <g>
       <use style="stroke:#000000;stroke-width:0.8;" x="59.690625" xlink:href="#me8d2b84111" y="96.285213"/>
      </g>
     </g>
     <g id="text_2">
      <!-- 0.5 -->
      <g transform="translate(36.7875 100.084431)scale(0.1 -0.1)">
       <defs>
        <path d="M 10.796875 72.90625 
L 49.515625 72.90625 
L 49.515625 64.59375 
L 19.828125 64.59375 
L 19.828125 46.734375 
Q 21.96875 47.46875 24.109375 47.828125 
Q 26.265625 48.1875 28.421875 48.1875 
Q 40.625 48.1875 47.75 41.5 
Q 54.890625 34.8125 54.890625 23.390625 
Q 54.890625 11.625 47.5625 5.09375 
Q 40.234375 -1.421875 26.90625 -1.421875 
Q 22.3125 -1.421875 17.546875 -0.640625 
Q 12.796875 0.140625 7.71875 1.703125 
L 7.71875 11.625 
Q 12.109375 9.234375 16.796875 8.0625 
Q 21.484375 6.890625 26.703125 6.890625 
Q 35.15625 6.890625 40.078125 11.328125 
Q 45.015625 15.765625 45.015625 23.390625 
Q 45.015625 31 40.078125 35.4375 
Q 35.15625 39.890625 26.703125 39.890625 
Q 22.75 39.890625 18.8125 39.015625 
Q 14.890625 38.140625 10.796875 36.28125 
z
" id="DejaVuSans-53"/>
       </defs>
       <use xlink:href="#DejaVuSans-48"/>
       <use x="63.623047" xlink:href="#DejaVuSans-46"/>
       <use x="95.410156" xlink:href="#DejaVuSans-53"/>
      </g>
     </g>
    </g>
    <g id="ytick_3">
     <g id="line2d_17">
      <path clip-path="url(#p578ee81e8c)" d="M 59.690625 74.535169 
L 417.060625 74.535169 
" style="fill:none;stroke:#b0b0b0;stroke-linecap:square;stroke-width:0.8;"/>
     </g>
     <g id="line2d_18">
      <g>
       <use style="stroke:#000000;stroke-width:0.8;" x="59.690625" xlink:href="#me8d2b84111" y="74.535169"/>
      </g>
     </g>
     <g id="text_3">
      <!-- 1.0 -->
      <g transform="translate(36.7875 78.334388)scale(0.1 -0.1)">
       <defs>
        <path d="M 12.40625 8.296875 
L 28.515625 8.296875 
L 28.515625 63.921875 
L 10.984375 60.40625 
L 10.984375 69.390625 
L 28.421875 72.90625 
L 38.28125 72.90625 
L 38.28125 8.296875 
L 54.390625 8.296875 
L 54.390625 0 
L 12.40625 0 
z
" id="DejaVuSans-49"/>
       </defs>
       <use xlink:href="#DejaVuSans-49"/>
       <use x="63.623047" xlink:href="#DejaVuSans-46"/>
       <use x="95.410156" xlink:href="#DejaVuSans-48"/>
      </g>
     </g>
    </g>
    <g id="ytick_4">
     <g id="line2d_19">
      <path clip-path="url(#p578ee81e8c)" d="M 59.690625 52.785126 
L 417.060625 52.785126 
" style="fill:none;stroke:#b0b0b0;stroke-linecap:square;stroke-width:0.8;"/>
     </g>
     <g id="line2d_20">
      <g>
       <use style="stroke:#000000;stroke-width:0.8;" x="59.690625" xlink:href="#me8d2b84111" y="52.785126"/>
      </g>
     </g>
     <g id="text_4">
      <!-- 1.5 -->
      <g transform="translate(36.7875 56.584345)scale(0.1 -0.1)">
       <use xlink:href="#DejaVuSans-49"/>
       <use x="63.623047" xlink:href="#DejaVuSans-46"/>
       <use x="95.410156" xlink:href="#DejaVuSans-53"/>
      </g>
     </g>
    </g>
    <g id="ytick_5">
     <g id="line2d_21">
      <path clip-path="url(#p578ee81e8c)" d="M 59.690625 31.035083 
L 417.060625 31.035083 
" style="fill:none;stroke:#b0b0b0;stroke-linecap:square;stroke-width:0.8;"/>
     </g>
     <g id="line2d_22">
      <g>
       <use style="stroke:#000000;stroke-width:0.8;" x="59.690625" xlink:href="#me8d2b84111" y="31.035083"/>
      </g>
     </g>
     <g id="text_5">
      <!-- 2.0 -->
      <g transform="translate(36.7875 34.834302)scale(0.1 -0.1)">
       <defs>
        <path d="M 19.1875 8.296875 
L 53.609375 8.296875 
L 53.609375 0 
L 7.328125 0 
L 7.328125 8.296875 
Q 12.9375 14.109375 22.625 23.890625 
Q 32.328125 33.6875 34.8125 36.53125 
Q 39.546875 41.84375 41.421875 45.53125 
Q 43.3125 49.21875 43.3125 52.78125 
Q 43.3125 58.59375 39.234375 62.25 
Q 35.15625 65.921875 28.609375 65.921875 
Q 23.96875 65.921875 18.8125 64.3125 
Q 13.671875 62.703125 7.8125 59.421875 
L 7.8125 69.390625 
Q 13.765625 71.78125 18.9375 73 
Q 24.125 74.21875 28.421875 74.21875 
Q 39.75 74.21875 46.484375 68.546875 
Q 53.21875 62.890625 53.21875 53.421875 
Q 53.21875 48.921875 51.53125 44.890625 
Q 49.859375 40.875 45.40625 35.40625 
Q 44.1875 33.984375 37.640625 27.21875 
Q 31.109375 20.453125 19.1875 8.296875 
z
" id="DejaVuSans-50"/>
       </defs>
       <use xlink:href="#DejaVuSans-50"/>
       <use x="63.623047" xlink:href="#DejaVuSans-46"/>
       <use x="95.410156" xlink:href="#DejaVuSans-48"/>
      </g>
     </g>
    </g>
    <g id="text_6">
     <!-- Fälle kumuliert -->
     <g transform="translate(30.707812 107.047969)rotate(-90)scale(0.1 -0.1)">
      <defs>
       <path d="M 9.8125 72.90625 
L 51.703125 72.90625 
L 51.703125 64.59375 
L 19.671875 64.59375 
L 19.671875 43.109375 
L 48.578125 43.109375 
L 48.578125 34.8125 
L 19.671875 34.8125 
L 19.671875 0 
L 9.8125 0 
z
" id="DejaVuSans-70"/>
       <path d="M 34.28125 27.484375 
Q 23.390625 27.484375 19.1875 25 
Q 14.984375 22.515625 14.984375 16.5 
Q 14.984375 11.71875 18.140625 8.90625 
Q 21.296875 6.109375 26.703125 6.109375 
Q 34.1875 6.109375 38.703125 11.40625 
Q 43.21875 16.703125 43.21875 25.484375 
L 43.21875 27.484375 
z
M 52.203125 31.203125 
L 52.203125 0 
L 43.21875 0 
L 43.21875 8.296875 
Q 40.140625 3.328125 35.546875 0.953125 
Q 30.953125 -1.421875 24.3125 -1.421875 
Q 15.921875 -1.421875 10.953125 3.296875 
Q 6 8.015625 6 15.921875 
Q 6 25.140625 12.171875 29.828125 
Q 18.359375 34.515625 30.609375 34.515625 
L 43.21875 34.515625 
L 43.21875 35.40625 
Q 43.21875 41.609375 39.140625 45 
Q 35.0625 48.390625 27.6875 48.390625 
Q 23 48.390625 18.546875 47.265625 
Q 14.109375 46.140625 10.015625 43.890625 
L 10.015625 52.203125 
Q 14.9375 54.109375 19.578125 55.046875 
Q 24.21875 56 28.609375 56 
Q 40.484375 56 46.34375 49.84375 
Q 52.203125 43.703125 52.203125 31.203125 
z
M 33.59375 75.78125 
L 43.5 75.78125 
L 43.5 65.921875 
L 33.59375 65.921875 
z
M 14.5 75.78125 
L 24.421875 75.78125 
L 24.421875 65.921875 
L 14.5 65.921875 
z
" id="DejaVuSans-228"/>
       <path d="M 9.421875 75.984375 
L 18.40625 75.984375 
L 18.40625 0 
L 9.421875 0 
z
" id="DejaVuSans-108"/>
       <path d="M 56.203125 29.59375 
L 56.203125 25.203125 
L 14.890625 25.203125 
Q 15.484375 15.921875 20.484375 11.0625 
Q 25.484375 6.203125 34.421875 6.203125 
Q 39.59375 6.203125 44.453125 7.46875 
Q 49.3125 8.734375 54.109375 11.28125 
L 54.109375 2.78125 
Q 49.265625 0.734375 44.1875 -0.34375 
Q 39.109375 -1.421875 33.890625 -1.421875 
Q 20.796875 -1.421875 13.15625 6.1875 
Q 5.515625 13.8125 5.515625 26.8125 
Q 5.515625 40.234375 12.765625 48.109375 
Q 20.015625 56 32.328125 56 
Q 43.359375 56 49.78125 48.890625 
Q 56.203125 41.796875 56.203125 29.59375 
z
M 47.21875 32.234375 
Q 47.125 39.59375 43.09375 43.984375 
Q 39.0625 48.390625 32.421875 48.390625 
Q 24.90625 48.390625 20.390625 44.140625 
Q 15.875 39.890625 15.1875 32.171875 
z
" id="DejaVuSans-101"/>
       <path id="DejaVuSans-32"/>
       <path d="M 9.078125 75.984375 
L 18.109375 75.984375 
L 18.109375 31.109375 
L 44.921875 54.6875 
L 56.390625 54.6875 
L 27.390625 29.109375 
L 57.625 0 
L 45.90625 0 
L 18.109375 26.703125 
L 18.109375 0 
L 9.078125 0 
z
" id="DejaVuSans-107"/>
       <path d="M 8.5 21.578125 
L 8.5 54.6875 
L 17.484375 54.6875 
L 17.484375 21.921875 
Q 17.484375 14.15625 20.5 10.265625 
Q 23.53125 6.390625 29.59375 6.390625 
Q 36.859375 6.390625 41.078125 11.03125 
Q 45.3125 15.671875 45.3125 23.6875 
L 45.3125 54.6875 
L 54.296875 54.6875 
L 54.296875 0 
L 45.3125 0 
L 45.3125 8.40625 
Q 42.046875 3.421875 37.71875 1 
Q 33.40625 -1.421875 27.6875 -1.421875 
Q 18.265625 -1.421875 13.375 4.4375 
Q 8.5 10.296875 8.5 21.578125 
z
M 31.109375 56 
z
" id="DejaVuSans-117"/>
       <path d="M 52 44.1875 
Q 55.375 50.25 60.0625 53.125 
Q 64.75 56 71.09375 56 
Q 79.640625 56 84.28125 50.015625 
Q 88.921875 44.046875 88.921875 33.015625 
L 88.921875 0 
L 79.890625 0 
L 79.890625 32.71875 
Q 79.890625 40.578125 77.09375 44.375 
Q 74.3125 48.1875 68.609375 48.1875 
Q 61.625 48.1875 57.5625 43.546875 
Q 53.515625 38.921875 53.515625 30.90625 
L 53.515625 0 
L 44.484375 0 
L 44.484375 32.71875 
Q 44.484375 40.625 41.703125 44.40625 
Q 38.921875 48.1875 33.109375 48.1875 
Q 26.21875 48.1875 22.15625 43.53125 
Q 18.109375 38.875 18.109375 30.90625 
L 18.109375 0 
L 9.078125 0 
L 9.078125 54.6875 
L 18.109375 54.6875 
L 18.109375 46.1875 
Q 21.1875 51.21875 25.484375 53.609375 
Q 29.78125 56 35.6875 56 
Q 41.65625 56 45.828125 52.96875 
Q 50 49.953125 52 44.1875 
z
" id="DejaVuSans-109"/>
       <path d="M 9.421875 54.6875 
L 18.40625 54.6875 
L 18.40625 0 
L 9.421875 0 
z
M 9.421875 75.984375 
L 18.40625 75.984375 
L 18.40625 64.59375 
L 9.421875 64.59375 
z
" id="DejaVuSans-105"/>
       <path d="M 41.109375 46.296875 
Q 39.59375 47.171875 37.8125 47.578125 
Q 36.03125 48 33.890625 48 
Q 26.265625 48 22.1875 43.046875 
Q 18.109375 38.09375 18.109375 28.8125 
L 18.109375 0 
L 9.078125 0 
L 9.078125 54.6875 
L 18.109375 54.6875 
L 18.109375 46.1875 
Q 20.953125 51.171875 25.484375 53.578125 
Q 30.03125 56 36.53125 56 
Q 37.453125 56 38.578125 55.875 
Q 39.703125 55.765625 41.0625 55.515625 
z
" id="DejaVuSans-114"/>
       <path d="M 18.3125 70.21875 
L 18.3125 54.6875 
L 36.8125 54.6875 
L 36.8125 47.703125 
L 18.3125 47.703125 
L 18.3125 18.015625 
Q 18.3125 11.328125 20.140625 9.421875 
Q 21.96875 7.515625 27.59375 7.515625 
L 36.8125 7.515625 
L 36.8125 0 
L 27.59375 0 
Q 17.1875 0 13.234375 3.875 
Q 9.28125 7.765625 9.28125 18.015625 
L 9.28125 47.703125 
L 2.6875 47.703125 
L 2.6875 54.6875 
L 9.28125 54.6875 
L 9.28125 70.21875 
z
" id="DejaVuSans-116"/>
      </defs>
      <use xlink:href="#DejaVuSans-70"/>
      <use x="48.394531" xlink:href="#DejaVuSans-228"/>
      <use x="109.673828" xlink:href="#DejaVuSans-108"/>
      <use x="137.457031" xlink:href="#DejaVuSans-108"/>
      <use x="165.240234" xlink:href="#DejaVuSans-101"/>
      <use x="226.763672" xlink:href="#DejaVuSans-32"/>
      <use x="258.550781" xlink:href="#DejaVuSans-107"/>
      <use x="313.335938" xlink:href="#DejaVuSans-117"/>
      <use x="376.714844" xlink:href="#DejaVuSans-109"/>
      <use x="474.126953" xlink:href="#DejaVuSans-117"/>
      <use x="537.505859" xlink:href="#DejaVuSans-108"/>
      <use x="565.289062" xlink:href="#DejaVuSans-105"/>
      <use x="593.072266" xlink:href="#DejaVuSans-101"/>
      <use x="654.595703" xlink:href="#DejaVuSans-114"/>
      <use x="695.708984" xlink:href="#DejaVuSans-116"/>
     </g>
    </g>
    <g id="text_7">
     <!-- 1e6 -->
     <g transform="translate(59.690625 14.798437)scale(0.1 -0.1)">
      <defs>
       <path d="M 33.015625 40.375 
Q 26.375 40.375 22.484375 35.828125 
Q 18.609375 31.296875 18.609375 23.390625 
Q 18.609375 15.53125 22.484375 10.953125 
Q 26.375 6.390625 33.015625 6.390625 
Q 39.65625 6.390625 43.53125 10.953125 
Q 47.40625 15.53125 47.40625 23.390625 
Q 47.40625 31.296875 43.53125 35.828125 
Q 39.65625 40.375 33.015625 40.375 
z
M 52.59375 71.296875 
L 52.59375 62.3125 
Q 48.875 64.0625 45.09375 64.984375 
Q 41.3125 65.921875 37.59375 65.921875 
Q 27.828125 65.921875 22.671875 59.328125 
Q 17.53125 52.734375 16.796875 39.40625 
Q 19.671875 43.65625 24.015625 45.921875 
Q 28.375 48.1875 33.59375 48.1875 
Q 44.578125 48.1875 50.953125 41.515625 
Q 57.328125 34.859375 57.328125 23.390625 
Q 57.328125 12.15625 50.6875 5.359375 
Q 44.046875 -1.421875 33.015625 -1.421875 
Q 20.359375 -1.421875 13.671875 8.265625 
Q 6.984375 17.96875 6.984375 36.375 
Q 6.984375 53.65625 15.1875 63.9375 
Q 23.390625 74.21875 37.203125 74.21875 
Q 40.921875 74.21875 44.703125 73.484375 
Q 48.484375 72.75 52.59375 71.296875 
z
" id="DejaVuSans-54"/>
      </defs>
      <use xlink:href="#DejaVuSans-49"/>
      <use x="63.623047" xlink:href="#DejaVuSans-101"/>
      <use x="125.146484" xlink:href="#DejaVuSans-54"/>
     </g>
    </g>
   </g>
   <g id="line2d_23">
    <path clip-path="url(#p578ee81e8c)" d="M 75.934716 118.035256 
L 119.601627 117.944863 
L 125.714995 117.368834 
L 127.461671 117.068988 
L 129.208347 116.771317 
L 130.955024 116.411702 
L 134.448377 115.334118 
L 137.068391 114.647817 
L 139.688406 113.855245 
L 147.54845 112.377112 
L 149.295126 112.173489 
L 153.661818 111.637915 
L 156.281832 111.374131 
L 159.775185 111.129269 
L 172.00192 110.528185 
L 193.835376 109.991046 
L 203.442096 109.846277 
L 218.288846 109.475309 
L 245.362331 108.808409 
L 253.222375 108.42787 
L 268.069125 107.471912 
L 270.689139 107.333582 
L 289.90258 105.897644 
L 298.635962 104.984055 
L 301.255977 104.675205 
L 307.369344 103.362068 
L 310.862697 102.17234 
L 311.736036 101.998035 
L 313.482712 101.262014 
L 314.35605 100.725614 
L 315.229388 100.466702 
L 316.976065 99.425571 
L 318.722741 98.448994 
L 320.469418 97.171701 
L 322.216094 95.513695 
L 323.962771 94.356158 
L 324.836109 93.257694 
L 325.709447 92.930007 
L 326.582785 91.560625 
L 328.329462 89.586547 
L 330.076138 88.341053 
L 330.949476 88.057345 
L 332.696153 85.928103 
L 334.442829 83.883642 
L 335.316168 83.246801 
L 336.189506 83.107035 
L 337.062844 82.472804 
L 338.80952 80.299627 
L 340.556197 78.271044 
L 341.429535 77.667611 
L 342.302873 77.477211 
L 344.04955 76.136321 
L 344.922888 74.714433 
L 346.669564 72.853935 
L 347.542903 72.251676 
L 348.416241 72.112606 
L 349.289579 71.493991 
L 351.909594 68.377993 
L 352.782932 67.683297 
L 353.65627 66.546814 
L 354.529608 66.072228 
L 355.402947 65.834891 
L 358.896299 60.862701 
L 359.769638 59.914747 
L 360.642976 59.274904 
L 361.516314 58.994285 
L 364.136329 54.785739 
L 365.009667 53.357631 
L 365.883005 52.414593 
L 366.756343 52.134278 
L 367.629682 51.29664 
L 369.376358 48.255506 
L 370.249696 47.104189 
L 371.123035 47.011099 
L 373.743049 45.275141 
L 374.616387 44.428368 
L 375.489726 42.29495 
L 376.363064 41.452484 
L 377.236402 41.360394 
L 379.856417 39.899705 
L 380.729755 39.101522 
L 381.603093 37.941679 
L 382.476431 35.969689 
L 383.34977 35.139838 
L 384.223108 34.146992 
L 385.096446 34.105754 
L 385.969784 33.596542 
L 387.716461 31.300782 
L 388.589799 30.372359 
L 389.463137 29.998563 
L 390.336475 29.354022 
L 392.95649 27.919824 
L 393.829828 26.658191 
L 394.703167 26.298141 
L 395.576505 25.586219 
L 397.323181 24.607119 
L 399.069858 23.899198 
L 400.816534 22.571619 
L 400.816534 22.571619 
" style="fill:none;stroke:#1f77b4;stroke-linecap:square;stroke-width:1.5;"/>
   </g>
   <g id="patch_3">
    <path d="M 59.690625 122.808437 
L 59.690625 17.798437 
" style="fill:none;stroke:#000000;stroke-linecap:square;stroke-linejoin:miter;stroke-width:0.8;"/>
   </g>
   <g id="patch_4">
    <path d="M 417.060625 122.808437 
L 417.060625 17.798437 
" style="fill:none;stroke:#000000;stroke-linecap:square;stroke-linejoin:miter;stroke-width:0.8;"/>
   </g>
   <g id="patch_5">
    <path d="M 59.690625 122.808437 
L 417.060625 122.808437 
" style="fill:none;stroke:#000000;stroke-linecap:square;stroke-linejoin:miter;stroke-width:0.8;"/>
   </g>
   <g id="patch_6">
    <path d="M 59.690625 17.798437 
L 417.060625 17.798437 
" style="fill:none;stroke:#000000;stroke-linecap:square;stroke-linejoin:miter;stroke-width:0.8;"/>
   </g>
  </g>
  <g id="axes_2">
   <g id="patch_7">
    <path d="M 59.690625 242.118437 
L 417.060625 242.118437 
L 417.060625 137.108437 
L 59.690625 137.108437 
z
" style="fill:#ffffff;"/>
   </g>
   <g id="matplotlib.axis_3">
    <g id="xtick_7">
     <g id="line2d_24">
      <path clip-path="url(#p8400a8f060)" d="M 109.994907 242.118437 
L 109.994907 137.108437 
" style="fill:none;stroke:#b0b0b0;stroke-linecap:square;stroke-width:0.8;"/>
     </g>
     <g id="line2d_25">
      <g>
       <use style="stroke:#000000;stroke-width:0.8;" x="109.994907" xlink:href="#m97c9015fb4" y="242.118437"/>
      </g>
     </g>
     <g id="text_8">
      <!-- 2020-03 -->
      <g transform="translate(89.1035 256.716875)scale(0.1 -0.1)">
       <defs>
        <path d="M 4.890625 31.390625 
L 31.203125 31.390625 
L 31.203125 23.390625 
L 4.890625 23.390625 
z
" id="DejaVuSans-45"/>
        <path d="M 40.578125 39.3125 
Q 47.65625 37.796875 51.625 33 
Q 55.609375 28.21875 55.609375 21.1875 
Q 55.609375 10.40625 48.1875 4.484375 
Q 40.765625 -1.421875 27.09375 -1.421875 
Q 22.515625 -1.421875 17.65625 -0.515625 
Q 12.796875 0.390625 7.625 2.203125 
L 7.625 11.71875 
Q 11.71875 9.328125 16.59375 8.109375 
Q 21.484375 6.890625 26.8125 6.890625 
Q 36.078125 6.890625 40.9375 10.546875 
Q 45.796875 14.203125 45.796875 21.1875 
Q 45.796875 27.640625 41.28125 31.265625 
Q 36.765625 34.90625 28.71875 34.90625 
L 20.21875 34.90625 
L 20.21875 43.015625 
L 29.109375 43.015625 
Q 36.375 43.015625 40.234375 45.921875 
Q 44.09375 48.828125 44.09375 54.296875 
Q 44.09375 59.90625 40.109375 62.90625 
Q 36.140625 65.921875 28.71875 65.921875 
Q 24.65625 65.921875 20.015625 65.03125 
Q 15.375 64.15625 9.8125 62.3125 
L 9.8125 71.09375 
Q 15.4375 72.65625 20.34375 73.4375 
Q 25.25 74.21875 29.59375 74.21875 
Q 40.828125 74.21875 47.359375 69.109375 
Q 53.90625 64.015625 53.90625 55.328125 
Q 53.90625 49.265625 50.4375 45.09375 
Q 46.96875 40.921875 40.578125 39.3125 
z
" id="DejaVuSans-51"/>
       </defs>
       <use xlink:href="#DejaVuSans-50"/>
       <use x="63.623047" xlink:href="#DejaVuSans-48"/>
       <use x="127.246094" xlink:href="#DejaVuSans-50"/>
       <use x="190.869141" xlink:href="#DejaVuSans-48"/>
       <use x="254.492188" xlink:href="#DejaVuSans-45"/>
       <use x="290.576172" xlink:href="#DejaVuSans-48"/>
       <use x="354.199219" xlink:href="#DejaVuSans-51"/>
      </g>
     </g>
    </g>
    <g id="xtick_8">
     <g id="line2d_26">
      <path clip-path="url(#p8400a8f060)" d="M 163.268538 242.118437 
L 163.268538 137.108437 
" style="fill:none;stroke:#b0b0b0;stroke-linecap:square;stroke-width:0.8;"/>
     </g>
     <g id="line2d_27">
      <g>
       <use style="stroke:#000000;stroke-width:0.8;" x="163.268538" xlink:href="#m97c9015fb4" y="242.118437"/>
      </g>
     </g>
     <g id="text_9">
      <!-- 2020-05 -->
      <g transform="translate(142.377132 256.716875)scale(0.1 -0.1)">
       <use xlink:href="#DejaVuSans-50"/>
       <use x="63.623047" xlink:href="#DejaVuSans-48"/>
       <use x="127.246094" xlink:href="#DejaVuSans-50"/>
       <use x="190.869141" xlink:href="#DejaVuSans-48"/>
       <use x="254.492188" xlink:href="#DejaVuSans-45"/>
       <use x="290.576172" xlink:href="#DejaVuSans-48"/>
       <use x="354.199219" xlink:href="#DejaVuSans-53"/>
      </g>
     </g>
    </g>
    <g id="xtick_9">
     <g id="line2d_28">
      <path clip-path="url(#p8400a8f060)" d="M 216.542169 242.118437 
L 216.542169 137.108437 
" style="fill:none;stroke:#b0b0b0;stroke-linecap:square;stroke-width:0.8;"/>
     </g>
     <g id="line2d_29">
      <g>
       <use style="stroke:#000000;stroke-width:0.8;" x="216.542169" xlink:href="#m97c9015fb4" y="242.118437"/>
      </g>
     </g>
     <g id="text_10">
      <!-- 2020-07 -->
      <g transform="translate(195.650763 256.716875)scale(0.1 -0.1)">
       <defs>
        <path d="M 8.203125 72.90625 
L 55.078125 72.90625 
L 55.078125 68.703125 
L 28.609375 0 
L 18.3125 0 
L 43.21875 64.59375 
L 8.203125 64.59375 
z
" id="DejaVuSans-55"/>
       </defs>
       <use xlink:href="#DejaVuSans-50"/>
       <use x="63.623047" xlink:href="#DejaVuSans-48"/>
       <use x="127.246094" xlink:href="#DejaVuSans-50"/>
       <use x="190.869141" xlink:href="#DejaVuSans-48"/>
       <use x="254.492188" xlink:href="#DejaVuSans-45"/>
       <use x="290.576172" xlink:href="#DejaVuSans-48"/>
       <use x="354.199219" xlink:href="#DejaVuSans-55"/>
      </g>
     </g>
    </g>
    <g id="xtick_10">
     <g id="line2d_30">
      <path clip-path="url(#p8400a8f060)" d="M 270.689139 242.118437 
L 270.689139 137.108437 
" style="fill:none;stroke:#b0b0b0;stroke-linecap:square;stroke-width:0.8;"/>
     </g>
     <g id="line2d_31">
      <g>
       <use style="stroke:#000000;stroke-width:0.8;" x="270.689139" xlink:href="#m97c9015fb4" y="242.118437"/>
      </g>
     </g>
     <g id="text_11">
      <!-- 2020-09 -->
      <g transform="translate(249.797733 256.716875)scale(0.1 -0.1)">
       <defs>
        <path d="M 10.984375 1.515625 
L 10.984375 10.5 
Q 14.703125 8.734375 18.5 7.8125 
Q 22.3125 6.890625 25.984375 6.890625 
Q 35.75 6.890625 40.890625 13.453125 
Q 46.046875 20.015625 46.78125 33.40625 
Q 43.953125 29.203125 39.59375 26.953125 
Q 35.25 24.703125 29.984375 24.703125 
Q 19.046875 24.703125 12.671875 31.3125 
Q 6.296875 37.9375 6.296875 49.421875 
Q 6.296875 60.640625 12.9375 67.421875 
Q 19.578125 74.21875 30.609375 74.21875 
Q 43.265625 74.21875 49.921875 64.515625 
Q 56.59375 54.828125 56.59375 36.375 
Q 56.59375 19.140625 48.40625 8.859375 
Q 40.234375 -1.421875 26.421875 -1.421875 
Q 22.703125 -1.421875 18.890625 -0.6875 
Q 15.09375 0.046875 10.984375 1.515625 
z
M 30.609375 32.421875 
Q 37.25 32.421875 41.125 36.953125 
Q 45.015625 41.5 45.015625 49.421875 
Q 45.015625 57.28125 41.125 61.84375 
Q 37.25 66.40625 30.609375 66.40625 
Q 23.96875 66.40625 20.09375 61.84375 
Q 16.21875 57.28125 16.21875 49.421875 
Q 16.21875 41.5 20.09375 36.953125 
Q 23.96875 32.421875 30.609375 32.421875 
z
" id="DejaVuSans-57"/>
       </defs>
       <use xlink:href="#DejaVuSans-50"/>
       <use x="63.623047" xlink:href="#DejaVuSans-48"/>
       <use x="127.246094" xlink:href="#DejaVuSans-50"/>
       <use x="190.869141" xlink:href="#DejaVuSans-48"/>
       <use x="254.492188" xlink:href="#DejaVuSans-45"/>
       <use x="290.576172" xlink:href="#DejaVuSans-48"/>
       <use x="354.199219" xlink:href="#DejaVuSans-57"/>
      </g>
     </g>
    </g>
    <g id="xtick_11">
     <g id="line2d_32">
      <path clip-path="url(#p8400a8f060)" d="M 323.962771 242.118437 
L 323.962771 137.108437 
" style="fill:none;stroke:#b0b0b0;stroke-linecap:square;stroke-width:0.8;"/>
     </g>
     <g id="line2d_33">
      <g>
       <use style="stroke:#000000;stroke-width:0.8;" x="323.962771" xlink:href="#m97c9015fb4" y="242.118437"/>
      </g>
     </g>
     <g id="text_12">
      <!-- 2020-11 -->
      <g transform="translate(303.071364 256.716875)scale(0.1 -0.1)">
       <use xlink:href="#DejaVuSans-50"/>
       <use x="63.623047" xlink:href="#DejaVuSans-48"/>
       <use x="127.246094" xlink:href="#DejaVuSans-50"/>
       <use x="190.869141" xlink:href="#DejaVuSans-48"/>
       <use x="254.492188" xlink:href="#DejaVuSans-45"/>
       <use x="290.576172" xlink:href="#DejaVuSans-49"/>
       <use x="354.199219" xlink:href="#DejaVuSans-49"/>
      </g>
     </g>
    </g>
    <g id="xtick_12">
     <g id="line2d_34">
      <path clip-path="url(#p8400a8f060)" d="M 377.236402 242.118437 
L 377.236402 137.108437 
" style="fill:none;stroke:#b0b0b0;stroke-linecap:square;stroke-width:0.8;"/>
     </g>
     <g id="line2d_35">
      <g>
       <use style="stroke:#000000;stroke-width:0.8;" x="377.236402" xlink:href="#m97c9015fb4" y="242.118437"/>
      </g>
     </g>
     <g id="text_13">
      <!-- 2021-01 -->
      <g transform="translate(356.344996 256.716875)scale(0.1 -0.1)">
       <use xlink:href="#DejaVuSans-50"/>
       <use x="63.623047" xlink:href="#DejaVuSans-48"/>
       <use x="127.246094" xlink:href="#DejaVuSans-50"/>
       <use x="190.869141" xlink:href="#DejaVuSans-49"/>
       <use x="254.492188" xlink:href="#DejaVuSans-45"/>
       <use x="290.576172" xlink:href="#DejaVuSans-48"/>
       <use x="354.199219" xlink:href="#DejaVuSans-49"/>
      </g>
     </g>
    </g>
    <g id="text_14">
     <!-- Datum -->
     <g transform="translate(221.462344 270.395)scale(0.1 -0.1)">
      <defs>
       <path d="M 19.671875 64.796875 
L 19.671875 8.109375 
L 31.59375 8.109375 
Q 46.6875 8.109375 53.6875 14.9375 
Q 60.6875 21.78125 60.6875 36.53125 
Q 60.6875 51.171875 53.6875 57.984375 
Q 46.6875 64.796875 31.59375 64.796875 
z
M 9.8125 72.90625 
L 30.078125 72.90625 
Q 51.265625 72.90625 61.171875 64.09375 
Q 71.09375 55.28125 71.09375 36.53125 
Q 71.09375 17.671875 61.125 8.828125 
Q 51.171875 0 30.078125 0 
L 9.8125 0 
z
" id="DejaVuSans-68"/>
       <path d="M 34.28125 27.484375 
Q 23.390625 27.484375 19.1875 25 
Q 14.984375 22.515625 14.984375 16.5 
Q 14.984375 11.71875 18.140625 8.90625 
Q 21.296875 6.109375 26.703125 6.109375 
Q 34.1875 6.109375 38.703125 11.40625 
Q 43.21875 16.703125 43.21875 25.484375 
L 43.21875 27.484375 
z
M 52.203125 31.203125 
L 52.203125 0 
L 43.21875 0 
L 43.21875 8.296875 
Q 40.140625 3.328125 35.546875 0.953125 
Q 30.953125 -1.421875 24.3125 -1.421875 
Q 15.921875 -1.421875 10.953125 3.296875 
Q 6 8.015625 6 15.921875 
Q 6 25.140625 12.171875 29.828125 
Q 18.359375 34.515625 30.609375 34.515625 
L 43.21875 34.515625 
L 43.21875 35.40625 
Q 43.21875 41.609375 39.140625 45 
Q 35.0625 48.390625 27.6875 48.390625 
Q 23 48.390625 18.546875 47.265625 
Q 14.109375 46.140625 10.015625 43.890625 
L 10.015625 52.203125 
Q 14.9375 54.109375 19.578125 55.046875 
Q 24.21875 56 28.609375 56 
Q 40.484375 56 46.34375 49.84375 
Q 52.203125 43.703125 52.203125 31.203125 
z
" id="DejaVuSans-97"/>
      </defs>
      <use xlink:href="#DejaVuSans-68"/>
      <use x="77.001953" xlink:href="#DejaVuSans-97"/>
      <use x="138.28125" xlink:href="#DejaVuSans-116"/>
      <use x="177.490234" xlink:href="#DejaVuSans-117"/>
      <use x="240.869141" xlink:href="#DejaVuSans-109"/>
     </g>
    </g>
   </g>
   <g id="matplotlib.axis_4">
    <g id="ytick_6">
     <g id="line2d_36">
      <path clip-path="url(#p8400a8f060)" d="M 59.690625 237.345256 
L 417.060625 237.345256 
" style="fill:none;stroke:#b0b0b0;stroke-linecap:square;stroke-width:0.8;"/>
     </g>
     <g id="line2d_37">
      <g>
       <use style="stroke:#000000;stroke-width:0.8;" x="59.690625" xlink:href="#me8d2b84111" y="237.345256"/>
      </g>
     </g>
     <g id="text_15">
      <!-- 0 -->
      <g transform="translate(46.328125 241.144474)scale(0.1 -0.1)">
       <use xlink:href="#DejaVuSans-48"/>
      </g>
     </g>
    </g>
    <g id="ytick_7">
     <g id="line2d_38">
      <path clip-path="url(#p8400a8f060)" d="M 59.690625 198.415464 
L 417.060625 198.415464 
" style="fill:none;stroke:#b0b0b0;stroke-linecap:square;stroke-width:0.8;"/>
     </g>
     <g id="line2d_39">
      <g>
       <use style="stroke:#000000;stroke-width:0.8;" x="59.690625" xlink:href="#me8d2b84111" y="198.415464"/>
      </g>
     </g>
     <g id="text_16">
      <!-- 20000 -->
      <g transform="translate(20.878125 202.214682)scale(0.1 -0.1)">
       <use xlink:href="#DejaVuSans-50"/>
       <use x="63.623047" xlink:href="#DejaVuSans-48"/>
       <use x="127.246094" xlink:href="#DejaVuSans-48"/>
       <use x="190.869141" xlink:href="#DejaVuSans-48"/>
       <use x="254.492188" xlink:href="#DejaVuSans-48"/>
      </g>
     </g>
    </g>
    <g id="ytick_8">
     <g id="line2d_40">
      <path clip-path="url(#p8400a8f060)" d="M 59.690625 159.485671 
L 417.060625 159.485671 
" style="fill:none;stroke:#b0b0b0;stroke-linecap:square;stroke-width:0.8;"/>
     </g>
     <g id="line2d_41">
      <g>
       <use style="stroke:#000000;stroke-width:0.8;" x="59.690625" xlink:href="#me8d2b84111" y="159.485671"/>
      </g>
     </g>
     <g id="text_17">
      <!-- 40000 -->
      <g transform="translate(20.878125 163.28489)scale(0.1 -0.1)">
       <defs>
        <path d="M 37.796875 64.3125 
L 12.890625 25.390625 
L 37.796875 25.390625 
z
M 35.203125 72.90625 
L 47.609375 72.90625 
L 47.609375 25.390625 
L 58.015625 25.390625 
L 58.015625 17.1875 
L 47.609375 17.1875 
L 47.609375 0 
L 37.796875 0 
L 37.796875 17.1875 
L 4.890625 17.1875 
L 4.890625 26.703125 
z
" id="DejaVuSans-52"/>
       </defs>
       <use xlink:href="#DejaVuSans-52"/>
       <use x="63.623047" xlink:href="#DejaVuSans-48"/>
       <use x="127.246094" xlink:href="#DejaVuSans-48"/>
       <use x="190.869141" xlink:href="#DejaVuSans-48"/>
       <use x="254.492188" xlink:href="#DejaVuSans-48"/>
      </g>
     </g>
    </g>
    <g id="text_18">
     <!-- neue Fälle -->
     <g transform="translate(14.798438 215.031406)rotate(-90)scale(0.1 -0.1)">
      <defs>
       <path d="M 54.890625 33.015625 
L 54.890625 0 
L 45.90625 0 
L 45.90625 32.71875 
Q 45.90625 40.484375 42.875 44.328125 
Q 39.84375 48.1875 33.796875 48.1875 
Q 26.515625 48.1875 22.3125 43.546875 
Q 18.109375 38.921875 18.109375 30.90625 
L 18.109375 0 
L 9.078125 0 
L 9.078125 54.6875 
L 18.109375 54.6875 
L 18.109375 46.1875 
Q 21.34375 51.125 25.703125 53.5625 
Q 30.078125 56 35.796875 56 
Q 45.21875 56 50.046875 50.171875 
Q 54.890625 44.34375 54.890625 33.015625 
z
" id="DejaVuSans-110"/>
      </defs>
      <use xlink:href="#DejaVuSans-110"/>
      <use x="63.378906" xlink:href="#DejaVuSans-101"/>
      <use x="124.902344" xlink:href="#DejaVuSans-117"/>
      <use x="188.28125" xlink:href="#DejaVuSans-101"/>
      <use x="249.804688" xlink:href="#DejaVuSans-32"/>
      <use x="281.591797" xlink:href="#DejaVuSans-70"/>
      <use x="329.986328" xlink:href="#DejaVuSans-228"/>
      <use x="391.265625" xlink:href="#DejaVuSans-108"/>
      <use x="419.048828" xlink:href="#DejaVuSans-108"/>
      <use x="446.832031" xlink:href="#DejaVuSans-101"/>
     </g>
    </g>
   </g>
   <g id="line2d_42">
    <path clip-path="url(#p8400a8f060)" d="M 75.934716 237.345256 
L 111.741583 237.273236 
L 112.614921 237.216787 
L 113.488259 236.917028 
L 115.234936 237.094159 
L 116.108274 236.876152 
L 116.981612 237.080533 
L 118.728289 236.467389 
L 119.601627 237.014352 
L 120.474965 234.236712 
L 121.348303 235.57395 
L 123.09498 234.470291 
L 123.968318 233.481474 
L 124.841656 231.369533 
L 125.714995 231.519412 
L 126.588333 228.531551 
L 127.461671 232.741808 
L 128.335009 232.167593 
L 129.208347 229.20309 
L 130.081686 229.695552 
L 130.955024 228.90333 
L 131.828362 224.469227 
L 132.7017 223.850243 
L 133.575038 224.062411 
L 134.448377 228.780701 
L 135.321715 228.02157 
L 136.195053 227.762687 
L 137.068391 225.541743 
L 137.94173 223.871655 
L 138.815068 224.955849 
L 139.688406 227.743222 
L 141.435082 231.017218 
L 142.308421 228.996762 
L 143.181759 226.38068 
L 144.055097 227.836654 
L 144.928435 229.578762 
L 145.801774 232.017714 
L 146.675112 231.610897 
L 147.54845 233.027942 
L 148.421788 234.840124 
L 149.295126 230.73887 
L 150.168465 231.612844 
L 151.041803 230.145191 
L 151.915141 233.559333 
L 152.788479 233.759822 
L 153.661818 233.683909 
L 154.535156 234.958859 
L 155.408494 232.75738 
L 156.281832 232.516015 
L 157.15517 233.70532 
L 158.028509 234.39827 
L 159.775185 235.422124 
L 160.648523 235.099007 
L 161.521862 234.178317 
L 162.3952 234.483916 
L 163.268538 235.266405 
L 165.888553 236.395369 
L 167.635229 235.09706 
L 168.508567 234.877107 
L 169.381906 235.091221 
L 170.255244 235.912639 
L 171.128582 236.264954 
L 172.00192 235.988552 
L 172.875258 236.187094 
L 173.748597 235.54086 
L 174.621935 236.60559 
L 175.495273 235.875656 
L 176.368611 236.335028 
L 177.24195 236.144272 
L 178.115288 236.990995 
L 178.988626 234.956913 
L 179.861964 235.992445 
L 180.735302 236.278579 
L 181.608641 236.004124 
L 182.481979 236.808025 
L 183.355317 236.679556 
L 184.228655 236.815811 
L 185.101994 236.177362 
L 185.975332 236.714593 
L 186.84867 236.037215 
L 187.722008 235.932104 
L 188.595346 236.825543 
L 190.342023 236.987102 
L 191.215361 236.790506 
L 192.088699 236.874205 
L 194.708714 236.321402 
L 195.582052 236.761309 
L 197.328729 236.572499 
L 198.202067 237.314112 
L 199.075405 237.016299 
L 199.948743 236.303884 
L 200.822082 237.26545 
L 201.69542 236.856687 
L 202.568758 237.026031 
L 203.442096 236.235757 
L 204.315434 236.660091 
L 205.188773 234.984164 
L 206.062111 236.407048 
L 206.935449 236.623108 
L 207.808787 236.173469 
L 208.682125 236.379797 
L 209.555464 235.959355 
L 210.428802 236.584178 
L 212.175478 236.05084 
L 213.922155 236.887831 
L 214.795493 236.665931 
L 215.668831 236.613376 
L 216.542169 236.420673 
L 217.415508 236.41678 
L 218.288846 236.547195 
L 219.162184 236.531623 
L 220.035522 236.712647 
L 220.908861 236.292205 
L 221.782199 236.802185 
L 222.655537 236.652305 
L 223.528875 236.757416 
L 225.275552 236.611429 
L 226.14889 236.936493 
L 227.895566 236.808025 
L 229.642243 236.255222 
L 230.515581 236.187094 
L 231.388919 236.603643 
L 232.262257 236.74379 
L 233.135596 236.196827 
L 234.008934 236.582232 
L 234.882272 236.257168 
L 235.75561 236.167629 
L 236.628949 235.90096 
L 237.502287 236.070305 
L 238.375625 236.588071 
L 239.248963 236.479068 
L 240.122301 236.187094 
L 240.99564 235.712151 
L 241.868978 235.420177 
L 242.742316 235.663489 
L 243.615654 236.165683 
L 244.488993 236.92676 
L 245.362331 235.610933 
L 246.235669 235.949623 
L 247.109007 234.844017 
L 247.982345 235.542806 
L 248.855684 235.093167 
L 249.729022 235.969088 
L 250.60236 236.595857 
L 251.475698 234.970538 
L 252.349037 235.336478 
L 253.222375 234.777836 
L 254.969051 234.406056 
L 255.842389 235.988552 
L 256.715728 236.335028 
L 257.589066 234.049849 
L 258.462404 234.58124 
L 259.335742 234.258123 
L 260.209081 234.258123 
L 261.082419 233.964203 
L 261.955757 235.725776 
L 262.829095 236.113128 
L 263.702433 234.176371 
L 264.575772 234.501434 
L 265.44911 234.567615 
L 266.322448 234.306785 
L 267.195786 234.318464 
L 268.069125 235.965195 
L 268.942463 236.430406 
L 269.815801 234.431361 
L 270.689139 234.984164 
L 271.562477 234.627956 
L 273.309154 234.536471 
L 274.182492 235.836726 
L 275.05583 236.041108 
L 275.929168 233.650818 
L 276.802507 234.754478 
L 277.675845 234.472237 
L 278.549183 234.00508 
L 279.422521 234.258123 
L 280.29586 235.239154 
L 281.169198 235.554485 
L 282.042536 234.454719 
L 282.915874 233.857146 
L 283.789212 233.734517 
L 284.662551 233.103855 
L 285.535889 233.064925 
L 286.409227 234.065421 
L 287.282565 235.334532 
L 288.155904 234.240605 
L 289.029242 233.740357 
L 289.90258 234.205568 
L 290.775918 232.827453 
L 291.649256 232.739861 
L 292.522595 234.787568 
L 293.395933 234.789515 
L 294.269271 232.883901 
L 295.142609 233.763715 
L 296.015948 232.591928 
L 297.762624 231.826958 
L 298.635962 234.127708 
L 299.5093 234.335983 
L 300.382639 231.311138 
L 301.255977 232.56857 
L 302.129315 229.539832 
L 303.002653 227.99432 
L 303.875992 228.480942 
L 304.74933 231.568075 
L 305.622668 231.805546 
L 306.496006 224.613267 
L 307.369344 228.656126 
L 308.242683 223.383086 
L 309.116021 222.513005 
L 309.989359 222.367018 
L 310.862697 227.881423 
L 311.736036 229.545672 
L 312.609374 221.000582 
L 313.482712 220.755325 
L 314.35605 213.343092 
L 315.229388 225.75975 
L 316.102727 211.114362 
L 316.976065 216.988867 
L 317.849403 218.094473 
L 318.722741 212.897346 
L 319.59608 211.727506 
L 320.469418 205.808231 
L 321.342756 200.881666 
L 322.216094 199.618394 
L 323.089432 209.989291 
L 323.962771 212.905132 
L 324.836109 188.1925 
L 325.709447 222.682349 
L 326.582785 176.069763 
L 327.456124 193.430504 
L 328.329462 192.926363 
L 329.2028 209.856929 
L 330.076138 209.101691 
L 330.949476 224.65025 
L 331.822815 185.671796 
L 332.696153 193.741942 
L 333.569491 189.192996 
L 334.442829 194.014451 
L 335.316168 208.848648 
L 336.189506 231.091185 
L 337.936182 186.286887 
L 338.80952 191.160897 
L 339.682859 190.549699 
L 340.556197 193.368216 
L 342.302873 228.825471 
L 343.176212 209.208748 
L 344.04955 205.481221 
L 344.922888 173.72035 
L 345.796226 194.617862 
L 346.669564 196.821289 
L 347.542903 210.396107 
L 348.416241 231.122328 
L 350.162917 189.138494 
L 351.036255 192.04071 
L 351.909594 191.425619 
L 352.782932 206.259817 
L 353.65627 186.491268 
L 354.529608 216.109054 
L 355.402947 226.725208 
L 356.276285 180.38513 
L 357.149623 188.509778 
L 358.022961 173.628865 
L 359.769638 194.927354 
L 360.642976 208.71434 
L 361.516314 224.788451 
L 362.389652 171.505245 
L 363.262991 173.6094 
L 364.136329 178.602146 
L 365.009667 173.442002 
L 365.883005 195.147307 
L 366.756343 224.802077 
L 367.629682 199.863652 
L 368.50302 166.973817 
L 369.376358 171.635659 
L 370.249696 185.827515 
L 371.123035 233.179768 
L 371.996373 211.05986 
L 372.869711 213.210731 
L 373.743049 210.086615 
L 374.616387 199.454889 
L 375.489726 141.881619 
L 376.363064 199.647591 
L 377.236402 233.224537 
L 378.10974 216.122679 
L 378.983079 217.187409 
L 379.856417 213.364504 
L 380.729755 201.629118 
L 381.603093 185.446003 
L 382.476431 149.105042 
L 383.34977 200.212073 
L 384.223108 192.918577 
L 385.096446 235.499984 
L 385.969784 214.559648 
L 386.843123 184.381273 
L 387.716461 187.581302 
L 388.589799 195.801328 
L 389.463137 220.61907 
L 390.336475 208.504119 
L 391.209814 214.991769 
L 392.083152 219.334387 
L 392.95649 213.533848 
L 393.829828 180.891218 
L 394.703167 221.234161 
L 395.576505 205.489007 
L 396.449843 213.15039 
L 397.323181 217.728533 
L 398.196519 223.939782 
L 399.069858 219.073558 
L 399.943196 206.909944 
L 400.816534 208.375651 
L 400.816534 208.375651 
" style="fill:none;stroke:#1f77b4;stroke-linecap:square;stroke-width:1.5;"/>
   </g>
   <g id="patch_8">
    <path d="M 59.690625 242.118437 
L 59.690625 137.108437 
" style="fill:none;stroke:#000000;stroke-linecap:square;stroke-linejoin:miter;stroke-width:0.8;"/>
   </g>
   <g id="patch_9">
    <path d="M 417.060625 242.118437 
L 417.060625 137.108437 
" style="fill:none;stroke:#000000;stroke-linecap:square;stroke-linejoin:miter;stroke-width:0.8;"/>
   </g>
   <g id="patch_10">
    <path d="M 59.690625 242.118437 
L 417.060625 242.118437 
" style="fill:none;stroke:#000000;stroke-linecap:square;stroke-linejoin:miter;stroke-width:0.8;"/>
   </g>
   <g id="patch_11">
    <path d="M 59.690625 137.108437 
L 417.060625 137.108437 
" style="fill:none;stroke:#000000;stroke-linecap:square;stroke-linejoin:miter;stroke-width:0.8;"/>
   </g>
  </g>
 </g>
 <defs>
  <clipPath id="p578ee81e8c">
   <rect height="105.01" width="357.37" x="59.690625" y="17.798437"/>
  </clipPath>
  <clipPath id="p8400a8f060">
   <rect height="105.01" width="357.37" x="59.690625" y="137.108437"/>
  </clipPath>
 </defs>
</svg>
