<?xml version="1.0" encoding="utf-8" standalone="no"?>
<!DOCTYPE svg PUBLIC "-//W3C//DTD SVG 1.1//EN"
  "http://www.w3.org/Graphics/SVG/1.1/DTD/svg11.dtd">
<!-- Created with matplotlib (https://matplotlib.org/) -->
<svg height="279.674687pt" version="1.1" viewBox="0 0 424.260625 279.674687" width="424.260625pt" xmlns="http://www.w3.org/2000/svg" xmlns:xlink="http://www.w3.org/1999/xlink">
 <metadata>
  <rdf:RDF xmlns:cc="http://creativecommons.org/ns#" xmlns:dc="http://purl.org/dc/elements/1.1/" xmlns:rdf="http://www.w3.org/1999/02/22-rdf-syntax-ns#">
   <cc:Work>
    <dc:type rdf:resource="http://purl.org/dc/dcmitype/StillImage"/>
    <dc:date>2021-01-29T15:01:20.799784</dc:date>
    <dc:format>image/svg+xml</dc:format>
    <dc:creator>
     <cc:Agent>
      <dc:title>Matplotlib v3.3.4, https://matplotlib.org/</dc:title>
     </cc:Agent>
    </dc:creator>
   </cc:Work>
  </rdf:RDF>
 </metadata>
 <defs>
  <style type="text/css">*{stroke-linecap:butt;stroke-linejoin:round;}</style>
 </defs>
 <g id="figure_1">
  <g id="patch_1">
   <path d="M 0 279.674687 
L 424.260625 279.674687 
L 424.260625 0 
L 0 0 
z
" style="fill:#ffffff;"/>
  </g>
  <g id="axes_1">
   <g id="patch_2">
    <path d="M 59.690625 108.978437 
L 417.060625 108.978437 
L 417.060625 17.798437 
L 59.690625 17.798437 
z
" style="fill:#ffffff;"/>
   </g>
   <g id="matplotlib.axis_1">
    <g id="xtick_1">
     <g id="line2d_1">
      <path clip-path="url(#pbf53abe8a1)" d="M 109.994907 108.978437 
L 109.994907 17.798437 
" style="fill:none;stroke:#b0b0b0;stroke-linecap:square;stroke-width:0.8;"/>
     </g>
     <g id="line2d_2">
      <defs>
       <path d="M 0 0 
L 0 3.5 
" id="md6152afd47" style="stroke:#000000;stroke-width:0.8;"/>
      </defs>
      <g>
       <use style="stroke:#000000;stroke-width:0.8;" x="109.994907" xlink:href="#md6152afd47" y="108.978437"/>
      </g>
     </g>
     <g id="text_1">
      <!-- 2020-03 -->
      <g transform="translate(89.1035 123.576875)scale(0.1 -0.1)">
       <defs>
        <path d="M 19.1875 8.296875 
L 53.609375 8.296875 
L 53.609375 0 
L 7.328125 0 
L 7.328125 8.296875 
Q 12.9375 14.109375 22.625 23.890625 
Q 32.328125 33.6875 34.8125 36.53125 
Q 39.546875 41.84375 41.421875 45.53125 
Q 43.3125 49.21875 43.3125 52.78125 
Q 43.3125 58.59375 39.234375 62.25 
Q 35.15625 65.921875 28.609375 65.921875 
Q 23.96875 65.921875 18.8125 64.3125 
Q 13.671875 62.703125 7.8125 59.421875 
L 7.8125 69.390625 
Q 13.765625 71.78125 18.9375 73 
Q 24.125 74.21875 28.421875 74.21875 
Q 39.75 74.21875 46.484375 68.546875 
Q 53.21875 62.890625 53.21875 53.421875 
Q 53.21875 48.921875 51.53125 44.890625 
Q 49.859375 40.875 45.40625 35.40625 
Q 44.1875 33.984375 37.640625 27.21875 
Q 31.109375 20.453125 19.1875 8.296875 
z
" id="DejaVuSans-50"/>
        <path d="M 31.78125 66.40625 
Q 24.171875 66.40625 20.328125 58.90625 
Q 16.5 51.421875 16.5 36.375 
Q 16.5 21.390625 20.328125 13.890625 
Q 24.171875 6.390625 31.78125 6.390625 
Q 39.453125 6.390625 43.28125 13.890625 
Q 47.125 21.390625 47.125 36.375 
Q 47.125 51.421875 43.28125 58.90625 
Q 39.453125 66.40625 31.78125 66.40625 
z
M 31.78125 74.21875 
Q 44.046875 74.21875 50.515625 64.515625 
Q 56.984375 54.828125 56.984375 36.375 
Q 56.984375 17.96875 50.515625 8.265625 
Q 44.046875 -1.421875 31.78125 -1.421875 
Q 19.53125 -1.421875 13.0625 8.265625 
Q 6.59375 17.96875 6.59375 36.375 
Q 6.59375 54.828125 13.0625 64.515625 
Q 19.53125 74.21875 31.78125 74.21875 
z
" id="DejaVuSans-48"/>
        <path d="M 4.890625 31.390625 
L 31.203125 31.390625 
L 31.203125 23.390625 
L 4.890625 23.390625 
z
" id="DejaVuSans-45"/>
        <path d="M 40.578125 39.3125 
Q 47.65625 37.796875 51.625 33 
Q 55.609375 28.21875 55.609375 21.1875 
Q 55.609375 10.40625 48.1875 4.484375 
Q 40.765625 -1.421875 27.09375 -1.421875 
Q 22.515625 -1.421875 17.65625 -0.515625 
Q 12.796875 0.390625 7.625 2.203125 
L 7.625 11.71875 
Q 11.71875 9.328125 16.59375 8.109375 
Q 21.484375 6.890625 26.8125 6.890625 
Q 36.078125 6.890625 40.9375 10.546875 
Q 45.796875 14.203125 45.796875 21.1875 
Q 45.796875 27.640625 41.28125 31.265625 
Q 36.765625 34.90625 28.71875 34.90625 
L 20.21875 34.90625 
L 20.21875 43.015625 
L 29.109375 43.015625 
Q 36.375 43.015625 40.234375 45.921875 
Q 44.09375 48.828125 44.09375 54.296875 
Q 44.09375 59.90625 40.109375 62.90625 
Q 36.140625 65.921875 28.71875 65.921875 
Q 24.65625 65.921875 20.015625 65.03125 
Q 15.375 64.15625 9.8125 62.3125 
L 9.8125 71.09375 
Q 15.4375 72.65625 20.34375 73.4375 
Q 25.25 74.21875 29.59375 74.21875 
Q 40.828125 74.21875 47.359375 69.109375 
Q 53.90625 64.015625 53.90625 55.328125 
Q 53.90625 49.265625 50.4375 45.09375 
Q 46.96875 40.921875 40.578125 39.3125 
z
" id="DejaVuSans-51"/>
       </defs>
       <use xlink:href="#DejaVuSans-50"/>
       <use x="63.623047" xlink:href="#DejaVuSans-48"/>
       <use x="127.246094" xlink:href="#DejaVuSans-50"/>
       <use x="190.869141" xlink:href="#DejaVuSans-48"/>
       <use x="254.492188" xlink:href="#DejaVuSans-45"/>
       <use x="290.576172" xlink:href="#DejaVuSans-48"/>
       <use x="354.199219" xlink:href="#DejaVuSans-51"/>
      </g>
     </g>
    </g>
    <g id="xtick_2">
     <g id="line2d_3">
      <path clip-path="url(#pbf53abe8a1)" d="M 163.268538 108.978437 
L 163.268538 17.798437 
" style="fill:none;stroke:#b0b0b0;stroke-linecap:square;stroke-width:0.8;"/>
     </g>
     <g id="line2d_4">
      <g>
       <use style="stroke:#000000;stroke-width:0.8;" x="163.268538" xlink:href="#md6152afd47" y="108.978437"/>
      </g>
     </g>
     <g id="text_2">
      <!-- 2020-05 -->
      <g transform="translate(142.377132 123.576875)scale(0.1 -0.1)">
       <defs>
        <path d="M 10.796875 72.90625 
L 49.515625 72.90625 
L 49.515625 64.59375 
L 19.828125 64.59375 
L 19.828125 46.734375 
Q 21.96875 47.46875 24.109375 47.828125 
Q 26.265625 48.1875 28.421875 48.1875 
Q 40.625 48.1875 47.75 41.5 
Q 54.890625 34.8125 54.890625 23.390625 
Q 54.890625 11.625 47.5625 5.09375 
Q 40.234375 -1.421875 26.90625 -1.421875 
Q 22.3125 -1.421875 17.546875 -0.640625 
Q 12.796875 0.140625 7.71875 1.703125 
L 7.71875 11.625 
Q 12.109375 9.234375 16.796875 8.0625 
Q 21.484375 6.890625 26.703125 6.890625 
Q 35.15625 6.890625 40.078125 11.328125 
Q 45.015625 15.765625 45.015625 23.390625 
Q 45.015625 31 40.078125 35.4375 
Q 35.15625 39.890625 26.703125 39.890625 
Q 22.75 39.890625 18.8125 39.015625 
Q 14.890625 38.140625 10.796875 36.28125 
z
" id="DejaVuSans-53"/>
       </defs>
       <use xlink:href="#DejaVuSans-50"/>
       <use x="63.623047" xlink:href="#DejaVuSans-48"/>
       <use x="127.246094" xlink:href="#DejaVuSans-50"/>
       <use x="190.869141" xlink:href="#DejaVuSans-48"/>
       <use x="254.492188" xlink:href="#DejaVuSans-45"/>
       <use x="290.576172" xlink:href="#DejaVuSans-48"/>
       <use x="354.199219" xlink:href="#DejaVuSans-53"/>
      </g>
     </g>
    </g>
    <g id="xtick_3">
     <g id="line2d_5">
      <path clip-path="url(#pbf53abe8a1)" d="M 216.542169 108.978437 
L 216.542169 17.798437 
" style="fill:none;stroke:#b0b0b0;stroke-linecap:square;stroke-width:0.8;"/>
     </g>
     <g id="line2d_6">
      <g>
       <use style="stroke:#000000;stroke-width:0.8;" x="216.542169" xlink:href="#md6152afd47" y="108.978437"/>
      </g>
     </g>
     <g id="text_3">
      <!-- 2020-07 -->
      <g transform="translate(195.650763 123.576875)scale(0.1 -0.1)">
       <defs>
        <path d="M 8.203125 72.90625 
L 55.078125 72.90625 
L 55.078125 68.703125 
L 28.609375 0 
L 18.3125 0 
L 43.21875 64.59375 
L 8.203125 64.59375 
z
" id="DejaVuSans-55"/>
       </defs>
       <use xlink:href="#DejaVuSans-50"/>
       <use x="63.623047" xlink:href="#DejaVuSans-48"/>
       <use x="127.246094" xlink:href="#DejaVuSans-50"/>
       <use x="190.869141" xlink:href="#DejaVuSans-48"/>
       <use x="254.492188" xlink:href="#DejaVuSans-45"/>
       <use x="290.576172" xlink:href="#DejaVuSans-48"/>
       <use x="354.199219" xlink:href="#DejaVuSans-55"/>
      </g>
     </g>
    </g>
    <g id="xtick_4">
     <g id="line2d_7">
      <path clip-path="url(#pbf53abe8a1)" d="M 270.689139 108.978437 
L 270.689139 17.798437 
" style="fill:none;stroke:#b0b0b0;stroke-linecap:square;stroke-width:0.8;"/>
     </g>
     <g id="line2d_8">
      <g>
       <use style="stroke:#000000;stroke-width:0.8;" x="270.689139" xlink:href="#md6152afd47" y="108.978437"/>
      </g>
     </g>
     <g id="text_4">
      <!-- 2020-09 -->
      <g transform="translate(249.797733 123.576875)scale(0.1 -0.1)">
       <defs>
        <path d="M 10.984375 1.515625 
L 10.984375 10.5 
Q 14.703125 8.734375 18.5 7.8125 
Q 22.3125 6.890625 25.984375 6.890625 
Q 35.75 6.890625 40.890625 13.453125 
Q 46.046875 20.015625 46.78125 33.40625 
Q 43.953125 29.203125 39.59375 26.953125 
Q 35.25 24.703125 29.984375 24.703125 
Q 19.046875 24.703125 12.671875 31.3125 
Q 6.296875 37.9375 6.296875 49.421875 
Q 6.296875 60.640625 12.9375 67.421875 
Q 19.578125 74.21875 30.609375 74.21875 
Q 43.265625 74.21875 49.921875 64.515625 
Q 56.59375 54.828125 56.59375 36.375 
Q 56.59375 19.140625 48.40625 8.859375 
Q 40.234375 -1.421875 26.421875 -1.421875 
Q 22.703125 -1.421875 18.890625 -0.6875 
Q 15.09375 0.046875 10.984375 1.515625 
z
M 30.609375 32.421875 
Q 37.25 32.421875 41.125 36.953125 
Q 45.015625 41.5 45.015625 49.421875 
Q 45.015625 57.28125 41.125 61.84375 
Q 37.25 66.40625 30.609375 66.40625 
Q 23.96875 66.40625 20.09375 61.84375 
Q 16.21875 57.28125 16.21875 49.421875 
Q 16.21875 41.5 20.09375 36.953125 
Q 23.96875 32.421875 30.609375 32.421875 
z
" id="DejaVuSans-57"/>
       </defs>
       <use xlink:href="#DejaVuSans-50"/>
       <use x="63.623047" xlink:href="#DejaVuSans-48"/>
       <use x="127.246094" xlink:href="#DejaVuSans-50"/>
       <use x="190.869141" xlink:href="#DejaVuSans-48"/>
       <use x="254.492188" xlink:href="#DejaVuSans-45"/>
       <use x="290.576172" xlink:href="#DejaVuSans-48"/>
       <use x="354.199219" xlink:href="#DejaVuSans-57"/>
      </g>
     </g>
    </g>
    <g id="xtick_5">
     <g id="line2d_9">
      <path clip-path="url(#pbf53abe8a1)" d="M 323.962771 108.978437 
L 323.962771 17.798437 
" style="fill:none;stroke:#b0b0b0;stroke-linecap:square;stroke-width:0.8;"/>
     </g>
     <g id="line2d_10">
      <g>
       <use style="stroke:#000000;stroke-width:0.8;" x="323.962771" xlink:href="#md6152afd47" y="108.978437"/>
      </g>
     </g>
     <g id="text_5">
      <!-- 2020-11 -->
      <g transform="translate(303.071364 123.576875)scale(0.1 -0.1)">
       <defs>
        <path d="M 12.40625 8.296875 
L 28.515625 8.296875 
L 28.515625 63.921875 
L 10.984375 60.40625 
L 10.984375 69.390625 
L 28.421875 72.90625 
L 38.28125 72.90625 
L 38.28125 8.296875 
L 54.390625 8.296875 
L 54.390625 0 
L 12.40625 0 
z
" id="DejaVuSans-49"/>
       </defs>
       <use xlink:href="#DejaVuSans-50"/>
       <use x="63.623047" xlink:href="#DejaVuSans-48"/>
       <use x="127.246094" xlink:href="#DejaVuSans-50"/>
       <use x="190.869141" xlink:href="#DejaVuSans-48"/>
       <use x="254.492188" xlink:href="#DejaVuSans-45"/>
       <use x="290.576172" xlink:href="#DejaVuSans-49"/>
       <use x="354.199219" xlink:href="#DejaVuSans-49"/>
      </g>
     </g>
    </g>
    <g id="xtick_6">
     <g id="line2d_11">
      <path clip-path="url(#pbf53abe8a1)" d="M 377.236402 108.978437 
L 377.236402 17.798437 
" style="fill:none;stroke:#b0b0b0;stroke-linecap:square;stroke-width:0.8;"/>
     </g>
     <g id="line2d_12">
      <g>
       <use style="stroke:#000000;stroke-width:0.8;" x="377.236402" xlink:href="#md6152afd47" y="108.978437"/>
      </g>
     </g>
     <g id="text_6">
      <!-- 2021-01 -->
      <g transform="translate(356.344996 123.576875)scale(0.1 -0.1)">
       <use xlink:href="#DejaVuSans-50"/>
       <use x="63.623047" xlink:href="#DejaVuSans-48"/>
       <use x="127.246094" xlink:href="#DejaVuSans-50"/>
       <use x="190.869141" xlink:href="#DejaVuSans-49"/>
       <use x="254.492188" xlink:href="#DejaVuSans-45"/>
       <use x="290.576172" xlink:href="#DejaVuSans-48"/>
       <use x="354.199219" xlink:href="#DejaVuSans-49"/>
      </g>
     </g>
    </g>
    <g id="text_7">
     <!-- Datum -->
     <g transform="translate(221.462344 137.255)scale(0.1 -0.1)">
      <defs>
       <path d="M 19.671875 64.796875 
L 19.671875 8.109375 
L 31.59375 8.109375 
Q 46.6875 8.109375 53.6875 14.9375 
Q 60.6875 21.78125 60.6875 36.53125 
Q 60.6875 51.171875 53.6875 57.984375 
Q 46.6875 64.796875 31.59375 64.796875 
z
M 9.8125 72.90625 
L 30.078125 72.90625 
Q 51.265625 72.90625 61.171875 64.09375 
Q 71.09375 55.28125 71.09375 36.53125 
Q 71.09375 17.671875 61.125 8.828125 
Q 51.171875 0 30.078125 0 
L 9.8125 0 
z
" id="DejaVuSans-68"/>
       <path d="M 34.28125 27.484375 
Q 23.390625 27.484375 19.1875 25 
Q 14.984375 22.515625 14.984375 16.5 
Q 14.984375 11.71875 18.140625 8.90625 
Q 21.296875 6.109375 26.703125 6.109375 
Q 34.1875 6.109375 38.703125 11.40625 
Q 43.21875 16.703125 43.21875 25.484375 
L 43.21875 27.484375 
z
M 52.203125 31.203125 
L 52.203125 0 
L 43.21875 0 
L 43.21875 8.296875 
Q 40.140625 3.328125 35.546875 0.953125 
Q 30.953125 -1.421875 24.3125 -1.421875 
Q 15.921875 -1.421875 10.953125 3.296875 
Q 6 8.015625 6 15.921875 
Q 6 25.140625 12.171875 29.828125 
Q 18.359375 34.515625 30.609375 34.515625 
L 43.21875 34.515625 
L 43.21875 35.40625 
Q 43.21875 41.609375 39.140625 45 
Q 35.0625 48.390625 27.6875 48.390625 
Q 23 48.390625 18.546875 47.265625 
Q 14.109375 46.140625 10.015625 43.890625 
L 10.015625 52.203125 
Q 14.9375 54.109375 19.578125 55.046875 
Q 24.21875 56 28.609375 56 
Q 40.484375 56 46.34375 49.84375 
Q 52.203125 43.703125 52.203125 31.203125 
z
" id="DejaVuSans-97"/>
       <path d="M 18.3125 70.21875 
L 18.3125 54.6875 
L 36.8125 54.6875 
L 36.8125 47.703125 
L 18.3125 47.703125 
L 18.3125 18.015625 
Q 18.3125 11.328125 20.140625 9.421875 
Q 21.96875 7.515625 27.59375 7.515625 
L 36.8125 7.515625 
L 36.8125 0 
L 27.59375 0 
Q 17.1875 0 13.234375 3.875 
Q 9.28125 7.765625 9.28125 18.015625 
L 9.28125 47.703125 
L 2.6875 47.703125 
L 2.6875 54.6875 
L 9.28125 54.6875 
L 9.28125 70.21875 
z
" id="DejaVuSans-116"/>
       <path d="M 8.5 21.578125 
L 8.5 54.6875 
L 17.484375 54.6875 
L 17.484375 21.921875 
Q 17.484375 14.15625 20.5 10.265625 
Q 23.53125 6.390625 29.59375 6.390625 
Q 36.859375 6.390625 41.078125 11.03125 
Q 45.3125 15.671875 45.3125 23.6875 
L 45.3125 54.6875 
L 54.296875 54.6875 
L 54.296875 0 
L 45.3125 0 
L 45.3125 8.40625 
Q 42.046875 3.421875 37.71875 1 
Q 33.40625 -1.421875 27.6875 -1.421875 
Q 18.265625 -1.421875 13.375 4.4375 
Q 8.5 10.296875 8.5 21.578125 
z
M 31.109375 56 
z
" id="DejaVuSans-117"/>
       <path d="M 52 44.1875 
Q 55.375 50.25 60.0625 53.125 
Q 64.75 56 71.09375 56 
Q 79.640625 56 84.28125 50.015625 
Q 88.921875 44.046875 88.921875 33.015625 
L 88.921875 0 
L 79.890625 0 
L 79.890625 32.71875 
Q 79.890625 40.578125 77.09375 44.375 
Q 74.3125 48.1875 68.609375 48.1875 
Q 61.625 48.1875 57.5625 43.546875 
Q 53.515625 38.921875 53.515625 30.90625 
L 53.515625 0 
L 44.484375 0 
L 44.484375 32.71875 
Q 44.484375 40.625 41.703125 44.40625 
Q 38.921875 48.1875 33.109375 48.1875 
Q 26.21875 48.1875 22.15625 43.53125 
Q 18.109375 38.875 18.109375 30.90625 
L 18.109375 0 
L 9.078125 0 
L 9.078125 54.6875 
L 18.109375 54.6875 
L 18.109375 46.1875 
Q 21.1875 51.21875 25.484375 53.609375 
Q 29.78125 56 35.6875 56 
Q 41.65625 56 45.828125 52.96875 
Q 50 49.953125 52 44.1875 
z
" id="DejaVuSans-109"/>
      </defs>
      <use xlink:href="#DejaVuSans-68"/>
      <use x="77.001953" xlink:href="#DejaVuSans-97"/>
      <use x="138.28125" xlink:href="#DejaVuSans-116"/>
      <use x="177.490234" xlink:href="#DejaVuSans-117"/>
      <use x="240.869141" xlink:href="#DejaVuSans-109"/>
     </g>
    </g>
   </g>
   <g id="matplotlib.axis_2">
    <g id="ytick_1">
     <g id="line2d_13">
      <path clip-path="url(#pbf53abe8a1)" d="M 59.690625 104.833892 
L 417.060625 104.833892 
" style="fill:none;stroke:#b0b0b0;stroke-linecap:square;stroke-width:0.8;"/>
     </g>
     <g id="line2d_14">
      <defs>
       <path d="M 0 0 
L -3.5 0 
" id="mc86003a6c4" style="stroke:#000000;stroke-width:0.8;"/>
      </defs>
      <g>
       <use style="stroke:#000000;stroke-width:0.8;" x="59.690625" xlink:href="#mc86003a6c4" y="104.833892"/>
      </g>
     </g>
     <g id="text_8">
      <!-- 0 -->
      <g transform="translate(46.328125 108.633111)scale(0.1 -0.1)">
       <use xlink:href="#DejaVuSans-48"/>
      </g>
     </g>
    </g>
    <g id="ytick_2">
     <g id="line2d_15">
      <path clip-path="url(#pbf53abe8a1)" d="M 59.690625 67.062843 
L 417.060625 67.062843 
" style="fill:none;stroke:#b0b0b0;stroke-linecap:square;stroke-width:0.8;"/>
     </g>
     <g id="line2d_16">
      <g>
       <use style="stroke:#000000;stroke-width:0.8;" x="59.690625" xlink:href="#mc86003a6c4" y="67.062843"/>
      </g>
     </g>
     <g id="text_9">
      <!-- 1 -->
      <g transform="translate(46.328125 70.862062)scale(0.1 -0.1)">
       <use xlink:href="#DejaVuSans-49"/>
      </g>
     </g>
    </g>
    <g id="ytick_3">
     <g id="line2d_17">
      <path clip-path="url(#pbf53abe8a1)" d="M 59.690625 29.291794 
L 417.060625 29.291794 
" style="fill:none;stroke:#b0b0b0;stroke-linecap:square;stroke-width:0.8;"/>
     </g>
     <g id="line2d_18">
      <g>
       <use style="stroke:#000000;stroke-width:0.8;" x="59.690625" xlink:href="#mc86003a6c4" y="29.291794"/>
      </g>
     </g>
     <g id="text_10">
      <!-- 2 -->
      <g transform="translate(46.328125 33.091013)scale(0.1 -0.1)">
       <use xlink:href="#DejaVuSans-50"/>
      </g>
     </g>
    </g>
    <g id="text_11">
     <!-- Fälle kumuliert -->
     <g transform="translate(40.248437 100.132969)rotate(-90)scale(0.1 -0.1)">
      <defs>
       <path d="M 9.8125 72.90625 
L 51.703125 72.90625 
L 51.703125 64.59375 
L 19.671875 64.59375 
L 19.671875 43.109375 
L 48.578125 43.109375 
L 48.578125 34.8125 
L 19.671875 34.8125 
L 19.671875 0 
L 9.8125 0 
z
" id="DejaVuSans-70"/>
       <path d="M 34.28125 27.484375 
Q 23.390625 27.484375 19.1875 25 
Q 14.984375 22.515625 14.984375 16.5 
Q 14.984375 11.71875 18.140625 8.90625 
Q 21.296875 6.109375 26.703125 6.109375 
Q 34.1875 6.109375 38.703125 11.40625 
Q 43.21875 16.703125 43.21875 25.484375 
L 43.21875 27.484375 
z
M 52.203125 31.203125 
L 52.203125 0 
L 43.21875 0 
L 43.21875 8.296875 
Q 40.140625 3.328125 35.546875 0.953125 
Q 30.953125 -1.421875 24.3125 -1.421875 
Q 15.921875 -1.421875 10.953125 3.296875 
Q 6 8.015625 6 15.921875 
Q 6 25.140625 12.171875 29.828125 
Q 18.359375 34.515625 30.609375 34.515625 
L 43.21875 34.515625 
L 43.21875 35.40625 
Q 43.21875 41.609375 39.140625 45 
Q 35.0625 48.390625 27.6875 48.390625 
Q 23 48.390625 18.546875 47.265625 
Q 14.109375 46.140625 10.015625 43.890625 
L 10.015625 52.203125 
Q 14.9375 54.109375 19.578125 55.046875 
Q 24.21875 56 28.609375 56 
Q 40.484375 56 46.34375 49.84375 
Q 52.203125 43.703125 52.203125 31.203125 
z
M 33.59375 75.78125 
L 43.5 75.78125 
L 43.5 65.921875 
L 33.59375 65.921875 
z
M 14.5 75.78125 
L 24.421875 75.78125 
L 24.421875 65.921875 
L 14.5 65.921875 
z
" id="DejaVuSans-228"/>
       <path d="M 9.421875 75.984375 
L 18.40625 75.984375 
L 18.40625 0 
L 9.421875 0 
z
" id="DejaVuSans-108"/>
       <path d="M 56.203125 29.59375 
L 56.203125 25.203125 
L 14.890625 25.203125 
Q 15.484375 15.921875 20.484375 11.0625 
Q 25.484375 6.203125 34.421875 6.203125 
Q 39.59375 6.203125 44.453125 7.46875 
Q 49.3125 8.734375 54.109375 11.28125 
L 54.109375 2.78125 
Q 49.265625 0.734375 44.1875 -0.34375 
Q 39.109375 -1.421875 33.890625 -1.421875 
Q 20.796875 -1.421875 13.15625 6.1875 
Q 5.515625 13.8125 5.515625 26.8125 
Q 5.515625 40.234375 12.765625 48.109375 
Q 20.015625 56 32.328125 56 
Q 43.359375 56 49.78125 48.890625 
Q 56.203125 41.796875 56.203125 29.59375 
z
M 47.21875 32.234375 
Q 47.125 39.59375 43.09375 43.984375 
Q 39.0625 48.390625 32.421875 48.390625 
Q 24.90625 48.390625 20.390625 44.140625 
Q 15.875 39.890625 15.1875 32.171875 
z
" id="DejaVuSans-101"/>
       <path id="DejaVuSans-32"/>
       <path d="M 9.078125 75.984375 
L 18.109375 75.984375 
L 18.109375 31.109375 
L 44.921875 54.6875 
L 56.390625 54.6875 
L 27.390625 29.109375 
L 57.625 0 
L 45.90625 0 
L 18.109375 26.703125 
L 18.109375 0 
L 9.078125 0 
z
" id="DejaVuSans-107"/>
       <path d="M 9.421875 54.6875 
L 18.40625 54.6875 
L 18.40625 0 
L 9.421875 0 
z
M 9.421875 75.984375 
L 18.40625 75.984375 
L 18.40625 64.59375 
L 9.421875 64.59375 
z
" id="DejaVuSans-105"/>
       <path d="M 41.109375 46.296875 
Q 39.59375 47.171875 37.8125 47.578125 
Q 36.03125 48 33.890625 48 
Q 26.265625 48 22.1875 43.046875 
Q 18.109375 38.09375 18.109375 28.8125 
L 18.109375 0 
L 9.078125 0 
L 9.078125 54.6875 
L 18.109375 54.6875 
L 18.109375 46.1875 
Q 20.953125 51.171875 25.484375 53.578125 
Q 30.03125 56 36.53125 56 
Q 37.453125 56 38.578125 55.875 
Q 39.703125 55.765625 41.0625 55.515625 
z
" id="DejaVuSans-114"/>
      </defs>
      <use xlink:href="#DejaVuSans-70"/>
      <use x="48.394531" xlink:href="#DejaVuSans-228"/>
      <use x="109.673828" xlink:href="#DejaVuSans-108"/>
      <use x="137.457031" xlink:href="#DejaVuSans-108"/>
      <use x="165.240234" xlink:href="#DejaVuSans-101"/>
      <use x="226.763672" xlink:href="#DejaVuSans-32"/>
      <use x="258.550781" xlink:href="#DejaVuSans-107"/>
      <use x="313.335938" xlink:href="#DejaVuSans-117"/>
      <use x="376.714844" xlink:href="#DejaVuSans-109"/>
      <use x="474.126953" xlink:href="#DejaVuSans-117"/>
      <use x="537.505859" xlink:href="#DejaVuSans-108"/>
      <use x="565.289062" xlink:href="#DejaVuSans-105"/>
      <use x="593.072266" xlink:href="#DejaVuSans-101"/>
      <use x="654.595703" xlink:href="#DejaVuSans-114"/>
      <use x="695.708984" xlink:href="#DejaVuSans-116"/>
     </g>
    </g>
    <g id="text_12">
     <!-- 1e6 -->
     <g transform="translate(59.690625 14.798437)scale(0.1 -0.1)">
      <defs>
       <path d="M 33.015625 40.375 
Q 26.375 40.375 22.484375 35.828125 
Q 18.609375 31.296875 18.609375 23.390625 
Q 18.609375 15.53125 22.484375 10.953125 
Q 26.375 6.390625 33.015625 6.390625 
Q 39.65625 6.390625 43.53125 10.953125 
Q 47.40625 15.53125 47.40625 23.390625 
Q 47.40625 31.296875 43.53125 35.828125 
Q 39.65625 40.375 33.015625 40.375 
z
M 52.59375 71.296875 
L 52.59375 62.3125 
Q 48.875 64.0625 45.09375 64.984375 
Q 41.3125 65.921875 37.59375 65.921875 
Q 27.828125 65.921875 22.671875 59.328125 
Q 17.53125 52.734375 16.796875 39.40625 
Q 19.671875 43.65625 24.015625 45.921875 
Q 28.375 48.1875 33.59375 48.1875 
Q 44.578125 48.1875 50.953125 41.515625 
Q 57.328125 34.859375 57.328125 23.390625 
Q 57.328125 12.15625 50.6875 5.359375 
Q 44.046875 -1.421875 33.015625 -1.421875 
Q 20.359375 -1.421875 13.671875 8.265625 
Q 6.984375 17.96875 6.984375 36.375 
Q 6.984375 53.65625 15.1875 63.9375 
Q 23.390625 74.21875 37.203125 74.21875 
Q 40.921875 74.21875 44.703125 73.484375 
Q 48.484375 72.75 52.59375 71.296875 
z
" id="DejaVuSans-54"/>
      </defs>
      <use xlink:href="#DejaVuSans-49"/>
      <use x="63.623047" xlink:href="#DejaVuSans-101"/>
      <use x="125.146484" xlink:href="#DejaVuSans-54"/>
     </g>
    </g>
   </g>
   <g id="line2d_19">
    <path clip-path="url(#pbf53abe8a1)" d="M 75.934716 104.833892 
L 119.601627 104.755404 
L 125.714995 104.25524 
L 127.461671 103.994884 
L 130.081686 103.587976 
L 131.828362 103.174308 
L 134.448377 102.488499 
L 137.068391 101.892585 
L 139.688406 101.204396 
L 147.54845 99.920936 
L 149.295126 99.74413 
L 153.661818 99.279093 
L 156.281832 99.050049 
L 161.521862 98.732395 
L 165.888553 98.558157 
L 183.355317 98.022714 
L 206.062111 97.646099 
L 240.122301 96.988581 
L 258.462404 96.21756 
L 268.069125 95.661759 
L 271.562477 95.488919 
L 290.775918 94.207158 
L 298.635962 93.501557 
L 301.255977 93.233383 
L 307.369344 92.093188 
L 310.862697 91.06015 
L 311.736036 90.908802 
L 313.482712 90.269715 
L 314.35605 89.803961 
L 315.229388 89.579147 
L 316.976065 88.675135 
L 318.722741 87.827175 
L 320.469418 86.718104 
L 322.216094 85.27846 
L 323.962771 84.273373 
L 324.836109 83.319578 
L 325.709447 83.035049 
L 326.582785 81.846016 
L 328.329462 80.131928 
L 330.076138 79.050467 
L 330.949476 78.804125 
L 332.696153 76.955307 
L 334.442829 75.180106 
L 335.316168 74.627138 
L 336.189506 74.505779 
L 337.062844 73.955077 
L 338.80952 72.068111 
L 340.556197 70.306696 
L 341.429535 69.782736 
L 342.302873 69.617412 
L 344.04955 68.45312 
L 344.922888 67.218497 
L 346.669564 65.60303 
L 347.542903 65.080089 
L 348.416241 64.959335 
L 349.289579 64.422193 
L 351.909594 61.716578 
L 352.782932 61.113374 
L 353.65627 60.126567 
L 354.529608 59.714485 
L 355.402947 59.508406 
L 358.896299 55.191062 
L 359.769638 54.367956 
L 360.642976 53.812381 
L 361.516314 53.56872 
L 364.136329 49.914447 
L 365.009667 48.674423 
L 365.883005 47.855585 
L 366.756343 47.612188 
L 367.629682 46.884869 
L 369.376358 44.244257 
L 370.249696 43.24457 
L 371.123035 43.16374 
L 373.743049 41.656411 
L 374.616387 40.92116 
L 375.489726 39.068717 
L 376.363064 38.337205 
L 377.236402 38.257243 
L 379.856417 36.988929 
L 380.729755 36.295868 
L 381.603093 35.288779 
L 382.476431 33.576504 
L 384.223108 31.993859 
L 385.096446 31.958052 
L 385.969784 31.515904 
L 387.716461 29.522499 
L 388.589799 28.716352 
L 389.463137 28.391785 
L 391.209814 27.398369 
L 392.95649 26.58682 
L 393.829828 25.491346 
L 394.703167 25.178715 
L 395.576505 24.560554 
L 397.323181 23.710404 
L 399.069858 23.095718 
L 400.816534 21.942983 
L 400.816534 21.942983 
" style="fill:none;stroke:#1f77b4;stroke-linecap:square;stroke-width:1.5;"/>
   </g>
   <g id="patch_3">
    <path d="M 59.690625 108.978437 
L 59.690625 17.798437 
" style="fill:none;stroke:#000000;stroke-linecap:square;stroke-linejoin:miter;stroke-width:0.8;"/>
   </g>
   <g id="patch_4">
    <path d="M 417.060625 108.978437 
L 417.060625 17.798437 
" style="fill:none;stroke:#000000;stroke-linecap:square;stroke-linejoin:miter;stroke-width:0.8;"/>
   </g>
   <g id="patch_5">
    <path d="M 59.690625 108.978437 
L 417.060625 108.978437 
" style="fill:none;stroke:#000000;stroke-linecap:square;stroke-linejoin:miter;stroke-width:0.8;"/>
   </g>
   <g id="patch_6">
    <path d="M 59.690625 17.798437 
L 417.060625 17.798437 
" style="fill:none;stroke:#000000;stroke-linecap:square;stroke-linejoin:miter;stroke-width:0.8;"/>
   </g>
  </g>
  <g id="axes_2">
   <g id="patch_7">
    <path d="M 59.690625 242.118437 
L 417.060625 242.118437 
L 417.060625 150.938437 
L 59.690625 150.938437 
z
" style="fill:#ffffff;"/>
   </g>
   <g id="matplotlib.axis_3">
    <g id="xtick_7">
     <g id="line2d_20">
      <path clip-path="url(#p00956765d7)" d="M 109.994907 242.118437 
L 109.994907 150.938437 
" style="fill:none;stroke:#b0b0b0;stroke-linecap:square;stroke-width:0.8;"/>
     </g>
     <g id="line2d_21">
      <g>
       <use style="stroke:#000000;stroke-width:0.8;" x="109.994907" xlink:href="#md6152afd47" y="242.118437"/>
      </g>
     </g>
     <g id="text_13">
      <!-- 2020-03 -->
      <g transform="translate(89.1035 256.716875)scale(0.1 -0.1)">
       <use xlink:href="#DejaVuSans-50"/>
       <use x="63.623047" xlink:href="#DejaVuSans-48"/>
       <use x="127.246094" xlink:href="#DejaVuSans-50"/>
       <use x="190.869141" xlink:href="#DejaVuSans-48"/>
       <use x="254.492188" xlink:href="#DejaVuSans-45"/>
       <use x="290.576172" xlink:href="#DejaVuSans-48"/>
       <use x="354.199219" xlink:href="#DejaVuSans-51"/>
      </g>
     </g>
    </g>
    <g id="xtick_8">
     <g id="line2d_22">
      <path clip-path="url(#p00956765d7)" d="M 163.268538 242.118437 
L 163.268538 150.938437 
" style="fill:none;stroke:#b0b0b0;stroke-linecap:square;stroke-width:0.8;"/>
     </g>
     <g id="line2d_23">
      <g>
       <use style="stroke:#000000;stroke-width:0.8;" x="163.268538" xlink:href="#md6152afd47" y="242.118437"/>
      </g>
     </g>
     <g id="text_14">
      <!-- 2020-05 -->
      <g transform="translate(142.377132 256.716875)scale(0.1 -0.1)">
       <use xlink:href="#DejaVuSans-50"/>
       <use x="63.623047" xlink:href="#DejaVuSans-48"/>
       <use x="127.246094" xlink:href="#DejaVuSans-50"/>
       <use x="190.869141" xlink:href="#DejaVuSans-48"/>
       <use x="254.492188" xlink:href="#DejaVuSans-45"/>
       <use x="290.576172" xlink:href="#DejaVuSans-48"/>
       <use x="354.199219" xlink:href="#DejaVuSans-53"/>
      </g>
     </g>
    </g>
    <g id="xtick_9">
     <g id="line2d_24">
      <path clip-path="url(#p00956765d7)" d="M 216.542169 242.118437 
L 216.542169 150.938437 
" style="fill:none;stroke:#b0b0b0;stroke-linecap:square;stroke-width:0.8;"/>
     </g>
     <g id="line2d_25">
      <g>
       <use style="stroke:#000000;stroke-width:0.8;" x="216.542169" xlink:href="#md6152afd47" y="242.118437"/>
      </g>
     </g>
     <g id="text_15">
      <!-- 2020-07 -->
      <g transform="translate(195.650763 256.716875)scale(0.1 -0.1)">
       <use xlink:href="#DejaVuSans-50"/>
       <use x="63.623047" xlink:href="#DejaVuSans-48"/>
       <use x="127.246094" xlink:href="#DejaVuSans-50"/>
       <use x="190.869141" xlink:href="#DejaVuSans-48"/>
       <use x="254.492188" xlink:href="#DejaVuSans-45"/>
       <use x="290.576172" xlink:href="#DejaVuSans-48"/>
       <use x="354.199219" xlink:href="#DejaVuSans-55"/>
      </g>
     </g>
    </g>
    <g id="xtick_10">
     <g id="line2d_26">
      <path clip-path="url(#p00956765d7)" d="M 270.689139 242.118437 
L 270.689139 150.938437 
" style="fill:none;stroke:#b0b0b0;stroke-linecap:square;stroke-width:0.8;"/>
     </g>
     <g id="line2d_27">
      <g>
       <use style="stroke:#000000;stroke-width:0.8;" x="270.689139" xlink:href="#md6152afd47" y="242.118437"/>
      </g>
     </g>
     <g id="text_16">
      <!-- 2020-09 -->
      <g transform="translate(249.797733 256.716875)scale(0.1 -0.1)">
       <use xlink:href="#DejaVuSans-50"/>
       <use x="63.623047" xlink:href="#DejaVuSans-48"/>
       <use x="127.246094" xlink:href="#DejaVuSans-50"/>
       <use x="190.869141" xlink:href="#DejaVuSans-48"/>
       <use x="254.492188" xlink:href="#DejaVuSans-45"/>
       <use x="290.576172" xlink:href="#DejaVuSans-48"/>
       <use x="354.199219" xlink:href="#DejaVuSans-57"/>
      </g>
     </g>
    </g>
    <g id="xtick_11">
     <g id="line2d_28">
      <path clip-path="url(#p00956765d7)" d="M 323.962771 242.118437 
L 323.962771 150.938437 
" style="fill:none;stroke:#b0b0b0;stroke-linecap:square;stroke-width:0.8;"/>
     </g>
     <g id="line2d_29">
      <g>
       <use style="stroke:#000000;stroke-width:0.8;" x="323.962771" xlink:href="#md6152afd47" y="242.118437"/>
      </g>
     </g>
     <g id="text_17">
      <!-- 2020-11 -->
      <g transform="translate(303.071364 256.716875)scale(0.1 -0.1)">
       <use xlink:href="#DejaVuSans-50"/>
       <use x="63.623047" xlink:href="#DejaVuSans-48"/>
       <use x="127.246094" xlink:href="#DejaVuSans-50"/>
       <use x="190.869141" xlink:href="#DejaVuSans-48"/>
       <use x="254.492188" xlink:href="#DejaVuSans-45"/>
       <use x="290.576172" xlink:href="#DejaVuSans-49"/>
       <use x="354.199219" xlink:href="#DejaVuSans-49"/>
      </g>
     </g>
    </g>
    <g id="xtick_12">
     <g id="line2d_30">
      <path clip-path="url(#p00956765d7)" d="M 377.236402 242.118437 
L 377.236402 150.938437 
" style="fill:none;stroke:#b0b0b0;stroke-linecap:square;stroke-width:0.8;"/>
     </g>
     <g id="line2d_31">
      <g>
       <use style="stroke:#000000;stroke-width:0.8;" x="377.236402" xlink:href="#md6152afd47" y="242.118437"/>
      </g>
     </g>
     <g id="text_18">
      <!-- 2021-01 -->
      <g transform="translate(356.344996 256.716875)scale(0.1 -0.1)">
       <use xlink:href="#DejaVuSans-50"/>
       <use x="63.623047" xlink:href="#DejaVuSans-48"/>
       <use x="127.246094" xlink:href="#DejaVuSans-50"/>
       <use x="190.869141" xlink:href="#DejaVuSans-49"/>
       <use x="254.492188" xlink:href="#DejaVuSans-45"/>
       <use x="290.576172" xlink:href="#DejaVuSans-48"/>
       <use x="354.199219" xlink:href="#DejaVuSans-49"/>
      </g>
     </g>
    </g>
    <g id="text_19">
     <!-- Datum -->
     <g transform="translate(221.462344 270.395)scale(0.1 -0.1)">
      <use xlink:href="#DejaVuSans-68"/>
      <use x="77.001953" xlink:href="#DejaVuSans-97"/>
      <use x="138.28125" xlink:href="#DejaVuSans-116"/>
      <use x="177.490234" xlink:href="#DejaVuSans-117"/>
      <use x="240.869141" xlink:href="#DejaVuSans-109"/>
     </g>
    </g>
   </g>
   <g id="matplotlib.axis_4">
    <g id="ytick_4">
     <g id="line2d_32">
      <path clip-path="url(#p00956765d7)" d="M 59.690625 237.973892 
L 417.060625 237.973892 
" style="fill:none;stroke:#b0b0b0;stroke-linecap:square;stroke-width:0.8;"/>
     </g>
     <g id="line2d_33">
      <g>
       <use style="stroke:#000000;stroke-width:0.8;" x="59.690625" xlink:href="#mc86003a6c4" y="237.973892"/>
      </g>
     </g>
     <g id="text_20">
      <!-- 0 -->
      <g transform="translate(46.328125 241.773111)scale(0.1 -0.1)">
       <use xlink:href="#DejaVuSans-48"/>
      </g>
     </g>
    </g>
    <g id="ytick_5">
     <g id="line2d_34">
      <path clip-path="url(#p00956765d7)" d="M 59.690625 204.171221 
L 417.060625 204.171221 
" style="fill:none;stroke:#b0b0b0;stroke-linecap:square;stroke-width:0.8;"/>
     </g>
     <g id="line2d_35">
      <g>
       <use style="stroke:#000000;stroke-width:0.8;" x="59.690625" xlink:href="#mc86003a6c4" y="204.171221"/>
      </g>
     </g>
     <g id="text_21">
      <!-- 20000 -->
      <g transform="translate(20.878125 207.97044)scale(0.1 -0.1)">
       <use xlink:href="#DejaVuSans-50"/>
       <use x="63.623047" xlink:href="#DejaVuSans-48"/>
       <use x="127.246094" xlink:href="#DejaVuSans-48"/>
       <use x="190.869141" xlink:href="#DejaVuSans-48"/>
       <use x="254.492188" xlink:href="#DejaVuSans-48"/>
      </g>
     </g>
    </g>
    <g id="ytick_6">
     <g id="line2d_36">
      <path clip-path="url(#p00956765d7)" d="M 59.690625 170.368551 
L 417.060625 170.368551 
" style="fill:none;stroke:#b0b0b0;stroke-linecap:square;stroke-width:0.8;"/>
     </g>
     <g id="line2d_37">
      <g>
       <use style="stroke:#000000;stroke-width:0.8;" x="59.690625" xlink:href="#mc86003a6c4" y="170.368551"/>
      </g>
     </g>
     <g id="text_22">
      <!-- 40000 -->
      <g transform="translate(20.878125 174.167769)scale(0.1 -0.1)">
       <defs>
        <path d="M 37.796875 64.3125 
L 12.890625 25.390625 
L 37.796875 25.390625 
z
M 35.203125 72.90625 
L 47.609375 72.90625 
L 47.609375 25.390625 
L 58.015625 25.390625 
L 58.015625 17.1875 
L 47.609375 17.1875 
L 47.609375 0 
L 37.796875 0 
L 37.796875 17.1875 
L 4.890625 17.1875 
L 4.890625 26.703125 
z
" id="DejaVuSans-52"/>
       </defs>
       <use xlink:href="#DejaVuSans-52"/>
       <use x="63.623047" xlink:href="#DejaVuSans-48"/>
       <use x="127.246094" xlink:href="#DejaVuSans-48"/>
       <use x="190.869141" xlink:href="#DejaVuSans-48"/>
       <use x="254.492188" xlink:href="#DejaVuSans-48"/>
      </g>
     </g>
    </g>
    <g id="text_23">
     <!-- neue Fälle -->
     <g transform="translate(14.798438 221.946406)rotate(-90)scale(0.1 -0.1)">
      <defs>
       <path d="M 54.890625 33.015625 
L 54.890625 0 
L 45.90625 0 
L 45.90625 32.71875 
Q 45.90625 40.484375 42.875 44.328125 
Q 39.84375 48.1875 33.796875 48.1875 
Q 26.515625 48.1875 22.3125 43.546875 
Q 18.109375 38.921875 18.109375 30.90625 
L 18.109375 0 
L 9.078125 0 
L 9.078125 54.6875 
L 18.109375 54.6875 
L 18.109375 46.1875 
Q 21.34375 51.125 25.703125 53.5625 
Q 30.078125 56 35.796875 56 
Q 45.21875 56 50.046875 50.171875 
Q 54.890625 44.34375 54.890625 33.015625 
z
" id="DejaVuSans-110"/>
      </defs>
      <use xlink:href="#DejaVuSans-110"/>
      <use x="63.378906" xlink:href="#DejaVuSans-101"/>
      <use x="124.902344" xlink:href="#DejaVuSans-117"/>
      <use x="188.28125" xlink:href="#DejaVuSans-101"/>
      <use x="249.804688" xlink:href="#DejaVuSans-32"/>
      <use x="281.591797" xlink:href="#DejaVuSans-70"/>
      <use x="329.986328" xlink:href="#DejaVuSans-228"/>
      <use x="391.265625" xlink:href="#DejaVuSans-108"/>
      <use x="419.048828" xlink:href="#DejaVuSans-108"/>
      <use x="446.832031" xlink:href="#DejaVuSans-101"/>
     </g>
    </g>
   </g>
   <g id="line2d_38">
    <path clip-path="url(#p00956765d7)" d="M 75.934716 237.973892 
L 111.741583 237.911357 
L 112.614921 237.862343 
L 113.488259 237.602063 
L 115.234936 237.755865 
L 116.108274 237.56657 
L 116.981612 237.744034 
L 118.728289 237.211642 
L 119.601627 237.686569 
L 120.474965 235.274749 
L 121.348303 236.435871 
L 123.09498 235.477565 
L 123.968318 234.618977 
L 124.841656 232.785182 
L 125.714995 232.915322 
L 126.588333 230.320967 
L 127.461671 233.976726 
L 128.335009 233.478137 
L 129.208347 230.904063 
L 130.081686 231.331667 
L 130.955024 230.643783 
L 131.828362 226.793659 
L 132.7017 226.256196 
L 133.575038 226.440421 
L 134.448377 230.537304 
L 135.321715 229.878152 
L 136.195053 229.653365 
L 137.068391 227.724922 
L 137.94173 226.274788 
L 138.815068 227.216192 
L 139.688406 229.636463 
L 141.435082 232.479268 
L 142.308421 230.724909 
L 143.181759 228.45337 
L 144.055097 229.71759 
L 144.928435 231.230259 
L 145.801774 233.347997 
L 146.675112 232.994759 
L 147.54845 234.225176 
L 148.421788 235.79869 
L 149.295126 232.237579 
L 150.168465 232.996449 
L 151.041803 231.722088 
L 151.915141 234.686582 
L 152.788479 234.860666 
L 153.661818 234.794751 
L 154.535156 235.901788 
L 155.408494 233.990247 
L 156.281832 233.780671 
L 157.15517 234.813342 
L 158.028509 235.41503 
L 159.775185 236.30404 
L 160.648523 236.023478 
L 161.521862 235.224045 
L 162.3952 235.489396 
L 163.268538 236.168829 
L 165.888553 237.149107 
L 167.635229 236.021788 
L 168.508567 235.830803 
L 169.381906 236.016717 
L 170.255244 236.729954 
L 171.128582 237.035868 
L 172.00192 236.795869 
L 172.875258 236.968263 
L 173.748597 236.407138 
L 174.621935 237.331641 
L 175.495273 236.697841 
L 176.368611 237.096713 
L 177.24195 236.93108 
L 178.115288 237.666288 
L 178.988626 235.900098 
L 179.861964 236.799249 
L 180.735302 237.047699 
L 181.608641 236.80939 
L 182.481979 237.507415 
L 183.355317 237.395866 
L 184.228655 237.514176 
L 185.101994 236.959812 
L 185.975332 237.426289 
L 186.84867 236.838122 
L 187.722008 236.746855 
L 188.595346 237.522626 
L 190.342023 237.662907 
L 191.215361 237.492204 
L 192.088699 237.56488 
L 194.708714 237.084882 
L 195.582052 237.466852 
L 197.328729 237.302909 
L 198.202067 237.94685 
L 199.075405 237.688259 
L 199.948743 237.069671 
L 200.822082 237.904597 
L 201.69542 237.549669 
L 202.568758 237.69671 
L 203.442096 237.010516 
L 204.315434 237.378965 
L 205.188773 235.92376 
L 206.062111 237.159248 
L 206.935449 237.346853 
L 207.808787 236.956432 
L 208.682125 237.135586 
L 209.555464 236.770517 
L 210.428802 237.31305 
L 212.175478 236.849953 
L 213.922155 237.576711 
L 214.795493 237.384035 
L 215.668831 237.338402 
L 216.542169 237.171079 
L 217.415508 237.167698 
L 218.288846 237.280937 
L 219.162184 237.267416 
L 220.035522 237.424599 
L 220.908861 237.05953 
L 221.782199 237.502345 
L 222.655537 237.372205 
L 223.528875 237.463472 
L 225.275552 237.336712 
L 226.14889 237.618964 
L 227.895566 237.507415 
L 229.642243 237.027417 
L 230.515581 236.968263 
L 231.388919 237.329951 
L 232.262257 237.451641 
L 233.135596 236.976713 
L 234.008934 237.31136 
L 234.882272 237.029107 
L 235.75561 236.951361 
L 236.628949 236.719813 
L 237.502287 236.866855 
L 238.375625 237.31643 
L 239.248963 237.221783 
L 240.122301 236.968263 
L 240.99564 236.55587 
L 241.868978 236.30235 
L 242.742316 236.513617 
L 243.615654 236.949671 
L 244.488993 237.610513 
L 245.362331 236.467983 
L 246.235669 236.762066 
L 247.109007 235.80207 
L 247.982345 236.408828 
L 248.855684 236.018408 
L 249.729022 236.778968 
L 250.60236 237.323191 
L 251.475698 235.911929 
L 252.349037 236.229674 
L 253.222375 235.744606 
L 254.969051 235.42179 
L 255.842389 236.795869 
L 256.715728 237.096713 
L 257.589066 235.112496 
L 258.462404 235.573902 
L 259.335742 235.29334 
L 260.209081 235.29334 
L 261.082419 235.03813 
L 261.955757 236.567701 
L 262.829095 236.904038 
L 263.702433 235.222355 
L 264.575772 235.504607 
L 265.44911 235.562071 
L 266.322448 235.335594 
L 267.195786 235.345734 
L 268.069125 236.775587 
L 268.942463 237.179529 
L 269.815801 235.443762 
L 270.689139 235.92376 
L 271.562477 235.614466 
L 273.309154 235.535029 
L 274.182492 236.664039 
L 275.05583 236.841503 
L 275.929168 234.766019 
L 276.802507 235.724324 
L 277.675845 235.479255 
L 278.549183 235.073623 
L 279.422521 235.29334 
L 280.29586 236.145168 
L 281.169198 236.418969 
L 282.042536 235.464044 
L 282.915874 234.945173 
L 283.789212 234.838694 
L 284.662551 234.291091 
L 285.535889 234.257288 
L 286.409227 235.126017 
L 287.282565 236.227984 
L 288.155904 235.278129 
L 289.029242 234.843765 
L 289.90258 235.247707 
L 290.775918 234.051092 
L 291.649256 233.975036 
L 292.522595 235.753057 
L 293.395933 235.754747 
L 294.269271 234.100106 
L 295.142609 234.864046 
L 296.015948 233.846586 
L 297.762624 233.182363 
L 298.635962 235.180101 
L 299.5093 235.360946 
L 300.382639 232.734478 
L 301.255977 233.826304 
L 302.129315 231.196457 
L 303.002653 229.854491 
L 303.875992 230.277024 
L 304.74933 232.957576 
L 305.622668 233.163772 
L 306.496006 226.918729 
L 307.369344 230.429136 
L 308.242683 225.850564 
L 309.116021 225.095075 
L 309.989359 224.968314 
L 310.862697 229.756463 
L 311.736036 231.201527 
L 312.609374 223.781841 
L 313.482712 223.568884 
L 314.35605 217.132855 
L 315.229388 227.914217 
L 316.102727 215.197653 
L 316.976065 220.298476 
L 317.849403 221.258471 
L 318.722741 216.745815 
L 319.59608 215.730045 
L 320.469418 210.590349 
L 321.342756 206.312621 
L 322.216094 205.215724 
L 323.089432 214.220755 
L 323.962771 216.752575 
L 324.836109 195.29464 
L 325.709447 225.242116 
L 326.582785 184.768488 
L 327.456124 199.842789 
L 328.329462 199.405045 
L 329.2028 214.105826 
L 330.076138 213.450054 
L 330.949476 226.950841 
L 331.822815 193.105917 
L 332.696153 200.113211 
L 333.569491 196.163369 
L 334.442829 200.349829 
L 335.316168 213.230337 
L 336.189506 232.543493 
L 337.936182 193.639999 
L 338.80952 197.872094 
L 339.682859 197.341392 
L 340.556197 199.788705 
L 342.302873 230.576178 
L 343.176212 213.543012 
L 344.04955 210.306406 
L 344.922888 182.728497 
L 345.796226 200.873771 
L 346.669564 202.787002 
L 347.542903 214.573993 
L 348.416241 232.570535 
L 350.162917 196.116045 
L 351.036255 198.636034 
L 351.909594 198.101952 
L 352.782932 210.982459 
L 353.65627 193.817463 
L 354.529608 219.534535 
L 355.402947 228.752523 
L 356.276285 188.515514 
L 357.149623 195.570132 
L 358.022961 182.649061 
L 359.769638 201.142502 
L 360.642976 213.113718 
L 361.516314 227.070841 
L 362.389652 180.805125 
L 363.262991 182.63216 
L 364.136329 186.967352 
L 365.009667 182.486808 
L 365.883005 201.333487 
L 366.756343 227.082672 
L 367.629682 205.428681 
L 368.50302 176.870494 
L 369.376358 180.918364 
L 370.249696 193.241128 
L 371.123035 234.357006 
L 371.996373 215.150329 
L 372.869711 217.017926 
L 373.743049 214.305262 
L 374.616387 205.073753 
L 375.489726 155.082983 
L 376.363064 205.241076 
L 377.236402 234.395879 
L 378.10974 219.546366 
L 378.983079 220.470869 
L 379.856417 217.151447 
L 380.729755 206.961632 
L 381.603093 192.909862 
L 382.476431 161.355069 
L 383.34977 205.731215 
L 384.223108 199.398284 
L 385.096446 236.371645 
L 385.969784 218.189189 
L 386.843123 191.985359 
L 387.716461 194.763938 
L 388.589799 201.901372 
L 389.463137 223.450575 
L 390.336475 212.931183 
L 391.209814 218.564399 
L 392.083152 222.335086 
L 392.95649 217.298489 
L 393.829828 188.954949 
L 394.703167 223.984657 
L 395.576505 210.313167 
L 396.449843 216.965532 
L 397.323181 220.940726 
L 398.196519 226.333942 
L 399.069858 222.108609 
L 399.943196 211.546964 
L 400.816534 212.819635 
L 400.816534 212.819635 
" style="fill:none;stroke:#1f77b4;stroke-linecap:square;stroke-width:1.5;"/>
   </g>
   <g id="patch_8">
    <path d="M 59.690625 242.118437 
L 59.690625 150.938437 
" style="fill:none;stroke:#000000;stroke-linecap:square;stroke-linejoin:miter;stroke-width:0.8;"/>
   </g>
   <g id="patch_9">
    <path d="M 417.060625 242.118437 
L 417.060625 150.938437 
" style="fill:none;stroke:#000000;stroke-linecap:square;stroke-linejoin:miter;stroke-width:0.8;"/>
   </g>
   <g id="patch_10">
    <path d="M 59.690625 242.118437 
L 417.060625 242.118437 
" style="fill:none;stroke:#000000;stroke-linecap:square;stroke-linejoin:miter;stroke-width:0.8;"/>
   </g>
   <g id="patch_11">
    <path d="M 59.690625 150.938437 
L 417.060625 150.938437 
" style="fill:none;stroke:#000000;stroke-linecap:square;stroke-linejoin:miter;stroke-width:0.8;"/>
   </g>
  </g>
 </g>
 <defs>
  <clipPath id="pbf53abe8a1">
   <rect height="91.18" width="357.37" x="59.690625" y="17.798437"/>
  </clipPath>
  <clipPath id="p00956765d7">
   <rect height="91.18" width="357.37" x="59.690625" y="150.938437"/>
  </clipPath>
 </defs>
</svg>
