<?xml version="1.0" encoding="utf-8" standalone="no"?>
<!DOCTYPE svg PUBLIC "-//W3C//DTD SVG 1.1//EN"
  "http://www.w3.org/Graphics/SVG/1.1/DTD/svg11.dtd">
<!-- Created with matplotlib (https://matplotlib.org/) -->
<svg height="280.496319pt" version="1.1" viewBox="0 0 424.260625 280.496319" width="424.260625pt" xmlns="http://www.w3.org/2000/svg" xmlns:xlink="http://www.w3.org/1999/xlink">
 <metadata>
  <rdf:RDF xmlns:cc="http://creativecommons.org/ns#" xmlns:dc="http://purl.org/dc/elements/1.1/" xmlns:rdf="http://www.w3.org/1999/02/22-rdf-syntax-ns#">
   <cc:Work>
    <dc:type rdf:resource="http://purl.org/dc/dcmitype/StillImage"/>
    <dc:date>2021-01-29T15:01:24.444321</dc:date>
    <dc:format>image/svg+xml</dc:format>
    <dc:creator>
     <cc:Agent>
      <dc:title>Matplotlib v3.3.4, https://matplotlib.org/</dc:title>
     </cc:Agent>
    </dc:creator>
   </cc:Work>
  </rdf:RDF>
 </metadata>
 <defs>
  <style type="text/css">*{stroke-linecap:butt;stroke-linejoin:round;}</style>
 </defs>
 <g id="figure_1">
  <g id="patch_1">
   <path d="M 0 280.496319 
L 424.260625 280.496319 
L 424.260625 0 
L 0 0 
z
" style="fill:#ffffff;"/>
  </g>
  <g id="axes_1">
   <g id="patch_2">
    <path d="M 59.690625 119.816174 
L 417.060625 119.816174 
L 417.060625 17.798437 
L 59.690625 17.798437 
z
" style="fill:#ffffff;"/>
   </g>
   <g id="matplotlib.axis_1">
    <g id="xtick_1">
     <g id="line2d_1">
      <path clip-path="url(#pfa60527a90)" d="M 84.668098 119.816174 
L 84.668098 17.798437 
" style="fill:none;stroke:#b0b0b0;stroke-linecap:square;stroke-width:0.8;"/>
     </g>
     <g id="line2d_2">
      <defs>
       <path d="M 0 0 
L 0 3.5 
" id="m4839477d83" style="stroke:#000000;stroke-width:0.8;"/>
      </defs>
      <g>
       <use style="stroke:#000000;stroke-width:0.8;" x="84.668098" xlink:href="#m4839477d83" y="119.816174"/>
      </g>
     </g>
    </g>
    <g id="xtick_2">
     <g id="line2d_3">
      <path clip-path="url(#pfa60527a90)" d="M 109.994907 119.816174 
L 109.994907 17.798437 
" style="fill:none;stroke:#b0b0b0;stroke-linecap:square;stroke-width:0.8;"/>
     </g>
     <g id="line2d_4">
      <g>
       <use style="stroke:#000000;stroke-width:0.8;" x="109.994907" xlink:href="#m4839477d83" y="119.816174"/>
      </g>
     </g>
    </g>
    <g id="xtick_3">
     <g id="line2d_5">
      <path clip-path="url(#pfa60527a90)" d="M 137.068391 119.816174 
L 137.068391 17.798437 
" style="fill:none;stroke:#b0b0b0;stroke-linecap:square;stroke-width:0.8;"/>
     </g>
     <g id="line2d_6">
      <g>
       <use style="stroke:#000000;stroke-width:0.8;" x="137.068391" xlink:href="#m4839477d83" y="119.816174"/>
      </g>
     </g>
    </g>
    <g id="xtick_4">
     <g id="line2d_7">
      <path clip-path="url(#pfa60527a90)" d="M 163.268538 119.816174 
L 163.268538 17.798437 
" style="fill:none;stroke:#b0b0b0;stroke-linecap:square;stroke-width:0.8;"/>
     </g>
     <g id="line2d_8">
      <g>
       <use style="stroke:#000000;stroke-width:0.8;" x="163.268538" xlink:href="#m4839477d83" y="119.816174"/>
      </g>
     </g>
    </g>
    <g id="xtick_5">
     <g id="line2d_9">
      <path clip-path="url(#pfa60527a90)" d="M 190.342023 119.816174 
L 190.342023 17.798437 
" style="fill:none;stroke:#b0b0b0;stroke-linecap:square;stroke-width:0.8;"/>
     </g>
     <g id="line2d_10">
      <g>
       <use style="stroke:#000000;stroke-width:0.8;" x="190.342023" xlink:href="#m4839477d83" y="119.816174"/>
      </g>
     </g>
    </g>
    <g id="xtick_6">
     <g id="line2d_11">
      <path clip-path="url(#pfa60527a90)" d="M 216.542169 119.816174 
L 216.542169 17.798437 
" style="fill:none;stroke:#b0b0b0;stroke-linecap:square;stroke-width:0.8;"/>
     </g>
     <g id="line2d_12">
      <g>
       <use style="stroke:#000000;stroke-width:0.8;" x="216.542169" xlink:href="#m4839477d83" y="119.816174"/>
      </g>
     </g>
    </g>
    <g id="xtick_7">
     <g id="line2d_13">
      <path clip-path="url(#pfa60527a90)" d="M 243.615654 119.816174 
L 243.615654 17.798437 
" style="fill:none;stroke:#b0b0b0;stroke-linecap:square;stroke-width:0.8;"/>
     </g>
     <g id="line2d_14">
      <g>
       <use style="stroke:#000000;stroke-width:0.8;" x="243.615654" xlink:href="#m4839477d83" y="119.816174"/>
      </g>
     </g>
    </g>
    <g id="xtick_8">
     <g id="line2d_15">
      <path clip-path="url(#pfa60527a90)" d="M 270.689139 119.816174 
L 270.689139 17.798437 
" style="fill:none;stroke:#b0b0b0;stroke-linecap:square;stroke-width:0.8;"/>
     </g>
     <g id="line2d_16">
      <g>
       <use style="stroke:#000000;stroke-width:0.8;" x="270.689139" xlink:href="#m4839477d83" y="119.816174"/>
      </g>
     </g>
    </g>
    <g id="xtick_9">
     <g id="line2d_17">
      <path clip-path="url(#pfa60527a90)" d="M 296.889286 119.816174 
L 296.889286 17.798437 
" style="fill:none;stroke:#b0b0b0;stroke-linecap:square;stroke-width:0.8;"/>
     </g>
     <g id="line2d_18">
      <g>
       <use style="stroke:#000000;stroke-width:0.8;" x="296.889286" xlink:href="#m4839477d83" y="119.816174"/>
      </g>
     </g>
    </g>
    <g id="xtick_10">
     <g id="line2d_19">
      <path clip-path="url(#pfa60527a90)" d="M 323.962771 119.816174 
L 323.962771 17.798437 
" style="fill:none;stroke:#b0b0b0;stroke-linecap:square;stroke-width:0.8;"/>
     </g>
     <g id="line2d_20">
      <g>
       <use style="stroke:#000000;stroke-width:0.8;" x="323.962771" xlink:href="#m4839477d83" y="119.816174"/>
      </g>
     </g>
    </g>
    <g id="xtick_11">
     <g id="line2d_21">
      <path clip-path="url(#pfa60527a90)" d="M 350.162917 119.816174 
L 350.162917 17.798437 
" style="fill:none;stroke:#b0b0b0;stroke-linecap:square;stroke-width:0.8;"/>
     </g>
     <g id="line2d_22">
      <g>
       <use style="stroke:#000000;stroke-width:0.8;" x="350.162917" xlink:href="#m4839477d83" y="119.816174"/>
      </g>
     </g>
    </g>
    <g id="xtick_12">
     <g id="line2d_23">
      <path clip-path="url(#pfa60527a90)" d="M 377.236402 119.816174 
L 377.236402 17.798437 
" style="fill:none;stroke:#b0b0b0;stroke-linecap:square;stroke-width:0.8;"/>
     </g>
     <g id="line2d_24">
      <g>
       <use style="stroke:#000000;stroke-width:0.8;" x="377.236402" xlink:href="#m4839477d83" y="119.816174"/>
      </g>
     </g>
    </g>
    <g id="xtick_13">
     <g id="line2d_25">
      <path clip-path="url(#pfa60527a90)" d="M 404.309887 119.816174 
L 404.309887 17.798437 
" style="fill:none;stroke:#b0b0b0;stroke-linecap:square;stroke-width:0.8;"/>
     </g>
     <g id="line2d_26">
      <g>
       <use style="stroke:#000000;stroke-width:0.8;" x="404.309887" xlink:href="#m4839477d83" y="119.816174"/>
      </g>
     </g>
    </g>
   </g>
   <g id="matplotlib.axis_2">
    <g id="ytick_1">
     <g id="line2d_27">
      <path clip-path="url(#pfa60527a90)" d="M 59.690625 115.179004 
L 417.060625 115.179004 
" style="fill:none;stroke:#b0b0b0;stroke-linecap:square;stroke-width:0.8;"/>
     </g>
     <g id="line2d_28">
      <defs>
       <path d="M 0 0 
L -3.5 0 
" id="m1599947b18" style="stroke:#000000;stroke-width:0.8;"/>
      </defs>
      <g>
       <use style="stroke:#000000;stroke-width:0.8;" x="59.690625" xlink:href="#m1599947b18" y="115.179004"/>
      </g>
     </g>
     <g id="text_1">
      <!-- 0.0 -->
      <g transform="translate(36.7875 118.978223)scale(0.1 -0.1)">
       <defs>
        <path d="M 31.78125 66.40625 
Q 24.171875 66.40625 20.328125 58.90625 
Q 16.5 51.421875 16.5 36.375 
Q 16.5 21.390625 20.328125 13.890625 
Q 24.171875 6.390625 31.78125 6.390625 
Q 39.453125 6.390625 43.28125 13.890625 
Q 47.125 21.390625 47.125 36.375 
Q 47.125 51.421875 43.28125 58.90625 
Q 39.453125 66.40625 31.78125 66.40625 
z
M 31.78125 74.21875 
Q 44.046875 74.21875 50.515625 64.515625 
Q 56.984375 54.828125 56.984375 36.375 
Q 56.984375 17.96875 50.515625 8.265625 
Q 44.046875 -1.421875 31.78125 -1.421875 
Q 19.53125 -1.421875 13.0625 8.265625 
Q 6.59375 17.96875 6.59375 36.375 
Q 6.59375 54.828125 13.0625 64.515625 
Q 19.53125 74.21875 31.78125 74.21875 
z
" id="DejaVuSans-48"/>
        <path d="M 10.6875 12.40625 
L 21 12.40625 
L 21 0 
L 10.6875 0 
z
" id="DejaVuSans-46"/>
       </defs>
       <use xlink:href="#DejaVuSans-48"/>
       <use x="63.623047" xlink:href="#DejaVuSans-46"/>
       <use x="95.410156" xlink:href="#DejaVuSans-48"/>
      </g>
     </g>
    </g>
    <g id="ytick_2">
     <g id="line2d_29">
      <path clip-path="url(#pfa60527a90)" d="M 59.690625 94.048729 
L 417.060625 94.048729 
" style="fill:none;stroke:#b0b0b0;stroke-linecap:square;stroke-width:0.8;"/>
     </g>
     <g id="line2d_30">
      <g>
       <use style="stroke:#000000;stroke-width:0.8;" x="59.690625" xlink:href="#m1599947b18" y="94.048729"/>
      </g>
     </g>
     <g id="text_2">
      <!-- 0.5 -->
      <g transform="translate(36.7875 97.847948)scale(0.1 -0.1)">
       <defs>
        <path d="M 10.796875 72.90625 
L 49.515625 72.90625 
L 49.515625 64.59375 
L 19.828125 64.59375 
L 19.828125 46.734375 
Q 21.96875 47.46875 24.109375 47.828125 
Q 26.265625 48.1875 28.421875 48.1875 
Q 40.625 48.1875 47.75 41.5 
Q 54.890625 34.8125 54.890625 23.390625 
Q 54.890625 11.625 47.5625 5.09375 
Q 40.234375 -1.421875 26.90625 -1.421875 
Q 22.3125 -1.421875 17.546875 -0.640625 
Q 12.796875 0.140625 7.71875 1.703125 
L 7.71875 11.625 
Q 12.109375 9.234375 16.796875 8.0625 
Q 21.484375 6.890625 26.703125 6.890625 
Q 35.15625 6.890625 40.078125 11.328125 
Q 45.015625 15.765625 45.015625 23.390625 
Q 45.015625 31 40.078125 35.4375 
Q 35.15625 39.890625 26.703125 39.890625 
Q 22.75 39.890625 18.8125 39.015625 
Q 14.890625 38.140625 10.796875 36.28125 
z
" id="DejaVuSans-53"/>
       </defs>
       <use xlink:href="#DejaVuSans-48"/>
       <use x="63.623047" xlink:href="#DejaVuSans-46"/>
       <use x="95.410156" xlink:href="#DejaVuSans-53"/>
      </g>
     </g>
    </g>
    <g id="ytick_3">
     <g id="line2d_31">
      <path clip-path="url(#pfa60527a90)" d="M 59.690625 72.918454 
L 417.060625 72.918454 
" style="fill:none;stroke:#b0b0b0;stroke-linecap:square;stroke-width:0.8;"/>
     </g>
     <g id="line2d_32">
      <g>
       <use style="stroke:#000000;stroke-width:0.8;" x="59.690625" xlink:href="#m1599947b18" y="72.918454"/>
      </g>
     </g>
     <g id="text_3">
      <!-- 1.0 -->
      <g transform="translate(36.7875 76.717673)scale(0.1 -0.1)">
       <defs>
        <path d="M 12.40625 8.296875 
L 28.515625 8.296875 
L 28.515625 63.921875 
L 10.984375 60.40625 
L 10.984375 69.390625 
L 28.421875 72.90625 
L 38.28125 72.90625 
L 38.28125 8.296875 
L 54.390625 8.296875 
L 54.390625 0 
L 12.40625 0 
z
" id="DejaVuSans-49"/>
       </defs>
       <use xlink:href="#DejaVuSans-49"/>
       <use x="63.623047" xlink:href="#DejaVuSans-46"/>
       <use x="95.410156" xlink:href="#DejaVuSans-48"/>
      </g>
     </g>
    </g>
    <g id="ytick_4">
     <g id="line2d_33">
      <path clip-path="url(#pfa60527a90)" d="M 59.690625 51.788179 
L 417.060625 51.788179 
" style="fill:none;stroke:#b0b0b0;stroke-linecap:square;stroke-width:0.8;"/>
     </g>
     <g id="line2d_34">
      <g>
       <use style="stroke:#000000;stroke-width:0.8;" x="59.690625" xlink:href="#m1599947b18" y="51.788179"/>
      </g>
     </g>
     <g id="text_4">
      <!-- 1.5 -->
      <g transform="translate(36.7875 55.587398)scale(0.1 -0.1)">
       <use xlink:href="#DejaVuSans-49"/>
       <use x="63.623047" xlink:href="#DejaVuSans-46"/>
       <use x="95.410156" xlink:href="#DejaVuSans-53"/>
      </g>
     </g>
    </g>
    <g id="ytick_5">
     <g id="line2d_35">
      <path clip-path="url(#pfa60527a90)" d="M 59.690625 30.657904 
L 417.060625 30.657904 
" style="fill:none;stroke:#b0b0b0;stroke-linecap:square;stroke-width:0.8;"/>
     </g>
     <g id="line2d_36">
      <g>
       <use style="stroke:#000000;stroke-width:0.8;" x="59.690625" xlink:href="#m1599947b18" y="30.657904"/>
      </g>
     </g>
     <g id="text_5">
      <!-- 2.0 -->
      <g transform="translate(36.7875 34.457123)scale(0.1 -0.1)">
       <defs>
        <path d="M 19.1875 8.296875 
L 53.609375 8.296875 
L 53.609375 0 
L 7.328125 0 
L 7.328125 8.296875 
Q 12.9375 14.109375 22.625 23.890625 
Q 32.328125 33.6875 34.8125 36.53125 
Q 39.546875 41.84375 41.421875 45.53125 
Q 43.3125 49.21875 43.3125 52.78125 
Q 43.3125 58.59375 39.234375 62.25 
Q 35.15625 65.921875 28.609375 65.921875 
Q 23.96875 65.921875 18.8125 64.3125 
Q 13.671875 62.703125 7.8125 59.421875 
L 7.8125 69.390625 
Q 13.765625 71.78125 18.9375 73 
Q 24.125 74.21875 28.421875 74.21875 
Q 39.75 74.21875 46.484375 68.546875 
Q 53.21875 62.890625 53.21875 53.421875 
Q 53.21875 48.921875 51.53125 44.890625 
Q 49.859375 40.875 45.40625 35.40625 
Q 44.1875 33.984375 37.640625 27.21875 
Q 31.109375 20.453125 19.1875 8.296875 
z
" id="DejaVuSans-50"/>
       </defs>
       <use xlink:href="#DejaVuSans-50"/>
       <use x="63.623047" xlink:href="#DejaVuSans-46"/>
       <use x="95.410156" xlink:href="#DejaVuSans-48"/>
      </g>
     </g>
    </g>
    <g id="text_6">
     <!-- Fälle kumuliert -->
     <g transform="translate(30.707812 105.551837)rotate(-90)scale(0.1 -0.1)">
      <defs>
       <path d="M 9.8125 72.90625 
L 51.703125 72.90625 
L 51.703125 64.59375 
L 19.671875 64.59375 
L 19.671875 43.109375 
L 48.578125 43.109375 
L 48.578125 34.8125 
L 19.671875 34.8125 
L 19.671875 0 
L 9.8125 0 
z
" id="DejaVuSans-70"/>
       <path d="M 34.28125 27.484375 
Q 23.390625 27.484375 19.1875 25 
Q 14.984375 22.515625 14.984375 16.5 
Q 14.984375 11.71875 18.140625 8.90625 
Q 21.296875 6.109375 26.703125 6.109375 
Q 34.1875 6.109375 38.703125 11.40625 
Q 43.21875 16.703125 43.21875 25.484375 
L 43.21875 27.484375 
z
M 52.203125 31.203125 
L 52.203125 0 
L 43.21875 0 
L 43.21875 8.296875 
Q 40.140625 3.328125 35.546875 0.953125 
Q 30.953125 -1.421875 24.3125 -1.421875 
Q 15.921875 -1.421875 10.953125 3.296875 
Q 6 8.015625 6 15.921875 
Q 6 25.140625 12.171875 29.828125 
Q 18.359375 34.515625 30.609375 34.515625 
L 43.21875 34.515625 
L 43.21875 35.40625 
Q 43.21875 41.609375 39.140625 45 
Q 35.0625 48.390625 27.6875 48.390625 
Q 23 48.390625 18.546875 47.265625 
Q 14.109375 46.140625 10.015625 43.890625 
L 10.015625 52.203125 
Q 14.9375 54.109375 19.578125 55.046875 
Q 24.21875 56 28.609375 56 
Q 40.484375 56 46.34375 49.84375 
Q 52.203125 43.703125 52.203125 31.203125 
z
M 33.59375 75.78125 
L 43.5 75.78125 
L 43.5 65.921875 
L 33.59375 65.921875 
z
M 14.5 75.78125 
L 24.421875 75.78125 
L 24.421875 65.921875 
L 14.5 65.921875 
z
" id="DejaVuSans-228"/>
       <path d="M 9.421875 75.984375 
L 18.40625 75.984375 
L 18.40625 0 
L 9.421875 0 
z
" id="DejaVuSans-108"/>
       <path d="M 56.203125 29.59375 
L 56.203125 25.203125 
L 14.890625 25.203125 
Q 15.484375 15.921875 20.484375 11.0625 
Q 25.484375 6.203125 34.421875 6.203125 
Q 39.59375 6.203125 44.453125 7.46875 
Q 49.3125 8.734375 54.109375 11.28125 
L 54.109375 2.78125 
Q 49.265625 0.734375 44.1875 -0.34375 
Q 39.109375 -1.421875 33.890625 -1.421875 
Q 20.796875 -1.421875 13.15625 6.1875 
Q 5.515625 13.8125 5.515625 26.8125 
Q 5.515625 40.234375 12.765625 48.109375 
Q 20.015625 56 32.328125 56 
Q 43.359375 56 49.78125 48.890625 
Q 56.203125 41.796875 56.203125 29.59375 
z
M 47.21875 32.234375 
Q 47.125 39.59375 43.09375 43.984375 
Q 39.0625 48.390625 32.421875 48.390625 
Q 24.90625 48.390625 20.390625 44.140625 
Q 15.875 39.890625 15.1875 32.171875 
z
" id="DejaVuSans-101"/>
       <path id="DejaVuSans-32"/>
       <path d="M 9.078125 75.984375 
L 18.109375 75.984375 
L 18.109375 31.109375 
L 44.921875 54.6875 
L 56.390625 54.6875 
L 27.390625 29.109375 
L 57.625 0 
L 45.90625 0 
L 18.109375 26.703125 
L 18.109375 0 
L 9.078125 0 
z
" id="DejaVuSans-107"/>
       <path d="M 8.5 21.578125 
L 8.5 54.6875 
L 17.484375 54.6875 
L 17.484375 21.921875 
Q 17.484375 14.15625 20.5 10.265625 
Q 23.53125 6.390625 29.59375 6.390625 
Q 36.859375 6.390625 41.078125 11.03125 
Q 45.3125 15.671875 45.3125 23.6875 
L 45.3125 54.6875 
L 54.296875 54.6875 
L 54.296875 0 
L 45.3125 0 
L 45.3125 8.40625 
Q 42.046875 3.421875 37.71875 1 
Q 33.40625 -1.421875 27.6875 -1.421875 
Q 18.265625 -1.421875 13.375 4.4375 
Q 8.5 10.296875 8.5 21.578125 
z
M 31.109375 56 
z
" id="DejaVuSans-117"/>
       <path d="M 52 44.1875 
Q 55.375 50.25 60.0625 53.125 
Q 64.75 56 71.09375 56 
Q 79.640625 56 84.28125 50.015625 
Q 88.921875 44.046875 88.921875 33.015625 
L 88.921875 0 
L 79.890625 0 
L 79.890625 32.71875 
Q 79.890625 40.578125 77.09375 44.375 
Q 74.3125 48.1875 68.609375 48.1875 
Q 61.625 48.1875 57.5625 43.546875 
Q 53.515625 38.921875 53.515625 30.90625 
L 53.515625 0 
L 44.484375 0 
L 44.484375 32.71875 
Q 44.484375 40.625 41.703125 44.40625 
Q 38.921875 48.1875 33.109375 48.1875 
Q 26.21875 48.1875 22.15625 43.53125 
Q 18.109375 38.875 18.109375 30.90625 
L 18.109375 0 
L 9.078125 0 
L 9.078125 54.6875 
L 18.109375 54.6875 
L 18.109375 46.1875 
Q 21.1875 51.21875 25.484375 53.609375 
Q 29.78125 56 35.6875 56 
Q 41.65625 56 45.828125 52.96875 
Q 50 49.953125 52 44.1875 
z
" id="DejaVuSans-109"/>
       <path d="M 9.421875 54.6875 
L 18.40625 54.6875 
L 18.40625 0 
L 9.421875 0 
z
M 9.421875 75.984375 
L 18.40625 75.984375 
L 18.40625 64.59375 
L 9.421875 64.59375 
z
" id="DejaVuSans-105"/>
       <path d="M 41.109375 46.296875 
Q 39.59375 47.171875 37.8125 47.578125 
Q 36.03125 48 33.890625 48 
Q 26.265625 48 22.1875 43.046875 
Q 18.109375 38.09375 18.109375 28.8125 
L 18.109375 0 
L 9.078125 0 
L 9.078125 54.6875 
L 18.109375 54.6875 
L 18.109375 46.1875 
Q 20.953125 51.171875 25.484375 53.578125 
Q 30.03125 56 36.53125 56 
Q 37.453125 56 38.578125 55.875 
Q 39.703125 55.765625 41.0625 55.515625 
z
" id="DejaVuSans-114"/>
       <path d="M 18.3125 70.21875 
L 18.3125 54.6875 
L 36.8125 54.6875 
L 36.8125 47.703125 
L 18.3125 47.703125 
L 18.3125 18.015625 
Q 18.3125 11.328125 20.140625 9.421875 
Q 21.96875 7.515625 27.59375 7.515625 
L 36.8125 7.515625 
L 36.8125 0 
L 27.59375 0 
Q 17.1875 0 13.234375 3.875 
Q 9.28125 7.765625 9.28125 18.015625 
L 9.28125 47.703125 
L 2.6875 47.703125 
L 2.6875 54.6875 
L 9.28125 54.6875 
L 9.28125 70.21875 
z
" id="DejaVuSans-116"/>
      </defs>
      <use xlink:href="#DejaVuSans-70"/>
      <use x="48.394531" xlink:href="#DejaVuSans-228"/>
      <use x="109.673828" xlink:href="#DejaVuSans-108"/>
      <use x="137.457031" xlink:href="#DejaVuSans-108"/>
      <use x="165.240234" xlink:href="#DejaVuSans-101"/>
      <use x="226.763672" xlink:href="#DejaVuSans-32"/>
      <use x="258.550781" xlink:href="#DejaVuSans-107"/>
      <use x="313.335938" xlink:href="#DejaVuSans-117"/>
      <use x="376.714844" xlink:href="#DejaVuSans-109"/>
      <use x="474.126953" xlink:href="#DejaVuSans-117"/>
      <use x="537.505859" xlink:href="#DejaVuSans-108"/>
      <use x="565.289062" xlink:href="#DejaVuSans-105"/>
      <use x="593.072266" xlink:href="#DejaVuSans-101"/>
      <use x="654.595703" xlink:href="#DejaVuSans-114"/>
      <use x="695.708984" xlink:href="#DejaVuSans-116"/>
     </g>
    </g>
    <g id="text_7">
     <!-- 1e6 -->
     <g transform="translate(59.690625 14.798437)scale(0.1 -0.1)">
      <defs>
       <path d="M 33.015625 40.375 
Q 26.375 40.375 22.484375 35.828125 
Q 18.609375 31.296875 18.609375 23.390625 
Q 18.609375 15.53125 22.484375 10.953125 
Q 26.375 6.390625 33.015625 6.390625 
Q 39.65625 6.390625 43.53125 10.953125 
Q 47.40625 15.53125 47.40625 23.390625 
Q 47.40625 31.296875 43.53125 35.828125 
Q 39.65625 40.375 33.015625 40.375 
z
M 52.59375 71.296875 
L 52.59375 62.3125 
Q 48.875 64.0625 45.09375 64.984375 
Q 41.3125 65.921875 37.59375 65.921875 
Q 27.828125 65.921875 22.671875 59.328125 
Q 17.53125 52.734375 16.796875 39.40625 
Q 19.671875 43.65625 24.015625 45.921875 
Q 28.375 48.1875 33.59375 48.1875 
Q 44.578125 48.1875 50.953125 41.515625 
Q 57.328125 34.859375 57.328125 23.390625 
Q 57.328125 12.15625 50.6875 5.359375 
Q 44.046875 -1.421875 33.015625 -1.421875 
Q 20.359375 -1.421875 13.671875 8.265625 
Q 6.984375 17.96875 6.984375 36.375 
Q 6.984375 53.65625 15.1875 63.9375 
Q 23.390625 74.21875 37.203125 74.21875 
Q 40.921875 74.21875 44.703125 73.484375 
Q 48.484375 72.75 52.59375 71.296875 
z
" id="DejaVuSans-54"/>
      </defs>
      <use xlink:href="#DejaVuSans-49"/>
      <use x="63.623047" xlink:href="#DejaVuSans-101"/>
      <use x="125.146484" xlink:href="#DejaVuSans-54"/>
     </g>
    </g>
   </g>
   <g id="line2d_37">
    <path clip-path="url(#pfa60527a90)" d="M 75.934716 115.179004 
L 119.601627 115.091187 
L 125.714995 114.531573 
L 127.461671 114.240271 
L 129.208347 113.951082 
L 130.955024 113.601714 
L 134.448377 112.554836 
L 137.068391 111.888091 
L 139.688406 111.118104 
L 147.54845 109.68209 
L 149.295126 109.484269 
L 153.661818 108.963957 
L 156.281832 108.707689 
L 160.648523 108.421035 
L 165.015214 108.177953 
L 169.381906 107.969862 
L 184.228655 107.546749 
L 194.708714 107.341785 
L 212.175478 106.978936 
L 246.235669 106.184776 
L 255.842389 105.692018 
L 258.462404 105.538528 
L 267.195786 104.946627 
L 272.435816 104.662889 
L 290.775918 103.289168 
L 294.269271 102.9813 
L 299.5093 102.434364 
L 303.002653 101.827164 
L 304.74933 101.50928 
L 305.622668 101.389007 
L 310.862697 99.768103 
L 311.736036 99.598765 
L 313.482712 98.883717 
L 314.35605 98.362602 
L 315.229388 98.111067 
L 316.976065 97.099603 
L 318.722741 96.150854 
L 320.469418 94.909957 
L 322.216094 93.299196 
L 323.962771 92.174643 
L 324.836109 91.10748 
L 325.709447 90.789131 
L 326.582785 89.458769 
L 328.329462 87.540943 
L 330.076138 86.330939 
L 330.949476 86.055315 
L 332.696153 83.986746 
L 334.442829 82.000542 
L 335.316168 81.381848 
L 336.189506 81.246065 
L 337.062844 80.629906 
L 338.80952 78.518654 
L 340.556197 76.547875 
L 341.429535 75.961637 
L 342.302873 75.776662 
L 344.04955 74.473981 
L 344.922888 73.09261 
L 346.669564 71.285126 
L 347.542903 70.700029 
L 348.416241 70.564922 
L 349.289579 69.963935 
L 351.909594 66.936727 
L 352.782932 66.261826 
L 353.65627 65.157727 
L 354.529608 64.696664 
L 355.402947 64.466091 
L 358.896299 59.635583 
L 359.769638 58.714641 
L 360.642976 58.093031 
L 361.516314 57.820408 
L 364.136329 53.731784 
L 365.009667 52.344371 
L 365.883005 51.428204 
L 366.756343 51.155877 
L 367.629682 50.342108 
L 369.376358 47.387631 
L 370.249696 46.269121 
L 371.123035 46.178683 
L 373.743049 44.492191 
L 374.616387 43.669547 
L 375.489726 41.596921 
L 376.363064 40.778461 
L 377.236402 40.688995 
L 379.856417 39.269928 
L 380.729755 38.49449 
L 381.603093 37.367697 
L 382.476431 35.451899 
L 383.34977 34.645695 
L 384.223108 33.68114 
L 385.096446 33.641077 
L 385.969784 33.146375 
L 387.716461 30.916032 
L 388.589799 30.014065 
L 389.463137 29.65092 
L 390.336475 29.024746 
L 392.95649 27.631415 
L 393.829828 26.405732 
L 394.703167 26.055942 
L 395.576505 25.364306 
L 397.323181 24.413105 
L 399.069858 23.725357 
L 400.816534 22.435607 
L 400.816534 22.435607 
" style="fill:none;stroke:#1f77b4;stroke-linecap:square;stroke-width:1.5;"/>
   </g>
   <g id="patch_3">
    <path d="M 59.690625 119.816174 
L 59.690625 17.798437 
" style="fill:none;stroke:#000000;stroke-linecap:square;stroke-linejoin:miter;stroke-width:0.8;"/>
   </g>
   <g id="patch_4">
    <path d="M 417.060625 119.816174 
L 417.060625 17.798437 
" style="fill:none;stroke:#000000;stroke-linecap:square;stroke-linejoin:miter;stroke-width:0.8;"/>
   </g>
   <g id="patch_5">
    <path d="M 59.690625 119.816174 
L 417.060625 119.816174 
" style="fill:none;stroke:#000000;stroke-linecap:square;stroke-linejoin:miter;stroke-width:0.8;"/>
   </g>
   <g id="patch_6">
    <path d="M 59.690625 17.798437 
L 417.060625 17.798437 
" style="fill:none;stroke:#000000;stroke-linecap:square;stroke-linejoin:miter;stroke-width:0.8;"/>
   </g>
  </g>
  <g id="axes_2">
   <g id="patch_7">
    <path d="M 59.690625 236.133911 
L 417.060625 236.133911 
L 417.060625 134.116174 
L 59.690625 134.116174 
z
" style="fill:#ffffff;"/>
   </g>
   <g id="matplotlib.axis_3">
    <g id="xtick_14">
     <g id="line2d_38">
      <path clip-path="url(#p9cbf6434bf)" d="M 84.668098 236.133911 
L 84.668098 134.116174 
" style="fill:none;stroke:#b0b0b0;stroke-linecap:square;stroke-width:0.8;"/>
     </g>
     <g id="line2d_39">
      <g>
       <use style="stroke:#000000;stroke-width:0.8;" x="84.668098" xlink:href="#m4839477d83" y="236.133911"/>
      </g>
     </g>
     <g id="text_8">
      <!-- Feb 20 -->
      <g transform="translate(84.507796 270.666031)rotate(-80)scale(0.08 -0.08)">
       <defs>
        <path d="M 48.6875 27.296875 
Q 48.6875 37.203125 44.609375 42.84375 
Q 40.53125 48.484375 33.40625 48.484375 
Q 26.265625 48.484375 22.1875 42.84375 
Q 18.109375 37.203125 18.109375 27.296875 
Q 18.109375 17.390625 22.1875 11.75 
Q 26.265625 6.109375 33.40625 6.109375 
Q 40.53125 6.109375 44.609375 11.75 
Q 48.6875 17.390625 48.6875 27.296875 
z
M 18.109375 46.390625 
Q 20.953125 51.265625 25.265625 53.625 
Q 29.59375 56 35.59375 56 
Q 45.5625 56 51.78125 48.09375 
Q 58.015625 40.1875 58.015625 27.296875 
Q 58.015625 14.40625 51.78125 6.484375 
Q 45.5625 -1.421875 35.59375 -1.421875 
Q 29.59375 -1.421875 25.265625 0.953125 
Q 20.953125 3.328125 18.109375 8.203125 
L 18.109375 0 
L 9.078125 0 
L 9.078125 75.984375 
L 18.109375 75.984375 
z
" id="DejaVuSans-98"/>
       </defs>
       <use xlink:href="#DejaVuSans-70"/>
       <use x="52.019531" xlink:href="#DejaVuSans-101"/>
       <use x="113.542969" xlink:href="#DejaVuSans-98"/>
       <use x="177.019531" xlink:href="#DejaVuSans-32"/>
       <use x="208.806641" xlink:href="#DejaVuSans-50"/>
       <use x="272.429688" xlink:href="#DejaVuSans-48"/>
      </g>
     </g>
    </g>
    <g id="xtick_15">
     <g id="line2d_40">
      <path clip-path="url(#p9cbf6434bf)" d="M 109.994907 236.133911 
L 109.994907 134.116174 
" style="fill:none;stroke:#b0b0b0;stroke-linecap:square;stroke-width:0.8;"/>
     </g>
     <g id="line2d_41">
      <g>
       <use style="stroke:#000000;stroke-width:0.8;" x="109.994907" xlink:href="#m4839477d83" y="236.133911"/>
      </g>
     </g>
     <g id="text_9">
      <!-- Mar 20 -->
      <g transform="translate(109.753749 271.583134)rotate(-80)scale(0.08 -0.08)">
       <defs>
        <path d="M 9.8125 72.90625 
L 24.515625 72.90625 
L 43.109375 23.296875 
L 61.8125 72.90625 
L 76.515625 72.90625 
L 76.515625 0 
L 66.890625 0 
L 66.890625 64.015625 
L 48.09375 14.015625 
L 38.1875 14.015625 
L 19.390625 64.015625 
L 19.390625 0 
L 9.8125 0 
z
" id="DejaVuSans-77"/>
        <path d="M 34.28125 27.484375 
Q 23.390625 27.484375 19.1875 25 
Q 14.984375 22.515625 14.984375 16.5 
Q 14.984375 11.71875 18.140625 8.90625 
Q 21.296875 6.109375 26.703125 6.109375 
Q 34.1875 6.109375 38.703125 11.40625 
Q 43.21875 16.703125 43.21875 25.484375 
L 43.21875 27.484375 
z
M 52.203125 31.203125 
L 52.203125 0 
L 43.21875 0 
L 43.21875 8.296875 
Q 40.140625 3.328125 35.546875 0.953125 
Q 30.953125 -1.421875 24.3125 -1.421875 
Q 15.921875 -1.421875 10.953125 3.296875 
Q 6 8.015625 6 15.921875 
Q 6 25.140625 12.171875 29.828125 
Q 18.359375 34.515625 30.609375 34.515625 
L 43.21875 34.515625 
L 43.21875 35.40625 
Q 43.21875 41.609375 39.140625 45 
Q 35.0625 48.390625 27.6875 48.390625 
Q 23 48.390625 18.546875 47.265625 
Q 14.109375 46.140625 10.015625 43.890625 
L 10.015625 52.203125 
Q 14.9375 54.109375 19.578125 55.046875 
Q 24.21875 56 28.609375 56 
Q 40.484375 56 46.34375 49.84375 
Q 52.203125 43.703125 52.203125 31.203125 
z
" id="DejaVuSans-97"/>
       </defs>
       <use xlink:href="#DejaVuSans-77"/>
       <use x="86.279297" xlink:href="#DejaVuSans-97"/>
       <use x="147.558594" xlink:href="#DejaVuSans-114"/>
       <use x="188.671875" xlink:href="#DejaVuSans-32"/>
       <use x="220.458984" xlink:href="#DejaVuSans-50"/>
       <use x="284.082031" xlink:href="#DejaVuSans-48"/>
      </g>
     </g>
    </g>
    <g id="xtick_16">
     <g id="line2d_42">
      <path clip-path="url(#p9cbf6434bf)" d="M 137.068391 236.133911 
L 137.068391 134.116174 
" style="fill:none;stroke:#b0b0b0;stroke-linecap:square;stroke-width:0.8;"/>
     </g>
     <g id="line2d_43">
      <g>
       <use style="stroke:#000000;stroke-width:0.8;" x="137.068391" xlink:href="#m4839477d83" y="236.133911"/>
      </g>
     </g>
     <g id="text_10">
      <!-- Apr 20 -->
      <g transform="translate(136.93609 270.348431)rotate(-80)scale(0.08 -0.08)">
       <defs>
        <path d="M 34.1875 63.1875 
L 20.796875 26.90625 
L 47.609375 26.90625 
z
M 28.609375 72.90625 
L 39.796875 72.90625 
L 67.578125 0 
L 57.328125 0 
L 50.6875 18.703125 
L 17.828125 18.703125 
L 11.1875 0 
L 0.78125 0 
z
" id="DejaVuSans-65"/>
        <path d="M 18.109375 8.203125 
L 18.109375 -20.796875 
L 9.078125 -20.796875 
L 9.078125 54.6875 
L 18.109375 54.6875 
L 18.109375 46.390625 
Q 20.953125 51.265625 25.265625 53.625 
Q 29.59375 56 35.59375 56 
Q 45.5625 56 51.78125 48.09375 
Q 58.015625 40.1875 58.015625 27.296875 
Q 58.015625 14.40625 51.78125 6.484375 
Q 45.5625 -1.421875 35.59375 -1.421875 
Q 29.59375 -1.421875 25.265625 0.953125 
Q 20.953125 3.328125 18.109375 8.203125 
z
M 48.6875 27.296875 
Q 48.6875 37.203125 44.609375 42.84375 
Q 40.53125 48.484375 33.40625 48.484375 
Q 26.265625 48.484375 22.1875 42.84375 
Q 18.109375 37.203125 18.109375 27.296875 
Q 18.109375 17.390625 22.1875 11.75 
Q 26.265625 6.109375 33.40625 6.109375 
Q 40.53125 6.109375 44.609375 11.75 
Q 48.6875 17.390625 48.6875 27.296875 
z
" id="DejaVuSans-112"/>
       </defs>
       <use xlink:href="#DejaVuSans-65"/>
       <use x="68.408203" xlink:href="#DejaVuSans-112"/>
       <use x="131.884766" xlink:href="#DejaVuSans-114"/>
       <use x="172.998047" xlink:href="#DejaVuSans-32"/>
       <use x="204.785156" xlink:href="#DejaVuSans-50"/>
       <use x="268.408203" xlink:href="#DejaVuSans-48"/>
      </g>
     </g>
    </g>
    <g id="xtick_17">
     <g id="line2d_44">
      <path clip-path="url(#p9cbf6434bf)" d="M 163.268538 236.133911 
L 163.268538 134.116174 
" style="fill:none;stroke:#b0b0b0;stroke-linecap:square;stroke-width:0.8;"/>
     </g>
     <g id="line2d_45">
      <g>
       <use style="stroke:#000000;stroke-width:0.8;" x="163.268538" xlink:href="#m4839477d83" y="236.133911"/>
      </g>
     </g>
     <g id="text_11">
      <!-- May 20 -->
      <g transform="translate(162.901811 273.007412)rotate(-80)scale(0.08 -0.08)">
       <defs>
        <path d="M 32.171875 -5.078125 
Q 28.375 -14.84375 24.75 -17.8125 
Q 21.140625 -20.796875 15.09375 -20.796875 
L 7.90625 -20.796875 
L 7.90625 -13.28125 
L 13.1875 -13.28125 
Q 16.890625 -13.28125 18.9375 -11.515625 
Q 21 -9.765625 23.484375 -3.21875 
L 25.09375 0.875 
L 2.984375 54.6875 
L 12.5 54.6875 
L 29.59375 11.921875 
L 46.6875 54.6875 
L 56.203125 54.6875 
z
" id="DejaVuSans-121"/>
       </defs>
       <use xlink:href="#DejaVuSans-77"/>
       <use x="86.279297" xlink:href="#DejaVuSans-97"/>
       <use x="147.558594" xlink:href="#DejaVuSans-121"/>
       <use x="206.738281" xlink:href="#DejaVuSans-32"/>
       <use x="238.525391" xlink:href="#DejaVuSans-50"/>
       <use x="302.148438" xlink:href="#DejaVuSans-48"/>
      </g>
     </g>
    </g>
    <g id="xtick_18">
     <g id="line2d_46">
      <path clip-path="url(#p9cbf6434bf)" d="M 190.342023 236.133911 
L 190.342023 134.116174 
" style="fill:none;stroke:#b0b0b0;stroke-linecap:square;stroke-width:0.8;"/>
     </g>
     <g id="line2d_47">
      <g>
       <use style="stroke:#000000;stroke-width:0.8;" x="190.342023" xlink:href="#m4839477d83" y="236.133911"/>
      </g>
     </g>
     <g id="text_12">
      <!-- Jun 20 -->
      <g transform="translate(190.326065 269.028789)rotate(-80)scale(0.08 -0.08)">
       <defs>
        <path d="M 9.8125 72.90625 
L 19.671875 72.90625 
L 19.671875 5.078125 
Q 19.671875 -8.109375 14.671875 -14.0625 
Q 9.671875 -20.015625 -1.421875 -20.015625 
L -5.171875 -20.015625 
L -5.171875 -11.71875 
L -2.09375 -11.71875 
Q 4.4375 -11.71875 7.125 -8.046875 
Q 9.8125 -4.390625 9.8125 5.078125 
z
" id="DejaVuSans-74"/>
        <path d="M 54.890625 33.015625 
L 54.890625 0 
L 45.90625 0 
L 45.90625 32.71875 
Q 45.90625 40.484375 42.875 44.328125 
Q 39.84375 48.1875 33.796875 48.1875 
Q 26.515625 48.1875 22.3125 43.546875 
Q 18.109375 38.921875 18.109375 30.90625 
L 18.109375 0 
L 9.078125 0 
L 9.078125 54.6875 
L 18.109375 54.6875 
L 18.109375 46.1875 
Q 21.34375 51.125 25.703125 53.5625 
Q 30.078125 56 35.796875 56 
Q 45.21875 56 50.046875 50.171875 
Q 54.890625 44.34375 54.890625 33.015625 
z
" id="DejaVuSans-110"/>
       </defs>
       <use xlink:href="#DejaVuSans-74"/>
       <use x="29.492188" xlink:href="#DejaVuSans-117"/>
       <use x="92.871094" xlink:href="#DejaVuSans-110"/>
       <use x="156.25" xlink:href="#DejaVuSans-32"/>
       <use x="188.037109" xlink:href="#DejaVuSans-50"/>
       <use x="251.660156" xlink:href="#DejaVuSans-48"/>
      </g>
     </g>
    </g>
    <g id="xtick_19">
     <g id="line2d_48">
      <path clip-path="url(#p9cbf6434bf)" d="M 216.542169 236.133911 
L 216.542169 134.116174 
" style="fill:none;stroke:#b0b0b0;stroke-linecap:square;stroke-width:0.8;"/>
     </g>
     <g id="line2d_49">
      <g>
       <use style="stroke:#000000;stroke-width:0.8;" x="216.542169" xlink:href="#m4839477d83" y="236.133911"/>
      </g>
     </g>
     <g id="text_13">
      <!-- Jul 20 -->
      <g transform="translate(216.773444 266.224548)rotate(-80)scale(0.08 -0.08)">
       <use xlink:href="#DejaVuSans-74"/>
       <use x="29.492188" xlink:href="#DejaVuSans-117"/>
       <use x="92.871094" xlink:href="#DejaVuSans-108"/>
       <use x="120.654297" xlink:href="#DejaVuSans-32"/>
       <use x="152.441406" xlink:href="#DejaVuSans-50"/>
       <use x="216.064453" xlink:href="#DejaVuSans-48"/>
      </g>
     </g>
    </g>
    <g id="xtick_20">
     <g id="line2d_50">
      <path clip-path="url(#p9cbf6434bf)" d="M 243.615654 236.133911 
L 243.615654 134.116174 
" style="fill:none;stroke:#b0b0b0;stroke-linecap:square;stroke-width:0.8;"/>
     </g>
     <g id="line2d_51">
      <g>
       <use style="stroke:#000000;stroke-width:0.8;" x="243.615654" xlink:href="#m4839477d83" y="236.133911"/>
      </g>
     </g>
     <g id="text_14">
      <!-- Aug 20 -->
      <g transform="translate(243.328697 272.10262)rotate(-80)scale(0.08 -0.08)">
       <defs>
        <path d="M 45.40625 27.984375 
Q 45.40625 37.75 41.375 43.109375 
Q 37.359375 48.484375 30.078125 48.484375 
Q 22.859375 48.484375 18.828125 43.109375 
Q 14.796875 37.75 14.796875 27.984375 
Q 14.796875 18.265625 18.828125 12.890625 
Q 22.859375 7.515625 30.078125 7.515625 
Q 37.359375 7.515625 41.375 12.890625 
Q 45.40625 18.265625 45.40625 27.984375 
z
M 54.390625 6.78125 
Q 54.390625 -7.171875 48.1875 -13.984375 
Q 42 -20.796875 29.203125 -20.796875 
Q 24.46875 -20.796875 20.265625 -20.09375 
Q 16.0625 -19.390625 12.109375 -17.921875 
L 12.109375 -9.1875 
Q 16.0625 -11.328125 19.921875 -12.34375 
Q 23.78125 -13.375 27.78125 -13.375 
Q 36.625 -13.375 41.015625 -8.765625 
Q 45.40625 -4.15625 45.40625 5.171875 
L 45.40625 9.625 
Q 42.625 4.78125 38.28125 2.390625 
Q 33.9375 0 27.875 0 
Q 17.828125 0 11.671875 7.65625 
Q 5.515625 15.328125 5.515625 27.984375 
Q 5.515625 40.671875 11.671875 48.328125 
Q 17.828125 56 27.875 56 
Q 33.9375 56 38.28125 53.609375 
Q 42.625 51.21875 45.40625 46.390625 
L 45.40625 54.6875 
L 54.390625 54.6875 
z
" id="DejaVuSans-103"/>
       </defs>
       <use xlink:href="#DejaVuSans-65"/>
       <use x="68.408203" xlink:href="#DejaVuSans-117"/>
       <use x="131.787109" xlink:href="#DejaVuSans-103"/>
       <use x="195.263672" xlink:href="#DejaVuSans-32"/>
       <use x="227.050781" xlink:href="#DejaVuSans-50"/>
       <use x="290.673828" xlink:href="#DejaVuSans-48"/>
      </g>
     </g>
    </g>
    <g id="xtick_21">
     <g id="line2d_52">
      <path clip-path="url(#p9cbf6434bf)" d="M 270.689139 236.133911 
L 270.689139 134.116174 
" style="fill:none;stroke:#b0b0b0;stroke-linecap:square;stroke-width:0.8;"/>
     </g>
     <g id="line2d_53">
      <g>
       <use style="stroke:#000000;stroke-width:0.8;" x="270.689139" xlink:href="#m4839477d83" y="236.133911"/>
      </g>
     </g>
     <g id="text_15">
      <!-- Sep 20 -->
      <g transform="translate(270.449176 271.569593)rotate(-80)scale(0.08 -0.08)">
       <defs>
        <path d="M 53.515625 70.515625 
L 53.515625 60.890625 
Q 47.90625 63.578125 42.921875 64.890625 
Q 37.9375 66.21875 33.296875 66.21875 
Q 25.25 66.21875 20.875 63.09375 
Q 16.5 59.96875 16.5 54.203125 
Q 16.5 49.359375 19.40625 46.890625 
Q 22.3125 44.4375 30.421875 42.921875 
L 36.375 41.703125 
Q 47.40625 39.59375 52.65625 34.296875 
Q 57.90625 29 57.90625 20.125 
Q 57.90625 9.515625 50.796875 4.046875 
Q 43.703125 -1.421875 29.984375 -1.421875 
Q 24.8125 -1.421875 18.96875 -0.25 
Q 13.140625 0.921875 6.890625 3.21875 
L 6.890625 13.375 
Q 12.890625 10.015625 18.65625 8.296875 
Q 24.421875 6.59375 29.984375 6.59375 
Q 38.421875 6.59375 43.015625 9.90625 
Q 47.609375 13.234375 47.609375 19.390625 
Q 47.609375 24.75 44.3125 27.78125 
Q 41.015625 30.8125 33.5 32.328125 
L 27.484375 33.5 
Q 16.453125 35.6875 11.515625 40.375 
Q 6.59375 45.0625 6.59375 53.421875 
Q 6.59375 63.09375 13.40625 68.65625 
Q 20.21875 74.21875 32.171875 74.21875 
Q 37.3125 74.21875 42.625 73.28125 
Q 47.953125 72.359375 53.515625 70.515625 
z
" id="DejaVuSans-83"/>
       </defs>
       <use xlink:href="#DejaVuSans-83"/>
       <use x="63.476562" xlink:href="#DejaVuSans-101"/>
       <use x="125" xlink:href="#DejaVuSans-112"/>
       <use x="188.476562" xlink:href="#DejaVuSans-32"/>
       <use x="220.263672" xlink:href="#DejaVuSans-50"/>
       <use x="283.886719" xlink:href="#DejaVuSans-48"/>
      </g>
     </g>
    </g>
    <g id="xtick_22">
     <g id="line2d_54">
      <path clip-path="url(#p9cbf6434bf)" d="M 296.889286 236.133911 
L 296.889286 134.116174 
" style="fill:none;stroke:#b0b0b0;stroke-linecap:square;stroke-width:0.8;"/>
     </g>
     <g id="line2d_55">
      <g>
       <use style="stroke:#000000;stroke-width:0.8;" x="296.889286" xlink:href="#m4839477d83" y="236.133911"/>
      </g>
     </g>
     <g id="text_16">
      <!-- Oct 20 -->
      <g transform="translate(296.757635 270.341045)rotate(-80)scale(0.08 -0.08)">
       <defs>
        <path d="M 39.40625 66.21875 
Q 28.65625 66.21875 22.328125 58.203125 
Q 16.015625 50.203125 16.015625 36.375 
Q 16.015625 22.609375 22.328125 14.59375 
Q 28.65625 6.59375 39.40625 6.59375 
Q 50.140625 6.59375 56.421875 14.59375 
Q 62.703125 22.609375 62.703125 36.375 
Q 62.703125 50.203125 56.421875 58.203125 
Q 50.140625 66.21875 39.40625 66.21875 
z
M 39.40625 74.21875 
Q 54.734375 74.21875 63.90625 63.9375 
Q 73.09375 53.65625 73.09375 36.375 
Q 73.09375 19.140625 63.90625 8.859375 
Q 54.734375 -1.421875 39.40625 -1.421875 
Q 24.03125 -1.421875 14.8125 8.828125 
Q 5.609375 19.09375 5.609375 36.375 
Q 5.609375 53.65625 14.8125 63.9375 
Q 24.03125 74.21875 39.40625 74.21875 
z
" id="DejaVuSans-79"/>
        <path d="M 48.78125 52.59375 
L 48.78125 44.1875 
Q 44.96875 46.296875 41.140625 47.34375 
Q 37.3125 48.390625 33.40625 48.390625 
Q 24.65625 48.390625 19.8125 42.84375 
Q 14.984375 37.3125 14.984375 27.296875 
Q 14.984375 17.28125 19.8125 11.734375 
Q 24.65625 6.203125 33.40625 6.203125 
Q 37.3125 6.203125 41.140625 7.25 
Q 44.96875 8.296875 48.78125 10.40625 
L 48.78125 2.09375 
Q 45.015625 0.34375 40.984375 -0.53125 
Q 36.96875 -1.421875 32.421875 -1.421875 
Q 20.0625 -1.421875 12.78125 6.34375 
Q 5.515625 14.109375 5.515625 27.296875 
Q 5.515625 40.671875 12.859375 48.328125 
Q 20.21875 56 33.015625 56 
Q 37.15625 56 41.109375 55.140625 
Q 45.0625 54.296875 48.78125 52.59375 
z
" id="DejaVuSans-99"/>
       </defs>
       <use xlink:href="#DejaVuSans-79"/>
       <use x="78.710938" xlink:href="#DejaVuSans-99"/>
       <use x="133.691406" xlink:href="#DejaVuSans-116"/>
       <use x="172.900391" xlink:href="#DejaVuSans-32"/>
       <use x="204.6875" xlink:href="#DejaVuSans-50"/>
       <use x="268.310547" xlink:href="#DejaVuSans-48"/>
      </g>
     </g>
    </g>
    <g id="xtick_23">
     <g id="line2d_56">
      <path clip-path="url(#p9cbf6434bf)" d="M 323.962771 236.133911 
L 323.962771 134.116174 
" style="fill:none;stroke:#b0b0b0;stroke-linecap:square;stroke-width:0.8;"/>
     </g>
     <g id="line2d_57">
      <g>
       <use style="stroke:#000000;stroke-width:0.8;" x="323.962771" xlink:href="#m4839477d83" y="236.133911"/>
      </g>
     </g>
     <g id="text_17">
      <!-- Nov 20 -->
      <g transform="translate(323.676356 272.096465)rotate(-80)scale(0.08 -0.08)">
       <defs>
        <path d="M 9.8125 72.90625 
L 23.09375 72.90625 
L 55.421875 11.921875 
L 55.421875 72.90625 
L 64.984375 72.90625 
L 64.984375 0 
L 51.703125 0 
L 19.390625 60.984375 
L 19.390625 0 
L 9.8125 0 
z
" id="DejaVuSans-78"/>
        <path d="M 30.609375 48.390625 
Q 23.390625 48.390625 19.1875 42.75 
Q 14.984375 37.109375 14.984375 27.296875 
Q 14.984375 17.484375 19.15625 11.84375 
Q 23.34375 6.203125 30.609375 6.203125 
Q 37.796875 6.203125 41.984375 11.859375 
Q 46.1875 17.53125 46.1875 27.296875 
Q 46.1875 37.015625 41.984375 42.703125 
Q 37.796875 48.390625 30.609375 48.390625 
z
M 30.609375 56 
Q 42.328125 56 49.015625 48.375 
Q 55.71875 40.765625 55.71875 27.296875 
Q 55.71875 13.875 49.015625 6.21875 
Q 42.328125 -1.421875 30.609375 -1.421875 
Q 18.84375 -1.421875 12.171875 6.21875 
Q 5.515625 13.875 5.515625 27.296875 
Q 5.515625 40.765625 12.171875 48.375 
Q 18.84375 56 30.609375 56 
z
" id="DejaVuSans-111"/>
        <path d="M 2.984375 54.6875 
L 12.5 54.6875 
L 29.59375 8.796875 
L 46.6875 54.6875 
L 56.203125 54.6875 
L 35.6875 0 
L 23.484375 0 
z
" id="DejaVuSans-118"/>
       </defs>
       <use xlink:href="#DejaVuSans-78"/>
       <use x="74.804688" xlink:href="#DejaVuSans-111"/>
       <use x="135.986328" xlink:href="#DejaVuSans-118"/>
       <use x="195.166016" xlink:href="#DejaVuSans-32"/>
       <use x="226.953125" xlink:href="#DejaVuSans-50"/>
       <use x="290.576172" xlink:href="#DejaVuSans-48"/>
      </g>
     </g>
    </g>
    <g id="xtick_24">
     <g id="line2d_58">
      <path clip-path="url(#p9cbf6434bf)" d="M 350.162917 236.133911 
L 350.162917 134.116174 
" style="fill:none;stroke:#b0b0b0;stroke-linecap:square;stroke-width:0.8;"/>
     </g>
     <g id="line2d_59">
      <g>
       <use style="stroke:#000000;stroke-width:0.8;" x="350.162917" xlink:href="#m4839477d83" y="236.133911"/>
      </g>
     </g>
     <g id="text_18">
      <!-- Dec 20 -->
      <g transform="translate(349.888115 271.964747)rotate(-80)scale(0.08 -0.08)">
       <defs>
        <path d="M 19.671875 64.796875 
L 19.671875 8.109375 
L 31.59375 8.109375 
Q 46.6875 8.109375 53.6875 14.9375 
Q 60.6875 21.78125 60.6875 36.53125 
Q 60.6875 51.171875 53.6875 57.984375 
Q 46.6875 64.796875 31.59375 64.796875 
z
M 9.8125 72.90625 
L 30.078125 72.90625 
Q 51.265625 72.90625 61.171875 64.09375 
Q 71.09375 55.28125 71.09375 36.53125 
Q 71.09375 17.671875 61.125 8.828125 
Q 51.171875 0 30.078125 0 
L 9.8125 0 
z
" id="DejaVuSans-68"/>
       </defs>
       <use xlink:href="#DejaVuSans-68"/>
       <use x="77.001953" xlink:href="#DejaVuSans-101"/>
       <use x="138.525391" xlink:href="#DejaVuSans-99"/>
       <use x="193.505859" xlink:href="#DejaVuSans-32"/>
       <use x="225.292969" xlink:href="#DejaVuSans-50"/>
       <use x="288.916016" xlink:href="#DejaVuSans-48"/>
      </g>
     </g>
    </g>
    <g id="xtick_25">
     <g id="line2d_60">
      <path clip-path="url(#p9cbf6434bf)" d="M 377.236402 236.133911 
L 377.236402 134.116174 
" style="fill:none;stroke:#b0b0b0;stroke-linecap:square;stroke-width:0.8;"/>
     </g>
     <g id="line2d_61">
      <g>
       <use style="stroke:#000000;stroke-width:0.8;" x="377.236402" xlink:href="#m4839477d83" y="236.133911"/>
      </g>
     </g>
     <g id="text_19">
      <!-- Jan 21 -->
      <g transform="translate(377.234988 268.863833)rotate(-80)scale(0.08 -0.08)">
       <use xlink:href="#DejaVuSans-74"/>
       <use x="29.492188" xlink:href="#DejaVuSans-97"/>
       <use x="90.771484" xlink:href="#DejaVuSans-110"/>
       <use x="154.150391" xlink:href="#DejaVuSans-32"/>
       <use x="185.9375" xlink:href="#DejaVuSans-50"/>
       <use x="249.560547" xlink:href="#DejaVuSans-49"/>
      </g>
     </g>
    </g>
    <g id="xtick_26">
     <g id="line2d_62">
      <path clip-path="url(#p9cbf6434bf)" d="M 404.309887 236.133911 
L 404.309887 134.116174 
" style="fill:none;stroke:#b0b0b0;stroke-linecap:square;stroke-width:0.8;"/>
     </g>
     <g id="line2d_63">
      <g>
       <use style="stroke:#000000;stroke-width:0.8;" x="404.309887" xlink:href="#m4839477d83" y="236.133911"/>
      </g>
     </g>
     <g id="text_20">
      <!-- Feb 21 -->
      <g transform="translate(404.149584 270.666031)rotate(-80)scale(0.08 -0.08)">
       <use xlink:href="#DejaVuSans-70"/>
       <use x="52.019531" xlink:href="#DejaVuSans-101"/>
       <use x="113.542969" xlink:href="#DejaVuSans-98"/>
       <use x="177.019531" xlink:href="#DejaVuSans-32"/>
       <use x="208.806641" xlink:href="#DejaVuSans-50"/>
       <use x="272.429688" xlink:href="#DejaVuSans-49"/>
      </g>
     </g>
    </g>
   </g>
   <g id="matplotlib.axis_4">
    <g id="ytick_6">
     <g id="line2d_64">
      <path clip-path="url(#p9cbf6434bf)" d="M 59.690625 231.496741 
L 417.060625 231.496741 
" style="fill:none;stroke:#b0b0b0;stroke-linecap:square;stroke-width:0.8;"/>
     </g>
     <g id="line2d_65">
      <g>
       <use style="stroke:#000000;stroke-width:0.8;" x="59.690625" xlink:href="#m1599947b18" y="231.496741"/>
      </g>
     </g>
     <g id="text_21">
      <!-- 0 -->
      <g transform="translate(46.328125 235.29596)scale(0.1 -0.1)">
       <use xlink:href="#DejaVuSans-48"/>
      </g>
     </g>
    </g>
    <g id="ytick_7">
     <g id="line2d_66">
      <path clip-path="url(#p9cbf6434bf)" d="M 59.690625 193.676255 
L 417.060625 193.676255 
" style="fill:none;stroke:#b0b0b0;stroke-linecap:square;stroke-width:0.8;"/>
     </g>
     <g id="line2d_67">
      <g>
       <use style="stroke:#000000;stroke-width:0.8;" x="59.690625" xlink:href="#m1599947b18" y="193.676255"/>
      </g>
     </g>
     <g id="text_22">
      <!-- 20000 -->
      <g transform="translate(20.878125 197.475473)scale(0.1 -0.1)">
       <use xlink:href="#DejaVuSans-50"/>
       <use x="63.623047" xlink:href="#DejaVuSans-48"/>
       <use x="127.246094" xlink:href="#DejaVuSans-48"/>
       <use x="190.869141" xlink:href="#DejaVuSans-48"/>
       <use x="254.492188" xlink:href="#DejaVuSans-48"/>
      </g>
     </g>
    </g>
    <g id="ytick_8">
     <g id="line2d_68">
      <path clip-path="url(#p9cbf6434bf)" d="M 59.690625 155.855768 
L 417.060625 155.855768 
" style="fill:none;stroke:#b0b0b0;stroke-linecap:square;stroke-width:0.8;"/>
     </g>
     <g id="line2d_69">
      <g>
       <use style="stroke:#000000;stroke-width:0.8;" x="59.690625" xlink:href="#m1599947b18" y="155.855768"/>
      </g>
     </g>
     <g id="text_23">
      <!-- 40000 -->
      <g transform="translate(20.878125 159.654987)scale(0.1 -0.1)">
       <defs>
        <path d="M 37.796875 64.3125 
L 12.890625 25.390625 
L 37.796875 25.390625 
z
M 35.203125 72.90625 
L 47.609375 72.90625 
L 47.609375 25.390625 
L 58.015625 25.390625 
L 58.015625 17.1875 
L 47.609375 17.1875 
L 47.609375 0 
L 37.796875 0 
L 37.796875 17.1875 
L 4.890625 17.1875 
L 4.890625 26.703125 
z
" id="DejaVuSans-52"/>
       </defs>
       <use xlink:href="#DejaVuSans-52"/>
       <use x="63.623047" xlink:href="#DejaVuSans-48"/>
       <use x="127.246094" xlink:href="#DejaVuSans-48"/>
       <use x="190.869141" xlink:href="#DejaVuSans-48"/>
       <use x="254.492188" xlink:href="#DejaVuSans-48"/>
      </g>
     </g>
    </g>
    <g id="text_24">
     <!-- neue Fälle -->
     <g transform="translate(14.798438 210.543011)rotate(-90)scale(0.1 -0.1)">
      <use xlink:href="#DejaVuSans-110"/>
      <use x="63.378906" xlink:href="#DejaVuSans-101"/>
      <use x="124.902344" xlink:href="#DejaVuSans-117"/>
      <use x="188.28125" xlink:href="#DejaVuSans-101"/>
      <use x="249.804688" xlink:href="#DejaVuSans-32"/>
      <use x="281.591797" xlink:href="#DejaVuSans-70"/>
      <use x="329.986328" xlink:href="#DejaVuSans-228"/>
      <use x="391.265625" xlink:href="#DejaVuSans-108"/>
      <use x="419.048828" xlink:href="#DejaVuSans-108"/>
      <use x="446.832031" xlink:href="#DejaVuSans-101"/>
     </g>
    </g>
   </g>
   <g id="line2d_70">
    <path clip-path="url(#p9cbf6434bf)" d="M 75.934716 231.496741 
L 111.741583 231.426773 
L 112.614921 231.371934 
L 113.488259 231.080716 
L 115.234936 231.252799 
L 116.108274 231.041004 
L 116.981612 231.239562 
L 118.728289 230.643889 
L 119.601627 231.175267 
L 120.474965 228.476775 
L 121.348303 229.775909 
L 123.09498 228.703698 
L 123.968318 227.743058 
L 124.841656 225.691297 
L 125.714995 225.836905 
L 126.588333 222.934183 
L 127.461671 227.024469 
L 128.335009 226.466617 
L 129.208347 223.586587 
L 130.081686 224.065016 
L 130.955024 223.295369 
L 131.828362 218.987615 
L 132.7017 218.38627 
L 133.575038 218.592391 
L 134.448377 223.176234 
L 135.321715 222.438735 
L 136.195053 222.187229 
L 137.068391 220.02957 
L 137.94173 218.407071 
L 138.815068 219.460371 
L 139.688406 222.168318 
L 141.435082 225.349021 
L 142.308421 223.386138 
L 143.181759 220.844601 
L 144.055097 222.259087 
L 144.928435 223.951554 
L 145.801774 226.321008 
L 146.675112 225.925784 
L 147.54845 227.302449 
L 148.421788 229.062993 
L 149.295126 225.078605 
L 150.168465 225.927675 
L 151.041803 224.501842 
L 151.915141 227.818699 
L 152.788479 228.013474 
L 153.661818 227.939725 
L 154.535156 229.178345 
L 155.408494 227.039597 
L 156.281832 226.80511 
L 157.15517 227.960526 
L 158.028509 228.63373 
L 159.775185 229.628409 
L 160.648523 229.314499 
L 161.521862 228.420045 
L 162.3952 228.716936 
L 163.268538 229.477127 
L 165.888553 230.573921 
L 167.635229 229.312608 
L 168.508567 229.098922 
L 169.381906 229.306935 
L 170.255244 230.104947 
L 171.128582 230.447223 
L 172.00192 230.178697 
L 172.875258 230.371582 
L 173.748597 229.743762 
L 174.621935 230.778152 
L 175.495273 230.069018 
L 176.368611 230.5153 
L 177.24195 230.329979 
L 178.115288 231.152575 
L 178.988626 229.176454 
L 179.861964 230.182479 
L 180.735302 230.46046 
L 181.608641 230.193826 
L 182.481979 230.974819 
L 183.355317 230.850011 
L 184.228655 230.982383 
L 185.101994 230.362127 
L 185.975332 230.884049 
L 186.84867 230.225973 
L 187.722008 230.123858 
L 188.595346 230.991838 
L 190.342023 231.148793 
L 191.215361 230.957799 
L 192.088699 231.039113 
L 194.708714 230.502062 
L 195.582052 230.929434 
L 197.328729 230.746005 
L 198.202067 231.466485 
L 199.075405 231.177158 
L 199.948743 230.485043 
L 200.822082 231.419209 
L 201.69542 231.022094 
L 202.568758 231.186613 
L 203.442096 230.418857 
L 204.315434 230.831101 
L 205.188773 229.202929 
L 206.062111 230.585268 
L 206.935449 230.795171 
L 207.808787 230.358345 
L 208.682125 230.558793 
L 209.555464 230.150332 
L 210.428802 230.757351 
L 212.175478 230.23921 
L 213.922155 231.052351 
L 214.795493 230.836774 
L 215.668831 230.785716 
L 216.542169 230.598505 
L 217.415508 230.594723 
L 218.288846 230.721421 
L 219.162184 230.706293 
L 220.035522 230.882158 
L 220.908861 230.473697 
L 221.782199 230.969146 
L 222.655537 230.823537 
L 223.528875 230.925652 
L 225.275552 230.783825 
L 226.14889 231.099626 
L 227.895566 230.974819 
L 229.642243 230.437768 
L 230.515581 230.371582 
L 231.388919 230.776261 
L 232.262257 230.912415 
L 233.135596 230.381037 
L 234.008934 230.75546 
L 234.882272 230.439659 
L 235.75561 230.352672 
L 236.628949 230.093601 
L 237.502287 230.25812 
L 238.375625 230.761133 
L 239.248963 230.655235 
L 240.122301 230.371582 
L 240.99564 229.910172 
L 241.868978 229.626518 
L 242.742316 229.862896 
L 243.615654 230.350781 
L 244.488993 231.090171 
L 245.362331 229.811839 
L 246.235669 230.140877 
L 247.109007 229.066775 
L 247.982345 229.745653 
L 248.855684 229.308826 
L 249.729022 230.159787 
L 250.60236 230.768697 
L 251.475698 229.189692 
L 252.349037 229.545204 
L 253.222375 229.00248 
L 254.969051 228.641295 
L 255.842389 230.178697 
L 256.715728 230.5153 
L 257.589066 228.295237 
L 258.462404 228.811487 
L 259.335742 228.497577 
L 260.209081 228.497577 
L 261.082419 228.212032 
L 261.955757 229.923409 
L 262.829095 230.299723 
L 263.702433 228.418154 
L 264.575772 228.733955 
L 265.44911 228.79825 
L 266.322448 228.544852 
L 267.195786 228.556198 
L 268.069125 230.156005 
L 268.942463 230.60796 
L 269.815801 228.665878 
L 270.689139 229.202929 
L 271.562477 228.856871 
L 273.309154 228.767993 
L 274.182492 230.031197 
L 275.05583 230.229755 
L 275.929168 227.907577 
L 276.802507 228.979788 
L 277.675845 228.705589 
L 278.549183 228.251744 
L 279.422521 228.497577 
L 280.29586 229.450653 
L 281.169198 229.756999 
L 282.042536 228.68857 
L 282.915874 228.108026 
L 283.789212 227.988891 
L 284.662551 227.376199 
L 285.535889 227.338379 
L 286.409227 228.310365 
L 287.282565 229.543313 
L 288.155904 228.480557 
L 289.029242 227.994564 
L 289.90258 228.446519 
L 290.775918 227.107674 
L 291.649256 227.022578 
L 292.522595 229.011935 
L 293.395933 229.013826 
L 294.269271 227.162514 
L 295.142609 228.017257 
L 296.015948 226.87886 
L 297.762624 226.135687 
L 298.635962 228.370878 
L 299.5093 228.573218 
L 300.382639 225.634566 
L 301.255977 226.856168 
L 302.129315 223.913734 
L 303.002653 222.41226 
L 303.875992 222.885017 
L 304.74933 225.884181 
L 305.622668 226.114886 
L 306.496006 219.127551 
L 307.369344 223.055209 
L 308.242683 217.932424 
L 309.116021 217.087136 
L 309.989359 216.945309 
L 310.862697 222.302581 
L 311.736036 223.919407 
L 312.609374 215.61781 
L 313.482712 215.379541 
L 314.35605 208.17852 
L 315.229388 220.241364 
L 316.102727 206.013297 
L 316.976065 211.720409 
L 317.849403 212.794511 
L 318.722741 207.745476 
L 319.59608 206.60897 
L 320.469418 200.858365 
L 321.342756 196.072183 
L 322.216094 194.844908 
L 323.089432 204.920285 
L 323.962771 207.75304 
L 324.836109 183.744595 
L 325.709447 217.251655 
L 326.582785 171.967295 
L 327.456124 188.833341 
L 328.329462 188.343566 
L 329.2028 204.791696 
L 330.076138 204.057978 
L 330.949476 219.163481 
L 331.822815 181.295718 
L 332.696153 189.135905 
L 333.569491 184.716581 
L 334.442829 189.400649 
L 335.316168 203.812145 
L 336.189506 225.42088 
L 337.936182 181.893282 
L 338.80952 186.628407 
L 339.682859 186.034625 
L 340.556197 188.772829 
L 342.302873 223.219728 
L 343.176212 204.161985 
L 344.04955 200.540673 
L 344.922888 169.684829 
L 345.796226 189.986866 
L 346.669564 192.127506 
L 347.542903 205.315509 
L 348.416241 225.451137 
L 350.162917 184.663633 
L 351.036255 187.48315 
L 351.909594 186.885586 
L 352.782932 201.297083 
L 353.65627 182.09184 
L 354.529608 210.865666 
L 355.402947 221.179313 
L 356.276285 176.159696 
L 357.149623 184.052832 
L 358.022961 169.595951 
L 359.769638 190.287539 
L 360.642976 203.681664 
L 361.516314 219.297743 
L 362.389652 167.532843 
L 363.262991 169.577041 
L 364.136329 174.427518 
L 365.009667 169.414413 
L 365.883005 190.501225 
L 366.756343 219.310981 
L 367.629682 195.083177 
L 368.50302 163.130539 
L 369.376358 167.659542 
L 370.249696 181.447 
L 371.123035 227.449949 
L 371.996373 205.960349 
L 372.869711 208.049931 
L 373.743049 205.014837 
L 374.616387 194.686062 
L 375.489726 138.753344 
L 376.363064 194.873273 
L 377.236402 227.493443 
L 378.10974 210.878903 
L 378.983079 211.913293 
L 379.856417 208.199322 
L 380.729755 196.798336 
L 381.603093 181.07636 
L 382.476431 145.770935 
L 383.34977 195.42167 
L 384.223108 188.336002 
L 385.096446 229.70405 
L 385.969784 209.360411 
L 386.843123 180.041969 
L 387.716461 183.150813 
L 388.589799 191.136609 
L 389.463137 215.247169 
L 390.336475 203.477434 
L 391.209814 209.780218 
L 392.083152 213.999093 
L 392.95649 208.363841 
L 393.829828 176.651363 
L 394.703167 215.844733 
L 395.576505 200.548237 
L 396.449843 207.991309 
L 397.323181 212.438998 
L 398.196519 218.473257 
L 399.069858 213.745696 
L 399.943196 201.928685 
L 400.816534 203.352626 
L 400.816534 203.352626 
" style="fill:none;stroke:#1f77b4;stroke-linecap:square;stroke-width:1.5;"/>
   </g>
   <g id="patch_8">
    <path d="M 59.690625 236.133911 
L 59.690625 134.116174 
" style="fill:none;stroke:#000000;stroke-linecap:square;stroke-linejoin:miter;stroke-width:0.8;"/>
   </g>
   <g id="patch_9">
    <path d="M 417.060625 236.133911 
L 417.060625 134.116174 
" style="fill:none;stroke:#000000;stroke-linecap:square;stroke-linejoin:miter;stroke-width:0.8;"/>
   </g>
   <g id="patch_10">
    <path d="M 59.690625 236.133911 
L 417.060625 236.133911 
" style="fill:none;stroke:#000000;stroke-linecap:square;stroke-linejoin:miter;stroke-width:0.8;"/>
   </g>
   <g id="patch_11">
    <path d="M 59.690625 134.116174 
L 417.060625 134.116174 
" style="fill:none;stroke:#000000;stroke-linecap:square;stroke-linejoin:miter;stroke-width:0.8;"/>
   </g>
  </g>
 </g>
 <defs>
  <clipPath id="pfa60527a90">
   <rect height="102.017737" width="357.37" x="59.690625" y="17.798437"/>
  </clipPath>
  <clipPath id="p9cbf6434bf">
   <rect height="102.017737" width="357.37" x="59.690625" y="134.116174"/>
  </clipPath>
 </defs>
</svg>
