<?xml version="1.0" encoding="utf-8" standalone="no"?>
<!DOCTYPE svg PUBLIC "-//W3C//DTD SVG 1.1//EN"
  "http://www.w3.org/Graphics/SVG/1.1/DTD/svg11.dtd">
<!-- Created with matplotlib (https://matplotlib.org/) -->
<svg height="321.466687pt" version="1.1" viewBox="0 0 410.9034 321.466687" width="410.9034pt" xmlns="http://www.w3.org/2000/svg" xmlns:xlink="http://www.w3.org/1999/xlink">
 <metadata>
  <rdf:RDF xmlns:cc="http://creativecommons.org/ns#" xmlns:dc="http://purl.org/dc/elements/1.1/" xmlns:rdf="http://www.w3.org/1999/02/22-rdf-syntax-ns#">
   <cc:Work>
    <dc:type rdf:resource="http://purl.org/dc/dcmitype/StillImage"/>
    <dc:date>2021-01-29T15:01:16.278602</dc:date>
    <dc:format>image/svg+xml</dc:format>
    <dc:creator>
     <cc:Agent>
      <dc:title>Matplotlib v3.3.4, https://matplotlib.org/</dc:title>
     </cc:Agent>
    </dc:creator>
   </cc:Work>
  </rdf:RDF>
 </metadata>
 <defs>
  <style type="text/css">*{stroke-linecap:butt;stroke-linejoin:round;}</style>
 </defs>
 <g id="figure_1">
  <g id="patch_1">
   <path d="M 0 321.466687 
L 410.9034 321.466687 
L 410.9034 0 
L 0 0 
z
" style="fill:#ffffff;"/>
  </g>
  <g id="axes_1">
   <g id="patch_2">
    <path d="M 43.78125 283.910437 
L 206.108523 283.910437 
L 206.108523 17.798437 
L 43.78125 17.798437 
z
" style="fill:#ffffff;"/>
   </g>
   <g id="matplotlib.axis_1">
    <g id="xtick_1">
     <g id="line2d_1">
      <path clip-path="url(#pfcf94b0aeb)" d="M 66.630837 283.910437 
L 66.630837 17.798437 
" style="fill:none;stroke:#b0b0b0;stroke-linecap:square;stroke-width:0.8;"/>
     </g>
     <g id="line2d_2">
      <defs>
       <path d="M 0 0 
L 0 3.5 
" id="m90b076a1d8" style="stroke:#000000;stroke-width:0.8;"/>
      </defs>
      <g>
       <use style="stroke:#000000;stroke-width:0.8;" x="66.630837" xlink:href="#m90b076a1d8" y="283.910437"/>
      </g>
     </g>
     <g id="text_1">
      <!-- 2020-03 -->
      <g transform="translate(45.739431 298.508875)scale(0.1 -0.1)">
       <defs>
        <path d="M 19.1875 8.296875 
L 53.609375 8.296875 
L 53.609375 0 
L 7.328125 0 
L 7.328125 8.296875 
Q 12.9375 14.109375 22.625 23.890625 
Q 32.328125 33.6875 34.8125 36.53125 
Q 39.546875 41.84375 41.421875 45.53125 
Q 43.3125 49.21875 43.3125 52.78125 
Q 43.3125 58.59375 39.234375 62.25 
Q 35.15625 65.921875 28.609375 65.921875 
Q 23.96875 65.921875 18.8125 64.3125 
Q 13.671875 62.703125 7.8125 59.421875 
L 7.8125 69.390625 
Q 13.765625 71.78125 18.9375 73 
Q 24.125 74.21875 28.421875 74.21875 
Q 39.75 74.21875 46.484375 68.546875 
Q 53.21875 62.890625 53.21875 53.421875 
Q 53.21875 48.921875 51.53125 44.890625 
Q 49.859375 40.875 45.40625 35.40625 
Q 44.1875 33.984375 37.640625 27.21875 
Q 31.109375 20.453125 19.1875 8.296875 
z
" id="DejaVuSans-50"/>
        <path d="M 31.78125 66.40625 
Q 24.171875 66.40625 20.328125 58.90625 
Q 16.5 51.421875 16.5 36.375 
Q 16.5 21.390625 20.328125 13.890625 
Q 24.171875 6.390625 31.78125 6.390625 
Q 39.453125 6.390625 43.28125 13.890625 
Q 47.125 21.390625 47.125 36.375 
Q 47.125 51.421875 43.28125 58.90625 
Q 39.453125 66.40625 31.78125 66.40625 
z
M 31.78125 74.21875 
Q 44.046875 74.21875 50.515625 64.515625 
Q 56.984375 54.828125 56.984375 36.375 
Q 56.984375 17.96875 50.515625 8.265625 
Q 44.046875 -1.421875 31.78125 -1.421875 
Q 19.53125 -1.421875 13.0625 8.265625 
Q 6.59375 17.96875 6.59375 36.375 
Q 6.59375 54.828125 13.0625 64.515625 
Q 19.53125 74.21875 31.78125 74.21875 
z
" id="DejaVuSans-48"/>
        <path d="M 4.890625 31.390625 
L 31.203125 31.390625 
L 31.203125 23.390625 
L 4.890625 23.390625 
z
" id="DejaVuSans-45"/>
        <path d="M 40.578125 39.3125 
Q 47.65625 37.796875 51.625 33 
Q 55.609375 28.21875 55.609375 21.1875 
Q 55.609375 10.40625 48.1875 4.484375 
Q 40.765625 -1.421875 27.09375 -1.421875 
Q 22.515625 -1.421875 17.65625 -0.515625 
Q 12.796875 0.390625 7.625 2.203125 
L 7.625 11.71875 
Q 11.71875 9.328125 16.59375 8.109375 
Q 21.484375 6.890625 26.8125 6.890625 
Q 36.078125 6.890625 40.9375 10.546875 
Q 45.796875 14.203125 45.796875 21.1875 
Q 45.796875 27.640625 41.28125 31.265625 
Q 36.765625 34.90625 28.71875 34.90625 
L 20.21875 34.90625 
L 20.21875 43.015625 
L 29.109375 43.015625 
Q 36.375 43.015625 40.234375 45.921875 
Q 44.09375 48.828125 44.09375 54.296875 
Q 44.09375 59.90625 40.109375 62.90625 
Q 36.140625 65.921875 28.71875 65.921875 
Q 24.65625 65.921875 20.015625 65.03125 
Q 15.375 64.15625 9.8125 62.3125 
L 9.8125 71.09375 
Q 15.4375 72.65625 20.34375 73.4375 
Q 25.25 74.21875 29.59375 74.21875 
Q 40.828125 74.21875 47.359375 69.109375 
Q 53.90625 64.015625 53.90625 55.328125 
Q 53.90625 49.265625 50.4375 45.09375 
Q 46.96875 40.921875 40.578125 39.3125 
z
" id="DejaVuSans-51"/>
       </defs>
       <use xlink:href="#DejaVuSans-50"/>
       <use x="63.623047" xlink:href="#DejaVuSans-48"/>
       <use x="127.246094" xlink:href="#DejaVuSans-50"/>
       <use x="190.869141" xlink:href="#DejaVuSans-48"/>
       <use x="254.492188" xlink:href="#DejaVuSans-45"/>
       <use x="290.576172" xlink:href="#DejaVuSans-48"/>
       <use x="354.199219" xlink:href="#DejaVuSans-51"/>
      </g>
     </g>
    </g>
    <g id="xtick_2">
     <g id="line2d_3">
      <path clip-path="url(#pfcf94b0aeb)" d="M 90.829184 283.910437 
L 90.829184 17.798437 
" style="fill:none;stroke:#b0b0b0;stroke-linecap:square;stroke-width:0.8;"/>
     </g>
     <g id="line2d_4">
      <g>
       <use style="stroke:#000000;stroke-width:0.8;" x="90.829184" xlink:href="#m90b076a1d8" y="283.910437"/>
      </g>
     </g>
     <g id="text_2">
      <!-- 2020-05 -->
      <g transform="translate(69.937778 298.508875)scale(0.1 -0.1)">
       <defs>
        <path d="M 10.796875 72.90625 
L 49.515625 72.90625 
L 49.515625 64.59375 
L 19.828125 64.59375 
L 19.828125 46.734375 
Q 21.96875 47.46875 24.109375 47.828125 
Q 26.265625 48.1875 28.421875 48.1875 
Q 40.625 48.1875 47.75 41.5 
Q 54.890625 34.8125 54.890625 23.390625 
Q 54.890625 11.625 47.5625 5.09375 
Q 40.234375 -1.421875 26.90625 -1.421875 
Q 22.3125 -1.421875 17.546875 -0.640625 
Q 12.796875 0.140625 7.71875 1.703125 
L 7.71875 11.625 
Q 12.109375 9.234375 16.796875 8.0625 
Q 21.484375 6.890625 26.703125 6.890625 
Q 35.15625 6.890625 40.078125 11.328125 
Q 45.015625 15.765625 45.015625 23.390625 
Q 45.015625 31 40.078125 35.4375 
Q 35.15625 39.890625 26.703125 39.890625 
Q 22.75 39.890625 18.8125 39.015625 
Q 14.890625 38.140625 10.796875 36.28125 
z
" id="DejaVuSans-53"/>
       </defs>
       <use xlink:href="#DejaVuSans-50"/>
       <use x="63.623047" xlink:href="#DejaVuSans-48"/>
       <use x="127.246094" xlink:href="#DejaVuSans-50"/>
       <use x="190.869141" xlink:href="#DejaVuSans-48"/>
       <use x="254.492188" xlink:href="#DejaVuSans-45"/>
       <use x="290.576172" xlink:href="#DejaVuSans-48"/>
       <use x="354.199219" xlink:href="#DejaVuSans-53"/>
      </g>
     </g>
    </g>
    <g id="xtick_3">
     <g id="line2d_5">
      <path clip-path="url(#pfcf94b0aeb)" d="M 115.027531 283.910437 
L 115.027531 17.798437 
" style="fill:none;stroke:#b0b0b0;stroke-linecap:square;stroke-width:0.8;"/>
     </g>
     <g id="line2d_6">
      <g>
       <use style="stroke:#000000;stroke-width:0.8;" x="115.027531" xlink:href="#m90b076a1d8" y="283.910437"/>
      </g>
     </g>
     <g id="text_3">
      <!-- 2020-07 -->
      <g transform="translate(94.136125 298.508875)scale(0.1 -0.1)">
       <defs>
        <path d="M 8.203125 72.90625 
L 55.078125 72.90625 
L 55.078125 68.703125 
L 28.609375 0 
L 18.3125 0 
L 43.21875 64.59375 
L 8.203125 64.59375 
z
" id="DejaVuSans-55"/>
       </defs>
       <use xlink:href="#DejaVuSans-50"/>
       <use x="63.623047" xlink:href="#DejaVuSans-48"/>
       <use x="127.246094" xlink:href="#DejaVuSans-50"/>
       <use x="190.869141" xlink:href="#DejaVuSans-48"/>
       <use x="254.492188" xlink:href="#DejaVuSans-45"/>
       <use x="290.576172" xlink:href="#DejaVuSans-48"/>
       <use x="354.199219" xlink:href="#DejaVuSans-55"/>
      </g>
     </g>
    </g>
    <g id="xtick_4">
     <g id="line2d_7">
      <path clip-path="url(#pfcf94b0aeb)" d="M 139.622572 283.910437 
L 139.622572 17.798437 
" style="fill:none;stroke:#b0b0b0;stroke-linecap:square;stroke-width:0.8;"/>
     </g>
     <g id="line2d_8">
      <g>
       <use style="stroke:#000000;stroke-width:0.8;" x="139.622572" xlink:href="#m90b076a1d8" y="283.910437"/>
      </g>
     </g>
     <g id="text_4">
      <!-- 2020-09 -->
      <g transform="translate(118.731166 298.508875)scale(0.1 -0.1)">
       <defs>
        <path d="M 10.984375 1.515625 
L 10.984375 10.5 
Q 14.703125 8.734375 18.5 7.8125 
Q 22.3125 6.890625 25.984375 6.890625 
Q 35.75 6.890625 40.890625 13.453125 
Q 46.046875 20.015625 46.78125 33.40625 
Q 43.953125 29.203125 39.59375 26.953125 
Q 35.25 24.703125 29.984375 24.703125 
Q 19.046875 24.703125 12.671875 31.3125 
Q 6.296875 37.9375 6.296875 49.421875 
Q 6.296875 60.640625 12.9375 67.421875 
Q 19.578125 74.21875 30.609375 74.21875 
Q 43.265625 74.21875 49.921875 64.515625 
Q 56.59375 54.828125 56.59375 36.375 
Q 56.59375 19.140625 48.40625 8.859375 
Q 40.234375 -1.421875 26.421875 -1.421875 
Q 22.703125 -1.421875 18.890625 -0.6875 
Q 15.09375 0.046875 10.984375 1.515625 
z
M 30.609375 32.421875 
Q 37.25 32.421875 41.125 36.953125 
Q 45.015625 41.5 45.015625 49.421875 
Q 45.015625 57.28125 41.125 61.84375 
Q 37.25 66.40625 30.609375 66.40625 
Q 23.96875 66.40625 20.09375 61.84375 
Q 16.21875 57.28125 16.21875 49.421875 
Q 16.21875 41.5 20.09375 36.953125 
Q 23.96875 32.421875 30.609375 32.421875 
z
" id="DejaVuSans-57"/>
       </defs>
       <use xlink:href="#DejaVuSans-50"/>
       <use x="63.623047" xlink:href="#DejaVuSans-48"/>
       <use x="127.246094" xlink:href="#DejaVuSans-50"/>
       <use x="190.869141" xlink:href="#DejaVuSans-48"/>
       <use x="254.492188" xlink:href="#DejaVuSans-45"/>
       <use x="290.576172" xlink:href="#DejaVuSans-48"/>
       <use x="354.199219" xlink:href="#DejaVuSans-57"/>
      </g>
     </g>
    </g>
    <g id="xtick_5">
     <g id="line2d_9">
      <path clip-path="url(#pfcf94b0aeb)" d="M 163.820919 283.910437 
L 163.820919 17.798437 
" style="fill:none;stroke:#b0b0b0;stroke-linecap:square;stroke-width:0.8;"/>
     </g>
     <g id="line2d_10">
      <g>
       <use style="stroke:#000000;stroke-width:0.8;" x="163.820919" xlink:href="#m90b076a1d8" y="283.910437"/>
      </g>
     </g>
     <g id="text_5">
      <!-- 2020-11 -->
      <g transform="translate(142.929513 298.508875)scale(0.1 -0.1)">
       <defs>
        <path d="M 12.40625 8.296875 
L 28.515625 8.296875 
L 28.515625 63.921875 
L 10.984375 60.40625 
L 10.984375 69.390625 
L 28.421875 72.90625 
L 38.28125 72.90625 
L 38.28125 8.296875 
L 54.390625 8.296875 
L 54.390625 0 
L 12.40625 0 
z
" id="DejaVuSans-49"/>
       </defs>
       <use xlink:href="#DejaVuSans-50"/>
       <use x="63.623047" xlink:href="#DejaVuSans-48"/>
       <use x="127.246094" xlink:href="#DejaVuSans-50"/>
       <use x="190.869141" xlink:href="#DejaVuSans-48"/>
       <use x="254.492188" xlink:href="#DejaVuSans-45"/>
       <use x="290.576172" xlink:href="#DejaVuSans-49"/>
       <use x="354.199219" xlink:href="#DejaVuSans-49"/>
      </g>
     </g>
    </g>
    <g id="xtick_6">
     <g id="line2d_11">
      <path clip-path="url(#pfcf94b0aeb)" d="M 188.019267 283.910437 
L 188.019267 17.798437 
" style="fill:none;stroke:#b0b0b0;stroke-linecap:square;stroke-width:0.8;"/>
     </g>
     <g id="line2d_12">
      <g>
       <use style="stroke:#000000;stroke-width:0.8;" x="188.019267" xlink:href="#m90b076a1d8" y="283.910437"/>
      </g>
     </g>
     <g id="text_6">
      <!-- 2021-01 -->
      <g transform="translate(167.12786 298.508875)scale(0.1 -0.1)">
       <use xlink:href="#DejaVuSans-50"/>
       <use x="63.623047" xlink:href="#DejaVuSans-48"/>
       <use x="127.246094" xlink:href="#DejaVuSans-50"/>
       <use x="190.869141" xlink:href="#DejaVuSans-49"/>
       <use x="254.492188" xlink:href="#DejaVuSans-45"/>
       <use x="290.576172" xlink:href="#DejaVuSans-48"/>
       <use x="354.199219" xlink:href="#DejaVuSans-49"/>
      </g>
     </g>
    </g>
    <g id="text_7">
     <!-- Datum -->
     <g transform="translate(108.031605 312.187)scale(0.1 -0.1)">
      <defs>
       <path d="M 19.671875 64.796875 
L 19.671875 8.109375 
L 31.59375 8.109375 
Q 46.6875 8.109375 53.6875 14.9375 
Q 60.6875 21.78125 60.6875 36.53125 
Q 60.6875 51.171875 53.6875 57.984375 
Q 46.6875 64.796875 31.59375 64.796875 
z
M 9.8125 72.90625 
L 30.078125 72.90625 
Q 51.265625 72.90625 61.171875 64.09375 
Q 71.09375 55.28125 71.09375 36.53125 
Q 71.09375 17.671875 61.125 8.828125 
Q 51.171875 0 30.078125 0 
L 9.8125 0 
z
" id="DejaVuSans-68"/>
       <path d="M 34.28125 27.484375 
Q 23.390625 27.484375 19.1875 25 
Q 14.984375 22.515625 14.984375 16.5 
Q 14.984375 11.71875 18.140625 8.90625 
Q 21.296875 6.109375 26.703125 6.109375 
Q 34.1875 6.109375 38.703125 11.40625 
Q 43.21875 16.703125 43.21875 25.484375 
L 43.21875 27.484375 
z
M 52.203125 31.203125 
L 52.203125 0 
L 43.21875 0 
L 43.21875 8.296875 
Q 40.140625 3.328125 35.546875 0.953125 
Q 30.953125 -1.421875 24.3125 -1.421875 
Q 15.921875 -1.421875 10.953125 3.296875 
Q 6 8.015625 6 15.921875 
Q 6 25.140625 12.171875 29.828125 
Q 18.359375 34.515625 30.609375 34.515625 
L 43.21875 34.515625 
L 43.21875 35.40625 
Q 43.21875 41.609375 39.140625 45 
Q 35.0625 48.390625 27.6875 48.390625 
Q 23 48.390625 18.546875 47.265625 
Q 14.109375 46.140625 10.015625 43.890625 
L 10.015625 52.203125 
Q 14.9375 54.109375 19.578125 55.046875 
Q 24.21875 56 28.609375 56 
Q 40.484375 56 46.34375 49.84375 
Q 52.203125 43.703125 52.203125 31.203125 
z
" id="DejaVuSans-97"/>
       <path d="M 18.3125 70.21875 
L 18.3125 54.6875 
L 36.8125 54.6875 
L 36.8125 47.703125 
L 18.3125 47.703125 
L 18.3125 18.015625 
Q 18.3125 11.328125 20.140625 9.421875 
Q 21.96875 7.515625 27.59375 7.515625 
L 36.8125 7.515625 
L 36.8125 0 
L 27.59375 0 
Q 17.1875 0 13.234375 3.875 
Q 9.28125 7.765625 9.28125 18.015625 
L 9.28125 47.703125 
L 2.6875 47.703125 
L 2.6875 54.6875 
L 9.28125 54.6875 
L 9.28125 70.21875 
z
" id="DejaVuSans-116"/>
       <path d="M 8.5 21.578125 
L 8.5 54.6875 
L 17.484375 54.6875 
L 17.484375 21.921875 
Q 17.484375 14.15625 20.5 10.265625 
Q 23.53125 6.390625 29.59375 6.390625 
Q 36.859375 6.390625 41.078125 11.03125 
Q 45.3125 15.671875 45.3125 23.6875 
L 45.3125 54.6875 
L 54.296875 54.6875 
L 54.296875 0 
L 45.3125 0 
L 45.3125 8.40625 
Q 42.046875 3.421875 37.71875 1 
Q 33.40625 -1.421875 27.6875 -1.421875 
Q 18.265625 -1.421875 13.375 4.4375 
Q 8.5 10.296875 8.5 21.578125 
z
M 31.109375 56 
z
" id="DejaVuSans-117"/>
       <path d="M 52 44.1875 
Q 55.375 50.25 60.0625 53.125 
Q 64.75 56 71.09375 56 
Q 79.640625 56 84.28125 50.015625 
Q 88.921875 44.046875 88.921875 33.015625 
L 88.921875 0 
L 79.890625 0 
L 79.890625 32.71875 
Q 79.890625 40.578125 77.09375 44.375 
Q 74.3125 48.1875 68.609375 48.1875 
Q 61.625 48.1875 57.5625 43.546875 
Q 53.515625 38.921875 53.515625 30.90625 
L 53.515625 0 
L 44.484375 0 
L 44.484375 32.71875 
Q 44.484375 40.625 41.703125 44.40625 
Q 38.921875 48.1875 33.109375 48.1875 
Q 26.21875 48.1875 22.15625 43.53125 
Q 18.109375 38.875 18.109375 30.90625 
L 18.109375 0 
L 9.078125 0 
L 9.078125 54.6875 
L 18.109375 54.6875 
L 18.109375 46.1875 
Q 21.1875 51.21875 25.484375 53.609375 
Q 29.78125 56 35.6875 56 
Q 41.65625 56 45.828125 52.96875 
Q 50 49.953125 52 44.1875 
z
" id="DejaVuSans-109"/>
      </defs>
      <use xlink:href="#DejaVuSans-68"/>
      <use x="77.001953" xlink:href="#DejaVuSans-97"/>
      <use x="138.28125" xlink:href="#DejaVuSans-116"/>
      <use x="177.490234" xlink:href="#DejaVuSans-117"/>
      <use x="240.869141" xlink:href="#DejaVuSans-109"/>
     </g>
    </g>
   </g>
   <g id="matplotlib.axis_2">
    <g id="ytick_1">
     <g id="line2d_13">
      <path clip-path="url(#pfcf94b0aeb)" d="M 43.78125 271.814437 
L 206.108523 271.814437 
" style="fill:none;stroke:#b0b0b0;stroke-linecap:square;stroke-width:0.8;"/>
     </g>
     <g id="line2d_14">
      <defs>
       <path d="M 0 0 
L -3.5 0 
" id="m85c6332633" style="stroke:#000000;stroke-width:0.8;"/>
      </defs>
      <g>
       <use style="stroke:#000000;stroke-width:0.8;" x="43.78125" xlink:href="#m85c6332633" y="271.814437"/>
      </g>
     </g>
     <g id="text_8">
      <!-- 0.0 -->
      <g transform="translate(20.878125 275.613656)scale(0.1 -0.1)">
       <defs>
        <path d="M 10.6875 12.40625 
L 21 12.40625 
L 21 0 
L 10.6875 0 
z
" id="DejaVuSans-46"/>
       </defs>
       <use xlink:href="#DejaVuSans-48"/>
       <use x="63.623047" xlink:href="#DejaVuSans-46"/>
       <use x="95.410156" xlink:href="#DejaVuSans-48"/>
      </g>
     </g>
    </g>
    <g id="ytick_2">
     <g id="line2d_15">
      <path clip-path="url(#pfcf94b0aeb)" d="M 43.78125 216.696377 
L 206.108523 216.696377 
" style="fill:none;stroke:#b0b0b0;stroke-linecap:square;stroke-width:0.8;"/>
     </g>
     <g id="line2d_16">
      <g>
       <use style="stroke:#000000;stroke-width:0.8;" x="43.78125" xlink:href="#m85c6332633" y="216.696377"/>
      </g>
     </g>
     <g id="text_9">
      <!-- 0.5 -->
      <g transform="translate(20.878125 220.495596)scale(0.1 -0.1)">
       <use xlink:href="#DejaVuSans-48"/>
       <use x="63.623047" xlink:href="#DejaVuSans-46"/>
       <use x="95.410156" xlink:href="#DejaVuSans-53"/>
      </g>
     </g>
    </g>
    <g id="ytick_3">
     <g id="line2d_17">
      <path clip-path="url(#pfcf94b0aeb)" d="M 43.78125 161.578317 
L 206.108523 161.578317 
" style="fill:none;stroke:#b0b0b0;stroke-linecap:square;stroke-width:0.8;"/>
     </g>
     <g id="line2d_18">
      <g>
       <use style="stroke:#000000;stroke-width:0.8;" x="43.78125" xlink:href="#m85c6332633" y="161.578317"/>
      </g>
     </g>
     <g id="text_10">
      <!-- 1.0 -->
      <g transform="translate(20.878125 165.377536)scale(0.1 -0.1)">
       <use xlink:href="#DejaVuSans-49"/>
       <use x="63.623047" xlink:href="#DejaVuSans-46"/>
       <use x="95.410156" xlink:href="#DejaVuSans-48"/>
      </g>
     </g>
    </g>
    <g id="ytick_4">
     <g id="line2d_19">
      <path clip-path="url(#pfcf94b0aeb)" d="M 43.78125 106.460257 
L 206.108523 106.460257 
" style="fill:none;stroke:#b0b0b0;stroke-linecap:square;stroke-width:0.8;"/>
     </g>
     <g id="line2d_20">
      <g>
       <use style="stroke:#000000;stroke-width:0.8;" x="43.78125" xlink:href="#m85c6332633" y="106.460257"/>
      </g>
     </g>
     <g id="text_11">
      <!-- 1.5 -->
      <g transform="translate(20.878125 110.259476)scale(0.1 -0.1)">
       <use xlink:href="#DejaVuSans-49"/>
       <use x="63.623047" xlink:href="#DejaVuSans-46"/>
       <use x="95.410156" xlink:href="#DejaVuSans-53"/>
      </g>
     </g>
    </g>
    <g id="ytick_5">
     <g id="line2d_21">
      <path clip-path="url(#pfcf94b0aeb)" d="M 43.78125 51.342197 
L 206.108523 51.342197 
" style="fill:none;stroke:#b0b0b0;stroke-linecap:square;stroke-width:0.8;"/>
     </g>
     <g id="line2d_22">
      <g>
       <use style="stroke:#000000;stroke-width:0.8;" x="43.78125" xlink:href="#m85c6332633" y="51.342197"/>
      </g>
     </g>
     <g id="text_12">
      <!-- 2.0 -->
      <g transform="translate(20.878125 55.141416)scale(0.1 -0.1)">
       <use xlink:href="#DejaVuSans-50"/>
       <use x="63.623047" xlink:href="#DejaVuSans-46"/>
       <use x="95.410156" xlink:href="#DejaVuSans-48"/>
      </g>
     </g>
    </g>
    <g id="text_13">
     <!-- Fälle kumuliert -->
     <g transform="translate(14.798438 187.598969)rotate(-90)scale(0.1 -0.1)">
      <defs>
       <path d="M 9.8125 72.90625 
L 51.703125 72.90625 
L 51.703125 64.59375 
L 19.671875 64.59375 
L 19.671875 43.109375 
L 48.578125 43.109375 
L 48.578125 34.8125 
L 19.671875 34.8125 
L 19.671875 0 
L 9.8125 0 
z
" id="DejaVuSans-70"/>
       <path d="M 34.28125 27.484375 
Q 23.390625 27.484375 19.1875 25 
Q 14.984375 22.515625 14.984375 16.5 
Q 14.984375 11.71875 18.140625 8.90625 
Q 21.296875 6.109375 26.703125 6.109375 
Q 34.1875 6.109375 38.703125 11.40625 
Q 43.21875 16.703125 43.21875 25.484375 
L 43.21875 27.484375 
z
M 52.203125 31.203125 
L 52.203125 0 
L 43.21875 0 
L 43.21875 8.296875 
Q 40.140625 3.328125 35.546875 0.953125 
Q 30.953125 -1.421875 24.3125 -1.421875 
Q 15.921875 -1.421875 10.953125 3.296875 
Q 6 8.015625 6 15.921875 
Q 6 25.140625 12.171875 29.828125 
Q 18.359375 34.515625 30.609375 34.515625 
L 43.21875 34.515625 
L 43.21875 35.40625 
Q 43.21875 41.609375 39.140625 45 
Q 35.0625 48.390625 27.6875 48.390625 
Q 23 48.390625 18.546875 47.265625 
Q 14.109375 46.140625 10.015625 43.890625 
L 10.015625 52.203125 
Q 14.9375 54.109375 19.578125 55.046875 
Q 24.21875 56 28.609375 56 
Q 40.484375 56 46.34375 49.84375 
Q 52.203125 43.703125 52.203125 31.203125 
z
M 33.59375 75.78125 
L 43.5 75.78125 
L 43.5 65.921875 
L 33.59375 65.921875 
z
M 14.5 75.78125 
L 24.421875 75.78125 
L 24.421875 65.921875 
L 14.5 65.921875 
z
" id="DejaVuSans-228"/>
       <path d="M 9.421875 75.984375 
L 18.40625 75.984375 
L 18.40625 0 
L 9.421875 0 
z
" id="DejaVuSans-108"/>
       <path d="M 56.203125 29.59375 
L 56.203125 25.203125 
L 14.890625 25.203125 
Q 15.484375 15.921875 20.484375 11.0625 
Q 25.484375 6.203125 34.421875 6.203125 
Q 39.59375 6.203125 44.453125 7.46875 
Q 49.3125 8.734375 54.109375 11.28125 
L 54.109375 2.78125 
Q 49.265625 0.734375 44.1875 -0.34375 
Q 39.109375 -1.421875 33.890625 -1.421875 
Q 20.796875 -1.421875 13.15625 6.1875 
Q 5.515625 13.8125 5.515625 26.8125 
Q 5.515625 40.234375 12.765625 48.109375 
Q 20.015625 56 32.328125 56 
Q 43.359375 56 49.78125 48.890625 
Q 56.203125 41.796875 56.203125 29.59375 
z
M 47.21875 32.234375 
Q 47.125 39.59375 43.09375 43.984375 
Q 39.0625 48.390625 32.421875 48.390625 
Q 24.90625 48.390625 20.390625 44.140625 
Q 15.875 39.890625 15.1875 32.171875 
z
" id="DejaVuSans-101"/>
       <path id="DejaVuSans-32"/>
       <path d="M 9.078125 75.984375 
L 18.109375 75.984375 
L 18.109375 31.109375 
L 44.921875 54.6875 
L 56.390625 54.6875 
L 27.390625 29.109375 
L 57.625 0 
L 45.90625 0 
L 18.109375 26.703125 
L 18.109375 0 
L 9.078125 0 
z
" id="DejaVuSans-107"/>
       <path d="M 9.421875 54.6875 
L 18.40625 54.6875 
L 18.40625 0 
L 9.421875 0 
z
M 9.421875 75.984375 
L 18.40625 75.984375 
L 18.40625 64.59375 
L 9.421875 64.59375 
z
" id="DejaVuSans-105"/>
       <path d="M 41.109375 46.296875 
Q 39.59375 47.171875 37.8125 47.578125 
Q 36.03125 48 33.890625 48 
Q 26.265625 48 22.1875 43.046875 
Q 18.109375 38.09375 18.109375 28.8125 
L 18.109375 0 
L 9.078125 0 
L 9.078125 54.6875 
L 18.109375 54.6875 
L 18.109375 46.1875 
Q 20.953125 51.171875 25.484375 53.578125 
Q 30.03125 56 36.53125 56 
Q 37.453125 56 38.578125 55.875 
Q 39.703125 55.765625 41.0625 55.515625 
z
" id="DejaVuSans-114"/>
      </defs>
      <use xlink:href="#DejaVuSans-70"/>
      <use x="48.394531" xlink:href="#DejaVuSans-228"/>
      <use x="109.673828" xlink:href="#DejaVuSans-108"/>
      <use x="137.457031" xlink:href="#DejaVuSans-108"/>
      <use x="165.240234" xlink:href="#DejaVuSans-101"/>
      <use x="226.763672" xlink:href="#DejaVuSans-32"/>
      <use x="258.550781" xlink:href="#DejaVuSans-107"/>
      <use x="313.335938" xlink:href="#DejaVuSans-117"/>
      <use x="376.714844" xlink:href="#DejaVuSans-109"/>
      <use x="474.126953" xlink:href="#DejaVuSans-117"/>
      <use x="537.505859" xlink:href="#DejaVuSans-108"/>
      <use x="565.289062" xlink:href="#DejaVuSans-105"/>
      <use x="593.072266" xlink:href="#DejaVuSans-101"/>
      <use x="654.595703" xlink:href="#DejaVuSans-114"/>
      <use x="695.708984" xlink:href="#DejaVuSans-116"/>
     </g>
    </g>
    <g id="text_14">
     <!-- 1e6 -->
     <g transform="translate(43.78125 14.798437)scale(0.1 -0.1)">
      <defs>
       <path d="M 33.015625 40.375 
Q 26.375 40.375 22.484375 35.828125 
Q 18.609375 31.296875 18.609375 23.390625 
Q 18.609375 15.53125 22.484375 10.953125 
Q 26.375 6.390625 33.015625 6.390625 
Q 39.65625 6.390625 43.53125 10.953125 
Q 47.40625 15.53125 47.40625 23.390625 
Q 47.40625 31.296875 43.53125 35.828125 
Q 39.65625 40.375 33.015625 40.375 
z
M 52.59375 71.296875 
L 52.59375 62.3125 
Q 48.875 64.0625 45.09375 64.984375 
Q 41.3125 65.921875 37.59375 65.921875 
Q 27.828125 65.921875 22.671875 59.328125 
Q 17.53125 52.734375 16.796875 39.40625 
Q 19.671875 43.65625 24.015625 45.921875 
Q 28.375 48.1875 33.59375 48.1875 
Q 44.578125 48.1875 50.953125 41.515625 
Q 57.328125 34.859375 57.328125 23.390625 
Q 57.328125 12.15625 50.6875 5.359375 
Q 44.046875 -1.421875 33.015625 -1.421875 
Q 20.359375 -1.421875 13.671875 8.265625 
Q 6.984375 17.96875 6.984375 36.375 
Q 6.984375 53.65625 15.1875 63.9375 
Q 23.390625 74.21875 37.203125 74.21875 
Q 40.921875 74.21875 44.703125 73.484375 
Q 48.484375 72.75 52.59375 71.296875 
z
" id="DejaVuSans-54"/>
      </defs>
      <use xlink:href="#DejaVuSans-49"/>
      <use x="63.623047" xlink:href="#DejaVuSans-101"/>
      <use x="125.146484" xlink:href="#DejaVuSans-54"/>
     </g>
    </g>
   </g>
   <g id="line2d_23">
    <path clip-path="url(#pfcf94b0aeb)" d="M 51.159762 271.814437 
L 69.011002 271.726359 
L 70.994473 271.585367 
L 72.184556 271.175619 
L 72.977944 270.793982 
L 73.771333 270.12562 
L 74.168027 269.626471 
L 74.961415 269.072534 
L 76.151498 267.700095 
L 77.738275 264.969326 
L 78.928357 263.23013 
L 79.721746 261.765423 
L 80.515134 260.777266 
L 81.308523 259.946086 
L 82.101911 258.786623 
L 82.8953 258.045064 
L 83.688688 257.475805 
L 84.085382 257.333931 
L 85.275465 256.227381 
L 88.845713 254.422485 
L 90.035795 254.007005 
L 91.225878 253.629115 
L 93.209349 253.137132 
L 94.399432 252.867163 
L 99.556457 251.973479 
L 109.870506 250.889748 
L 118.201085 249.877339 
L 123.35811 249.295844 
L 128.515134 248.353105 
L 130.101911 247.903892 
L 130.8953 247.726963 
L 132.085382 247.311043 
L 132.878771 247.067751 
L 133.275465 247.010539 
L 135.258936 246.126225 
L 136.449019 245.785264 
L 138.43249 245.045249 
L 138.829184 244.993438 
L 140.812655 244.224211 
L 142.002738 243.855691 
L 145.176291 242.600322 
L 151.523399 239.235365 
L 152.316787 238.740625 
L 152.713481 238.5702 
L 153.903564 237.515902 
L 154.696952 236.484312 
L 155.490341 235.843399 
L 157.870506 231.615293 
L 158.2672 231.173577 
L 159.060589 229.308382 
L 159.457283 227.94906 
L 159.853977 227.292935 
L 160.647366 224.654543 
L 161.440754 222.179743 
L 162.234143 218.942879 
L 163.424225 213.191971 
L 163.820919 211.807847 
L 164.217614 209.024164 
L 164.614308 208.193755 
L 165.011002 204.723522 
L 165.80439 199.720897 
L 166.597779 196.564616 
L 166.994473 195.845656 
L 168.184556 187.722798 
L 168.58125 185.268831 
L 168.977944 183.654975 
L 169.374638 183.300786 
L 169.771333 181.693543 
L 170.961415 173.536181 
L 171.35811 171.045616 
L 171.754804 169.51642 
L 172.151498 169.033917 
L 172.944886 165.635889 
L 173.341581 162.032601 
L 174.134969 157.317802 
L 174.531663 155.791583 
L 174.928357 155.439158 
L 175.325052 153.87149 
L 176.515134 145.975056 
L 176.911829 144.214585 
L 177.308523 141.334556 
L 177.705217 140.13188 
L 178.101911 139.530432 
L 179.688688 126.930113 
L 180.085382 124.527847 
L 180.482076 122.906384 
L 180.878771 122.195251 
L 182.465548 107.911075 
L 182.862242 105.521266 
L 183.258936 104.810905 
L 183.65563 102.688198 
L 184.449019 94.981481 
L 184.845713 92.063861 
L 185.242407 91.827956 
L 186.43249 87.428763 
L 186.829184 85.282907 
L 187.225878 79.876486 
L 187.622572 77.741544 
L 188.019267 77.508174 
L 189.209349 73.806555 
L 189.606043 71.783832 
L 190.002738 68.844607 
L 190.399432 63.847273 
L 191.19282 59.228269 
L 191.589514 59.123765 
L 191.986209 57.833341 
L 193.176291 49.66275 
L 193.572986 48.715491 
L 194.366374 45.816171 
L 194.763068 44.796156 
L 195.159762 43.447638 
L 195.556457 40.25046 
L 195.953151 39.338035 
L 196.746539 36.163676 
L 197.143233 35.052716 
L 197.539928 34.29352 
L 197.936622 33.258734 
L 198.73001 29.894438 
L 198.73001 29.894438 
" style="fill:none;stroke:#1f77b4;stroke-linecap:square;stroke-width:1.5;"/>
   </g>
   <g id="patch_3">
    <path d="M 43.78125 283.910438 
L 43.78125 17.798438 
" style="fill:none;stroke:#000000;stroke-linecap:square;stroke-linejoin:miter;stroke-width:0.8;"/>
   </g>
   <g id="patch_4">
    <path d="M 206.108523 283.910438 
L 206.108523 17.798438 
" style="fill:none;stroke:#000000;stroke-linecap:square;stroke-linejoin:miter;stroke-width:0.8;"/>
   </g>
   <g id="patch_5">
    <path d="M 43.78125 283.910437 
L 206.108523 283.910437 
" style="fill:none;stroke:#000000;stroke-linecap:square;stroke-linejoin:miter;stroke-width:0.8;"/>
   </g>
   <g id="patch_6">
    <path d="M 43.78125 17.798437 
L 206.108523 17.798437 
" style="fill:none;stroke:#000000;stroke-linecap:square;stroke-linejoin:miter;stroke-width:0.8;"/>
   </g>
  </g>
  <g id="axes_2">
   <g id="patch_7">
    <path d="M 238.573977 283.910437 
L 400.90125 283.910437 
L 400.90125 17.798437 
L 238.573977 17.798437 
z
" style="fill:#ffffff;"/>
   </g>
   <g id="matplotlib.axis_3">
    <g id="xtick_7">
     <g id="line2d_24">
      <path clip-path="url(#p7a1afe9d60)" d="M 261.423564 283.910437 
L 261.423564 17.798437 
" style="fill:none;stroke:#b0b0b0;stroke-linecap:square;stroke-width:0.8;"/>
     </g>
     <g id="line2d_25">
      <g>
       <use style="stroke:#000000;stroke-width:0.8;" x="261.423564" xlink:href="#m90b076a1d8" y="283.910437"/>
      </g>
     </g>
     <g id="text_15">
      <!-- 2020-03 -->
      <g transform="translate(240.532158 298.508875)scale(0.1 -0.1)">
       <use xlink:href="#DejaVuSans-50"/>
       <use x="63.623047" xlink:href="#DejaVuSans-48"/>
       <use x="127.246094" xlink:href="#DejaVuSans-50"/>
       <use x="190.869141" xlink:href="#DejaVuSans-48"/>
       <use x="254.492188" xlink:href="#DejaVuSans-45"/>
       <use x="290.576172" xlink:href="#DejaVuSans-48"/>
       <use x="354.199219" xlink:href="#DejaVuSans-51"/>
      </g>
     </g>
    </g>
    <g id="xtick_8">
     <g id="line2d_26">
      <path clip-path="url(#p7a1afe9d60)" d="M 285.621911 283.910437 
L 285.621911 17.798437 
" style="fill:none;stroke:#b0b0b0;stroke-linecap:square;stroke-width:0.8;"/>
     </g>
     <g id="line2d_27">
      <g>
       <use style="stroke:#000000;stroke-width:0.8;" x="285.621911" xlink:href="#m90b076a1d8" y="283.910437"/>
      </g>
     </g>
     <g id="text_16">
      <!-- 2020-05 -->
      <g transform="translate(264.730505 298.508875)scale(0.1 -0.1)">
       <use xlink:href="#DejaVuSans-50"/>
       <use x="63.623047" xlink:href="#DejaVuSans-48"/>
       <use x="127.246094" xlink:href="#DejaVuSans-50"/>
       <use x="190.869141" xlink:href="#DejaVuSans-48"/>
       <use x="254.492188" xlink:href="#DejaVuSans-45"/>
       <use x="290.576172" xlink:href="#DejaVuSans-48"/>
       <use x="354.199219" xlink:href="#DejaVuSans-53"/>
      </g>
     </g>
    </g>
    <g id="xtick_9">
     <g id="line2d_28">
      <path clip-path="url(#p7a1afe9d60)" d="M 309.820258 283.910437 
L 309.820258 17.798437 
" style="fill:none;stroke:#b0b0b0;stroke-linecap:square;stroke-width:0.8;"/>
     </g>
     <g id="line2d_29">
      <g>
       <use style="stroke:#000000;stroke-width:0.8;" x="309.820258" xlink:href="#m90b076a1d8" y="283.910437"/>
      </g>
     </g>
     <g id="text_17">
      <!-- 2020-07 -->
      <g transform="translate(288.928852 298.508875)scale(0.1 -0.1)">
       <use xlink:href="#DejaVuSans-50"/>
       <use x="63.623047" xlink:href="#DejaVuSans-48"/>
       <use x="127.246094" xlink:href="#DejaVuSans-50"/>
       <use x="190.869141" xlink:href="#DejaVuSans-48"/>
       <use x="254.492188" xlink:href="#DejaVuSans-45"/>
       <use x="290.576172" xlink:href="#DejaVuSans-48"/>
       <use x="354.199219" xlink:href="#DejaVuSans-55"/>
      </g>
     </g>
    </g>
    <g id="xtick_10">
     <g id="line2d_30">
      <path clip-path="url(#p7a1afe9d60)" d="M 334.4153 283.910437 
L 334.4153 17.798437 
" style="fill:none;stroke:#b0b0b0;stroke-linecap:square;stroke-width:0.8;"/>
     </g>
     <g id="line2d_31">
      <g>
       <use style="stroke:#000000;stroke-width:0.8;" x="334.4153" xlink:href="#m90b076a1d8" y="283.910437"/>
      </g>
     </g>
     <g id="text_18">
      <!-- 2020-09 -->
      <g transform="translate(313.523893 298.508875)scale(0.1 -0.1)">
       <use xlink:href="#DejaVuSans-50"/>
       <use x="63.623047" xlink:href="#DejaVuSans-48"/>
       <use x="127.246094" xlink:href="#DejaVuSans-50"/>
       <use x="190.869141" xlink:href="#DejaVuSans-48"/>
       <use x="254.492188" xlink:href="#DejaVuSans-45"/>
       <use x="290.576172" xlink:href="#DejaVuSans-48"/>
       <use x="354.199219" xlink:href="#DejaVuSans-57"/>
      </g>
     </g>
    </g>
    <g id="xtick_11">
     <g id="line2d_32">
      <path clip-path="url(#p7a1afe9d60)" d="M 358.613647 283.910437 
L 358.613647 17.798437 
" style="fill:none;stroke:#b0b0b0;stroke-linecap:square;stroke-width:0.8;"/>
     </g>
     <g id="line2d_33">
      <g>
       <use style="stroke:#000000;stroke-width:0.8;" x="358.613647" xlink:href="#m90b076a1d8" y="283.910437"/>
      </g>
     </g>
     <g id="text_19">
      <!-- 2020-11 -->
      <g transform="translate(337.72224 298.508875)scale(0.1 -0.1)">
       <use xlink:href="#DejaVuSans-50"/>
       <use x="63.623047" xlink:href="#DejaVuSans-48"/>
       <use x="127.246094" xlink:href="#DejaVuSans-50"/>
       <use x="190.869141" xlink:href="#DejaVuSans-48"/>
       <use x="254.492188" xlink:href="#DejaVuSans-45"/>
       <use x="290.576172" xlink:href="#DejaVuSans-49"/>
       <use x="354.199219" xlink:href="#DejaVuSans-49"/>
      </g>
     </g>
    </g>
    <g id="xtick_12">
     <g id="line2d_34">
      <path clip-path="url(#p7a1afe9d60)" d="M 382.811994 283.910437 
L 382.811994 17.798437 
" style="fill:none;stroke:#b0b0b0;stroke-linecap:square;stroke-width:0.8;"/>
     </g>
     <g id="line2d_35">
      <g>
       <use style="stroke:#000000;stroke-width:0.8;" x="382.811994" xlink:href="#m90b076a1d8" y="283.910437"/>
      </g>
     </g>
     <g id="text_20">
      <!-- 2021-01 -->
      <g transform="translate(361.920588 298.508875)scale(0.1 -0.1)">
       <use xlink:href="#DejaVuSans-50"/>
       <use x="63.623047" xlink:href="#DejaVuSans-48"/>
       <use x="127.246094" xlink:href="#DejaVuSans-50"/>
       <use x="190.869141" xlink:href="#DejaVuSans-49"/>
       <use x="254.492188" xlink:href="#DejaVuSans-45"/>
       <use x="290.576172" xlink:href="#DejaVuSans-48"/>
       <use x="354.199219" xlink:href="#DejaVuSans-49"/>
      </g>
     </g>
    </g>
    <g id="text_21">
     <!-- Datum -->
     <g transform="translate(302.824332 312.187)scale(0.1 -0.1)">
      <use xlink:href="#DejaVuSans-68"/>
      <use x="77.001953" xlink:href="#DejaVuSans-97"/>
      <use x="138.28125" xlink:href="#DejaVuSans-116"/>
      <use x="177.490234" xlink:href="#DejaVuSans-117"/>
      <use x="240.869141" xlink:href="#DejaVuSans-109"/>
     </g>
    </g>
   </g>
   <g id="matplotlib.axis_4">
    <g id="ytick_6">
     <g id="line2d_36">
      <path clip-path="url(#p7a1afe9d60)" d="M 238.573977 271.814437 
L 400.90125 271.814437 
" style="fill:none;stroke:#b0b0b0;stroke-linecap:square;stroke-width:0.8;"/>
     </g>
     <g id="line2d_37">
      <g>
       <use style="stroke:#000000;stroke-width:0.8;" x="238.573977" xlink:href="#m85c6332633" y="271.814437"/>
      </g>
     </g>
     <g id="text_22">
      <!-- 0 -->
      <g transform="translate(225.211477 275.613656)scale(0.1 -0.1)">
       <use xlink:href="#DejaVuSans-48"/>
      </g>
     </g>
    </g>
    <g id="ytick_7">
     <g id="line2d_38">
      <path clip-path="url(#p7a1afe9d60)" d="M 238.573977 222.487303 
L 400.90125 222.487303 
" style="fill:none;stroke:#b0b0b0;stroke-linecap:square;stroke-width:0.8;"/>
     </g>
     <g id="line2d_39">
      <g>
       <use style="stroke:#000000;stroke-width:0.8;" x="238.573977" xlink:href="#m85c6332633" y="222.487303"/>
      </g>
     </g>
     <g id="text_23">
      <!-- 10000 -->
      <g transform="translate(199.761477 226.286521)scale(0.1 -0.1)">
       <use xlink:href="#DejaVuSans-49"/>
       <use x="63.623047" xlink:href="#DejaVuSans-48"/>
       <use x="127.246094" xlink:href="#DejaVuSans-48"/>
       <use x="190.869141" xlink:href="#DejaVuSans-48"/>
       <use x="254.492188" xlink:href="#DejaVuSans-48"/>
      </g>
     </g>
    </g>
    <g id="ytick_8">
     <g id="line2d_40">
      <path clip-path="url(#p7a1afe9d60)" d="M 238.573977 173.160168 
L 400.90125 173.160168 
" style="fill:none;stroke:#b0b0b0;stroke-linecap:square;stroke-width:0.8;"/>
     </g>
     <g id="line2d_41">
      <g>
       <use style="stroke:#000000;stroke-width:0.8;" x="238.573977" xlink:href="#m85c6332633" y="173.160168"/>
      </g>
     </g>
     <g id="text_24">
      <!-- 20000 -->
      <g transform="translate(199.761477 176.959387)scale(0.1 -0.1)">
       <use xlink:href="#DejaVuSans-50"/>
       <use x="63.623047" xlink:href="#DejaVuSans-48"/>
       <use x="127.246094" xlink:href="#DejaVuSans-48"/>
       <use x="190.869141" xlink:href="#DejaVuSans-48"/>
       <use x="254.492188" xlink:href="#DejaVuSans-48"/>
      </g>
     </g>
    </g>
    <g id="ytick_9">
     <g id="line2d_42">
      <path clip-path="url(#p7a1afe9d60)" d="M 238.573977 123.833033 
L 400.90125 123.833033 
" style="fill:none;stroke:#b0b0b0;stroke-linecap:square;stroke-width:0.8;"/>
     </g>
     <g id="line2d_43">
      <g>
       <use style="stroke:#000000;stroke-width:0.8;" x="238.573977" xlink:href="#m85c6332633" y="123.833033"/>
      </g>
     </g>
     <g id="text_25">
      <!-- 30000 -->
      <g transform="translate(199.761477 127.632252)scale(0.1 -0.1)">
       <use xlink:href="#DejaVuSans-51"/>
       <use x="63.623047" xlink:href="#DejaVuSans-48"/>
       <use x="127.246094" xlink:href="#DejaVuSans-48"/>
       <use x="190.869141" xlink:href="#DejaVuSans-48"/>
       <use x="254.492188" xlink:href="#DejaVuSans-48"/>
      </g>
     </g>
    </g>
    <g id="ytick_10">
     <g id="line2d_44">
      <path clip-path="url(#p7a1afe9d60)" d="M 238.573977 74.505898 
L 400.90125 74.505898 
" style="fill:none;stroke:#b0b0b0;stroke-linecap:square;stroke-width:0.8;"/>
     </g>
     <g id="line2d_45">
      <g>
       <use style="stroke:#000000;stroke-width:0.8;" x="238.573977" xlink:href="#m85c6332633" y="74.505898"/>
      </g>
     </g>
     <g id="text_26">
      <!-- 40000 -->
      <g transform="translate(199.761477 78.305117)scale(0.1 -0.1)">
       <defs>
        <path d="M 37.796875 64.3125 
L 12.890625 25.390625 
L 37.796875 25.390625 
z
M 35.203125 72.90625 
L 47.609375 72.90625 
L 47.609375 25.390625 
L 58.015625 25.390625 
L 58.015625 17.1875 
L 47.609375 17.1875 
L 47.609375 0 
L 37.796875 0 
L 37.796875 17.1875 
L 4.890625 17.1875 
L 4.890625 26.703125 
z
" id="DejaVuSans-52"/>
       </defs>
       <use xlink:href="#DejaVuSans-52"/>
       <use x="63.623047" xlink:href="#DejaVuSans-48"/>
       <use x="127.246094" xlink:href="#DejaVuSans-48"/>
       <use x="190.869141" xlink:href="#DejaVuSans-48"/>
       <use x="254.492188" xlink:href="#DejaVuSans-48"/>
      </g>
     </g>
    </g>
    <g id="ytick_11">
     <g id="line2d_46">
      <path clip-path="url(#p7a1afe9d60)" d="M 238.573977 25.178763 
L 400.90125 25.178763 
" style="fill:none;stroke:#b0b0b0;stroke-linecap:square;stroke-width:0.8;"/>
     </g>
     <g id="line2d_47">
      <g>
       <use style="stroke:#000000;stroke-width:0.8;" x="238.573977" xlink:href="#m85c6332633" y="25.178763"/>
      </g>
     </g>
     <g id="text_27">
      <!-- 50000 -->
      <g transform="translate(199.761477 28.977982)scale(0.1 -0.1)">
       <use xlink:href="#DejaVuSans-53"/>
       <use x="63.623047" xlink:href="#DejaVuSans-48"/>
       <use x="127.246094" xlink:href="#DejaVuSans-48"/>
       <use x="190.869141" xlink:href="#DejaVuSans-48"/>
       <use x="254.492188" xlink:href="#DejaVuSans-48"/>
      </g>
     </g>
    </g>
    <g id="text_28">
     <!-- neue Fälle -->
     <g transform="translate(193.68179 176.272406)rotate(-90)scale(0.1 -0.1)">
      <defs>
       <path d="M 54.890625 33.015625 
L 54.890625 0 
L 45.90625 0 
L 45.90625 32.71875 
Q 45.90625 40.484375 42.875 44.328125 
Q 39.84375 48.1875 33.796875 48.1875 
Q 26.515625 48.1875 22.3125 43.546875 
Q 18.109375 38.921875 18.109375 30.90625 
L 18.109375 0 
L 9.078125 0 
L 9.078125 54.6875 
L 18.109375 54.6875 
L 18.109375 46.1875 
Q 21.34375 51.125 25.703125 53.5625 
Q 30.078125 56 35.796875 56 
Q 45.21875 56 50.046875 50.171875 
Q 54.890625 44.34375 54.890625 33.015625 
z
" id="DejaVuSans-110"/>
      </defs>
      <use xlink:href="#DejaVuSans-110"/>
      <use x="63.378906" xlink:href="#DejaVuSans-101"/>
      <use x="124.902344" xlink:href="#DejaVuSans-117"/>
      <use x="188.28125" xlink:href="#DejaVuSans-101"/>
      <use x="249.804688" xlink:href="#DejaVuSans-32"/>
      <use x="281.591797" xlink:href="#DejaVuSans-70"/>
      <use x="329.986328" xlink:href="#DejaVuSans-228"/>
      <use x="391.265625" xlink:href="#DejaVuSans-108"/>
      <use x="419.048828" xlink:href="#DejaVuSans-108"/>
      <use x="446.832031" xlink:href="#DejaVuSans-101"/>
     </g>
    </g>
   </g>
   <g id="line2d_48">
    <path clip-path="url(#p7a1afe9d60)" d="M 245.95249 271.814437 
L 260.630176 271.804572 
L 261.423564 271.562869 
L 261.820258 271.671389 
L 262.613647 271.488878 
L 263.010341 270.729241 
L 263.407035 270.887087 
L 263.803729 271.178117 
L 264.200424 270.625654 
L 264.597118 271.143588 
L 265.390506 269.589784 
L 265.7872 270.975876 
L 266.183895 263.936894 
L 266.580589 267.325668 
L 267.373977 264.52882 
L 267.770671 262.023001 
L 268.167366 256.671007 
L 268.56406 257.050826 
L 268.960754 249.479111 
L 269.357448 260.14857 
L 269.754143 258.69342 
L 270.150837 251.180897 
L 270.547531 252.428874 
L 270.944225 250.421259 
L 271.340919 239.184538 
L 271.737614 237.615935 
L 272.134308 238.153601 
L 272.531002 250.110498 
L 272.927696 248.18674 
L 273.32439 247.530689 
L 274.117779 237.670195 
L 274.514473 240.417716 
L 274.911167 247.481362 
L 275.704556 255.778186 
L 276.10125 250.658029 
L 276.497944 244.028462 
L 277.291333 252.132911 
L 277.688027 258.313601 
L 278.084721 257.282664 
L 278.87811 265.466035 
L 279.274804 255.072808 
L 279.671498 257.287596 
L 280.068192 253.56833 
L 280.464886 262.22031 
L 280.861581 262.728379 
L 281.258275 262.536003 
L 281.654969 265.766931 
L 282.051663 260.188032 
L 282.448357 259.576375 
L 282.845052 262.590263 
L 283.63844 265.614017 
L 284.035134 266.940917 
L 284.431829 266.122086 
L 284.828523 263.788913 
L 285.225217 264.563349 
L 285.621911 266.5463 
L 286.811994 269.407273 
L 287.605382 266.117153 
L 288.002076 265.559757 
L 288.398771 266.102355 
L 288.795465 268.18396 
L 289.192159 269.076782 
L 289.588853 268.376336 
L 289.985548 268.879473 
L 290.382242 267.241812 
L 290.778936 269.940006 
L 291.17563 268.090239 
L 291.572324 269.254359 
L 291.969019 268.770953 
L 292.365713 270.916684 
L 292.762407 265.761998 
L 293.159101 268.386202 
L 293.555795 269.111311 
L 293.95249 268.415798 
L 294.349184 270.453009 
L 294.745878 270.127449 
L 295.142572 270.472739 
L 295.539267 268.854809 
L 295.935961 270.216238 
L 296.332655 268.499654 
L 296.729349 268.233288 
L 297.126043 270.497403 
L 297.919432 270.906818 
L 298.316126 270.408614 
L 298.71282 270.620721 
L 299.506209 269.584851 
L 299.902903 269.21983 
L 300.299597 270.334623 
L 301.092986 269.85615 
L 301.48968 271.735514 
L 301.886374 270.980809 
L 302.283068 269.175436 
L 302.679762 271.612196 
L 303.076457 270.576326 
L 303.473151 271.005472 
L 303.869845 269.002791 
L 304.266539 270.078122 
L 304.663233 265.831056 
L 305.059928 269.43687 
L 305.456622 269.984401 
L 305.853316 268.844944 
L 306.25001 269.367812 
L 306.646705 268.302346 
L 307.043399 269.885747 
L 307.440093 269.348081 
L 307.836787 268.534183 
L 308.630176 270.65525 
L 309.02687 270.09292 
L 309.423564 269.959737 
L 309.820258 269.471399 
L 310.216952 269.461533 
L 310.613647 269.792025 
L 311.010341 269.752563 
L 311.407035 270.211306 
L 311.803729 269.14584 
L 312.200424 270.43821 
L 312.597118 270.058392 
L 312.993812 270.324758 
L 313.7872 269.954805 
L 314.183895 270.778568 
L 314.580589 270.526999 
L 314.977283 270.453009 
L 315.770671 269.052118 
L 316.167366 268.879473 
L 316.56406 269.935074 
L 316.960754 270.290229 
L 317.357448 268.904137 
L 317.754143 269.880814 
L 318.150837 269.057051 
L 318.547531 268.830146 
L 318.944225 268.154364 
L 319.340919 268.58351 
L 319.737614 269.895612 
L 320.134308 269.61938 
L 320.531002 268.879473 
L 320.927696 267.675891 
L 321.32439 266.935984 
L 321.721085 267.552573 
L 322.117779 268.825213 
L 322.514473 270.753904 
L 322.911167 267.41939 
L 323.307862 268.277682 
L 323.704556 265.475901 
L 324.10125 267.246745 
L 324.497944 266.107288 
L 325.291333 269.915343 
L 325.688027 265.796527 
L 326.084721 266.723877 
L 326.481415 265.308188 
L 327.274804 264.36604 
L 327.671498 268.376336 
L 328.068192 269.254359 
L 328.464886 263.463354 
L 328.861581 264.809984 
L 329.258275 263.991154 
L 329.654969 263.991154 
L 330.051663 263.246314 
L 330.448357 267.71042 
L 330.845052 268.69203 
L 331.241746 263.78398 
L 331.63844 264.607743 
L 332.035134 264.775455 
L 332.431829 264.114472 
L 332.828523 264.144068 
L 333.225217 268.317144 
L 333.621911 269.496062 
L 334.018605 264.430165 
L 334.4153 265.831056 
L 334.811994 264.928369 
L 335.605382 264.696532 
L 336.002076 267.991585 
L 336.398771 268.509519 
L 336.795465 262.452147 
L 337.192159 265.248996 
L 337.588853 264.533752 
L 337.985548 263.349901 
L 338.382242 263.991154 
L 338.778936 266.477242 
L 339.17563 267.276341 
L 339.572324 264.489358 
L 339.969019 262.975015 
L 340.365713 262.664254 
L 340.762407 261.066055 
L 341.159101 260.967401 
L 341.95249 266.718944 
L 342.349184 263.946759 
L 342.745878 262.679052 
L 343.142572 263.857971 
L 343.539267 260.36561 
L 343.935961 260.143637 
L 344.332655 265.332852 
L 344.729349 265.337785 
L 345.126043 260.508658 
L 345.522738 262.738245 
L 345.919432 259.768751 
L 346.71282 257.830195 
L 347.109514 263.660662 
L 347.506209 264.188462 
L 347.902903 256.523026 
L 348.299597 259.709559 
L 348.696291 252.034256 
L 349.092986 248.117682 
L 349.48968 249.35086 
L 349.886374 257.174144 
L 350.283068 257.775935 
L 350.679762 239.549559 
L 351.076457 249.794805 
L 351.473151 236.432084 
L 351.869845 234.227161 
L 352.266539 233.857207 
L 352.663233 247.831585 
L 353.059928 252.049055 
L 353.456622 230.394442 
L 353.853316 229.77292 
L 354.25001 210.989148 
L 354.646705 242.454927 
L 355.043399 205.341191 
L 355.440093 220.22812 
L 355.836787 223.029901 
L 356.233481 209.859556 
L 356.630176 206.894995 
L 357.423564 179.409916 
L 357.820258 176.208585 
L 358.216952 202.490082 
L 358.613647 209.879287 
L 359.010341 147.253557 
L 359.407035 234.656307 
L 359.803729 116.532617 
L 360.200424 160.527489 
L 360.597118 159.249916 
L 360.993812 202.154658 
L 361.390506 200.240765 
L 361.7872 239.64328 
L 362.183895 140.865693 
L 362.580589 161.316723 
L 362.977283 149.788971 
L 363.373977 162.007303 
L 363.770671 199.599512 
L 364.167366 255.965629 
L 364.960754 142.42443 
L 365.357448 154.775945 
L 365.754143 153.227073 
L 366.150837 160.369642 
L 366.944225 250.223951 
L 367.340919 200.512064 
L 367.737614 191.065918 
L 368.134308 110.578832 
L 368.531002 163.536444 
L 368.927696 169.120276 
L 369.32439 203.521019 
L 369.721085 256.044552 
L 370.514473 149.650855 
L 370.911167 157.005531 
L 371.307862 155.446794 
L 371.704556 193.039003 
L 372.10125 142.942365 
L 372.497944 217.998533 
L 372.894638 244.901553 
L 373.291333 127.468443 
L 373.688027 148.057589 
L 374.084721 110.346994 
L 375.274804 199.259155 
L 375.671498 239.993503 
L 376.068192 104.965404 
L 376.464886 110.297667 
L 376.861581 122.950077 
L 377.258275 109.873454 
L 377.654969 164.878142 
L 378.051663 240.028032 
L 378.448357 176.830107 
L 378.845052 93.482047 
L 379.241746 105.295896 
L 379.63844 141.26031 
L 380.035134 261.258431 
L 380.431829 205.203075 
L 380.828523 210.653723 
L 381.225217 202.736718 
L 381.621911 175.794237 
L 382.018605 29.894437 
L 382.4153 176.282575 
L 382.811994 261.371883 
L 383.208688 218.033062 
L 383.605382 220.731257 
L 384.002076 211.043407 
L 384.398771 181.304078 
L 384.795465 140.293498 
L 385.192159 48.199737 
L 385.588853 177.713062 
L 385.985548 159.230185 
L 386.382242 267.138225 
L 386.778936 214.072093 
L 387.17563 137.595304 
L 387.572324 145.704685 
L 387.969019 166.535534 
L 388.365713 229.427631 
L 388.762407 198.726422 
L 389.159101 215.167156 
L 389.555795 226.17204 
L 389.95249 211.472553 
L 390.349184 128.750948 
L 390.745878 230.986368 
L 391.142572 191.085649 
L 391.539267 210.500809 
L 391.935961 222.102551 
L 392.332655 237.84284 
L 392.729349 225.511056 
L 393.126043 194.686529 
L 393.522738 198.400863 
L 393.522738 198.400863 
" style="fill:none;stroke:#1f77b4;stroke-linecap:square;stroke-width:1.5;"/>
   </g>
   <g id="patch_8">
    <path d="M 238.573977 283.910437 
L 238.573977 17.798437 
" style="fill:none;stroke:#000000;stroke-linecap:square;stroke-linejoin:miter;stroke-width:0.8;"/>
   </g>
   <g id="patch_9">
    <path d="M 400.90125 283.910437 
L 400.90125 17.798437 
" style="fill:none;stroke:#000000;stroke-linecap:square;stroke-linejoin:miter;stroke-width:0.8;"/>
   </g>
   <g id="patch_10">
    <path d="M 238.573977 283.910437 
L 400.90125 283.910437 
" style="fill:none;stroke:#000000;stroke-linecap:square;stroke-linejoin:miter;stroke-width:0.8;"/>
   </g>
   <g id="patch_11">
    <path d="M 238.573977 17.798437 
L 400.90125 17.798437 
" style="fill:none;stroke:#000000;stroke-linecap:square;stroke-linejoin:miter;stroke-width:0.8;"/>
   </g>
  </g>
 </g>
 <defs>
  <clipPath id="pfcf94b0aeb">
   <rect height="266.112" width="162.327273" x="43.78125" y="17.798438"/>
  </clipPath>
  <clipPath id="p7a1afe9d60">
   <rect height="266.112" width="162.327273" x="238.573977" y="17.798438"/>
  </clipPath>
 </defs>
</svg>
