<?xml version="1.0" encoding="utf-8" standalone="no"?>
<!DOCTYPE svg PUBLIC "-//W3C//DTD SVG 1.1//EN"
  "http://www.w3.org/Graphics/SVG/1.1/DTD/svg11.dtd">
<!-- Created with matplotlib (https://matplotlib.org/) -->
<svg height="279.674687pt" version="1.1" viewBox="0 0 712.37125 279.674687" width="712.37125pt" xmlns="http://www.w3.org/2000/svg" xmlns:xlink="http://www.w3.org/1999/xlink">
 <metadata>
  <rdf:RDF xmlns:cc="http://creativecommons.org/ns#" xmlns:dc="http://purl.org/dc/elements/1.1/" xmlns:rdf="http://www.w3.org/1999/02/22-rdf-syntax-ns#">
   <cc:Work>
    <dc:type rdf:resource="http://purl.org/dc/dcmitype/StillImage"/>
    <dc:date>2021-01-29T15:01:19.724118</dc:date>
    <dc:format>image/svg+xml</dc:format>
    <dc:creator>
     <cc:Agent>
      <dc:title>Matplotlib v3.3.4, https://matplotlib.org/</dc:title>
     </cc:Agent>
    </dc:creator>
   </cc:Work>
  </rdf:RDF>
 </metadata>
 <defs>
  <style type="text/css">*{stroke-linecap:butt;stroke-linejoin:round;}</style>
 </defs>
 <g id="figure_1">
  <g id="patch_1">
   <path d="M 0 279.674687 
L 712.37125 279.674687 
L 712.37125 0 
L 0 0 
z
" style="fill:#ffffff;"/>
  </g>
  <g id="axes_1">
   <g id="patch_2">
    <path d="M 43.78125 242.118437 
L 342.56125 242.118437 
L 342.56125 17.798437 
L 43.78125 17.798437 
z
" style="fill:#ffffff;"/>
   </g>
   <g id="matplotlib.axis_1">
    <g id="xtick_1">
     <g id="line2d_1">
      <path clip-path="url(#pddcd702f7f)" d="M 85.838259 242.118437 
L 85.838259 17.798437 
" style="fill:none;stroke:#b0b0b0;stroke-linecap:square;stroke-width:0.8;"/>
     </g>
     <g id="line2d_2">
      <defs>
       <path d="M 0 0 
L 0 3.5 
" id="m2836b323d7" style="stroke:#000000;stroke-width:0.8;"/>
      </defs>
      <g>
       <use style="stroke:#000000;stroke-width:0.8;" x="85.838259" xlink:href="#m2836b323d7" y="242.118437"/>
      </g>
     </g>
     <g id="text_1">
      <!-- 2020-03 -->
      <g transform="translate(64.946853 256.716875)scale(0.1 -0.1)">
       <defs>
        <path d="M 19.1875 8.296875 
L 53.609375 8.296875 
L 53.609375 0 
L 7.328125 0 
L 7.328125 8.296875 
Q 12.9375 14.109375 22.625 23.890625 
Q 32.328125 33.6875 34.8125 36.53125 
Q 39.546875 41.84375 41.421875 45.53125 
Q 43.3125 49.21875 43.3125 52.78125 
Q 43.3125 58.59375 39.234375 62.25 
Q 35.15625 65.921875 28.609375 65.921875 
Q 23.96875 65.921875 18.8125 64.3125 
Q 13.671875 62.703125 7.8125 59.421875 
L 7.8125 69.390625 
Q 13.765625 71.78125 18.9375 73 
Q 24.125 74.21875 28.421875 74.21875 
Q 39.75 74.21875 46.484375 68.546875 
Q 53.21875 62.890625 53.21875 53.421875 
Q 53.21875 48.921875 51.53125 44.890625 
Q 49.859375 40.875 45.40625 35.40625 
Q 44.1875 33.984375 37.640625 27.21875 
Q 31.109375 20.453125 19.1875 8.296875 
z
" id="DejaVuSans-50"/>
        <path d="M 31.78125 66.40625 
Q 24.171875 66.40625 20.328125 58.90625 
Q 16.5 51.421875 16.5 36.375 
Q 16.5 21.390625 20.328125 13.890625 
Q 24.171875 6.390625 31.78125 6.390625 
Q 39.453125 6.390625 43.28125 13.890625 
Q 47.125 21.390625 47.125 36.375 
Q 47.125 51.421875 43.28125 58.90625 
Q 39.453125 66.40625 31.78125 66.40625 
z
M 31.78125 74.21875 
Q 44.046875 74.21875 50.515625 64.515625 
Q 56.984375 54.828125 56.984375 36.375 
Q 56.984375 17.96875 50.515625 8.265625 
Q 44.046875 -1.421875 31.78125 -1.421875 
Q 19.53125 -1.421875 13.0625 8.265625 
Q 6.59375 17.96875 6.59375 36.375 
Q 6.59375 54.828125 13.0625 64.515625 
Q 19.53125 74.21875 31.78125 74.21875 
z
" id="DejaVuSans-48"/>
        <path d="M 4.890625 31.390625 
L 31.203125 31.390625 
L 31.203125 23.390625 
L 4.890625 23.390625 
z
" id="DejaVuSans-45"/>
        <path d="M 40.578125 39.3125 
Q 47.65625 37.796875 51.625 33 
Q 55.609375 28.21875 55.609375 21.1875 
Q 55.609375 10.40625 48.1875 4.484375 
Q 40.765625 -1.421875 27.09375 -1.421875 
Q 22.515625 -1.421875 17.65625 -0.515625 
Q 12.796875 0.390625 7.625 2.203125 
L 7.625 11.71875 
Q 11.71875 9.328125 16.59375 8.109375 
Q 21.484375 6.890625 26.8125 6.890625 
Q 36.078125 6.890625 40.9375 10.546875 
Q 45.796875 14.203125 45.796875 21.1875 
Q 45.796875 27.640625 41.28125 31.265625 
Q 36.765625 34.90625 28.71875 34.90625 
L 20.21875 34.90625 
L 20.21875 43.015625 
L 29.109375 43.015625 
Q 36.375 43.015625 40.234375 45.921875 
Q 44.09375 48.828125 44.09375 54.296875 
Q 44.09375 59.90625 40.109375 62.90625 
Q 36.140625 65.921875 28.71875 65.921875 
Q 24.65625 65.921875 20.015625 65.03125 
Q 15.375 64.15625 9.8125 62.3125 
L 9.8125 71.09375 
Q 15.4375 72.65625 20.34375 73.4375 
Q 25.25 74.21875 29.59375 74.21875 
Q 40.828125 74.21875 47.359375 69.109375 
Q 53.90625 64.015625 53.90625 55.328125 
Q 53.90625 49.265625 50.4375 45.09375 
Q 46.96875 40.921875 40.578125 39.3125 
z
" id="DejaVuSans-51"/>
       </defs>
       <use xlink:href="#DejaVuSans-50"/>
       <use x="63.623047" xlink:href="#DejaVuSans-48"/>
       <use x="127.246094" xlink:href="#DejaVuSans-50"/>
       <use x="190.869141" xlink:href="#DejaVuSans-48"/>
       <use x="254.492188" xlink:href="#DejaVuSans-45"/>
       <use x="290.576172" xlink:href="#DejaVuSans-48"/>
       <use x="354.199219" xlink:href="#DejaVuSans-51"/>
      </g>
     </g>
    </g>
    <g id="xtick_2">
     <g id="line2d_3">
      <path clip-path="url(#pddcd702f7f)" d="M 130.377799 242.118437 
L 130.377799 17.798437 
" style="fill:none;stroke:#b0b0b0;stroke-linecap:square;stroke-width:0.8;"/>
     </g>
     <g id="line2d_4">
      <g>
       <use style="stroke:#000000;stroke-width:0.8;" x="130.377799" xlink:href="#m2836b323d7" y="242.118437"/>
      </g>
     </g>
     <g id="text_2">
      <!-- 2020-05 -->
      <g transform="translate(109.486393 256.716875)scale(0.1 -0.1)">
       <defs>
        <path d="M 10.796875 72.90625 
L 49.515625 72.90625 
L 49.515625 64.59375 
L 19.828125 64.59375 
L 19.828125 46.734375 
Q 21.96875 47.46875 24.109375 47.828125 
Q 26.265625 48.1875 28.421875 48.1875 
Q 40.625 48.1875 47.75 41.5 
Q 54.890625 34.8125 54.890625 23.390625 
Q 54.890625 11.625 47.5625 5.09375 
Q 40.234375 -1.421875 26.90625 -1.421875 
Q 22.3125 -1.421875 17.546875 -0.640625 
Q 12.796875 0.140625 7.71875 1.703125 
L 7.71875 11.625 
Q 12.109375 9.234375 16.796875 8.0625 
Q 21.484375 6.890625 26.703125 6.890625 
Q 35.15625 6.890625 40.078125 11.328125 
Q 45.015625 15.765625 45.015625 23.390625 
Q 45.015625 31 40.078125 35.4375 
Q 35.15625 39.890625 26.703125 39.890625 
Q 22.75 39.890625 18.8125 39.015625 
Q 14.890625 38.140625 10.796875 36.28125 
z
" id="DejaVuSans-53"/>
       </defs>
       <use xlink:href="#DejaVuSans-50"/>
       <use x="63.623047" xlink:href="#DejaVuSans-48"/>
       <use x="127.246094" xlink:href="#DejaVuSans-50"/>
       <use x="190.869141" xlink:href="#DejaVuSans-48"/>
       <use x="254.492188" xlink:href="#DejaVuSans-45"/>
       <use x="290.576172" xlink:href="#DejaVuSans-48"/>
       <use x="354.199219" xlink:href="#DejaVuSans-53"/>
      </g>
     </g>
    </g>
    <g id="xtick_3">
     <g id="line2d_5">
      <path clip-path="url(#pddcd702f7f)" d="M 174.91734 242.118437 
L 174.91734 17.798437 
" style="fill:none;stroke:#b0b0b0;stroke-linecap:square;stroke-width:0.8;"/>
     </g>
     <g id="line2d_6">
      <g>
       <use style="stroke:#000000;stroke-width:0.8;" x="174.91734" xlink:href="#m2836b323d7" y="242.118437"/>
      </g>
     </g>
     <g id="text_3">
      <!-- 2020-07 -->
      <g transform="translate(154.025934 256.716875)scale(0.1 -0.1)">
       <defs>
        <path d="M 8.203125 72.90625 
L 55.078125 72.90625 
L 55.078125 68.703125 
L 28.609375 0 
L 18.3125 0 
L 43.21875 64.59375 
L 8.203125 64.59375 
z
" id="DejaVuSans-55"/>
       </defs>
       <use xlink:href="#DejaVuSans-50"/>
       <use x="63.623047" xlink:href="#DejaVuSans-48"/>
       <use x="127.246094" xlink:href="#DejaVuSans-50"/>
       <use x="190.869141" xlink:href="#DejaVuSans-48"/>
       <use x="254.492188" xlink:href="#DejaVuSans-45"/>
       <use x="290.576172" xlink:href="#DejaVuSans-48"/>
       <use x="354.199219" xlink:href="#DejaVuSans-55"/>
      </g>
     </g>
    </g>
    <g id="xtick_4">
     <g id="line2d_7">
      <path clip-path="url(#pddcd702f7f)" d="M 220.187037 242.118437 
L 220.187037 17.798437 
" style="fill:none;stroke:#b0b0b0;stroke-linecap:square;stroke-width:0.8;"/>
     </g>
     <g id="line2d_8">
      <g>
       <use style="stroke:#000000;stroke-width:0.8;" x="220.187037" xlink:href="#m2836b323d7" y="242.118437"/>
      </g>
     </g>
     <g id="text_4">
      <!-- 2020-09 -->
      <g transform="translate(199.295631 256.716875)scale(0.1 -0.1)">
       <defs>
        <path d="M 10.984375 1.515625 
L 10.984375 10.5 
Q 14.703125 8.734375 18.5 7.8125 
Q 22.3125 6.890625 25.984375 6.890625 
Q 35.75 6.890625 40.890625 13.453125 
Q 46.046875 20.015625 46.78125 33.40625 
Q 43.953125 29.203125 39.59375 26.953125 
Q 35.25 24.703125 29.984375 24.703125 
Q 19.046875 24.703125 12.671875 31.3125 
Q 6.296875 37.9375 6.296875 49.421875 
Q 6.296875 60.640625 12.9375 67.421875 
Q 19.578125 74.21875 30.609375 74.21875 
Q 43.265625 74.21875 49.921875 64.515625 
Q 56.59375 54.828125 56.59375 36.375 
Q 56.59375 19.140625 48.40625 8.859375 
Q 40.234375 -1.421875 26.421875 -1.421875 
Q 22.703125 -1.421875 18.890625 -0.6875 
Q 15.09375 0.046875 10.984375 1.515625 
z
M 30.609375 32.421875 
Q 37.25 32.421875 41.125 36.953125 
Q 45.015625 41.5 45.015625 49.421875 
Q 45.015625 57.28125 41.125 61.84375 
Q 37.25 66.40625 30.609375 66.40625 
Q 23.96875 66.40625 20.09375 61.84375 
Q 16.21875 57.28125 16.21875 49.421875 
Q 16.21875 41.5 20.09375 36.953125 
Q 23.96875 32.421875 30.609375 32.421875 
z
" id="DejaVuSans-57"/>
       </defs>
       <use xlink:href="#DejaVuSans-50"/>
       <use x="63.623047" xlink:href="#DejaVuSans-48"/>
       <use x="127.246094" xlink:href="#DejaVuSans-50"/>
       <use x="190.869141" xlink:href="#DejaVuSans-48"/>
       <use x="254.492188" xlink:href="#DejaVuSans-45"/>
       <use x="290.576172" xlink:href="#DejaVuSans-48"/>
       <use x="354.199219" xlink:href="#DejaVuSans-57"/>
      </g>
     </g>
    </g>
    <g id="xtick_5">
     <g id="line2d_9">
      <path clip-path="url(#pddcd702f7f)" d="M 264.726577 242.118437 
L 264.726577 17.798437 
" style="fill:none;stroke:#b0b0b0;stroke-linecap:square;stroke-width:0.8;"/>
     </g>
     <g id="line2d_10">
      <g>
       <use style="stroke:#000000;stroke-width:0.8;" x="264.726577" xlink:href="#m2836b323d7" y="242.118437"/>
      </g>
     </g>
     <g id="text_5">
      <!-- 2020-11 -->
      <g transform="translate(243.835171 256.716875)scale(0.1 -0.1)">
       <defs>
        <path d="M 12.40625 8.296875 
L 28.515625 8.296875 
L 28.515625 63.921875 
L 10.984375 60.40625 
L 10.984375 69.390625 
L 28.421875 72.90625 
L 38.28125 72.90625 
L 38.28125 8.296875 
L 54.390625 8.296875 
L 54.390625 0 
L 12.40625 0 
z
" id="DejaVuSans-49"/>
       </defs>
       <use xlink:href="#DejaVuSans-50"/>
       <use x="63.623047" xlink:href="#DejaVuSans-48"/>
       <use x="127.246094" xlink:href="#DejaVuSans-50"/>
       <use x="190.869141" xlink:href="#DejaVuSans-48"/>
       <use x="254.492188" xlink:href="#DejaVuSans-45"/>
       <use x="290.576172" xlink:href="#DejaVuSans-49"/>
       <use x="354.199219" xlink:href="#DejaVuSans-49"/>
      </g>
     </g>
    </g>
    <g id="xtick_6">
     <g id="line2d_11">
      <path clip-path="url(#pddcd702f7f)" d="M 309.266118 242.118437 
L 309.266118 17.798437 
" style="fill:none;stroke:#b0b0b0;stroke-linecap:square;stroke-width:0.8;"/>
     </g>
     <g id="line2d_12">
      <g>
       <use style="stroke:#000000;stroke-width:0.8;" x="309.266118" xlink:href="#m2836b323d7" y="242.118437"/>
      </g>
     </g>
     <g id="text_6">
      <!-- 2021-01 -->
      <g transform="translate(288.374712 256.716875)scale(0.1 -0.1)">
       <use xlink:href="#DejaVuSans-50"/>
       <use x="63.623047" xlink:href="#DejaVuSans-48"/>
       <use x="127.246094" xlink:href="#DejaVuSans-50"/>
       <use x="190.869141" xlink:href="#DejaVuSans-49"/>
       <use x="254.492188" xlink:href="#DejaVuSans-45"/>
       <use x="290.576172" xlink:href="#DejaVuSans-48"/>
       <use x="354.199219" xlink:href="#DejaVuSans-49"/>
      </g>
     </g>
    </g>
    <g id="text_7">
     <!-- Datum -->
     <g transform="translate(176.257969 270.395)scale(0.1 -0.1)">
      <defs>
       <path d="M 19.671875 64.796875 
L 19.671875 8.109375 
L 31.59375 8.109375 
Q 46.6875 8.109375 53.6875 14.9375 
Q 60.6875 21.78125 60.6875 36.53125 
Q 60.6875 51.171875 53.6875 57.984375 
Q 46.6875 64.796875 31.59375 64.796875 
z
M 9.8125 72.90625 
L 30.078125 72.90625 
Q 51.265625 72.90625 61.171875 64.09375 
Q 71.09375 55.28125 71.09375 36.53125 
Q 71.09375 17.671875 61.125 8.828125 
Q 51.171875 0 30.078125 0 
L 9.8125 0 
z
" id="DejaVuSans-68"/>
       <path d="M 34.28125 27.484375 
Q 23.390625 27.484375 19.1875 25 
Q 14.984375 22.515625 14.984375 16.5 
Q 14.984375 11.71875 18.140625 8.90625 
Q 21.296875 6.109375 26.703125 6.109375 
Q 34.1875 6.109375 38.703125 11.40625 
Q 43.21875 16.703125 43.21875 25.484375 
L 43.21875 27.484375 
z
M 52.203125 31.203125 
L 52.203125 0 
L 43.21875 0 
L 43.21875 8.296875 
Q 40.140625 3.328125 35.546875 0.953125 
Q 30.953125 -1.421875 24.3125 -1.421875 
Q 15.921875 -1.421875 10.953125 3.296875 
Q 6 8.015625 6 15.921875 
Q 6 25.140625 12.171875 29.828125 
Q 18.359375 34.515625 30.609375 34.515625 
L 43.21875 34.515625 
L 43.21875 35.40625 
Q 43.21875 41.609375 39.140625 45 
Q 35.0625 48.390625 27.6875 48.390625 
Q 23 48.390625 18.546875 47.265625 
Q 14.109375 46.140625 10.015625 43.890625 
L 10.015625 52.203125 
Q 14.9375 54.109375 19.578125 55.046875 
Q 24.21875 56 28.609375 56 
Q 40.484375 56 46.34375 49.84375 
Q 52.203125 43.703125 52.203125 31.203125 
z
" id="DejaVuSans-97"/>
       <path d="M 18.3125 70.21875 
L 18.3125 54.6875 
L 36.8125 54.6875 
L 36.8125 47.703125 
L 18.3125 47.703125 
L 18.3125 18.015625 
Q 18.3125 11.328125 20.140625 9.421875 
Q 21.96875 7.515625 27.59375 7.515625 
L 36.8125 7.515625 
L 36.8125 0 
L 27.59375 0 
Q 17.1875 0 13.234375 3.875 
Q 9.28125 7.765625 9.28125 18.015625 
L 9.28125 47.703125 
L 2.6875 47.703125 
L 2.6875 54.6875 
L 9.28125 54.6875 
L 9.28125 70.21875 
z
" id="DejaVuSans-116"/>
       <path d="M 8.5 21.578125 
L 8.5 54.6875 
L 17.484375 54.6875 
L 17.484375 21.921875 
Q 17.484375 14.15625 20.5 10.265625 
Q 23.53125 6.390625 29.59375 6.390625 
Q 36.859375 6.390625 41.078125 11.03125 
Q 45.3125 15.671875 45.3125 23.6875 
L 45.3125 54.6875 
L 54.296875 54.6875 
L 54.296875 0 
L 45.3125 0 
L 45.3125 8.40625 
Q 42.046875 3.421875 37.71875 1 
Q 33.40625 -1.421875 27.6875 -1.421875 
Q 18.265625 -1.421875 13.375 4.4375 
Q 8.5 10.296875 8.5 21.578125 
z
M 31.109375 56 
z
" id="DejaVuSans-117"/>
       <path d="M 52 44.1875 
Q 55.375 50.25 60.0625 53.125 
Q 64.75 56 71.09375 56 
Q 79.640625 56 84.28125 50.015625 
Q 88.921875 44.046875 88.921875 33.015625 
L 88.921875 0 
L 79.890625 0 
L 79.890625 32.71875 
Q 79.890625 40.578125 77.09375 44.375 
Q 74.3125 48.1875 68.609375 48.1875 
Q 61.625 48.1875 57.5625 43.546875 
Q 53.515625 38.921875 53.515625 30.90625 
L 53.515625 0 
L 44.484375 0 
L 44.484375 32.71875 
Q 44.484375 40.625 41.703125 44.40625 
Q 38.921875 48.1875 33.109375 48.1875 
Q 26.21875 48.1875 22.15625 43.53125 
Q 18.109375 38.875 18.109375 30.90625 
L 18.109375 0 
L 9.078125 0 
L 9.078125 54.6875 
L 18.109375 54.6875 
L 18.109375 46.1875 
Q 21.1875 51.21875 25.484375 53.609375 
Q 29.78125 56 35.6875 56 
Q 41.65625 56 45.828125 52.96875 
Q 50 49.953125 52 44.1875 
z
" id="DejaVuSans-109"/>
      </defs>
      <use xlink:href="#DejaVuSans-68"/>
      <use x="77.001953" xlink:href="#DejaVuSans-97"/>
      <use x="138.28125" xlink:href="#DejaVuSans-116"/>
      <use x="177.490234" xlink:href="#DejaVuSans-117"/>
      <use x="240.869141" xlink:href="#DejaVuSans-109"/>
     </g>
    </g>
   </g>
   <g id="matplotlib.axis_2">
    <g id="ytick_1">
     <g id="line2d_13">
      <path clip-path="url(#pddcd702f7f)" d="M 43.78125 231.922074 
L 342.56125 231.922074 
" style="fill:none;stroke:#b0b0b0;stroke-linecap:square;stroke-width:0.8;"/>
     </g>
     <g id="line2d_14">
      <defs>
       <path d="M 0 0 
L -3.5 0 
" id="mcf6a5decae" style="stroke:#000000;stroke-width:0.8;"/>
      </defs>
      <g>
       <use style="stroke:#000000;stroke-width:0.8;" x="43.78125" xlink:href="#mcf6a5decae" y="231.922074"/>
      </g>
     </g>
     <g id="text_8">
      <!-- 0.0 -->
      <g transform="translate(20.878125 235.721293)scale(0.1 -0.1)">
       <defs>
        <path d="M 10.6875 12.40625 
L 21 12.40625 
L 21 0 
L 10.6875 0 
z
" id="DejaVuSans-46"/>
       </defs>
       <use xlink:href="#DejaVuSans-48"/>
       <use x="63.623047" xlink:href="#DejaVuSans-46"/>
       <use x="95.410156" xlink:href="#DejaVuSans-48"/>
      </g>
     </g>
    </g>
    <g id="ytick_2">
     <g id="line2d_15">
      <path clip-path="url(#pddcd702f7f)" d="M 43.78125 185.460121 
L 342.56125 185.460121 
" style="fill:none;stroke:#b0b0b0;stroke-linecap:square;stroke-width:0.8;"/>
     </g>
     <g id="line2d_16">
      <g>
       <use style="stroke:#000000;stroke-width:0.8;" x="43.78125" xlink:href="#mcf6a5decae" y="185.460121"/>
      </g>
     </g>
     <g id="text_9">
      <!-- 0.5 -->
      <g transform="translate(20.878125 189.25934)scale(0.1 -0.1)">
       <use xlink:href="#DejaVuSans-48"/>
       <use x="63.623047" xlink:href="#DejaVuSans-46"/>
       <use x="95.410156" xlink:href="#DejaVuSans-53"/>
      </g>
     </g>
    </g>
    <g id="ytick_3">
     <g id="line2d_17">
      <path clip-path="url(#pddcd702f7f)" d="M 43.78125 138.998168 
L 342.56125 138.998168 
" style="fill:none;stroke:#b0b0b0;stroke-linecap:square;stroke-width:0.8;"/>
     </g>
     <g id="line2d_18">
      <g>
       <use style="stroke:#000000;stroke-width:0.8;" x="43.78125" xlink:href="#mcf6a5decae" y="138.998168"/>
      </g>
     </g>
     <g id="text_10">
      <!-- 1.0 -->
      <g transform="translate(20.878125 142.797387)scale(0.1 -0.1)">
       <use xlink:href="#DejaVuSans-49"/>
       <use x="63.623047" xlink:href="#DejaVuSans-46"/>
       <use x="95.410156" xlink:href="#DejaVuSans-48"/>
      </g>
     </g>
    </g>
    <g id="ytick_4">
     <g id="line2d_19">
      <path clip-path="url(#pddcd702f7f)" d="M 43.78125 92.536215 
L 342.56125 92.536215 
" style="fill:none;stroke:#b0b0b0;stroke-linecap:square;stroke-width:0.8;"/>
     </g>
     <g id="line2d_20">
      <g>
       <use style="stroke:#000000;stroke-width:0.8;" x="43.78125" xlink:href="#mcf6a5decae" y="92.536215"/>
      </g>
     </g>
     <g id="text_11">
      <!-- 1.5 -->
      <g transform="translate(20.878125 96.335434)scale(0.1 -0.1)">
       <use xlink:href="#DejaVuSans-49"/>
       <use x="63.623047" xlink:href="#DejaVuSans-46"/>
       <use x="95.410156" xlink:href="#DejaVuSans-53"/>
      </g>
     </g>
    </g>
    <g id="ytick_5">
     <g id="line2d_21">
      <path clip-path="url(#pddcd702f7f)" d="M 43.78125 46.074262 
L 342.56125 46.074262 
" style="fill:none;stroke:#b0b0b0;stroke-linecap:square;stroke-width:0.8;"/>
     </g>
     <g id="line2d_22">
      <g>
       <use style="stroke:#000000;stroke-width:0.8;" x="43.78125" xlink:href="#mcf6a5decae" y="46.074262"/>
      </g>
     </g>
     <g id="text_12">
      <!-- 2.0 -->
      <g transform="translate(20.878125 49.873481)scale(0.1 -0.1)">
       <use xlink:href="#DejaVuSans-50"/>
       <use x="63.623047" xlink:href="#DejaVuSans-46"/>
       <use x="95.410156" xlink:href="#DejaVuSans-48"/>
      </g>
     </g>
    </g>
    <g id="text_13">
     <!-- Fälle kumuliert -->
     <g transform="translate(14.798438 166.702969)rotate(-90)scale(0.1 -0.1)">
      <defs>
       <path d="M 9.8125 72.90625 
L 51.703125 72.90625 
L 51.703125 64.59375 
L 19.671875 64.59375 
L 19.671875 43.109375 
L 48.578125 43.109375 
L 48.578125 34.8125 
L 19.671875 34.8125 
L 19.671875 0 
L 9.8125 0 
z
" id="DejaVuSans-70"/>
       <path d="M 34.28125 27.484375 
Q 23.390625 27.484375 19.1875 25 
Q 14.984375 22.515625 14.984375 16.5 
Q 14.984375 11.71875 18.140625 8.90625 
Q 21.296875 6.109375 26.703125 6.109375 
Q 34.1875 6.109375 38.703125 11.40625 
Q 43.21875 16.703125 43.21875 25.484375 
L 43.21875 27.484375 
z
M 52.203125 31.203125 
L 52.203125 0 
L 43.21875 0 
L 43.21875 8.296875 
Q 40.140625 3.328125 35.546875 0.953125 
Q 30.953125 -1.421875 24.3125 -1.421875 
Q 15.921875 -1.421875 10.953125 3.296875 
Q 6 8.015625 6 15.921875 
Q 6 25.140625 12.171875 29.828125 
Q 18.359375 34.515625 30.609375 34.515625 
L 43.21875 34.515625 
L 43.21875 35.40625 
Q 43.21875 41.609375 39.140625 45 
Q 35.0625 48.390625 27.6875 48.390625 
Q 23 48.390625 18.546875 47.265625 
Q 14.109375 46.140625 10.015625 43.890625 
L 10.015625 52.203125 
Q 14.9375 54.109375 19.578125 55.046875 
Q 24.21875 56 28.609375 56 
Q 40.484375 56 46.34375 49.84375 
Q 52.203125 43.703125 52.203125 31.203125 
z
M 33.59375 75.78125 
L 43.5 75.78125 
L 43.5 65.921875 
L 33.59375 65.921875 
z
M 14.5 75.78125 
L 24.421875 75.78125 
L 24.421875 65.921875 
L 14.5 65.921875 
z
" id="DejaVuSans-228"/>
       <path d="M 9.421875 75.984375 
L 18.40625 75.984375 
L 18.40625 0 
L 9.421875 0 
z
" id="DejaVuSans-108"/>
       <path d="M 56.203125 29.59375 
L 56.203125 25.203125 
L 14.890625 25.203125 
Q 15.484375 15.921875 20.484375 11.0625 
Q 25.484375 6.203125 34.421875 6.203125 
Q 39.59375 6.203125 44.453125 7.46875 
Q 49.3125 8.734375 54.109375 11.28125 
L 54.109375 2.78125 
Q 49.265625 0.734375 44.1875 -0.34375 
Q 39.109375 -1.421875 33.890625 -1.421875 
Q 20.796875 -1.421875 13.15625 6.1875 
Q 5.515625 13.8125 5.515625 26.8125 
Q 5.515625 40.234375 12.765625 48.109375 
Q 20.015625 56 32.328125 56 
Q 43.359375 56 49.78125 48.890625 
Q 56.203125 41.796875 56.203125 29.59375 
z
M 47.21875 32.234375 
Q 47.125 39.59375 43.09375 43.984375 
Q 39.0625 48.390625 32.421875 48.390625 
Q 24.90625 48.390625 20.390625 44.140625 
Q 15.875 39.890625 15.1875 32.171875 
z
" id="DejaVuSans-101"/>
       <path id="DejaVuSans-32"/>
       <path d="M 9.078125 75.984375 
L 18.109375 75.984375 
L 18.109375 31.109375 
L 44.921875 54.6875 
L 56.390625 54.6875 
L 27.390625 29.109375 
L 57.625 0 
L 45.90625 0 
L 18.109375 26.703125 
L 18.109375 0 
L 9.078125 0 
z
" id="DejaVuSans-107"/>
       <path d="M 9.421875 54.6875 
L 18.40625 54.6875 
L 18.40625 0 
L 9.421875 0 
z
M 9.421875 75.984375 
L 18.40625 75.984375 
L 18.40625 64.59375 
L 9.421875 64.59375 
z
" id="DejaVuSans-105"/>
       <path d="M 41.109375 46.296875 
Q 39.59375 47.171875 37.8125 47.578125 
Q 36.03125 48 33.890625 48 
Q 26.265625 48 22.1875 43.046875 
Q 18.109375 38.09375 18.109375 28.8125 
L 18.109375 0 
L 9.078125 0 
L 9.078125 54.6875 
L 18.109375 54.6875 
L 18.109375 46.1875 
Q 20.953125 51.171875 25.484375 53.578125 
Q 30.03125 56 36.53125 56 
Q 37.453125 56 38.578125 55.875 
Q 39.703125 55.765625 41.0625 55.515625 
z
" id="DejaVuSans-114"/>
      </defs>
      <use xlink:href="#DejaVuSans-70"/>
      <use x="48.394531" xlink:href="#DejaVuSans-228"/>
      <use x="109.673828" xlink:href="#DejaVuSans-108"/>
      <use x="137.457031" xlink:href="#DejaVuSans-108"/>
      <use x="165.240234" xlink:href="#DejaVuSans-101"/>
      <use x="226.763672" xlink:href="#DejaVuSans-32"/>
      <use x="258.550781" xlink:href="#DejaVuSans-107"/>
      <use x="313.335938" xlink:href="#DejaVuSans-117"/>
      <use x="376.714844" xlink:href="#DejaVuSans-109"/>
      <use x="474.126953" xlink:href="#DejaVuSans-117"/>
      <use x="537.505859" xlink:href="#DejaVuSans-108"/>
      <use x="565.289062" xlink:href="#DejaVuSans-105"/>
      <use x="593.072266" xlink:href="#DejaVuSans-101"/>
      <use x="654.595703" xlink:href="#DejaVuSans-114"/>
      <use x="695.708984" xlink:href="#DejaVuSans-116"/>
     </g>
    </g>
    <g id="text_14">
     <!-- 1e6 -->
     <g transform="translate(43.78125 14.798437)scale(0.1 -0.1)">
      <defs>
       <path d="M 33.015625 40.375 
Q 26.375 40.375 22.484375 35.828125 
Q 18.609375 31.296875 18.609375 23.390625 
Q 18.609375 15.53125 22.484375 10.953125 
Q 26.375 6.390625 33.015625 6.390625 
Q 39.65625 6.390625 43.53125 10.953125 
Q 47.40625 15.53125 47.40625 23.390625 
Q 47.40625 31.296875 43.53125 35.828125 
Q 39.65625 40.375 33.015625 40.375 
z
M 52.59375 71.296875 
L 52.59375 62.3125 
Q 48.875 64.0625 45.09375 64.984375 
Q 41.3125 65.921875 37.59375 65.921875 
Q 27.828125 65.921875 22.671875 59.328125 
Q 17.53125 52.734375 16.796875 39.40625 
Q 19.671875 43.65625 24.015625 45.921875 
Q 28.375 48.1875 33.59375 48.1875 
Q 44.578125 48.1875 50.953125 41.515625 
Q 57.328125 34.859375 57.328125 23.390625 
Q 57.328125 12.15625 50.6875 5.359375 
Q 44.046875 -1.421875 33.015625 -1.421875 
Q 20.359375 -1.421875 13.671875 8.265625 
Q 6.984375 17.96875 6.984375 36.375 
Q 6.984375 53.65625 15.1875 63.9375 
Q 23.390625 74.21875 37.203125 74.21875 
Q 40.921875 74.21875 44.703125 73.484375 
Q 48.484375 72.75 52.59375 71.296875 
z
" id="DejaVuSans-54"/>
      </defs>
      <use xlink:href="#DejaVuSans-49"/>
      <use x="63.623047" xlink:href="#DejaVuSans-101"/>
      <use x="125.146484" xlink:href="#DejaVuSans-54"/>
     </g>
    </g>
   </g>
   <g id="line2d_23">
    <path clip-path="url(#pddcd702f7f)" d="M 57.362159 231.922074 
L 91.67951 231.812795 
L 93.869979 231.728978 
L 98.250918 230.776601 
L 98.981074 230.49848 
L 99.71123 230.07772 
L 101.171543 229.610778 
L 103.362012 228.453875 
L 105.552482 226.560829 
L 107.742951 225.249394 
L 110.663576 222.99283 
L 113.584202 221.394167 
L 115.044515 220.569467 
L 117.234984 219.835276 
L 117.965141 219.715683 
L 120.15561 218.782912 
L 126.727017 217.261469 
L 128.917487 216.911239 
L 131.107956 216.592696 
L 134.758738 216.177976 
L 136.949207 215.950406 
L 146.44124 215.197072 
L 166.88562 214.204273 
L 173.457027 213.798009 
L 191.710937 212.814782 
L 201.20297 211.93981 
L 202.663283 211.7666 
L 204.123596 211.617457 
L 209.234691 210.856224 
L 217.996568 209.356897 
L 219.45688 209.174116 
L 226.028288 208.093318 
L 228.218757 207.68594 
L 229.67907 207.462458 
L 241.361573 204.703454 
L 243.552042 204.042393 
L 244.282198 203.898733 
L 246.472667 203.010009 
L 247.93298 202.140427 
L 249.393293 201.600167 
L 250.123449 200.992352 
L 250.853606 200.577539 
L 253.774231 198.036071 
L 254.504388 197.663725 
L 255.964701 196.091452 
L 256.694857 194.945607 
L 257.425013 194.392524 
L 258.15517 193.140282 
L 260.345639 190.082342 
L 261.075795 188.85937 
L 262.536108 185.613074 
L 263.266265 183.812023 
L 264.726577 181.339317 
L 265.456734 178.992803 
L 266.18689 178.292807 
L 266.917047 175.367563 
L 268.377359 171.150583 
L 269.837672 168.489986 
L 270.567829 167.883936 
L 272.028141 163.335496 
L 273.488454 158.968166 
L 274.218611 157.60776 
L 274.948767 157.309195 
L 275.678924 155.954365 
L 277.139236 151.312072 
L 278.599549 146.978659 
L 279.329706 145.689618 
L 280.059862 145.282891 
L 281.520175 142.418511 
L 282.250331 139.381107 
L 283.710644 135.406752 
L 284.4408 134.12022 
L 285.170957 133.823143 
L 285.901113 132.501672 
L 288.091582 125.845347 
L 288.821739 124.361352 
L 289.551895 121.933622 
L 290.282052 120.919822 
L 291.012208 120.412829 
L 293.932834 109.791348 
L 294.66299 107.76635 
L 295.393146 106.399533 
L 296.123303 105.80008 
L 298.313772 96.809878 
L 299.043928 93.759187 
L 299.774085 91.744689 
L 300.504241 91.145888 
L 301.234398 89.356545 
L 302.69471 82.860142 
L 303.424867 80.400725 
L 304.155023 80.201867 
L 306.345492 76.493553 
L 307.075649 74.684696 
L 307.805805 70.127336 
L 308.535962 68.327679 
L 309.266118 68.130959 
L 311.456587 65.010667 
L 312.186744 63.305607 
L 312.9169 60.827976 
L 313.647056 56.615457 
L 314.377213 54.842748 
L 315.107369 52.721852 
L 315.837526 52.633761 
L 316.567682 51.545993 
L 318.027995 46.641841 
L 318.758151 44.658566 
L 319.488308 43.860071 
L 320.218464 42.483218 
L 320.94862 41.41608 
L 321.678777 40.556255 
L 322.408933 39.419517 
L 323.13909 36.724445 
L 323.869246 35.955313 
L 324.599402 34.434521 
L 325.329559 33.279477 
L 326.059715 32.342989 
L 326.789872 31.703023 
L 327.520028 30.830746 
L 328.980341 27.994801 
L 328.980341 27.994801 
" style="fill:none;stroke:#1f77b4;stroke-linecap:square;stroke-width:1.5;"/>
   </g>
   <g id="patch_3">
    <path d="M 43.78125 242.118437 
L 43.78125 17.798437 
" style="fill:none;stroke:#000000;stroke-linecap:square;stroke-linejoin:miter;stroke-width:0.8;"/>
   </g>
   <g id="patch_4">
    <path d="M 342.56125 242.118437 
L 342.56125 17.798437 
" style="fill:none;stroke:#000000;stroke-linecap:square;stroke-linejoin:miter;stroke-width:0.8;"/>
   </g>
   <g id="patch_5">
    <path d="M 43.78125 242.118437 
L 342.56125 242.118437 
" style="fill:none;stroke:#000000;stroke-linecap:square;stroke-linejoin:miter;stroke-width:0.8;"/>
   </g>
   <g id="patch_6">
    <path d="M 43.78125 17.798437 
L 342.56125 17.798437 
" style="fill:none;stroke:#000000;stroke-linecap:square;stroke-linejoin:miter;stroke-width:0.8;"/>
   </g>
  </g>
  <g id="axes_2">
   <g id="patch_7">
    <path d="M 406.39125 242.118437 
L 705.17125 242.118437 
L 705.17125 17.798437 
L 406.39125 17.798437 
z
" style="fill:#ffffff;"/>
   </g>
   <g id="matplotlib.axis_3">
    <g id="xtick_7">
     <g id="line2d_24">
      <path clip-path="url(#p8d92e0a17c)" d="M 448.448259 242.118437 
L 448.448259 17.798437 
" style="fill:none;stroke:#b0b0b0;stroke-linecap:square;stroke-width:0.8;"/>
     </g>
     <g id="line2d_25">
      <g>
       <use style="stroke:#000000;stroke-width:0.8;" x="448.448259" xlink:href="#m2836b323d7" y="242.118437"/>
      </g>
     </g>
     <g id="text_15">
      <!-- 2020-03 -->
      <g transform="translate(427.556853 256.716875)scale(0.1 -0.1)">
       <use xlink:href="#DejaVuSans-50"/>
       <use x="63.623047" xlink:href="#DejaVuSans-48"/>
       <use x="127.246094" xlink:href="#DejaVuSans-50"/>
       <use x="190.869141" xlink:href="#DejaVuSans-48"/>
       <use x="254.492188" xlink:href="#DejaVuSans-45"/>
       <use x="290.576172" xlink:href="#DejaVuSans-48"/>
       <use x="354.199219" xlink:href="#DejaVuSans-51"/>
      </g>
     </g>
    </g>
    <g id="xtick_8">
     <g id="line2d_26">
      <path clip-path="url(#p8d92e0a17c)" d="M 492.987799 242.118437 
L 492.987799 17.798437 
" style="fill:none;stroke:#b0b0b0;stroke-linecap:square;stroke-width:0.8;"/>
     </g>
     <g id="line2d_27">
      <g>
       <use style="stroke:#000000;stroke-width:0.8;" x="492.987799" xlink:href="#m2836b323d7" y="242.118437"/>
      </g>
     </g>
     <g id="text_16">
      <!-- 2020-05 -->
      <g transform="translate(472.096393 256.716875)scale(0.1 -0.1)">
       <use xlink:href="#DejaVuSans-50"/>
       <use x="63.623047" xlink:href="#DejaVuSans-48"/>
       <use x="127.246094" xlink:href="#DejaVuSans-50"/>
       <use x="190.869141" xlink:href="#DejaVuSans-48"/>
       <use x="254.492188" xlink:href="#DejaVuSans-45"/>
       <use x="290.576172" xlink:href="#DejaVuSans-48"/>
       <use x="354.199219" xlink:href="#DejaVuSans-53"/>
      </g>
     </g>
    </g>
    <g id="xtick_9">
     <g id="line2d_28">
      <path clip-path="url(#p8d92e0a17c)" d="M 537.52734 242.118437 
L 537.52734 17.798437 
" style="fill:none;stroke:#b0b0b0;stroke-linecap:square;stroke-width:0.8;"/>
     </g>
     <g id="line2d_29">
      <g>
       <use style="stroke:#000000;stroke-width:0.8;" x="537.52734" xlink:href="#m2836b323d7" y="242.118437"/>
      </g>
     </g>
     <g id="text_17">
      <!-- 2020-07 -->
      <g transform="translate(516.635934 256.716875)scale(0.1 -0.1)">
       <use xlink:href="#DejaVuSans-50"/>
       <use x="63.623047" xlink:href="#DejaVuSans-48"/>
       <use x="127.246094" xlink:href="#DejaVuSans-50"/>
       <use x="190.869141" xlink:href="#DejaVuSans-48"/>
       <use x="254.492188" xlink:href="#DejaVuSans-45"/>
       <use x="290.576172" xlink:href="#DejaVuSans-48"/>
       <use x="354.199219" xlink:href="#DejaVuSans-55"/>
      </g>
     </g>
    </g>
    <g id="xtick_10">
     <g id="line2d_30">
      <path clip-path="url(#p8d92e0a17c)" d="M 582.797037 242.118437 
L 582.797037 17.798437 
" style="fill:none;stroke:#b0b0b0;stroke-linecap:square;stroke-width:0.8;"/>
     </g>
     <g id="line2d_31">
      <g>
       <use style="stroke:#000000;stroke-width:0.8;" x="582.797037" xlink:href="#m2836b323d7" y="242.118437"/>
      </g>
     </g>
     <g id="text_18">
      <!-- 2020-09 -->
      <g transform="translate(561.905631 256.716875)scale(0.1 -0.1)">
       <use xlink:href="#DejaVuSans-50"/>
       <use x="63.623047" xlink:href="#DejaVuSans-48"/>
       <use x="127.246094" xlink:href="#DejaVuSans-50"/>
       <use x="190.869141" xlink:href="#DejaVuSans-48"/>
       <use x="254.492188" xlink:href="#DejaVuSans-45"/>
       <use x="290.576172" xlink:href="#DejaVuSans-48"/>
       <use x="354.199219" xlink:href="#DejaVuSans-57"/>
      </g>
     </g>
    </g>
    <g id="xtick_11">
     <g id="line2d_32">
      <path clip-path="url(#p8d92e0a17c)" d="M 627.336577 242.118437 
L 627.336577 17.798437 
" style="fill:none;stroke:#b0b0b0;stroke-linecap:square;stroke-width:0.8;"/>
     </g>
     <g id="line2d_33">
      <g>
       <use style="stroke:#000000;stroke-width:0.8;" x="627.336577" xlink:href="#m2836b323d7" y="242.118437"/>
      </g>
     </g>
     <g id="text_19">
      <!-- 2020-11 -->
      <g transform="translate(606.445171 256.716875)scale(0.1 -0.1)">
       <use xlink:href="#DejaVuSans-50"/>
       <use x="63.623047" xlink:href="#DejaVuSans-48"/>
       <use x="127.246094" xlink:href="#DejaVuSans-50"/>
       <use x="190.869141" xlink:href="#DejaVuSans-48"/>
       <use x="254.492188" xlink:href="#DejaVuSans-45"/>
       <use x="290.576172" xlink:href="#DejaVuSans-49"/>
       <use x="354.199219" xlink:href="#DejaVuSans-49"/>
      </g>
     </g>
    </g>
    <g id="xtick_12">
     <g id="line2d_34">
      <path clip-path="url(#p8d92e0a17c)" d="M 671.876118 242.118437 
L 671.876118 17.798437 
" style="fill:none;stroke:#b0b0b0;stroke-linecap:square;stroke-width:0.8;"/>
     </g>
     <g id="line2d_35">
      <g>
       <use style="stroke:#000000;stroke-width:0.8;" x="671.876118" xlink:href="#m2836b323d7" y="242.118437"/>
      </g>
     </g>
     <g id="text_20">
      <!-- 2021-01 -->
      <g transform="translate(650.984712 256.716875)scale(0.1 -0.1)">
       <use xlink:href="#DejaVuSans-50"/>
       <use x="63.623047" xlink:href="#DejaVuSans-48"/>
       <use x="127.246094" xlink:href="#DejaVuSans-50"/>
       <use x="190.869141" xlink:href="#DejaVuSans-49"/>
       <use x="254.492188" xlink:href="#DejaVuSans-45"/>
       <use x="290.576172" xlink:href="#DejaVuSans-48"/>
       <use x="354.199219" xlink:href="#DejaVuSans-49"/>
      </g>
     </g>
    </g>
    <g id="text_21">
     <!-- Datum -->
     <g transform="translate(538.867969 270.395)scale(0.1 -0.1)">
      <use xlink:href="#DejaVuSans-68"/>
      <use x="77.001953" xlink:href="#DejaVuSans-97"/>
      <use x="138.28125" xlink:href="#DejaVuSans-116"/>
      <use x="177.490234" xlink:href="#DejaVuSans-117"/>
      <use x="240.869141" xlink:href="#DejaVuSans-109"/>
     </g>
    </g>
   </g>
   <g id="matplotlib.axis_4">
    <g id="ytick_6">
     <g id="line2d_36">
      <path clip-path="url(#p8d92e0a17c)" d="M 406.39125 231.922074 
L 705.17125 231.922074 
" style="fill:none;stroke:#b0b0b0;stroke-linecap:square;stroke-width:0.8;"/>
     </g>
     <g id="line2d_37">
      <g>
       <use style="stroke:#000000;stroke-width:0.8;" x="406.39125" xlink:href="#mcf6a5decae" y="231.922074"/>
      </g>
     </g>
     <g id="text_22">
      <!-- 0 -->
      <g transform="translate(393.02875 235.721293)scale(0.1 -0.1)">
       <use xlink:href="#DejaVuSans-48"/>
      </g>
     </g>
    </g>
    <g id="ytick_7">
     <g id="line2d_38">
      <path clip-path="url(#p8d92e0a17c)" d="M 406.39125 190.341601 
L 705.17125 190.341601 
" style="fill:none;stroke:#b0b0b0;stroke-linecap:square;stroke-width:0.8;"/>
     </g>
     <g id="line2d_39">
      <g>
       <use style="stroke:#000000;stroke-width:0.8;" x="406.39125" xlink:href="#mcf6a5decae" y="190.341601"/>
      </g>
     </g>
     <g id="text_23">
      <!-- 10000 -->
      <g transform="translate(367.57875 194.140819)scale(0.1 -0.1)">
       <use xlink:href="#DejaVuSans-49"/>
       <use x="63.623047" xlink:href="#DejaVuSans-48"/>
       <use x="127.246094" xlink:href="#DejaVuSans-48"/>
       <use x="190.869141" xlink:href="#DejaVuSans-48"/>
       <use x="254.492188" xlink:href="#DejaVuSans-48"/>
      </g>
     </g>
    </g>
    <g id="ytick_8">
     <g id="line2d_40">
      <path clip-path="url(#p8d92e0a17c)" d="M 406.39125 148.761127 
L 705.17125 148.761127 
" style="fill:none;stroke:#b0b0b0;stroke-linecap:square;stroke-width:0.8;"/>
     </g>
     <g id="line2d_41">
      <g>
       <use style="stroke:#000000;stroke-width:0.8;" x="406.39125" xlink:href="#mcf6a5decae" y="148.761127"/>
      </g>
     </g>
     <g id="text_24">
      <!-- 20000 -->
      <g transform="translate(367.57875 152.560346)scale(0.1 -0.1)">
       <use xlink:href="#DejaVuSans-50"/>
       <use x="63.623047" xlink:href="#DejaVuSans-48"/>
       <use x="127.246094" xlink:href="#DejaVuSans-48"/>
       <use x="190.869141" xlink:href="#DejaVuSans-48"/>
       <use x="254.492188" xlink:href="#DejaVuSans-48"/>
      </g>
     </g>
    </g>
    <g id="ytick_9">
     <g id="line2d_42">
      <path clip-path="url(#p8d92e0a17c)" d="M 406.39125 107.180654 
L 705.17125 107.180654 
" style="fill:none;stroke:#b0b0b0;stroke-linecap:square;stroke-width:0.8;"/>
     </g>
     <g id="line2d_43">
      <g>
       <use style="stroke:#000000;stroke-width:0.8;" x="406.39125" xlink:href="#mcf6a5decae" y="107.180654"/>
      </g>
     </g>
     <g id="text_25">
      <!-- 30000 -->
      <g transform="translate(367.57875 110.979873)scale(0.1 -0.1)">
       <use xlink:href="#DejaVuSans-51"/>
       <use x="63.623047" xlink:href="#DejaVuSans-48"/>
       <use x="127.246094" xlink:href="#DejaVuSans-48"/>
       <use x="190.869141" xlink:href="#DejaVuSans-48"/>
       <use x="254.492188" xlink:href="#DejaVuSans-48"/>
      </g>
     </g>
    </g>
    <g id="ytick_10">
     <g id="line2d_44">
      <path clip-path="url(#p8d92e0a17c)" d="M 406.39125 65.600181 
L 705.17125 65.600181 
" style="fill:none;stroke:#b0b0b0;stroke-linecap:square;stroke-width:0.8;"/>
     </g>
     <g id="line2d_45">
      <g>
       <use style="stroke:#000000;stroke-width:0.8;" x="406.39125" xlink:href="#mcf6a5decae" y="65.600181"/>
      </g>
     </g>
     <g id="text_26">
      <!-- 40000 -->
      <g transform="translate(367.57875 69.3994)scale(0.1 -0.1)">
       <defs>
        <path d="M 37.796875 64.3125 
L 12.890625 25.390625 
L 37.796875 25.390625 
z
M 35.203125 72.90625 
L 47.609375 72.90625 
L 47.609375 25.390625 
L 58.015625 25.390625 
L 58.015625 17.1875 
L 47.609375 17.1875 
L 47.609375 0 
L 37.796875 0 
L 37.796875 17.1875 
L 4.890625 17.1875 
L 4.890625 26.703125 
z
" id="DejaVuSans-52"/>
       </defs>
       <use xlink:href="#DejaVuSans-52"/>
       <use x="63.623047" xlink:href="#DejaVuSans-48"/>
       <use x="127.246094" xlink:href="#DejaVuSans-48"/>
       <use x="190.869141" xlink:href="#DejaVuSans-48"/>
       <use x="254.492188" xlink:href="#DejaVuSans-48"/>
      </g>
     </g>
    </g>
    <g id="ytick_11">
     <g id="line2d_46">
      <path clip-path="url(#p8d92e0a17c)" d="M 406.39125 24.019708 
L 705.17125 24.019708 
" style="fill:none;stroke:#b0b0b0;stroke-linecap:square;stroke-width:0.8;"/>
     </g>
     <g id="line2d_47">
      <g>
       <use style="stroke:#000000;stroke-width:0.8;" x="406.39125" xlink:href="#mcf6a5decae" y="24.019708"/>
      </g>
     </g>
     <g id="text_27">
      <!-- 50000 -->
      <g transform="translate(367.57875 27.818927)scale(0.1 -0.1)">
       <use xlink:href="#DejaVuSans-53"/>
       <use x="63.623047" xlink:href="#DejaVuSans-48"/>
       <use x="127.246094" xlink:href="#DejaVuSans-48"/>
       <use x="190.869141" xlink:href="#DejaVuSans-48"/>
       <use x="254.492188" xlink:href="#DejaVuSans-48"/>
      </g>
     </g>
    </g>
    <g id="text_28">
     <!-- neue Fälle -->
     <g transform="translate(361.499063 155.376406)rotate(-90)scale(0.1 -0.1)">
      <defs>
       <path d="M 54.890625 33.015625 
L 54.890625 0 
L 45.90625 0 
L 45.90625 32.71875 
Q 45.90625 40.484375 42.875 44.328125 
Q 39.84375 48.1875 33.796875 48.1875 
Q 26.515625 48.1875 22.3125 43.546875 
Q 18.109375 38.921875 18.109375 30.90625 
L 18.109375 0 
L 9.078125 0 
L 9.078125 54.6875 
L 18.109375 54.6875 
L 18.109375 46.1875 
Q 21.34375 51.125 25.703125 53.5625 
Q 30.078125 56 35.796875 56 
Q 45.21875 56 50.046875 50.171875 
Q 54.890625 44.34375 54.890625 33.015625 
z
" id="DejaVuSans-110"/>
      </defs>
      <use xlink:href="#DejaVuSans-110"/>
      <use x="63.378906" xlink:href="#DejaVuSans-101"/>
      <use x="124.902344" xlink:href="#DejaVuSans-117"/>
      <use x="188.28125" xlink:href="#DejaVuSans-101"/>
      <use x="249.804688" xlink:href="#DejaVuSans-32"/>
      <use x="281.591797" xlink:href="#DejaVuSans-70"/>
      <use x="329.986328" xlink:href="#DejaVuSans-228"/>
      <use x="391.265625" xlink:href="#DejaVuSans-108"/>
      <use x="419.048828" xlink:href="#DejaVuSans-108"/>
      <use x="446.832031" xlink:href="#DejaVuSans-101"/>
     </g>
    </g>
   </g>
   <g id="line2d_48">
    <path clip-path="url(#p8d92e0a17c)" d="M 419.972159 231.922074 
L 446.987946 231.913758 
L 448.448259 231.710013 
L 449.178415 231.80149 
L 450.638728 231.647643 
L 451.368884 231.007303 
L 452.829197 231.385686 
L 453.559354 230.919984 
L 454.28951 231.356579 
L 455.749823 230.046795 
L 456.479979 231.215206 
L 457.210136 225.281672 
L 457.940292 228.138251 
L 459.400605 225.780638 
L 460.130761 223.66835 
L 460.860918 219.156869 
L 461.591074 219.477038 
L 462.32123 213.094436 
L 463.051387 222.088292 
L 463.781543 220.861668 
L 464.5117 214.528962 
L 465.241856 215.580948 
L 465.972012 213.888623 
L 466.702169 204.416591 
L 467.432325 203.094332 
L 468.162482 203.547559 
L 468.892638 213.626666 
L 469.622794 212.005027 
L 470.352951 211.452007 
L 471.083107 206.707675 
L 471.813264 203.14007 
L 472.54342 205.456103 
L 473.273576 211.410426 
L 474.733889 218.404262 
L 475.464046 214.088209 
L 476.194202 208.499793 
L 476.924359 211.610013 
L 477.654515 215.331465 
L 478.384671 220.541498 
L 479.114828 219.672466 
L 479.844984 222.699525 
L 480.575141 226.570667 
L 481.305297 217.809661 
L 482.035453 219.676625 
L 482.76561 216.541457 
L 483.495766 223.834672 
L 484.225923 224.262951 
L 484.956079 224.100787 
L 485.686235 226.824308 
L 486.416392 222.121556 
L 487.146548 221.605958 
L 487.876705 224.146525 
L 488.606861 225.62679 
L 490.067174 227.813923 
L 490.79733 227.123687 
L 491.527487 225.156931 
L 492.257643 225.809744 
L 492.987799 227.481279 
L 494.448112 229.023915 
L 495.178269 229.892947 
L 495.908425 228.366943 
L 496.638581 227.119529 
L 497.368738 226.64967 
L 498.098894 227.107055 
L 498.829051 228.861751 
L 499.559207 229.614358 
L 500.289363 229.023915 
L 501.01952 229.448036 
L 501.749676 228.067564 
L 502.479833 230.342016 
L 503.209989 228.782748 
L 503.940145 229.764047 
L 504.670302 229.356559 
L 505.400458 231.165309 
L 506.130615 226.82015 
L 506.860771 229.032231 
L 507.590927 229.643464 
L 508.321084 229.057179 
L 509.05124 230.774453 
L 509.781397 230.500022 
L 510.511553 230.791085 
L 511.241709 229.427245 
L 511.971866 230.574867 
L 512.702022 229.127866 
L 513.432179 228.903332 
L 514.162335 230.811875 
L 515.622648 231.156993 
L 516.352804 230.73703 
L 517.082961 230.915826 
L 518.543273 230.042636 
L 519.27343 229.734941 
L 520.003586 230.67466 
L 521.463899 230.271329 
L 522.194055 231.855545 
L 522.924212 231.219364 
L 523.654368 229.697519 
L 524.384525 231.751594 
L 525.114681 230.878404 
L 525.844837 231.240154 
L 526.574994 229.551987 
L 527.30515 230.458441 
L 528.035307 226.878362 
L 528.765463 229.917895 
L 529.49562 230.379438 
L 530.225776 229.418929 
L 530.955932 229.859682 
L 531.686089 228.961544 
L 532.416245 230.296277 
L 533.146402 229.84305 
L 533.876558 229.156972 
L 534.606714 230.167378 
L 535.336871 230.944933 
L 536.067027 230.470915 
L 536.797184 230.358648 
L 537.52734 229.947001 
L 538.257496 229.938685 
L 538.987653 230.217274 
L 539.717809 230.18401 
L 540.447966 230.570708 
L 541.178122 229.67257 
L 541.908278 230.761979 
L 542.638435 230.441809 
L 543.368591 230.666344 
L 544.828904 230.35449 
L 545.55906 231.048884 
L 546.289217 230.836824 
L 547.019373 230.774453 
L 548.479686 229.593567 
L 549.209842 229.448036 
L 549.939999 230.337858 
L 550.670155 230.637237 
L 551.400312 229.468826 
L 552.130468 230.292119 
L 552.860624 229.597725 
L 553.590781 229.406455 
L 554.320937 228.836803 
L 555.051094 229.198553 
L 555.78125 230.304593 
L 556.511406 230.071743 
L 557.241563 229.448036 
L 557.971719 228.433472 
L 558.701876 227.809765 
L 559.432032 228.329521 
L 560.162188 229.402297 
L 560.892345 231.028094 
L 561.622501 228.217254 
L 562.352658 228.940754 
L 563.082814 226.578983 
L 563.81297 228.071722 
L 564.543127 227.111213 
L 565.273283 228.982334 
L 566.00344 230.321226 
L 566.733596 226.849256 
L 567.463752 227.630969 
L 568.193909 226.437609 
L 569.654222 225.643422 
L 570.384378 229.023915 
L 571.114534 229.764047 
L 571.844691 224.8825 
L 572.574847 226.017647 
L 573.305004 225.327411 
L 574.03516 225.327411 
L 574.765316 224.699546 
L 575.495473 228.462578 
L 576.225629 229.29003 
L 576.955786 225.152773 
L 577.685942 225.847167 
L 578.416098 225.98854 
L 579.146255 225.431362 
L 579.876411 225.45631 
L 580.606568 228.974018 
L 581.336724 229.967792 
L 582.06688 225.697477 
L 582.797037 226.878362 
L 583.527193 226.11744 
L 584.987506 225.922012 
L 585.717663 228.699587 
L 586.447819 229.136182 
L 587.177975 224.0301 
L 587.908132 226.387713 
L 588.638288 225.784796 
L 589.368445 224.786865 
L 590.098601 225.327411 
L 590.828757 227.423067 
L 591.558914 228.09667 
L 592.28907 225.747374 
L 593.019227 224.470853 
L 593.749383 224.208896 
L 594.479539 222.861689 
L 595.209696 222.778528 
L 595.939852 224.915764 
L 596.670009 227.626811 
L 597.400165 225.289988 
L 598.130321 224.22137 
L 598.860478 225.215144 
L 599.590634 222.271246 
L 600.320791 222.084134 
L 601.050947 226.4584 
L 601.781103 226.462558 
L 602.51126 222.391829 
L 603.241416 224.271267 
L 603.971573 221.768122 
L 605.431885 220.13401 
L 606.162042 225.048822 
L 606.892198 225.493733 
L 607.622355 219.032127 
L 608.352511 221.718226 
L 609.082667 215.248304 
L 609.812824 211.946815 
L 610.54298 212.986326 
L 611.273137 219.580989 
L 612.003293 220.088271 
L 612.733449 204.724286 
L 613.463606 213.360551 
L 614.193762 202.0964 
L 614.923919 200.237753 
L 615.654075 199.9259 
L 616.384231 211.705648 
L 617.114388 215.260778 
L 617.844544 197.006951 
L 618.574701 196.483037 
L 619.304857 180.649192 
L 620.035013 207.173376 
L 620.76517 175.888228 
L 621.495326 188.437215 
L 622.225483 190.798986 
L 622.955639 179.697 
L 623.685795 177.198013 
L 624.415952 164.553391 
L 625.146108 154.029373 
L 625.876265 151.330801 
L 626.606421 173.484877 
L 627.336577 179.713632 
L 628.066734 126.923063 
L 628.79689 200.599503 
L 629.527047 101.026744 
L 630.257203 138.112368 
L 630.987359 137.035434 
L 631.717516 173.20213 
L 632.447672 171.588807 
L 633.177829 204.803289 
L 633.907985 121.538392 
L 634.638141 138.777656 
L 635.368298 129.060299 
L 636.098454 139.359782 
L 636.828611 171.048261 
L 637.558767 218.562268 
L 639.01908 122.852335 
L 639.749236 133.264085 
L 640.479393 131.958458 
L 641.209549 137.979311 
L 642.669862 213.722301 
L 643.400018 171.8175 
L 644.130175 163.854839 
L 644.860331 96.007981 
L 645.590488 140.648777 
L 646.320644 145.355687 
L 647.0508 174.353909 
L 647.780957 218.628797 
L 649.24127 128.943874 
L 649.971426 135.143523 
L 650.701582 133.82958 
L 651.431739 165.518058 
L 652.161895 123.28893 
L 652.892052 186.557778 
L 653.622208 209.235768 
L 654.352364 110.245135 
L 655.082521 127.600825 
L 655.812677 95.812553 
L 657.27299 141.309907 
L 658.003146 170.761356 
L 658.733303 205.098511 
L 659.463459 91.276123 
L 660.193616 95.770972 
L 660.923772 106.436364 
L 661.653928 95.41338 
L 662.384085 141.779766 
L 663.114241 205.127617 
L 663.844398 151.854715 
L 664.574554 81.596189 
L 665.30471 91.554712 
L 666.034867 121.871035 
L 666.765023 223.023853 
L 667.49518 175.771803 
L 668.225336 180.366445 
L 668.955492 173.692779 
L 669.685649 150.981525 
L 670.415805 27.994801 
L 671.145962 151.393171 
L 671.876118 223.119488 
L 672.606274 186.586884 
L 673.336431 188.861336 
L 674.066587 180.694931 
L 674.796744 155.626064 
L 675.5269 121.056058 
L 676.257056 43.425315 
L 676.987213 152.599005 
L 677.717369 137.018802 
L 678.447526 227.980245 
L 679.177682 183.247972 
L 679.907838 118.781606 
L 680.637995 125.617436 
L 681.368151 143.17687 
L 682.098308 196.191973 
L 682.828464 170.312287 
L 683.55862 184.171058 
L 684.288777 193.447662 
L 685.018933 181.056681 
L 685.74909 111.326227 
L 686.479246 197.505916 
L 687.209402 163.871471 
L 687.939559 180.237546 
L 688.669715 190.017273 
L 689.399872 203.285602 
L 690.130028 192.890484 
L 690.860185 166.906846 
L 691.590341 170.037856 
L 691.590341 170.037856 
" style="fill:none;stroke:#1f77b4;stroke-linecap:square;stroke-width:1.5;"/>
   </g>
   <g id="patch_8">
    <path d="M 406.39125 242.118437 
L 406.39125 17.798438 
" style="fill:none;stroke:#000000;stroke-linecap:square;stroke-linejoin:miter;stroke-width:0.8;"/>
   </g>
   <g id="patch_9">
    <path d="M 705.17125 242.118437 
L 705.17125 17.798438 
" style="fill:none;stroke:#000000;stroke-linecap:square;stroke-linejoin:miter;stroke-width:0.8;"/>
   </g>
   <g id="patch_10">
    <path d="M 406.39125 242.118437 
L 705.17125 242.118437 
" style="fill:none;stroke:#000000;stroke-linecap:square;stroke-linejoin:miter;stroke-width:0.8;"/>
   </g>
   <g id="patch_11">
    <path d="M 406.39125 17.798437 
L 705.17125 17.798437 
" style="fill:none;stroke:#000000;stroke-linecap:square;stroke-linejoin:miter;stroke-width:0.8;"/>
   </g>
  </g>
 </g>
 <defs>
  <clipPath id="pddcd702f7f">
   <rect height="224.32" width="298.78" x="43.78125" y="17.798437"/>
  </clipPath>
  <clipPath id="p8d92e0a17c">
   <rect height="224.32" width="298.78" x="406.39125" y="17.798437"/>
  </clipPath>
 </defs>
</svg>
